<svg width="125" height="80" viewBox="0 0 125 80" fill="none" xmlns="http://www.w3.org/2000/svg">
<path d="M110.431 78.3838C106.799 78.3838 97.0542 70.6018 91.9711 65.1007C91.9711 65.1007 84.1858 69.2868 53.0448 73.151C14.1185 77.9812 1.30144 59.2402 0.07324 40.1444C-1.53188 15.1882 23.5122 3.70934 49.032 0.697916C69.4982 -1.71718 88.7607 1.90507 110.431 15.1882C127.767 25.8147 116.584 49.4024 108.826 59.8679C108.826 59.8679 113.24 78.3838 110.431 78.3838Z" fill="#FEE3D9"/>
<path d="M65.4042 20.3887C59.2066 14.9895 49.9101 18.5889 46.5296 25.4879C44.2759 29.9873 50.7552 34.1866 53.0089 29.6873C53.8541 27.5876 55.826 25.7879 58.0797 26.0878C61.4603 26.3878 60.8968 29.0874 60.0517 31.787C58.6432 36.8862 56.6712 41.6855 56.3895 47.0847C56.3895 52.184 63.9957 52.184 63.9957 47.0847C64.5591 38.686 73.2922 27.2877 65.4042 20.3887Z" fill="#FBB49C"/>
<path d="M64.3391 54.185C64.0688 54.185 63.7985 54.185 63.7985 54.185C62.1768 53.902 60.2848 55.0342 59.474 56.4494C58.3929 58.4307 59.2037 61.2612 61.0957 62.3934C62.4471 63.2425 64.3391 63.2425 65.6905 62.3934C67.0419 61.5442 67.8527 59.846 67.8527 57.8646C68.123 56.1663 66.2311 54.185 64.3391 54.185Z" fill="#FBB49C"/>
<path d="M62.6746 62.2222C61.8795 62.2222 61.0843 61.9552 60.5542 61.6883C58.9639 60.8874 57.3735 59.0186 57.3735 57.1499C57.3735 56.082 58.1687 55.2811 59.2289 55.2811C60.2891 55.2811 61.0843 56.082 61.0843 57.1499C61.0843 57.4168 61.6144 58.2177 62.1445 58.2177C62.6746 58.4847 63.4698 58.4847 63.9999 57.9508C64.53 57.4169 64.53 56.616 63.9999 56.082C63.7348 55.5481 62.9397 55.2811 62.1445 55.5481C61.0843 56.082 60.0241 55.5481 59.759 54.4802C59.2289 53.4124 59.759 52.3445 60.8192 52.0776C62.9397 51.2767 65.5902 51.8106 66.9155 53.6793C68.2408 55.5481 68.2408 58.2177 66.6504 60.0865C65.5902 61.4213 63.9999 62.2222 62.6746 62.2222Z" fill="#030000"/>
<path d="M58.7166 50.909C57.8966 50.909 57.0766 50.3391 56.8033 49.4841C55.71 45.4941 55.9833 40.9342 57.8966 37.2293C58.4432 36.0893 59.2632 34.9493 59.8099 33.8093C60.3565 32.9543 60.9032 32.0993 61.4498 31.2444C62.5432 29.2494 62.5431 27.5394 62.2698 26.1144C61.7232 24.4045 59.2632 23.5495 57.6233 24.1195C55.71 24.6895 54.3433 26.9694 54.07 29.2494C54.07 29.8194 53.5234 30.3894 52.9767 30.6744C52.43 30.9594 51.6101 30.9594 51.0634 30.6744C49.6968 29.8194 48.0568 29.2494 46.4169 28.6794C45.5969 28.3944 45.0502 27.2544 45.3235 26.3994C46.6902 20.9845 49.1501 17.5646 52.7034 15.8546C57.0766 13.8596 61.9965 14.1446 66.0964 16.7096C70.1963 19.2746 72.3829 24.4045 71.8363 29.2494C71.5629 32.0993 70.4696 34.3793 69.3763 36.6593L67.463 40.6492C66.9164 41.5042 65.8231 42.0742 65.0031 41.5042C64.1831 40.9342 63.6365 39.7942 64.1831 38.9392L66.0964 34.9493C67.1897 32.9543 68.0097 30.9594 68.283 28.6794C68.5563 25.2595 66.9164 21.8395 64.1831 19.8445C61.4498 18.1346 57.6233 17.8496 54.6167 19.2746C52.4301 20.4145 50.7901 22.4095 49.6968 25.5444C50.2434 25.8294 50.5168 25.8294 51.0634 26.1144C52.1567 23.5495 54.07 21.2695 56.5299 20.4145C60.3565 18.9896 64.7298 20.9845 66.0964 24.4045C67.1897 26.9694 66.9164 29.8194 65.2764 32.9543C64.7298 34.0943 64.1831 34.9493 63.3631 36.0893C62.8165 37.2293 61.9965 38.0842 61.7232 38.9392C60.6299 41.2192 60.0832 44.0692 60.6299 46.6341C61.4498 46.6341 62.2698 46.6341 63.0898 46.6341C63.0898 45.7791 63.0898 44.6391 63.3631 43.4992C63.6365 42.3592 64.7298 41.7892 65.5498 42.0742C66.6431 42.3592 67.1897 43.4992 66.9164 44.3541C66.6431 45.4941 66.6431 46.6341 66.9164 47.4891C67.1897 48.0591 66.9164 48.6291 66.9164 48.9141C66.9164 49.1991 66.3697 49.7691 65.8231 49.7691C63.3631 50.3391 61.1765 49.7691 59.5366 50.3391C59.2632 50.909 58.9899 50.909 58.7166 50.909Z" fill="#030000"/>
<path d="M16.3384 67.0707C16.0573 67.0707 15.4951 67.0707 15.214 66.789C9.3106 63.1273 5.0939 56.3671 2.56389 47.0718C0.877213 39.7482 0.877205 28.4812 7.3428 21.1577C13.5273 13.8341 24.4907 9.60901 30.394 7.63729C48.1041 0.877086 62.1598 0.595412 77.3399 0.877087C84.6488 0.877087 94.4877 1.72211 103.483 5.38388C111.636 8.76399 121.756 19.4676 123.723 29.6079C125.972 42.0016 122.88 52.7053 115.571 58.6205C114.728 59.1838 113.603 59.1838 112.76 58.3388C112.198 57.4938 112.198 56.3671 113.041 55.522C119.226 50.4519 122.037 41.1566 119.788 30.1713C118.101 21.1577 109.106 11.8624 102.078 8.76399C93.6444 5.38389 84.6488 4.82054 77.621 4.53886C62.722 4.25719 48.9475 4.53886 32.0807 11.0174C26.4585 13.2708 16.0573 17.2142 10.435 23.6928C4.81279 30.1713 4.81279 39.7482 6.49946 46.2268C8.74836 54.677 12.4028 60.5922 17.4629 63.6906C18.3062 64.254 18.5873 65.3807 18.0251 66.5074C17.4629 66.5074 16.9006 67.0707 16.3384 67.0707Z" fill="#030000"/>
<path d="M113.829 80C112.703 80 111.577 79.7202 109.887 78.321L105.382 74.6832C102.002 72.1647 98.6234 69.3664 95.2442 66.848C93.2731 67.4076 91.3019 67.9673 89.6124 68.5269C79.7566 71.3252 69.6192 74.1236 58.9187 74.963C44.5574 76.3622 31.6041 74.963 20.622 70.4858C19.4956 70.2059 19.214 68.8068 19.4956 67.9673C19.7772 66.848 21.1852 66.5681 22.0299 66.848C32.1673 71.0454 44.5574 72.4446 58.3555 71.0454C68.4929 69.9261 78.6302 67.4076 88.2044 64.6093C90.4571 64.0497 92.7099 63.49 94.9626 62.6505C95.5258 62.3707 96.089 62.6505 96.6522 62.9303C100.313 65.7286 103.974 68.5269 107.634 71.3252L112.14 74.963L112.421 75.2429C112.14 70.7656 111.858 66.5681 111.013 62.0908C110.732 60.9715 111.577 60.132 112.703 59.8522C113.829 59.5724 114.674 60.4119 114.956 61.5312C115.801 66.848 116.364 72.1647 116.364 77.4815C116.364 78.0412 116.082 78.8807 115.519 79.1605C115.237 79.7202 114.674 80 113.829 80Z" fill="#030000"/>
</svg>
