<svg width="88" height="88" viewBox="0 0 88 88" fill="none" xmlns="http://www.w3.org/2000/svg">
<path d="M0 7C0 3.13401 3.13401 0 7 0H81C84.866 0 88 3.13401 88 7V81C88 84.866 84.866 88 81 88H7C3.13401 88 0 84.866 0 81V7Z" fill="white"/>
<path d="M39.787 0.0183288C39.787 0.0183288 26.7101 1.68173 26.4286 20.8749C26.1471 40.068 10.5879 45.0582 10.0249 57.8536C9.46187 70.6491 18.3675 89.5607 45.9032 87.8973C73.439 86.2339 77.6103 63.714 76.7658 50.9185C75.9213 38.1231 63.4074 33.6703 60.6436 22.8198C57.8798 11.9693 59.2617 -0.54467 39.787 0.0183288Z" fill="#FDDB70"/>
<path d="M29.3204 80.9878C29.1669 80.9878 29.0133 80.911 28.9109 80.8087C23.3321 73.848 19.5703 67.9365 18.1628 60.0289C17.651 57.2139 17.9325 52.5052 18.4955 49.8693C19.2632 46.3122 21.4384 42.8574 25.1747 39.3003C27.7594 36.818 30.1649 34.3357 31.2141 31.1112C32.6728 26.6328 29.218 16.8571 26.2751 11.7901C26.1215 11.5342 26.2239 11.2271 26.4542 11.0992C26.7101 10.9456 27.0172 11.048 27.1452 11.2783C30.2673 16.6268 33.7476 26.6073 32.161 31.4183C31.035 34.8731 28.5271 37.4578 25.84 40.0424C22.2573 43.4716 20.1845 46.7472 19.4679 50.0996C18.9305 52.6331 18.649 57.1627 19.1352 59.8498C20.4916 67.5526 24.1766 73.3361 29.6787 80.1689C29.8578 80.3992 29.8322 80.7063 29.6019 80.8854C29.5507 80.9366 29.4484 80.9878 29.3204 80.9878Z" fill="#030000"/>
<path d="M63.8681 79.9642C63.7913 79.9642 63.6889 79.9386 63.6122 79.8874C63.3563 79.7595 63.2795 79.4268 63.4074 79.1965C67.8347 71.2121 68.8839 61.2317 66.1969 52.5052C65.1988 49.2808 63.7401 46.1843 62.307 43.1902C61.3602 41.1685 60.3621 39.0956 59.5176 36.9972C56.9074 30.4459 56.4211 24.7647 58.1101 20.1072C58.2125 19.8513 58.494 19.6978 58.7755 19.8001C59.0314 19.9025 59.185 20.184 59.0826 20.4655C57.4704 24.8671 57.9566 30.318 60.4645 36.6133C61.2834 38.6862 62.2815 40.759 63.2283 42.7551C64.6614 45.8004 66.1713 48.9225 67.1693 52.2237C69.9331 61.2061 68.8583 71.4936 64.2775 79.7083C64.2008 79.8618 64.0472 79.9642 63.8681 79.9642Z" fill="#030000"/>
<path d="M47.6691 79.6315C47.3876 79.6315 47.1572 79.4012 47.1572 79.1197C47.1572 72.0311 45.9801 66.4011 43.6257 61.8715C43.5489 61.7179 43.4466 61.5644 43.3442 61.4108C42.9859 61.4108 42.6021 61.3597 42.2438 61.3085C40.7595 61.027 40.4269 60.2593 40.3501 59.9266C40.2477 59.5171 40.4013 59.0821 40.7339 58.8262C41.041 58.5959 41.3737 58.5447 41.7576 58.6214C42.5253 58.8006 43.3186 59.6451 43.856 60.3616C45.6986 60.2081 47.6179 59.21 48.8207 58.1608C49.0254 57.9817 49.3581 57.9817 49.5372 58.212C49.7163 58.4167 49.7163 58.7494 49.486 58.9285C48.2321 60.0289 46.3895 61.027 44.4958 61.3341C44.5214 61.3597 44.5214 61.3853 44.547 61.4108C47.0037 66.0684 48.1809 71.8775 48.2065 79.1453C48.1809 79.4012 47.9506 79.6315 47.6691 79.6315ZM41.3481 59.6195C41.3481 59.6195 41.3481 59.6451 41.3481 59.6707C41.3737 59.8242 41.6552 60.1313 42.4485 60.2849C42.1158 59.9266 41.7832 59.6707 41.5017 59.5939C41.4249 59.5939 41.3737 59.6195 41.3481 59.6195Z" fill="#030000"/>
<path d="M46.0312 42.5248C45.7241 42.5248 45.4427 42.5248 45.1356 42.5248C38.9426 42.3456 32.8264 40.3751 27.5802 38.5326C27.3243 38.4302 27.1708 38.1487 27.2732 37.8928C27.3755 37.6369 27.657 37.4833 27.9129 37.5857C33.3382 39.4794 39.1217 41.3476 45.1612 41.5011C49.7419 41.6291 54.3739 40.7334 58.5708 38.942C58.8267 38.8397 59.1338 38.942 59.2361 39.2235C59.3385 39.4794 59.2361 39.7865 58.9546 39.8889C54.9113 41.6035 50.4329 42.5248 46.0312 42.5248Z" fill="#030000"/>
<path d="M46.8246 25.0718C41.7576 25.0718 36.7162 24.5344 31.7515 23.4851C31.47 23.434 31.2909 23.1525 31.3677 22.871C31.4189 22.5895 31.7004 22.4103 31.9819 22.4871C39.9406 24.1761 48.0529 24.5088 56.1396 23.4596C56.4211 23.434 56.677 23.6131 56.7026 23.8946C56.7282 24.1761 56.5491 24.432 56.2676 24.4576C53.0943 24.867 49.9466 25.0718 46.8246 25.0718Z" fill="#030000"/>
<path d="M48.2064 7.61882C47.3619 7.61882 46.4663 7.38851 45.6218 6.95347C44.5725 6.41606 43.7025 5.64833 42.7044 4.67588C42.0135 3.98492 41.2201 3.19161 40.7339 2.16797C40.606 1.91207 40.7083 1.60498 40.9642 1.47702C41.2201 1.34907 41.5272 1.45143 41.6552 1.70734C42.0902 2.57743 42.7812 3.29397 43.421 3.93374C44.3422 4.82942 45.1355 5.54597 46.0824 6.03219C47.1316 6.5696 48.232 6.72315 49.1533 6.44165C50.1514 6.16015 50.9191 5.29006 50.9958 4.36879C51.0214 4.08729 51.2518 3.88256 51.5333 3.90815C51.8148 3.93374 52.0195 4.16406 51.9939 4.44556C51.8915 5.77629 50.8423 7.00464 49.4348 7.4141C49.0254 7.54205 48.6159 7.61882 48.2064 7.61882Z" fill="#030000"/>
</svg>
