<svg width="88" height="88" viewBox="0 0 88 88" fill="none" xmlns="http://www.w3.org/2000/svg">
<path d="M0 7C0 3.13401 3.13401 0 7 0H81C84.866 0 88 3.13401 88 7V81C88 84.866 84.866 88 81 88H7C3.13401 88 0 84.866 0 81V7Z" fill="white"/>
<path d="M23 0V84.6041L63.1888 84.1644L64.9478 0.439756L23 0Z" fill="#A0DFDA"/>
<path d="M33.3587 85.6058C33.1389 85.6058 32.9434 85.4592 32.8945 85.2637C29.3276 73.3171 25.2721 59.7823 27.6664 46.5164C28.2771 43.1449 29.3032 39.8223 30.2805 36.5974C31.5509 32.5175 32.8457 28.2665 33.261 23.9667C33.8962 17.3459 32.5525 10.6763 29.4742 5.17935C29.3521 4.93504 29.4254 4.64187 29.6697 4.51971C29.914 4.39756 30.2072 4.47085 30.3293 4.71516C33.5053 10.3831 34.8979 17.2726 34.2382 24.0888C33.7985 28.4864 32.4792 32.7618 31.2088 36.915C30.2316 40.0911 29.2055 43.3892 28.6191 46.7118C26.2738 59.6846 30.2805 73.1216 33.8229 84.9706C33.8962 85.2393 33.7496 85.5081 33.5053 85.5813C33.4565 85.5813 33.4076 85.6058 33.3587 85.6058Z" fill="#030000"/>
<path d="M53.5142 88C53.4654 88 53.3921 88 53.3432 87.9755C53.0989 87.8778 52.9768 87.6091 53.0501 87.3403C60.135 68.7973 60.4038 58.6341 59.8663 51.8667C59.4754 47.2004 58.4249 42.5097 57.4232 37.99C56.6414 34.4964 55.8352 30.905 55.3221 27.2893C54.3205 20.2043 54.3693 10.2365 60.1839 3.05384C60.3549 2.83396 60.6725 2.80953 60.8679 2.98055C61.0878 3.15156 61.1123 3.46916 60.9412 3.66461C55.3466 10.5785 55.3221 20.2287 56.2994 27.1427C56.788 30.7096 57.6186 34.3009 58.4004 37.7701C59.4265 42.3142 60.477 47.0294 60.8679 51.769C61.9185 64.8639 57.7652 77.8367 54.0029 87.6824C53.9051 87.8778 53.7097 88 53.5142 88Z" fill="#030000"/>
<path d="M47.8707 87.4869C47.6264 87.4869 47.4065 87.2915 47.382 87.0227C46.698 77.226 45.6474 67.2582 44.6213 57.6324C44.4015 55.6779 44.206 53.699 43.9862 51.7446C41.6896 62.1032 40.0772 72.6574 39.1733 83.1871C39.1488 83.4558 38.9045 83.6513 38.6358 83.6268C38.367 83.6024 38.1716 83.3581 38.196 83.0894C39.1733 71.5336 41.0056 59.9533 43.6686 48.6418C43.7174 48.422 43.9373 48.2509 44.1816 48.2754C44.4259 48.2998 44.6214 48.4708 44.6458 48.7151C44.939 51.6468 45.2566 54.603 45.5742 57.5347C46.6003 67.1849 47.6508 77.1282 48.3348 86.9494C48.3593 87.2182 48.1394 87.4625 47.8707 87.4625C47.8951 87.4869 47.8707 87.4869 47.8707 87.4869Z" fill="#030000"/>
<path d="M50.8024 10.432C49.8985 10.432 48.9945 10.2854 48.1639 9.96778C47.9195 9.87005 47.773 9.60131 47.8707 9.33257C47.9684 9.08826 48.2372 8.94168 48.5059 9.0394C50.5337 9.77233 52.9034 9.47916 54.6869 8.28205C54.9068 8.13546 55.2244 8.18432 55.371 8.4042C55.5175 8.62408 55.4687 8.94168 55.2488 9.08826C53.9295 9.99221 52.366 10.432 50.8024 10.432Z" fill="#030000"/>
<path d="M36.8279 11.3847C33.7252 11.3847 30.6224 10.041 28.5947 7.67125C27.7885 6.71845 27.422 5.83894 27.4709 4.98386C27.4953 4.64182 27.593 4.34865 27.7885 4.12877C28.1305 3.73788 28.7413 3.59129 29.2787 3.78674C29.7429 3.95776 30.0605 4.32422 30.2804 4.59296C30.4514 4.81284 30.4026 5.10601 30.1827 5.27702C29.9628 5.44804 29.6696 5.39918 29.4986 5.1793C29.2787 4.91056 29.1077 4.76397 28.9367 4.69068C28.7901 4.64182 28.5947 4.66625 28.5458 4.73955C28.5214 4.76398 28.4725 4.83727 28.4725 5.03272C28.4237 5.61906 28.7168 6.27869 29.352 7.01161C31.7707 9.8456 35.9484 11.0671 39.4908 9.99218C39.7596 9.91889 40.0283 10.0655 40.1016 10.3098C40.1749 10.5785 40.0283 10.8473 39.784 10.9206C38.8068 11.2382 37.8051 11.3847 36.8279 11.3847Z" fill="#030000"/>
<path d="M45.11 31.8823C41.3965 31.8823 37.7074 31.6136 34.0184 31.0517C33.7496 31.0028 33.5786 30.7585 33.603 30.4898C33.6519 30.221 33.8962 30.05 34.1649 30.0744C41.2987 31.1494 48.5303 31.1738 55.6641 30.1233C55.9328 30.0744 56.1771 30.2699 56.226 30.5386C56.2749 30.8074 56.0794 31.0517 55.8107 31.1005C52.2438 31.6136 48.6769 31.8823 45.11 31.8823Z" fill="#030000"/>
<path d="M39.0266 58.854C35.1177 58.854 31.2088 58.1699 27.5441 56.8751C27.2998 56.7774 27.1532 56.5086 27.2509 56.2399C27.3487 55.9956 27.6174 55.849 27.8861 55.9467C32.1615 57.4859 36.8278 58.0966 41.372 57.779C41.6407 57.7546 41.885 57.9745 41.885 58.2432C41.9095 58.512 41.714 58.7563 41.4209 58.7563C40.6146 58.8296 39.8084 58.854 39.0266 58.854Z" fill="#030000"/>
<path d="M46.1605 58.8295C45.9162 58.8295 45.6963 58.6341 45.6719 58.3653C45.6475 58.0966 45.8673 57.8523 46.1361 57.8523C50.8024 57.5591 55.4931 56.9239 60.0617 55.9711C60.3304 55.9222 60.5747 56.0932 60.648 56.3376C60.6969 56.6063 60.5259 56.8506 60.2816 56.9239C55.6641 57.9011 50.9245 58.5363 46.2094 58.8295C46.1849 58.8295 46.1849 58.8295 46.1605 58.8295Z" fill="#030000"/>
<path d="M42.2516 26.4342C39.442 26.4342 36.6325 26.3121 33.8229 26.0922C33.5542 26.0677 33.3587 25.8234 33.3832 25.5547C33.4076 25.286 33.6519 25.0905 33.9206 25.1149C40.8346 25.6768 47.8218 25.5303 54.6625 24.6996C54.9312 24.6752 55.1755 24.8462 55.1999 25.1149C55.2244 25.3837 55.0534 25.628 54.7846 25.6524C50.6314 26.1655 46.4293 26.4342 42.2516 26.4342Z" fill="#030000"/>
</svg>
