<svg width="88" height="88" viewBox="0 0 88 88" fill="none" xmlns="http://www.w3.org/2000/svg">
<path d="M0 7C0 3.13401 3.13401 0 7 0H81C84.866 0 88 3.13401 88 7V81C88 84.866 84.866 88 81 88H7C3.13401 88 0 84.866 0 81V7Z" fill="white"/>
<path d="M0 7C0 3.13401 3.13401 0 7 0H81C84.866 0 88 3.13401 88 7V81C88 84.866 84.866 88 81 88H7C3.13401 88 0 84.866 0 81V7Z" fill="white"/>
<path d="M13.0174 8.57835C13.0174 8.57835 24.473 27.9351 27.1067 32.0264C27.1067 32.0264 28.6665 34.9414 28.6665 36.2199C28.6665 37.1149 27.6948 39.2884 26.5697 41.2317C24.4218 44.9395 12.1992 74.013 10.6905 77.4906C9.18186 80.9681 9.59099 85.4174 17.6457 85.6987C25.7003 85.9799 64.8742 85.085 70.4485 85.0083C73.1846 84.9827 74.1307 82.9626 73.4147 80.738C72.443 77.823 71.5481 74.8313 69.9883 70.7144C66.8942 62.6342 56.9985 40.2601 56.436 38.7258C56.257 38.2144 55.899 37.2172 57.2542 35.6574C59.1976 33.4072 66.0249 21.338 72.2129 12.0815C75.1279 7.70895 77.6594 3.08071 76.4065 1.39306C75.2047 -0.269015 71.9061 -0.038879 57.1775 0.088973C36.2098 0.267966 26.2885 0.191252 19.9981 0.498097C17.0064 0.65152 13.8101 0.702661 12.4804 1.46977C10.3837 2.67158 10.9974 5.61218 13.0174 8.57835Z" fill="#FBB49B"/>
<path d="M35.7494 26.3753C34.88 26.3753 33.9851 26.1963 33.1668 25.8639C30.7376 24.8411 28.9221 22.3352 28.513 19.4969C28.155 16.9654 28.8454 14.2549 30.4308 11.8257C30.5842 11.5956 30.891 11.5189 31.1467 11.6723C31.3769 11.8257 31.4536 12.1326 31.3002 12.3883C29.8427 14.6129 29.229 17.0932 29.5358 19.369C29.8938 21.8493 31.4792 24.0484 33.5759 24.9434C35.8006 25.8895 38.5877 25.2246 39.9174 23.4347C40.0964 23.2046 40.4032 23.1534 40.6334 23.3324C40.8635 23.5114 40.9146 23.8183 40.7356 24.0484C39.6105 25.5315 37.6928 26.3753 35.7494 26.3753Z" fill="#030000"/>
<path d="M31.786 85.5708C31.607 85.5708 31.4536 85.4941 31.3513 85.3407C27.1322 78.7946 24.0893 71.6349 22.3506 64.0405C21.0976 58.6452 20.8163 54.0425 21.43 49.9768C22.2227 44.8371 24.5496 40.439 28.0016 37.5496C28.7176 36.9615 29.4847 36.4245 30.2262 35.8875C31.2746 35.146 32.2719 34.4556 33.1157 33.6117C34.4198 32.3332 35.6216 30.2364 35.0335 28.2675C34.9568 27.9862 35.1102 27.705 35.3915 27.6283C35.6727 27.5515 35.954 27.705 36.0307 27.9863C36.7211 30.3899 35.3659 32.8446 33.8317 34.3277C32.9111 35.2482 31.8372 35.9898 30.7888 36.7058C30.0728 37.2172 29.3057 37.7286 28.6409 38.3167C25.3934 41.0272 23.1944 45.2207 22.4273 50.1046C21.8136 54.0425 22.1204 58.5173 23.3222 63.7848C25.061 71.2514 28.0272 78.3088 32.1952 84.7525C32.3486 84.9827 32.2719 85.3151 32.0417 85.4685C31.965 85.5452 31.8883 85.5708 31.786 85.5708Z" fill="#030000"/>
<path d="M41.426 56.2927C41.2982 56.2927 41.1447 56.2416 41.068 56.1393C39.7384 54.7329 38.4343 53.301 37.1813 51.869C37.0024 51.6645 37.0279 51.332 37.2325 51.1531C37.437 50.9741 37.7695 50.9996 37.9485 51.2042C39.0991 52.5339 40.3009 53.8635 41.5283 55.1676C43.3182 54.1704 45.2104 53.4033 47.1794 52.8663C47.4606 52.7896 47.7419 52.943 47.8186 53.2243C47.8953 53.5055 47.7419 53.7868 47.4606 53.8635C45.4661 54.4005 43.5228 55.2187 41.7073 56.2671C41.605 56.2671 41.5027 56.2927 41.426 56.2927Z" fill="#030000"/>
<path d="M42.1932 86.389C41.9375 86.389 41.7073 86.21 41.6818 85.9288C40.2498 74.2431 39.9941 64.3729 40.8891 55.7301C40.9147 55.4489 41.1704 55.2443 41.4516 55.2699C41.7329 55.2954 41.9375 55.5511 41.9119 55.8324C41.017 64.3985 41.2727 74.192 42.679 85.8009C42.7046 86.0822 42.5256 86.3379 42.2443 86.3635C42.2443 86.389 42.2188 86.389 42.1932 86.389Z" fill="#030000"/>
<path d="M50.1456 88C50.0433 88 49.941 87.9744 49.8643 87.8977C49.6342 87.7443 49.5831 87.4119 49.7365 87.1817C53.4442 81.9142 55.72 75.8285 57.2798 71.0979C59.7345 63.6825 62.0614 54.0936 58.277 45.9367C57.8679 45.0417 57.3565 44.1468 56.8706 43.2774C56.0012 41.7431 55.1318 40.1322 54.6204 38.3934C53.8533 35.6829 54.0067 32.4866 55.1318 29.1625C55.4898 28.1141 55.8734 27.0657 56.3336 26.0429C54.7994 26.4265 53.0606 26.4265 51.3219 26.0685C49.3785 25.6594 47.6653 24.8155 46.6936 23.8183C46.489 23.6137 46.5146 23.2813 46.7192 23.1023C46.9237 22.8978 47.2562 22.9233 47.4351 23.1279C48.9438 24.7133 53.3163 26.1196 56.8962 24.8155C57.561 23.4603 58.3026 22.1562 59.1464 20.9033C60.2715 19.2156 61.3199 18.3718 62.3171 18.3462C62.7518 18.3206 63.3911 18.4741 63.9792 19.2668C64.2605 19.6247 64.3372 20.0594 64.2093 20.5197C63.6979 22.5909 58.7628 25.0968 57.6377 25.6338C57.0496 26.8867 56.5126 28.1908 56.0779 29.5205C55.0296 32.6401 54.8761 35.6318 55.5921 38.1377C56.0524 39.7742 56.8706 41.2573 57.74 42.8171C58.2259 43.6865 58.7373 44.607 59.172 45.5275C63.1098 54.0425 60.7317 63.836 58.2258 71.4559C56.6405 76.2376 54.3392 82.4256 50.5547 87.7954C50.478 87.9233 50.3246 88 50.1456 88ZM62.3683 19.369H62.3427C61.9847 19.369 61.2176 19.6759 60.0158 21.4658C59.4532 22.3096 58.9418 23.179 58.456 24.0484C60.5528 22.9233 62.982 21.3124 63.2377 20.2384C63.2888 20.085 63.2632 19.9572 63.1609 19.8549C62.803 19.3946 62.4961 19.369 62.3683 19.369Z" fill="#030000"/>
<path d="M47.3073 43.6609C41.2727 43.6609 35.2381 41.7176 30.4564 38.0354C30.2263 37.8564 30.2007 37.5496 30.3542 37.3195C30.5331 37.0893 30.84 37.0638 31.0701 37.2172C37.6161 42.229 46.5914 43.9166 54.5182 41.6153C54.7995 41.5386 55.0807 41.692 55.1574 41.9733C55.2342 42.2546 55.0807 42.5358 54.7994 42.6125C52.3703 43.3285 49.8388 43.6609 47.3073 43.6609Z" fill="#030000"/>
<path d="M46.9238 13.3089C44.5713 13.3089 42.3979 12.3628 41.1705 10.6495C39.6107 8.50163 39.7385 5.74003 40.1221 3.79668C40.1732 3.51541 40.4545 3.33641 40.7102 3.38755C40.9915 3.43869 41.1705 3.71997 41.1193 3.97567C40.7869 5.71446 40.6591 8.19479 41.9887 10.0359C43.165 11.6468 45.9266 12.9253 49.1996 11.9281C51.9612 11.0842 54.237 8.9619 55.899 7.17197C56.9218 6.07245 57.9191 4.94735 58.8396 3.77111C59.0186 3.54098 59.3255 3.5154 59.5556 3.6944C59.7857 3.87339 59.8113 4.18024 59.6323 4.41037C58.6862 5.61218 57.689 6.76285 56.6406 7.88795C54.8762 9.75458 52.4982 12.0048 49.4809 12.9253C48.637 13.181 47.7676 13.3089 46.9238 13.3089Z" fill="#030000"/>
<path d="M46.4379 34.9159C42.3978 34.9159 38.3577 34.2511 34.4965 32.9725C34.2408 32.8703 34.0874 32.589 34.1641 32.3333C34.2664 32.0776 34.5477 31.9242 34.8034 32.0009C40.5823 33.9442 46.8214 34.4045 52.8305 33.3305C53.1118 33.2794 53.3675 33.4584 53.4186 33.7397C53.4698 34.0209 53.2908 34.2766 53.0095 34.3278C50.8616 34.7113 48.6369 34.9159 46.4379 34.9159Z" fill="#030000"/>
</svg>
