<svg width="88" height="88" viewBox="0 0 88 88" fill="none" xmlns="http://www.w3.org/2000/svg">
<path d="M0 7C0 3.13401 3.13401 0 7 0H81C84.866 0 88 3.13401 88 7V81C88 84.866 84.866 88 81 88H7C3.13401 88 0 84.866 0 81V7Z" fill="white"/>
<path d="M86.9 40.6C86.4 53.7 82.7 64.4 70.1 77C63.1 84 49.9 79.3 49.9 79.3C49.9 79.3 35.6 87.4 27.9 82.7C15.9 75.3 4.99998 62 2.19999 48.6C-0.900015 33.8 1.59999 17.3 12.6 11.9C36.8 -0.100003 39 16.5 43.7 16.3C49.6 16.1 51.3 4 68.2 5.6C85.4 7.2 87.5 25.6 86.9 40.6Z" fill="#A0CFE8"/>
<path d="M25.5 19.4C24 21.3 23.6 24 24.5 26.3C25.4 28.6 27.5 30.3 29.8 30.8C29.7 30.8 29.7 30.8 29.6 30.8" stroke="#030000" stroke-miterlimit="10" stroke-linecap="round" stroke-linejoin="round"/>
<path d="M28.1 32.3C23.4 49.3 26.1 68.2 35.4 83.2" stroke="#030000" stroke-miterlimit="10" stroke-linecap="round" stroke-linejoin="round"/>
<path d="M46.1 10.9C52.9 11.5 58.7 15.9 62.2 22C65.8 28.4 66.1 39.8 63.4 45.1" stroke="#030000" stroke-miterlimit="10" stroke-linecap="round" stroke-linejoin="round"/>
<path d="M51.2 22.8C53.7 26.1 55.4 30 56.2 34" stroke="#030000" stroke-miterlimit="10" stroke-linecap="round" stroke-linejoin="round"/>
<path d="M57.2 36.8C61.1 41.6 62.2 48.1 62.3 54.3C62.5 64.7 60.6 75.2 56.5 84.8" stroke="#030000" stroke-miterlimit="10" stroke-linecap="round" stroke-linejoin="round"/>
<path d="M45 55.1C47.7 59.5 49 64.6 49.6 69.7C50.1 74.8 49.9 80 49.7 85.1" stroke="#030000" stroke-miterlimit="10" stroke-linecap="round" stroke-linejoin="round"/>
<path d="M28.4 41.5C37.9 41.4 48.2 40 57.2 36.8" stroke="#030000" stroke-miterlimit="10" stroke-linecap="round" stroke-linejoin="round"/>
<path d="M35.4 21.5C39 18.5 44.7 18.1 48.7 20.6" stroke="#030000" stroke-miterlimit="10" stroke-linecap="round" stroke-linejoin="round"/>
<path d="M37 29.6C38.9 30.3 41 30.6 43 30.5C47.1 30.3 51.4 28.2 53 24.4C53.2 23.9 53.4 23.4 53.3 22.9C53.2 22.4 52.9 21.9 52.4 21.7C51.9 21.5 51.3 21.8 51.2 22.4" stroke="#030000" stroke-miterlimit="10" stroke-linecap="round" stroke-linejoin="round"/>
<path d="M35.3 10.2C28.1 11.5 22.6 17.4 18.9 23.8C15.2 30.2 13 37.2 9 43.4" stroke="#030000" stroke-miterlimit="10" stroke-linecap="round" stroke-linejoin="round"/>
<path d="M24.9 34.9C21.1 41.4 16.1 47.1 10.2 51.7" stroke="#030000" stroke-miterlimit="10" stroke-linecap="round" stroke-linejoin="round"/>
<path d="M30.3 20.1C32 20 33.8001 20.5 35.2001 21.4" stroke="#030000" stroke-miterlimit="10" stroke-linecap="round" stroke-linejoin="round"/>
<path d="M38.9 53.7C41 53.7 43.2 54.2 45 55.1" stroke="#030000" stroke-miterlimit="10" stroke-linecap="round" stroke-linejoin="round"/>
</svg>
