<svg width="359" height="318" viewBox="0 0 359 318" fill="none" xmlns="http://www.w3.org/2000/svg">
<path d="M330.043 142.419C329.133 140.827 327.464 141.13 326.099 141.813C321.776 135.82 312.067 138.096 306.226 140.523C302.965 141.889 299.551 143.633 297.352 146.44C294.924 149.55 294.924 153.418 295.076 157.21C293.862 158.348 293.559 160.396 294.773 161.686C295.835 162.823 297.503 162.823 298.717 162.065C303.495 167.45 311.46 167.906 317.756 164.871C321.245 163.203 324.43 160.624 326.63 157.362C327.692 155.845 328.526 154.101 328.906 152.28C329.285 150.384 328.982 148.791 328.678 146.895C328.451 145.529 329.437 145.454 330.043 144.543C330.423 143.937 330.423 143.102 330.043 142.419Z" fill="#F3C015"/>
<path d="M301.447 154.556C301.144 154.556 300.917 154.783 300.917 155.087V155.238C300.917 155.542 301.144 155.769 301.447 155.769C301.751 155.769 301.978 155.542 301.978 155.238V155.087C301.978 154.783 301.675 154.556 301.447 154.556Z" fill="#030000"/>
<path d="M303.42 160.624C303.116 160.624 302.889 160.851 302.889 161.155V161.306C302.889 161.61 303.116 161.837 303.42 161.837C303.723 161.837 303.951 161.61 303.951 161.306V161.155C303.875 160.851 303.647 160.548 303.42 160.624Z" fill="#030000"/>
<path d="M313.508 161.155C312.825 161.155 312.825 162.141 313.508 162.141C314.191 162.141 314.191 161.155 313.508 161.155Z" fill="#030000"/>
<path d="M308.578 158.424C307.895 158.424 307.895 159.41 308.578 159.41C309.26 159.41 309.184 158.424 308.578 158.424Z" fill="#030000"/>
<path d="M306.605 145.984C305.923 145.984 305.923 146.971 306.605 146.971C307.288 147.046 307.288 145.984 306.605 145.984Z" fill="#030000"/>
<path d="M314.646 148.108C313.963 148.108 313.963 149.094 314.646 149.094C315.252 149.17 315.252 148.108 314.646 148.108Z" fill="#030000"/>
<path d="M310.474 152.432C309.791 152.432 309.791 153.418 310.474 153.418C311.156 153.418 311.156 152.432 310.474 152.432Z" fill="#030000"/>
<path d="M300.158 148.639C299.855 148.639 299.627 148.867 299.627 149.17V149.322C299.627 149.625 299.855 149.853 300.158 149.853C300.461 149.853 300.689 149.625 300.689 149.322V149.17C300.689 148.867 300.461 148.639 300.158 148.639Z" fill="#030000"/>
<path d="M313.735 141.509C313.053 141.509 313.053 142.495 313.735 142.495C314.342 142.571 314.342 141.509 313.735 141.509Z" fill="#030000"/>
<path d="M324.203 143.102C323.52 143.102 323.52 144.088 324.203 144.088C324.886 144.164 324.886 143.102 324.203 143.102Z" fill="#030000"/>
<path d="M322.231 150.611C321.548 150.611 321.548 151.598 322.231 151.598C322.913 151.673 322.913 150.611 322.231 150.611Z" fill="#030000"/>
<path d="M317.831 155.238C317.149 155.238 317.149 156.224 317.831 156.224C318.514 156.224 318.438 155.238 317.831 155.238Z" fill="#030000"/>
<path d="M321.7 158.803C321.017 158.803 321.017 159.789 321.7 159.789C322.383 159.789 322.383 158.803 321.7 158.803Z" fill="#030000"/>
<path d="M327.237 152.963C326.554 152.963 326.554 153.949 327.237 153.949C327.92 153.949 327.92 152.963 327.237 152.963Z" fill="#030000"/>
<path d="M319.879 143.861C319.879 143.709 319.804 143.481 319.652 143.406C319.424 143.33 319.197 143.33 318.969 143.481C318.893 143.557 318.818 143.785 318.818 143.937C318.818 144.088 318.893 144.24 318.969 144.392C319.121 144.543 319.424 144.543 319.652 144.468C319.804 144.316 319.955 144.088 319.879 143.861Z" fill="#030000"/>
<path d="M164.455 20.4C160.855 19.4 154.655 19.8 152.355 23.1C152.155 23.1 151.955 23.3 151.855 23.6C150.955 28.2 150.255 33.3 152.955 37.4C155.555 41.2 159.855 41.2 163.455 38.8C166.755 36.7 169.055 33 169.555 29.2C170.055 25.3 168.355 21.5 164.455 20.4Z" fill="#FBB49B"/>
<path d="M166.155 18.4C166.555 16.8 166.855 15.2 167.255 13.6C165.755 13.1 164.355 12.6 162.855 12C162.455 13.4 162.155 14.7 161.755 16.1C157.255 16.2 152.855 18.7 150.755 22.8C150.155 24 149.155 26.8 151.355 27.2C152.655 27.4 154.355 26.2 155.655 25C155.255 27.4 155.155 30.6 157.455 31.1C159.455 31.6 161.055 29.9 162.155 28.1C162.355 30.1 162.955 32.4 164.755 32.6C166.655 32.9 167.655 30.5 168.155 28.5C168.655 29.5 169.255 30.4 170.455 30.5C172.455 30.8 172.655 28.7 172.555 27.2C172.055 23.4 169.555 20.1 166.155 18.4Z" fill="#139B90"/>
<path d="M153.455 32.4C153.055 32.4 152.755 32.1 152.755 31.7C152.755 30.8 152.855 29.9 153.055 29C153.155 28.6 153.555 28.4 153.955 28.5C154.355 28.6 154.555 29 154.455 29.4C154.255 30.1 154.155 30.8 154.155 31.6C154.155 32.1 153.855 32.4 153.455 32.4Z" fill="#030000"/>
<path d="M160.555 34C160.455 34 160.355 34 160.255 33.9C159.855 33.8 159.755 33.3 159.855 33L160.555 31.4C160.655 31 161.155 30.9 161.455 31C161.855 31.1 161.955 31.6 161.855 31.9L161.155 33.5C161.055 33.9 160.755 34 160.555 34Z" fill="#030000"/>
<path d="M165.455 35.8C165.255 35.8 165.155 35.7 164.955 35.6C164.655 35.3 164.655 34.9 164.855 34.6L165.855 33.4C166.155 33.1 166.555 33.1 166.855 33.3C167.155 33.5 167.155 34 166.955 34.3L165.955 35.5C165.855 35.7 165.655 35.8 165.455 35.8Z" fill="#030000"/>
<path d="M155.855 37.8C155.455 37.8 155.155 37.4 155.155 37.1L155.255 34.9C155.255 34.5 155.655 34.2 155.955 34.2C156.355 34.2 156.655 34.6 156.655 34.9L156.555 37.1C156.555 37.6 156.255 37.8 155.855 37.8Z" fill="#030000"/>
<path d="M160.155 38.3C159.955 38.3 159.855 38.2 159.655 38.1C159.355 37.8 159.355 37.4 159.655 37.1L160.655 36.1C160.955 35.8 161.355 35.8 161.655 36.1C161.955 36.4 161.955 36.8 161.655 37.1L160.655 38.1C160.455 38.2 160.255 38.3 160.155 38.3Z" fill="#030000"/>
<path d="M37.6467 124.852C36.4738 122.251 33.2751 122.59 31.7823 124.626C30.3962 126.435 29.33 129.149 30.5028 131.297C31.3558 132.88 32.742 133.22 34.0215 132.88C34.6612 132.767 35.3009 132.428 35.8341 131.863C36.0473 131.637 36.2606 131.41 36.4738 131.184C37.2202 130.167 37.7533 129.036 37.8599 127.792C38.0732 126.774 38.0732 125.757 37.6467 124.852Z" fill="#F3C015"/>
<path d="M241.963 3.16024L241.963 3.16028L241.968 3.17175C242.299 3.87419 242.321 4.70883 242.126 5.63813L242.117 5.68261L242.113 5.72789C242.022 6.78047 241.574 7.77023 240.896 8.7041L240.288 9.34824C239.858 9.80446 239.361 10.0588 238.891 10.1419L238.86 10.1474L238.829 10.1555C238.312 10.2927 237.813 10.2827 237.376 10.1115C236.948 9.94372 236.516 9.59644 236.163 8.94163L236.163 8.94162L236.161 8.93801C235.691 8.07598 235.648 7.06615 235.911 6.01622C236.174 4.96332 236.733 3.92403 237.378 3.08188L237.382 3.07564L237.387 3.06931C238 2.23396 238.956 1.76128 239.844 1.7502C240.694 1.73959 241.506 2.1459 241.963 3.16024Z" stroke="#F3C015" stroke-width="1.5"/>
<path d="M343.47 37.8519C341.711 35.2511 336.913 35.5904 334.674 37.6258C332.594 39.435 330.995 42.1489 332.754 44.2974C334.034 45.8805 336.113 46.2197 338.032 45.8805C338.992 45.7674 339.951 45.4282 340.751 44.8628C341.071 44.6366 341.391 44.4105 341.711 44.1843C342.83 43.1666 343.63 42.0358 343.79 40.7919C344.11 39.7742 344.11 38.7565 343.47 37.8519Z" fill="#F3C015"/>
<path d="M35.4479 174.631C33.3942 173.523 31.4604 172.42 29.5317 171.197C27.8376 170.104 25.3619 169.038 24.4226 167.137C23.9269 166.095 23.973 165.016 24.019 163.938C23.9822 163.396 24.0702 162.739 23.6687 162.302C22.8083 161.365 20.7977 162.059 19.881 162.44C14.0734 164.893 10.344 173.498 15.8598 177.876C15.7041 178.71 16.9394 179.303 17.4546 178.484C17.517 178.427 17.5795 178.37 17.5847 178.25C17.7096 178.135 17.8346 178.02 17.8397 177.901C18.4174 177.025 19.1149 176.154 20.1463 175.898C21.1153 175.699 22.1836 175.985 23.127 176.386C25.0137 177.187 26.6351 178.577 28.1418 179.842C29.4764 180.919 30.2375 181.372 31.7841 180.297C33.4557 179.108 34.7258 177.482 35.6415 175.72C35.9539 175.433 35.917 174.891 35.4479 174.631Z" fill="#A0DFDA"/>
<path d="M22.4682 152.466C21.0353 152.285 19.7539 152.77 18.7542 153.688C17.2936 151.344 13.9637 150.602 11.4379 152.115C8.60474 153.794 7.2476 157.458 8.19814 160.5C7.71879 160.48 7.17695 160.517 6.62999 160.673C4.21272 161.05 1.99415 162.396 1.1727 164.762C0.153569 167.54 1.41138 170.415 3.81433 171.779C2.74193 172.993 2.82695 175.218 3.9639 176.707C5.15308 178.379 6.92508 179.055 8.73291 178.892C8.49427 180.263 9.21434 181.674 10.4445 182.387C12.0239 183.355 14.0243 182.9 15.5034 182.003C16.9199 181.163 18.6591 179.797 18.0169 177.968C17.5263 176.807 16.4784 176.042 15.3579 175.573C16.6228 174.067 16.3606 171.774 15.5412 169.879C18.0209 169.444 19.3217 167.099 19.9035 164.722C23.6349 165.902 27.1318 159.929 26.4885 156.72C26.1587 154.605 24.5577 152.735 22.4682 152.466Z" fill="#139B90"/>
<path d="M18.3713 178.103C18.1213 178.333 17.7618 178.317 17.5324 178.068C16.5624 176.886 15.0301 176.22 13.467 176.273C13.1075 176.258 12.8781 176.008 12.831 175.706C12.8463 175.346 13.0962 175.117 13.3984 175.07C15.321 175.032 17.1452 175.89 18.3446 177.322C18.6365 177.514 18.6212 177.874 18.3713 178.103Z" fill="#030000"/>
<path d="M23.7742 164.047C22.837 164.908 21.5556 165.393 20.2374 165.337C19.926 167.004 18.7184 168.574 17.1297 169.226C16.2755 169.55 15.5514 169.639 14.905 169.311C14.6131 169.119 14.4462 168.811 14.6387 168.519C14.8313 168.227 15.1386 168.06 15.4305 168.253C15.8422 168.451 16.2694 168.289 16.634 168.184C18.0403 167.584 19.0031 166.125 19.1271 164.629C19.1322 164.509 19.1998 164.332 19.3247 164.217C19.4497 164.103 19.632 164.05 19.8092 164.118C21.0025 164.289 22.2787 163.923 23.0961 163.058C23.346 162.828 23.7055 162.844 23.935 163.094C24.1644 163.344 24.149 163.703 23.8991 163.933C23.8991 163.933 23.8366 163.99 23.7742 164.047Z" fill="#030000"/>
<path d="M20.4094 158.501C20.222 158.673 19.9198 158.72 19.6852 158.59C18.9242 158.137 18.3557 157.393 18.157 156.424C17.8958 155.512 18.0566 154.559 18.5094 153.797C18.7019 153.506 19.0666 153.401 19.3585 153.594C19.6504 153.786 19.7549 154.151 19.5623 154.443C19.3021 154.912 19.2141 155.568 19.3708 156.115C19.465 156.72 19.9239 157.22 20.3305 157.537C20.6224 157.73 20.7269 158.094 20.5344 158.386C20.5344 158.386 20.4719 158.444 20.4094 158.501Z" fill="#030000"/>
<path d="M12.3228 165.119C12.1354 165.291 11.8332 165.338 11.5413 165.145C9.97214 163.938 9.60031 161.401 10.8079 159.832C12.0155 158.262 14.4953 157.828 16.1269 158.978C16.4189 159.171 16.4035 159.53 16.2734 159.765C16.0809 160.057 15.7213 160.041 15.4868 159.911C14.3816 159.084 12.626 159.429 11.8609 160.477C11.0333 161.582 11.2586 163.332 12.3638 164.16C12.6557 164.353 12.6404 164.712 12.4478 165.004C12.3853 165.061 12.3853 165.061 12.3228 165.119Z" fill="#030000"/>
<path d="M8.9141 170.436C8.78914 170.55 8.60682 170.603 8.48698 170.598C7.35106 170.489 6.12706 171.037 5.42954 171.908C5.17962 172.137 5.04442 172.492 4.78938 172.841L4.66442 172.956C4.47186 173.247 4.10721 173.352 3.81529 173.159C3.52338 172.967 3.4189 172.602 3.61146 172.31L3.73642 172.196C3.99146 171.846 4.18914 171.434 4.50154 171.148C5.51147 169.99 7.03763 169.395 8.53819 169.399C8.89771 169.415 9.12714 169.664 9.11178 170.024C9.10154 170.264 8.97658 170.378 8.9141 170.436Z" fill="#030000"/>
<path d="M9.25729 176.453C9.06985 176.625 8.76769 176.673 8.53314 176.542C7.7721 176.09 7.26611 175.288 7.18211 174.444C7.09812 173.6 7.4986 172.656 8.18076 172.145C8.43069 171.916 8.84756 171.994 9.01452 172.301C9.24396 172.551 9.16612 172.968 8.85884 173.135C8.4266 173.416 8.2238 173.948 8.26579 174.37C8.24531 174.849 8.58434 175.344 8.9961 175.542C9.28802 175.734 9.3925 176.099 9.19994 176.391C9.31978 176.396 9.25729 176.453 9.25729 176.453Z" fill="#030000"/>
<path d="M13.465 180.535C13.0901 180.879 12.6005 181.098 12.1211 181.078C11.7616 181.063 11.5322 180.813 11.5475 180.453C11.5629 180.094 11.8128 179.864 12.1723 179.88C12.5319 179.895 12.8442 179.608 12.8596 179.249C12.875 178.889 13.1249 178.66 13.4844 178.675C13.8439 178.69 14.0734 178.94 14.058 179.3C14.0375 179.779 13.7774 180.248 13.465 180.535Z" fill="#030000"/>
<path d="M6.20589 164.977C6.08093 165.092 5.83613 165.202 5.60157 165.072C5.12733 164.931 4.72582 164.494 4.50662 164.004C4.28743 163.515 4.31303 162.916 4.51071 162.504C4.70327 162.212 5.0679 162.107 5.30246 162.238C5.59438 162.43 5.69887 162.795 5.56878 163.029C5.50118 163.206 5.49605 163.326 5.54829 163.509C5.60053 163.691 5.71525 163.816 5.89245 163.884C6.18949 163.956 6.41382 164.326 6.27862 164.68C6.39333 164.805 6.33085 164.863 6.20589 164.977Z" fill="#030000"/>
<path d="M8.63646 161.48C8.57398 161.537 8.57398 161.537 8.63646 161.48C8.2667 161.704 7.96967 161.631 7.74023 161.381C7.22911 160.699 7.15535 159.615 7.60808 158.854C7.80064 158.562 8.10792 158.395 8.39984 158.588C8.69176 158.781 8.85871 159.088 8.66615 159.38C8.46847 159.792 8.50535 160.333 8.72966 160.703C8.83926 160.948 8.8239 161.307 8.63646 161.48Z" fill="#030000"/>
<path d="M12.9568 155.901C12.8943 155.959 12.8318 156.016 12.7694 156.073C12.4621 156.24 12.1702 156.048 12.0032 155.741C11.7369 154.949 11.8352 154.053 12.4027 153.416C12.6526 153.187 12.9547 153.14 13.2467 153.332C13.5386 153.525 13.5232 153.885 13.3307 154.176C13.0756 154.526 12.9978 154.943 13.1596 155.37C13.217 155.432 13.1442 155.729 12.9568 155.901Z" fill="#030000"/>
<path d="M270.254 250.506C272.162 249.163 273.952 247.839 275.723 246.396C277.276 245.111 279.608 243.76 280.316 241.761C280.686 240.668 280.512 239.602 280.339 238.537C280.312 237.994 280.147 237.353 280.494 236.871C281.237 235.839 283.316 236.291 284.271 236.561C290.328 238.31 295.048 246.414 290.088 251.413C290.342 252.223 289.185 252.958 288.577 252.206C288.508 252.156 288.439 252.107 288.42 251.988C288.282 251.889 288.145 251.79 288.125 251.672C287.448 250.87 286.653 250.088 285.598 249.956C284.613 249.873 283.585 250.283 282.696 250.792C280.917 251.81 279.471 253.382 278.125 254.816C276.927 256.044 276.225 256.584 274.562 255.699C272.761 254.716 271.308 253.251 270.191 251.61C269.846 251.362 269.819 250.82 270.254 250.506Z" fill="#A0DFDA"/>
<path d="M280.523 226.962C281.925 226.613 283.255 226.943 284.356 227.737C285.529 225.237 288.748 224.106 291.435 225.31C294.447 226.643 296.227 230.121 295.643 233.254C296.116 233.177 296.659 233.149 297.221 233.24C299.665 233.329 302.027 234.403 303.123 236.656C304.463 239.294 303.554 242.297 301.329 243.935C302.537 245.015 302.716 247.234 301.763 248.847C300.78 250.647 299.1 251.528 297.285 251.58C297.684 252.913 297.136 254.399 295.999 255.253C294.545 256.4 292.505 256.185 290.93 255.469C289.424 254.802 287.536 253.651 287.957 251.76C288.307 250.548 289.257 249.665 290.315 249.067C288.881 247.721 288.87 245.414 289.46 243.434C286.946 243.296 285.377 241.12 284.519 238.83C280.953 240.442 276.774 234.924 277.034 231.661C277.111 229.522 278.48 227.477 280.523 226.962Z" fill="#139B90"/>
<path d="M287.621 251.936C287.897 252.134 288.252 252.076 288.45 251.801C289.274 250.513 290.717 249.671 292.275 249.539C292.63 249.481 292.828 249.206 292.839 248.9C292.782 248.545 292.506 248.347 292.201 248.336C290.287 248.525 288.577 249.593 287.555 251.157C287.288 251.382 287.346 251.738 287.621 251.936Z" fill="#030000"/>
<path d="M280.595 238.617C281.627 239.36 282.957 239.691 284.26 239.479C284.766 241.098 286.15 242.514 287.805 242.974C288.692 243.194 289.421 243.197 290.024 242.795C290.291 242.57 290.421 242.245 290.195 241.978C289.969 241.711 289.645 241.581 289.377 241.807C288.992 242.052 288.549 241.942 288.174 241.881C286.707 241.451 285.578 240.116 285.278 238.645C285.259 238.527 285.171 238.359 285.033 238.26C284.896 238.161 284.709 238.13 284.541 238.218C283.376 238.529 282.065 238.317 281.152 237.554C280.876 237.356 280.521 237.414 280.323 237.689C280.124 237.964 280.182 238.319 280.458 238.518C280.458 238.518 280.526 238.567 280.595 238.617Z" fill="#030000"/>
<path d="M283.281 232.712C283.487 232.86 283.793 232.871 284.01 232.714C284.713 232.175 285.189 231.368 285.272 230.383C285.424 229.447 285.151 228.519 284.612 227.817C284.386 227.549 284.012 227.489 283.744 227.714C283.477 227.94 283.417 228.315 283.642 228.582C283.956 229.017 284.121 229.658 284.03 230.22C284.008 230.831 283.611 231.382 283.245 231.745C282.978 231.971 282.917 232.345 283.143 232.612C283.143 232.612 283.212 232.662 283.281 232.712Z" fill="#030000"/>
<path d="M292.093 238.327C292.299 238.476 292.605 238.487 292.872 238.261C294.287 236.877 294.357 234.314 292.972 232.898C291.588 231.483 289.074 231.344 287.59 232.679C287.323 232.905 287.38 233.26 287.537 233.478C287.763 233.745 288.118 233.687 288.336 233.53C289.335 232.578 291.119 232.713 292.003 233.663C292.955 234.663 292.938 236.428 291.939 237.38C291.672 237.606 291.729 237.961 291.955 238.228C292.024 238.278 292.024 238.278 292.093 238.327Z" fill="#030000"/>
<path d="M296.106 243.204C296.244 243.303 296.431 243.334 296.549 243.314C297.664 243.072 298.945 243.472 299.74 244.254C300.015 244.452 300.192 244.788 300.486 245.105L300.624 245.204C300.849 245.471 301.224 245.532 301.491 245.306C301.758 245.08 301.819 244.706 301.593 244.439L301.455 244.34C301.161 244.023 300.916 243.638 300.572 243.39C299.432 242.36 297.846 241.949 296.357 242.131C296.002 242.188 295.803 242.464 295.861 242.819C295.9 243.056 296.037 243.155 296.106 243.204Z" fill="#030000"/>
<path d="M296.476 249.22C296.683 249.369 296.989 249.38 297.206 249.223C297.908 248.684 298.316 247.827 298.3 246.979C298.283 246.131 297.774 245.242 297.036 244.815C296.761 244.617 296.356 244.743 296.227 245.068C296.029 245.344 296.155 245.748 296.48 245.878C296.942 246.106 297.207 246.61 297.215 247.034C297.292 247.508 297.014 248.039 296.628 248.284C296.361 248.51 296.3 248.884 296.526 249.151C296.408 249.171 296.476 249.22 296.476 249.22Z" fill="#030000"/>
<path d="M292.781 253.771C293.194 254.068 293.706 254.228 294.179 254.151C294.534 254.093 294.733 253.818 294.675 253.463C294.617 253.107 294.342 252.909 293.987 252.967C293.632 253.025 293.287 252.777 293.23 252.422C293.172 252.066 292.897 251.868 292.541 251.926C292.186 251.984 291.988 252.259 292.046 252.614C292.123 253.088 292.436 253.523 292.781 253.771Z" fill="#030000"/>
<path d="M298.15 237.464C298.288 237.563 298.544 237.643 298.761 237.486C299.216 237.291 299.563 236.809 299.723 236.297C299.882 235.785 299.786 235.193 299.541 234.808C299.315 234.54 298.941 234.48 298.723 234.637C298.456 234.862 298.396 235.237 298.553 235.454C298.641 235.622 298.66 235.741 298.63 235.928C298.599 236.115 298.5 236.253 298.332 236.341C298.046 236.448 297.867 236.842 298.043 237.178C297.944 237.315 298.013 237.365 298.15 237.464Z" fill="#030000"/>
<path d="M295.323 234.278C295.392 234.328 295.392 234.328 295.323 234.278C295.717 234.457 296.003 234.35 296.202 234.074C296.629 233.337 296.574 232.252 296.034 231.55C295.809 231.283 295.484 231.153 295.217 231.379C294.949 231.604 294.82 231.929 295.046 232.196C295.291 232.582 295.318 233.124 295.139 233.518C295.059 233.774 295.117 234.129 295.323 234.278Z" fill="#030000"/>
<path d="M290.374 229.249C290.443 229.299 290.512 229.349 290.581 229.398C290.905 229.528 291.173 229.302 291.302 228.977C291.473 228.159 291.269 227.281 290.631 226.717C290.355 226.518 290.05 226.507 289.783 226.733C289.516 226.959 289.573 227.314 289.799 227.581C290.094 227.898 290.22 228.302 290.11 228.746C290.06 228.814 290.168 229.101 290.374 229.249Z" fill="#030000"/>
<path d="M262.577 32.6084C264.198 30.9296 265.707 29.2921 267.174 27.5419C268.457 25.9868 270.493 24.2201 270.811 22.1237C270.968 20.9808 270.597 19.967 270.226 18.9532C270.097 18.4256 269.814 17.8267 270.064 17.2882C270.6 16.1342 272.726 16.1864 273.715 16.2715C279.993 16.8482 286.156 23.9173 282.227 29.7613C282.629 30.5086 281.631 31.4483 280.892 30.8247C280.815 30.789 280.738 30.7532 280.697 30.6406C280.543 30.5692 280.389 30.4977 280.348 30.3851C279.532 29.7257 278.603 29.1076 277.543 29.1763C276.559 29.2807 275.628 29.877 274.85 30.5446C273.295 31.88 272.172 33.6961 271.12 35.3583C270.174 36.7898 269.586 37.452 267.787 36.8971C265.833 36.2707 264.13 35.1058 262.723 33.7047C262.338 33.5261 262.209 32.9986 262.577 32.6084Z" fill="#A0DFDA"/>
<path d="M268.225 7.55114C269.536 6.9439 270.904 7.01803 272.135 7.58946C272.816 4.91339 275.764 3.19611 278.63 3.87189C281.839 4.6136 284.243 7.69345 284.26 10.8805C284.71 10.7157 285.238 10.5865 285.807 10.57C288.224 10.1963 290.747 10.8061 292.247 12.8117C294.06 15.1498 293.733 18.2709 291.857 20.2986C293.247 21.1311 293.841 23.2768 293.209 25.0408C292.582 26.9942 291.099 28.1757 289.327 28.5687C289.97 29.8023 289.712 31.3656 288.755 32.4179C287.544 33.8192 285.5 33.9923 283.818 33.5858C282.214 33.2149 280.142 32.4402 280.2 30.5032C280.315 29.2476 281.082 28.2008 282.007 27.415C280.345 26.3627 279.9 24.0988 280.106 22.0437C277.611 22.3817 275.661 20.541 274.386 18.4529C271.188 20.7087 266.044 16.0767 265.684 12.8236C265.357 10.7081 266.316 8.44139 268.225 7.55114Z" fill="#139B90"/>
<path d="M279.903 30.7395C280.211 30.8824 280.549 30.7587 280.692 30.451C281.257 29.0306 282.516 27.9315 284.021 27.5084C284.359 27.3847 284.502 27.077 284.455 26.7748C284.332 26.4368 284.024 26.294 283.722 26.3407C281.878 26.8875 280.4 28.2585 279.691 29.9867C279.472 30.2587 279.595 30.5967 279.903 30.7395Z" fill="#030000"/>
<path d="M270.492 18.9834C271.646 19.5191 273.015 19.5932 274.254 19.1398C275.056 20.6345 276.683 21.7636 278.394 21.9037C279.306 21.9531 280.024 21.8184 280.54 21.3101C280.76 21.0381 280.826 20.6947 280.554 20.4749C280.282 20.2551 279.938 20.1892 279.719 20.4612C279.386 20.7744 278.93 20.7497 278.551 20.7607C277.029 20.6152 275.669 19.5162 275.097 18.1287C275.056 18.0161 274.938 17.8677 274.784 17.7963C274.63 17.7249 274.44 17.7304 274.292 17.8485C273.207 18.3733 271.88 18.4118 270.839 17.8349C270.531 17.6921 270.193 17.8157 270.05 18.1234C269.907 18.4311 270.031 18.7691 270.339 18.9119C270.339 18.9119 270.415 18.9477 270.492 18.9834Z" fill="#030000"/>
<path d="M272.017 12.6778C272.248 12.785 272.55 12.7383 272.734 12.5432C273.322 11.881 273.638 10.9991 273.534 10.0155C273.506 9.06761 273.064 8.20766 272.401 7.61972C272.129 7.39993 271.75 7.41093 271.531 7.68294C271.311 7.95495 271.322 8.3341 271.594 8.55389C271.984 8.92204 272.267 9.52098 272.283 10.0897C272.377 10.6942 272.091 11.3096 271.8 11.7355C271.58 12.0075 271.591 12.3866 271.863 12.6064C271.863 12.6064 271.94 12.6421 272.017 12.6778Z" fill="#030000"/>
<path d="M281.73 16.5322C281.96 16.6393 282.263 16.5926 282.482 16.3206C283.612 14.694 283.197 12.1636 281.57 11.0345C279.944 9.90531 277.449 10.2433 276.243 11.8342C276.023 12.1062 276.147 12.4441 276.342 12.6282C276.614 12.848 276.952 12.7243 277.136 12.5293C277.938 11.4055 279.716 11.2021 280.762 11.9687C281.886 12.7709 282.202 14.5073 281.4 15.631C281.18 15.903 281.304 16.241 281.576 16.4608C281.653 16.4965 281.653 16.4965 281.73 16.5322Z" fill="#030000"/>
<path d="M286.59 20.5654C286.744 20.6368 286.933 20.6313 287.046 20.5901C288.096 20.1422 289.428 20.2933 290.357 20.9114C290.665 21.0543 290.901 21.351 291.25 21.6065L291.404 21.6779C291.676 21.8977 292.055 21.8867 292.275 21.6147C292.494 21.3427 292.483 20.9636 292.211 20.7438L292.057 20.6723C291.709 20.4168 291.395 20.0844 291.011 19.9058C289.697 19.1091 288.063 19.0047 286.634 19.4636C286.296 19.5873 286.153 19.895 286.277 20.2329C286.359 20.4582 286.513 20.5296 286.59 20.5654Z" fill="#030000"/>
<path d="M288.088 26.4037C288.318 26.5108 288.621 26.4641 288.805 26.269C289.393 25.6069 289.632 24.6892 289.456 23.8595C289.28 23.0297 288.612 22.2522 287.807 21.972C287.499 21.8292 287.126 22.0297 287.06 22.3732C286.917 22.6809 287.118 23.0545 287.461 23.1205C287.958 23.2578 288.313 23.7029 288.401 24.1178C288.566 24.5684 288.392 25.1426 288.06 25.4558C287.84 25.7278 287.851 26.107 288.123 26.3268C288.011 26.368 288.088 26.4037 288.088 26.4037Z" fill="#030000"/>
<path d="M285.316 31.569C285.777 31.7833 286.31 31.8437 286.761 31.6789C287.099 31.5552 287.242 31.2475 287.118 30.9096C286.994 30.5716 286.687 30.4288 286.349 30.5524C286.011 30.6761 285.626 30.4975 285.502 30.1596C285.379 29.8216 285.071 29.6788 284.733 29.8024C284.395 29.9261 284.252 30.2338 284.376 30.5717C284.541 31.0223 284.931 31.3905 285.316 31.569Z" fill="#030000"/>
<path d="M287.516 14.5428C287.67 14.6142 287.936 14.6445 288.12 14.4494C288.53 14.1719 288.78 13.6334 288.84 13.1003C288.9 12.5673 288.694 12.0041 288.381 11.6717C288.109 11.4519 287.73 11.4629 287.546 11.6579C287.326 11.93 287.337 12.3091 287.532 12.4932C287.65 12.6415 287.692 12.7542 287.697 12.9438C287.703 13.1333 287.631 13.2872 287.483 13.4054C287.222 13.5647 287.12 13.9851 287.356 14.2818C287.285 14.4357 287.362 14.4714 287.516 14.5428Z" fill="#030000"/>
<path d="M284.139 11.9465C284.216 11.9822 284.216 11.9822 284.139 11.9465C284.559 12.0482 284.82 11.8888 284.963 11.5811C285.243 10.7761 284.985 9.72105 284.323 9.13311C284.051 8.91332 283.707 8.84738 283.488 9.11939C283.268 9.3914 283.202 9.73485 283.474 9.95464C283.787 10.2871 283.916 10.8146 283.815 11.235C283.784 11.5015 283.908 11.8394 284.139 11.9465Z" fill="#030000"/>
<path d="M278.331 7.94094C278.408 7.97665 278.484 8.01236 278.561 8.04808C278.905 8.114 279.125 7.842 279.191 7.49856C279.204 6.66333 278.839 5.83909 278.105 5.40501C277.797 5.26215 277.495 5.30887 277.275 5.58088C277.056 5.85289 277.179 6.19083 277.451 6.41062C277.8 6.66612 278.001 7.03977 277.976 7.49585C277.94 7.57278 278.1 7.83379 278.331 7.94094Z" fill="#030000"/>
<path d="M52.7252 190.089C52.0097 189.97 51.2943 189.97 50.5788 190.089C49.0285 190.328 47.7168 191.163 46.8821 192.355C44.2586 194.859 44.3778 199.272 47.2398 201.895C49.267 203.803 51.8905 203.922 54.037 202.968C55.9449 202.73 57.7337 201.418 58.5684 199.272C58.9262 198.437 59.0454 197.602 58.9262 196.767C59.5224 193.071 56.4219 189.732 52.7252 190.089Z" fill="#FBB49B"/>
<path d="M53.3215 199.033C53.2022 199.033 53.083 199.033 52.9637 198.914C51.7712 198.318 51.5327 196.887 51.5327 195.933C51.0557 195.813 50.5787 195.694 50.1017 195.575C49.3863 195.336 48.9093 194.74 49.0285 194.025C49.1478 193.548 49.5055 193.19 49.9825 192.951C50.4595 192.713 51.0557 192.832 51.5327 192.832V193.667L51.652 192.832C51.8905 192.832 52.0097 192.832 52.0097 192.832L52.129 192.713C52.2482 192.474 52.4867 192.236 52.8445 191.997L52.9637 191.878C53.3215 191.52 53.9177 190.924 54.6332 191.163C55.1102 191.401 55.3487 191.759 55.3487 192.474V193.428C55.7064 193.548 56.1834 193.667 56.5412 193.786C57.6144 194.144 57.7337 194.979 57.6144 195.217C57.6144 195.456 57.4952 195.813 57.2567 195.933C56.6604 196.648 55.8257 196.648 55.2294 196.648C54.8717 196.648 54.6332 196.767 54.6332 196.767C54.6332 196.767 54.6332 196.887 54.6332 197.006C54.6332 197.125 54.6332 197.244 54.6332 197.364C54.7524 198.079 54.2754 198.675 53.6792 198.914C53.4407 199.033 53.3215 199.033 53.3215 199.033ZM52.4867 194.502C52.8445 194.621 53.083 194.979 53.083 195.336C53.083 195.575 53.083 195.813 53.083 195.933C53.4407 195.575 53.9177 195.217 54.6332 195.217C54.3947 195.217 54.2754 195.098 54.037 195.098C53.6792 194.979 53.3215 194.74 53.3215 194.263V193.548C53.3215 193.548 53.3215 193.667 53.2022 193.667C53.083 194.025 52.8445 194.263 52.4867 194.502Z" fill="#030000"/>
<path d="M76.9324 14.115C76.0125 13.9617 75.0926 13.9617 74.1727 14.115C72.1795 14.4216 70.493 15.4949 69.4198 17.0281C66.0468 20.2478 66.2001 25.9206 69.8797 29.2936C72.4862 31.7467 75.8592 31.9001 78.619 30.6735C81.0721 30.3669 83.3719 28.6803 84.4451 25.9206C84.9051 24.8474 85.0584 23.7741 84.9051 22.7009C85.6717 17.948 81.6853 13.655 76.9324 14.115Z" fill="#FBB49B"/>
<path d="M77.699 25.6139C77.5457 25.6139 77.3924 25.6139 77.239 25.4606C75.7058 24.694 75.3992 22.8542 75.3992 21.6276C74.7859 21.4743 74.1726 21.321 73.5594 21.1677C72.6394 20.861 72.0262 20.0944 72.1795 19.1745C72.3328 18.5612 72.7928 18.1013 73.406 17.7946C74.0193 17.488 74.7859 17.6413 75.3992 17.6413V18.7146L75.5525 17.6413C75.8592 17.6413 76.0125 17.6413 76.0125 17.6413L76.1658 17.488C76.3191 17.1814 76.6257 16.8747 77.0857 16.5681L77.239 16.4148C77.699 15.9548 78.4656 15.1882 79.3855 15.4949C79.9988 15.8015 80.3054 16.2615 80.3054 17.1814V18.4079C80.7654 18.5612 81.3787 18.7146 81.8386 18.8679C83.2185 19.3278 83.3718 20.4011 83.2185 20.7077C83.2185 21.0144 83.0652 21.4743 82.7585 21.6276C81.9919 22.5476 80.9187 22.5476 80.1521 22.5476C79.6921 22.5476 79.3855 22.7009 79.3855 22.7009C79.3855 22.7009 79.3855 22.8542 79.3855 23.0075C79.3855 23.1608 79.3855 23.3141 79.3855 23.4675C79.5388 24.3874 78.9255 25.154 78.1589 25.4606C77.8523 25.6139 77.699 25.6139 77.699 25.6139ZM76.6257 19.7878C77.0857 19.9411 77.3923 20.4011 77.3923 20.861C77.3923 21.1677 77.3923 21.4743 77.3923 21.6276C77.8523 21.1677 78.4656 20.7077 79.3855 20.7077C79.0789 20.7077 78.9255 20.5544 78.6189 20.5544C78.1589 20.4011 77.699 20.0944 77.699 19.4812V18.5612C77.699 18.5612 77.699 18.7146 77.5457 18.7146C77.3924 19.1745 77.0857 19.4812 76.6257 19.7878Z" fill="#030000"/>
<path d="M349.068 94.115C349.987 93.9617 350.907 93.9617 351.827 94.115C353.82 94.4216 355.507 95.4949 356.58 97.0281C359.953 100.248 359.8 105.921 356.12 109.294C353.514 111.747 350.141 111.9 347.381 110.674C344.928 110.367 342.628 108.68 341.555 105.921C341.095 104.847 340.942 103.774 341.095 102.701C340.328 97.948 344.315 93.655 349.068 94.115Z" fill="#FBB49B"/>
<path d="M348.301 105.614C348.454 105.614 348.608 105.614 348.761 105.461C350.294 104.694 350.601 102.854 350.601 101.628C351.214 101.474 351.827 101.321 352.441 101.168C353.361 100.861 353.974 100.094 353.821 99.1745C353.667 98.5612 353.207 98.1013 352.594 97.7946C351.981 97.488 351.214 97.6413 350.601 97.6413V98.7146L350.447 97.6413C350.141 97.6413 349.988 97.6413 349.988 97.6413L349.834 97.488C349.681 97.1814 349.374 96.8747 348.914 96.5681L348.761 96.4148C348.301 95.9548 347.534 95.1882 346.615 95.4949C346.001 95.8015 345.695 96.2615 345.695 97.1814V98.4079C345.235 98.5612 344.621 98.7146 344.161 98.8679C342.782 99.3278 342.628 100.401 342.782 100.708C342.782 101.014 342.935 101.474 343.241 101.628C344.008 102.548 345.081 102.548 345.848 102.548C346.308 102.548 346.615 102.701 346.615 102.701C346.615 102.701 346.615 102.854 346.615 103.008C346.615 103.161 346.615 103.314 346.615 103.467C346.461 104.387 347.074 105.154 347.841 105.461C348.148 105.614 348.301 105.614 348.301 105.614ZM349.374 99.7878C348.914 99.9411 348.608 100.401 348.608 100.861C348.608 101.168 348.608 101.474 348.608 101.628C348.148 101.168 347.534 100.708 346.615 100.708C346.921 100.708 347.074 100.554 347.381 100.554C347.841 100.401 348.301 100.094 348.301 99.4812V98.5612C348.301 98.5612 348.301 98.7146 348.454 98.7146C348.608 99.1745 348.914 99.4812 349.374 99.7878Z" fill="#030000"/>
<path d="M260.586 232.046C260.994 231.985 261.403 231.985 261.812 232.046C262.698 232.169 263.448 232.601 263.925 233.216C265.424 234.51 265.356 236.789 263.72 238.144C262.562 239.129 261.063 239.191 259.836 238.698C258.746 238.575 257.724 237.898 257.247 236.789C257.042 236.358 256.974 235.927 257.042 235.495C256.701 233.586 258.473 231.861 260.586 232.046Z" fill="#FBB49B"/>
<path d="M13.3108 95.0383C13.0042 94.9872 12.6975 94.9872 12.3909 95.0383C11.7265 95.1405 11.1643 95.4983 10.8066 96.0094C9.68225 97.0826 9.73336 98.9735 10.9599 100.098C11.8287 100.916 12.9531 100.967 13.873 100.558C14.6907 100.456 15.4573 99.8934 15.815 98.9735C15.9684 98.6158 16.0195 98.258 15.9684 97.9003C16.2239 96.316 14.8951 94.885 13.3108 95.0383Z" fill="#FBB49B"/>
<path d="M13.5663 98.8713C13.5152 98.8713 13.4641 98.8713 13.413 98.8202C12.902 98.5647 12.7997 97.9514 12.7997 97.5425C12.5953 97.4914 12.3909 97.4403 12.1865 97.3892C11.8798 97.287 11.6754 97.0315 11.7265 96.7248C11.7776 96.5204 11.9309 96.3671 12.1354 96.2649C12.3398 96.1626 12.5953 96.2138 12.7997 96.2138V96.5715L12.8509 96.2138C12.9531 96.2138 13.0042 96.2138 13.0042 96.2138L13.0553 96.1626C13.1064 96.0604 13.2086 95.9582 13.3619 95.856L13.413 95.8049C13.5664 95.6516 13.8219 95.3961 14.1285 95.4983C14.3329 95.6005 14.4352 95.7538 14.4352 96.0604V96.4693C14.5885 96.5204 14.7929 96.5715 14.9462 96.6226C15.4062 96.7759 15.4573 97.1337 15.4062 97.2359C15.4062 97.3381 15.3551 97.4914 15.2529 97.5425C14.9973 97.8492 14.6396 97.8492 14.3841 97.8492C14.2307 97.8492 14.1285 97.9003 14.1285 97.9003C14.1285 97.9003 14.1285 97.9514 14.1285 98.0025C14.1285 98.0536 14.1285 98.1047 14.1285 98.1558C14.1796 98.4624 13.9752 98.718 13.7197 98.8202C13.6175 98.8713 13.5663 98.8713 13.5663 98.8713ZM13.2086 96.9292C13.3619 96.9804 13.4641 97.1337 13.4641 97.287C13.4641 97.3892 13.4641 97.4914 13.4641 97.5425C13.6175 97.3892 13.8219 97.2359 14.1285 97.2359C14.0263 97.2359 13.9752 97.1848 13.873 97.1848C13.7197 97.1337 13.5663 97.0315 13.5663 96.827V96.5204C13.5663 96.5204 13.5664 96.5715 13.5152 96.5715C13.4641 96.7248 13.3619 96.827 13.2086 96.9292Z" fill="#030000"/>
<path d="M112.325 243.975C111.386 237.997 109.507 232.019 106.945 226.553C104.64 221.6 100.711 216.904 94.9898 216.135C90.2075 215.452 85.5107 218.526 84.5713 222.967C82.6072 222.284 80.4722 222.369 78.6789 223.479C77.3125 224.248 76.2877 225.443 75.7754 226.81C74.0674 226.468 72.2741 226.639 70.5661 227.237C67.321 228.518 65.0153 231.421 64.4175 234.837C61.2578 234.41 57.9273 236.63 56.7317 239.619C54.853 244.402 56.9879 250.294 58.6959 254.905C60.5746 259.944 63.0511 264.726 66.2108 269.081C68.8582 272.753 72.4449 276.511 77.3125 276.938C80.8138 277.194 84.5713 275.315 85.9377 272.156C88.6704 273.778 92.0863 274.12 94.9898 272.839C97.9787 271.558 100.199 268.74 100.882 265.665C104.64 266.776 108.91 264.47 110.874 261.054C113.692 256.016 113.179 249.355 112.325 243.975Z" fill="#EC6C41"/>
<path d="M83.2904 267.8C83.1196 267.8 83.0342 267.715 82.8634 267.63C75.6046 260.712 70.2245 251.489 67.8334 241.754C67.748 241.413 67.9188 241.071 68.2604 241.071C68.602 240.986 68.9436 241.156 68.9436 241.498C71.3347 251.062 76.5439 260.029 83.6319 266.861C83.8881 267.117 83.8881 267.459 83.6319 267.715C83.6319 267.715 83.4611 267.8 83.2904 267.8Z" fill="#030000"/>
<path d="M100.455 258.492C100.199 258.492 99.9429 258.321 99.8575 257.98C98.4057 248.33 94.3067 239.192 88.0727 231.677C87.9019 231.421 87.9018 231.08 88.158 230.823C88.4142 230.653 88.7558 230.653 89.012 230.909C95.4168 238.594 99.5159 247.903 101.053 257.809C101.138 258.151 100.882 258.407 100.541 258.492C100.541 258.407 100.455 258.492 100.455 258.492Z" fill="#030000"/>
<path d="M86.877 219.892C83.3757 220.319 80.3868 220.917 76.9709 222.881C76.6293 222.027 74.836 216.306 73.6404 214C72.5303 214.342 71.4201 214.769 70.3953 215.281C71.3347 218.099 72.0179 221.003 72.5303 223.991C68.175 224.675 64.3321 226.98 61.8556 230.653C61.087 231.677 62.5388 232.617 63.3927 232.19C65.6131 231.165 68.0042 230.567 70.4807 230.396C70.3953 233.898 70.9077 237.313 72.1033 240.644C72.4449 241.669 73.982 241.754 74.3236 240.644C75.1776 237.484 76.3731 234.495 77.9103 231.677C80.643 232.36 83.3757 233.214 86.0231 234.154C87.1332 234.495 87.9872 232.958 87.1332 232.275C85.3399 230.653 83.3757 229.201 81.3262 227.834C83.4611 225.87 85.5961 223.906 87.731 221.942C88.3288 221.173 87.9018 219.722 86.877 219.892Z" fill="#139B90"/>
<path d="M75.0068 226.297C74.2382 226.297 73.3842 225.956 72.701 225.443C72.4448 225.272 72.3594 224.845 72.6156 224.589C72.7864 224.333 73.2134 224.248 73.4696 224.504C73.982 224.931 74.6652 225.187 75.2629 225.102C75.8607 225.016 76.4585 224.589 76.6293 224.077C76.7147 223.735 77.0563 223.65 77.3979 223.735C77.7395 223.821 77.8249 224.162 77.7395 224.504C77.3979 225.443 76.4585 226.126 75.4337 226.212C75.2629 226.297 75.1775 226.297 75.0068 226.297Z" fill="#030000"/>
<path d="M260.935 99.4364C256.818 123.321 243.573 156.118 228.002 172.873C209.03 193.371 182.898 200.322 151.577 194.975C121.329 189.806 97.7032 174.477 86.2483 152.018C75.5094 130.807 69.2451 104.784 73.7196 79.1166L260.935 99.4364Z" fill="#FBB49B"/>
<path d="M161.958 276.611C161.6 276.611 161.242 276.432 161.063 276.254C160.705 275.898 150.861 265.381 146.207 253.795C140.659 240.249 140.838 220.107 140.838 198.896C140.838 196.045 140.838 193.193 140.838 190.519C140.838 189.806 141.375 189.271 142.091 189.271C142.806 189.271 143.343 189.806 143.343 190.519C143.343 193.371 143.343 196.223 143.343 199.075C143.343 220.107 143.164 240.071 148.534 253.082C153.008 264.312 162.852 274.65 163.031 274.828C163.568 275.363 163.568 276.076 163.031 276.611C162.494 276.432 162.315 276.611 161.958 276.611Z" fill="#030000"/>
<path d="M199.902 314.577C199.365 314.577 198.828 314.22 198.649 313.685C197.038 309.051 195.427 304.239 194.353 301.387C191.847 299.782 177.529 289.979 170.37 283.919C169.833 283.384 169.833 282.671 170.191 282.136C170.728 281.602 171.444 281.602 171.98 281.958C179.498 288.375 195.785 299.426 195.964 299.604C196.143 299.782 196.322 299.961 196.501 300.139C197.217 301.921 198.112 304.595 199.186 307.625C199.723 302.813 200.26 298.713 200.618 294.97C197.217 292.653 180.572 281.423 170.37 272.333C169.833 271.798 169.833 271.085 170.191 270.55C170.728 270.016 171.444 270.016 171.98 270.372C183.256 280.354 202.407 293.187 202.586 293.187C202.944 293.366 203.123 293.9 203.123 294.257C202.586 299.782 201.87 305.843 200.976 313.151C201.154 314.042 200.618 314.577 199.902 314.577Z" fill="#030000"/>
<path d="M162.137 264.134C161.779 264.134 161.421 263.955 161.063 263.599C148.534 246.309 149.071 224.92 149.608 204.422C149.787 200.322 149.787 196.044 149.787 191.945C149.787 191.232 150.324 190.697 151.04 190.697C151.756 190.697 152.293 191.232 152.293 191.945C152.293 196.044 152.114 200.322 152.114 204.422C151.577 224.563 151.04 245.418 163.031 262.173C163.389 262.708 163.389 263.599 162.674 263.955C162.674 264.134 162.316 264.134 162.137 264.134Z" fill="#030000"/>
<path d="M192.205 300.495C192.026 300.495 191.669 300.495 191.49 300.317C190.953 299.96 190.774 299.069 191.311 298.535C192.026 297.465 192.742 296.396 193.458 295.148C194.174 293.9 194.89 292.652 195.785 291.405C196.143 290.87 197.038 290.692 197.575 291.227C198.112 291.583 198.291 292.474 197.754 293.009C197.038 294.078 196.322 295.148 195.606 296.396C194.89 297.643 194.174 298.891 193.279 300.139C192.921 300.317 192.563 300.495 192.205 300.495Z" fill="#030000"/>
<path d="M165.895 317.428C163.21 317.428 161.6 317.428 161.421 317.428C161.063 317.428 160.705 317.25 160.526 317.072C160.347 316.894 160.168 316.537 160.168 316.181C160.526 295.504 160.884 274.828 161.063 254.152C161.421 233.476 161.779 212.621 162.137 191.945C162.137 191.232 162.673 190.697 163.389 190.697C164.105 190.697 164.642 191.232 164.642 191.945C164.284 212.621 163.926 233.297 163.747 253.974C163.389 274.293 163.21 294.613 162.852 314.755C165.179 314.755 170.549 314.755 175.918 314.576C173.412 313.329 171.444 312.438 169.833 311.368C169.475 311.19 169.296 310.655 169.296 310.299C169.833 271.441 170.907 231.337 171.98 190.341C171.98 189.628 172.517 189.093 173.233 189.093C173.949 189.093 174.486 189.628 174.486 190.341C173.412 231.158 172.338 270.907 171.802 309.586C174.128 311.012 177.35 312.616 181.646 314.398C182.182 314.576 182.54 315.111 182.361 315.824C182.182 316.359 181.824 316.715 181.288 316.894C176.097 317.428 170.012 317.428 165.895 317.428Z" fill="#030000"/>
<path d="M162.674 308.873C161.958 308.873 161.421 308.338 161.421 307.625C161.421 306.912 161.958 306.377 162.674 306.377L168.043 306.021C168.759 306.021 169.296 306.555 169.296 307.268C169.296 307.981 168.759 308.516 168.043 308.516L162.674 308.873Z" fill="#030000"/>
<path d="M176.097 310.833C175.56 310.833 175.023 310.477 174.844 309.942C174.844 309.764 174.844 309.586 174.844 309.229C174.307 309.407 173.949 309.764 173.412 309.942C173.233 309.942 173.054 310.12 172.875 310.12C172.696 310.12 172.517 310.12 172.338 310.12C172.338 310.12 172.16 310.12 172.16 309.942C171.981 309.764 171.802 309.586 171.802 309.407C171.802 309.229 171.802 309.229 171.623 309.051C171.623 308.873 171.623 308.516 171.623 308.338C171.623 308.338 171.623 308.338 171.623 308.16C172.696 305.664 175.56 299.782 178.066 299.248C178.603 299.069 179.319 299.248 179.856 299.604C180.393 299.961 180.572 300.495 180.751 301.03C180.751 302.099 180.035 303.347 178.961 304.773C180.393 304.238 181.825 304.06 182.54 304.238C183.256 304.417 183.614 304.951 183.793 305.13C184.33 306.021 184.151 306.912 183.793 307.269C183.077 308.873 180.751 309.586 176.455 310.655C176.276 310.833 176.276 310.833 176.097 310.833ZM181.109 306.734C180.393 306.912 179.14 307.268 177.708 307.981C179.498 307.447 180.572 307.09 181.109 306.734Z" fill="#030000"/>
<path d="M192.922 311.19C192.564 311.19 192.206 311.19 191.848 311.011C191.311 310.655 190.058 310.12 190.953 306.199C189.7 307.268 188.447 308.16 187.373 308.16C186.657 308.16 186.12 307.803 185.762 307.268C185.404 306.912 185.225 306.199 185.404 305.664C185.941 303.347 191.669 300.139 193.995 298.891C194.174 298.713 194.532 298.713 194.711 298.713C194.89 298.713 194.89 298.713 195.069 298.713C195.248 298.891 195.427 298.891 195.606 299.247C195.606 299.247 195.606 299.426 195.785 299.426C195.785 299.604 195.964 299.782 195.964 299.96C195.964 300.139 195.964 300.317 195.785 300.495C195.606 301.03 195.248 301.565 195.069 301.921C195.248 301.921 195.606 301.743 195.785 301.921C196.501 302.099 196.859 302.634 196.859 303.347C195.964 307.803 195.427 309.942 193.816 310.833C193.816 311.012 193.459 311.19 192.922 311.19ZM194.174 304.951C193.638 306.377 193.28 307.447 193.28 308.338C193.459 307.625 193.817 306.199 194.174 304.951Z" fill="#030000"/>
<path d="M155.335 129.381C153.008 129.381 150.503 128.49 148.176 126.886C147.639 126.529 147.46 125.638 147.818 125.104C148.176 124.569 149.071 124.391 149.608 124.747C152.292 126.708 154.977 127.242 157.304 126.529C159.452 125.817 161.242 124.034 162.136 121.717C162.315 121.004 163.031 120.826 163.747 121.004C164.463 121.182 164.642 121.895 164.463 122.608C163.389 125.638 161.063 127.955 158.02 128.847C157.304 129.203 156.409 129.381 155.335 129.381Z" fill="#030000"/>
<path d="M116.675 163.604C108.084 163.604 98.5981 162.713 89.828 159.504C80.1629 156.118 72.8247 150.414 69.424 143.641C65.3075 135.62 66.2024 123.143 73.8986 118.152C74.4355 117.795 75.3304 117.974 75.6884 118.508C76.0464 119.043 75.8674 119.934 75.3304 120.291C68.8871 124.39 68.1712 135.442 71.5718 142.571C74.7935 148.81 81.4158 153.979 90.5439 157.366C103.61 162 118.286 161.643 129.562 160.752C133.678 160.396 137.795 160.039 142.27 159.504C152.114 158.435 162.495 157.365 171.623 157.544C172.339 157.544 172.875 158.078 172.875 158.791C172.875 159.504 172.339 160.039 171.623 160.039C162.495 159.861 152.293 160.93 142.449 162C137.974 162.535 133.678 162.891 129.562 163.248C125.803 163.426 121.329 163.604 116.675 163.604Z" fill="#030000"/>
<path d="M216.01 180.894C211.357 180.894 206.345 180.359 200.439 179.29C181.646 175.546 163.39 168.595 146.744 161.822C146.028 161.643 145.849 160.752 146.028 160.217C146.207 159.504 147.102 159.326 147.639 159.504C164.284 166.278 182.362 173.051 200.976 176.972C214.757 179.646 224.422 179.111 234.445 174.833C241.605 171.803 245.184 165.921 246.795 161.465C249.659 153.622 248.943 144.889 246.974 140.611C246.616 140.076 246.974 139.185 247.511 139.006C248.048 138.65 248.943 139.006 249.122 139.541C251.628 144.354 252.343 153.801 249.122 162.356C246.437 169.308 241.784 174.477 235.34 177.151C229.255 179.646 222.99 180.894 216.01 180.894Z" fill="#030000"/>
<path d="M183.793 163.604C183.256 163.604 182.898 163.426 182.719 162.891C180.214 157.722 174.844 153.266 169.833 152.196C164.284 150.949 158.378 151.484 152.83 152.018C150.861 152.196 148.713 152.375 146.744 152.553C142.807 152.909 138.511 153.266 134.573 153.622C133.857 153.622 133.321 153.088 133.321 152.375C133.321 151.662 133.857 151.127 134.573 151.127C138.69 150.949 142.807 150.414 146.744 150.058C148.713 149.879 150.861 149.701 152.83 149.523C158.378 148.988 164.642 148.453 170.549 149.701C176.276 150.949 182.362 155.94 185.225 161.822C185.583 162.356 185.225 163.248 184.688 163.426C184.151 163.604 183.972 163.604 183.793 163.604Z" fill="#030000"/>
<path d="M118.107 153.979C110.232 153.801 103.252 152.909 96.4503 151.483C91.2598 150.236 83.7425 147.206 79.8049 142.571C77.4782 139.898 76.4043 135.976 76.9412 132.59C77.2992 129.738 78.5521 127.421 80.6999 125.995C81.2368 125.638 82.1317 125.638 82.4897 126.351C82.8476 126.886 82.8476 127.777 82.1317 128.134C80.1629 129.56 79.626 131.52 79.447 132.946C79.089 135.798 79.9839 138.828 81.7738 141.145C85.3534 145.423 92.1547 148.097 96.9872 149.345C103.431 150.771 110.411 151.662 118.107 151.84C118.823 151.84 119.36 152.375 119.36 153.088C119.36 153.444 118.823 153.979 118.107 153.979Z" fill="#030000"/>
<path d="M215.831 171.625C208.851 171.625 202.05 170.199 197.933 169.486L196.322 169.13C188.268 167.525 179.856 164.674 171.802 161.822C169.833 161.109 168.043 160.574 166.074 159.861C165.358 159.683 165 158.97 165.358 158.257C165.537 157.544 166.253 157.187 166.969 157.544C168.759 158.079 170.728 158.792 172.697 159.504C180.751 162.178 189.163 165.03 197.038 166.634L198.649 166.991C207.956 168.951 232.834 173.942 238.92 155.94C239.099 155.227 239.815 154.87 240.531 155.227C241.247 155.405 241.605 156.118 241.247 156.831C237.13 168.595 226.212 171.625 215.831 171.625Z" fill="#030000"/>
<path d="M123.655 159.148C122.045 159.148 120.434 158.792 119.181 157.9C117.57 157.009 116.138 153.979 116.675 152.018C117.57 148.632 120.792 146.136 125.445 145.245C133.857 143.463 142.806 145.423 149.429 150.058C149.966 150.414 150.145 151.305 149.787 151.84C149.429 152.375 148.534 152.553 147.997 152.197C141.733 147.919 133.499 146.136 125.803 147.74C124.013 148.097 119.718 149.345 118.823 152.731C118.644 153.623 119.36 155.583 120.255 155.94C123.118 157.9 128.488 155.94 129.741 154.87C130.278 154.514 130.994 154.514 131.531 155.048C132.068 155.583 131.889 156.296 131.352 156.831C130.278 157.722 126.877 159.148 123.655 159.148Z" fill="#030000"/>
<path d="M198.291 119.4C198.112 119.4 198.112 119.4 197.933 119.4L187.194 116.013C186.657 115.835 186.299 115.3 186.299 114.765C186.299 114.231 186.657 113.696 187.194 113.518L197.933 111.022C198.649 110.844 199.365 111.2 199.365 111.913C199.365 112.626 199.186 113.339 198.47 113.339L192.205 114.765L198.649 116.726C199.365 116.904 199.723 117.617 199.544 118.33C199.365 119.043 198.828 119.4 198.291 119.4Z" fill="#030000"/>
<path d="M125.643 118.371C126.541 115.35 124.272 112.018 120.576 110.929C116.879 109.839 113.154 111.404 112.257 114.425C111.359 117.446 113.628 120.778 117.325 121.867C121.021 122.957 124.746 121.391 125.643 118.371Z" fill="#F89879"/>
<path d="M203.126 127.349C203.282 124.203 200.287 121.499 196.436 121.31C192.586 121.121 189.338 123.519 189.182 126.665C189.027 129.811 192.022 132.515 195.872 132.704C199.723 132.893 202.97 130.496 203.126 127.349Z" fill="#F89879"/>
<path d="M128.309 112.27C131.967 112.27 134.931 109.317 134.931 105.675C134.931 102.033 131.967 99.0799 128.309 99.0799C124.652 99.0799 121.687 102.033 121.687 105.675C121.687 109.317 124.652 112.27 128.309 112.27Z" fill="white"/>
<path d="M128.309 109.953C130.681 109.953 132.605 108.037 132.605 105.675C132.605 103.312 130.681 101.397 128.309 101.397C125.937 101.397 124.013 103.312 124.013 105.675C124.013 108.037 125.937 109.953 128.309 109.953Z" fill="#030000"/>
<path d="M255.63 92.0027C255.093 90.755 253.84 90.042 252.588 89.5073C250.619 88.4378 248.829 87.5466 247.755 85.5859C246.144 82.5558 245.965 79.5256 243.102 77.3867C241.312 76.139 238.627 76.4955 237.195 81.6645C236.121 85.0512 233.974 87.9031 230.931 90.042C230.394 90.3985 229.857 90.755 229.32 91.1114C228.425 91.6462 228.067 92.3592 228.067 93.2504C227.888 94.3198 228.067 95.3893 228.604 96.2805C229.678 97.7065 231.647 98.0629 232.9 98.9542C234.51 100.024 235.763 101.45 237.016 103.054C238.806 105.371 240.775 109.827 244.712 108.045C247.934 106.619 248.113 102.341 250.082 100.024C252.23 97.35 257.241 95.7458 255.63 92.0027Z" fill="#FEE8A5"/>
<path d="M265.432 78.764C265.969 79.477 266.685 79.6552 267.401 79.8335C268.654 80.19 269.549 80.5464 270.444 81.4377C271.697 82.8636 272.234 84.6461 274.023 85.5373C275.097 86.072 276.529 85.5373 276.529 82.5071C276.529 80.5464 277.424 78.5858 278.677 77.1598C278.856 76.9816 279.035 76.6251 279.393 76.4468C279.751 76.0904 279.93 75.5556 279.751 75.1991C279.751 74.6644 279.572 73.9514 279.035 73.5949C278.319 72.882 277.245 72.882 276.35 72.5255C275.276 72.169 274.381 71.456 273.665 70.743C272.413 69.6736 270.802 67.3564 268.833 68.7824C267.401 69.8518 267.759 72.3472 267.043 73.9514C266.506 75.3774 264.179 76.9816 265.432 78.764Z" fill="#FEE8A5"/>
<path d="M241.67 109.47C241.133 109.47 240.596 109.114 240.417 108.579C239.701 105.549 238.806 101.984 236.837 98.9541C234.868 95.924 232.363 93.9633 229.499 93.2503C228.962 93.0721 228.604 92.7156 228.604 92.1809C228.604 91.6461 228.962 91.1114 229.32 90.9331C231.826 90.0419 233.616 88.616 235.405 86.6553C238.627 83.0904 240.238 75.2477 240.238 75.0695C240.417 74.5347 240.954 74 241.491 74C242.207 74 242.565 74.5347 242.744 75.2477C242.744 75.2477 243.102 81.6645 247.397 86.8335C249.545 89.5072 254.198 91.4679 254.198 91.4679C254.735 91.6461 255.093 92.1809 254.914 92.7156C254.914 93.2503 254.377 93.785 254.019 93.785C247.934 95.0328 242.744 101.806 242.744 108.223C242.923 108.936 242.386 109.47 241.67 109.47C241.849 109.47 241.67 109.47 241.67 109.47ZM232.9 91.8244C235.226 93.0721 237.195 95.0328 238.985 97.5282C240.059 99.1324 240.775 100.915 241.491 102.697C243.102 98.2411 246.681 94.1415 250.798 92.1809C249.187 91.2896 247.039 89.8637 245.786 88.2595C243.638 85.7641 242.386 82.9122 241.491 80.4168C240.596 83.0904 239.343 85.9423 237.374 88.0813C235.942 89.6854 234.51 90.9331 232.9 91.8244Z" fill="#030000"/>
<path d="M273.128 89.9934C272.412 89.9934 271.875 89.4587 271.875 88.924C271.875 88.924 271.517 85.0026 269.011 81.9725C267.58 80.5465 264.895 79.2988 264.716 79.2988C264.179 79.1206 264 78.5858 264 78.0511C264 77.5164 264.358 77.1599 264.895 76.9816C268.475 76.0904 271.696 71.8126 271.696 68.2477C271.696 67.5347 272.233 67 272.77 67C273.307 67 274.023 67.3565 274.202 67.8912V68.2477C274.739 70.2084 275.276 72.1691 276.35 73.7733C277.603 75.5557 279.034 76.6252 280.824 77.1599C281.361 77.3381 281.719 77.8729 281.719 78.4076C281.719 78.9423 281.361 79.4771 280.824 79.6553C279.571 80.0118 278.498 81.0812 277.245 82.1507C275.276 84.2896 274.381 89.1022 274.381 89.1022C274.202 89.6369 273.665 89.9934 273.128 89.9934ZM268.117 78.2294C269.011 78.7641 270.085 79.4771 270.801 80.19C271.875 81.4377 272.591 82.8637 273.128 84.1114C273.665 82.6854 274.381 81.2595 275.455 80.19C276.171 79.4771 276.887 78.7641 277.603 78.2294C276.35 77.5164 275.276 76.2687 274.202 75.021C273.665 74.308 273.307 73.595 272.949 72.7038C271.875 75.021 270.264 76.9816 268.117 78.2294Z" fill="#030000"/>
</svg>
