<svg width="24" height="24" viewBox="0 0 24 24" fill="none" xmlns="http://www.w3.org/2000/svg">
<path d="M20.8862 6.90372C20.3098 6.42337 19.7334 6.13516 19.157 6.23123C19.157 4.79018 18.6766 3.4452 17.2356 2.96485C16.0827 2.58057 15.122 3.15699 14.4495 4.11769C13.777 2.96485 12.8163 2.19629 11.5674 2.19629C10.4146 2.29236 9.45389 3.15699 8.97354 4.4059C8.20498 3.73341 7.34036 3.4452 6.37966 3.92555C5.70717 4.30983 5.22682 5.07839 5.03468 5.84695C2.92115 5.27053 0.807606 8.34477 2.34472 11.1308C2.34472 11.6111 2.53686 12.0915 3.01721 12.1876C8.97354 13.7247 15.0259 14.205 20.9823 13.7247C21.5587 13.7247 21.8469 12.9561 21.6548 12.3797C22.1351 10.7465 22.3273 8.34476 20.8862 6.90372Z" fill="#EDC15E"/>
<path d="M22.6155 12.1875C22.6155 12.1875 22.9037 20.6417 12.4321 21.6984C2.34473 22.6591 1.57617 12.2836 1.57617 12.2836L22.6155 12.1875Z" fill="#32B2A8"/>
<path d="M1.48035 12.8599C1.19214 12.8599 1 12.6677 1 12.3795C1 12.0913 1.19214 11.8992 1.48035 11.8992L22.5197 11.707C22.8079 11.707 23 11.8992 23 12.1874C23 12.4756 22.8079 12.6677 22.5197 12.6677L1.48035 12.8599Z" fill="black"/>
<path d="M15.5064 6.90328C15.4103 6.90328 15.4103 6.90328 15.3142 6.90328C14.5457 6.80721 13.681 5.94259 13.3928 4.78975C13.0085 3.63691 13.2968 2.58013 13.9692 2.19586C14.6417 1.81158 15.3142 2.00372 15.8906 2.6762C16.7553 3.6369 17.0435 5.5583 16.2749 6.519C16.1788 6.71114 15.8906 6.90328 15.5064 6.90328ZM14.6417 2.96442C14.5457 2.96442 14.4496 2.96442 14.4496 3.06049C14.2575 3.15656 14.0653 3.82904 14.3535 4.5976C14.5457 5.36616 15.1221 5.94258 15.5064 6.03865C16.0828 5.46223 15.7946 4.02119 15.2181 3.3487C15.026 2.96442 14.8339 2.96442 14.6417 2.96442Z" fill="black"/>
<path d="M7.1495 7.19178C6.95736 7.19178 6.76522 7.19177 6.57308 7.0957C5.90059 6.80749 5.61239 6.03893 5.80453 5.17431C6.09274 4.02147 7.34164 2.9647 8.49447 3.06077C8.87875 3.06077 9.16697 3.25291 9.35911 3.63719C9.74339 4.30968 9.55124 5.46252 8.97482 6.23108C8.49447 6.8075 7.72592 7.19178 7.1495 7.19178ZM8.30234 3.9254C7.62985 3.9254 6.86129 4.69396 6.66915 5.36645C6.47701 5.94287 6.8613 6.135 6.95737 6.135C7.14951 6.23107 7.72592 6.03894 8.1102 5.55859C8.49448 4.98217 8.59054 4.30968 8.49447 4.02147C8.49447 4.02147 8.49448 3.9254 8.30234 3.9254C8.39841 3.9254 8.39841 3.9254 8.30234 3.9254Z" fill="black"/>
<path d="M11.5678 10.842C11.4717 10.842 11.3757 10.842 11.2796 10.842C10.2228 10.746 9.35819 10.0735 9.26212 9.30493C9.16605 8.53637 9.6464 7.86388 10.511 7.67174C11.5678 7.38353 13.201 7.76781 13.7774 8.82458C13.9695 9.11279 13.8735 9.49707 13.7774 9.78528C13.3931 10.4578 12.4324 10.842 11.5678 10.842ZM10.2228 9.20886C10.2228 9.49707 10.7032 9.78527 11.3757 9.88134C12.0481 9.97741 12.7206 9.68921 12.8167 9.30493C12.8167 9.20886 12.8167 9.20886 12.8167 9.20886C12.5285 8.63244 11.3757 8.34422 10.7032 8.53636C10.2228 8.7285 10.2228 9.11279 10.2228 9.20886Z" fill="black"/>
<path d="M18.1013 11.0341C17.8131 11.0341 17.5249 10.938 17.3328 10.842C16.6603 10.4577 16.5642 9.68911 16.8524 8.92055C17.3328 7.76771 18.8699 6.71095 20.0227 6.99915C20.407 7.09522 20.5991 7.38344 20.7913 7.67165C21.0795 8.44021 20.5991 9.49697 19.8306 10.2655C19.3502 10.7459 18.6777 11.0341 18.1013 11.0341ZM19.6384 7.76772C18.9659 7.76772 18.0052 8.53628 17.717 9.20877C17.4288 9.78518 17.717 9.97732 17.8131 9.97732C18.0052 10.0734 18.6777 9.97732 19.1581 9.49697C19.7345 9.01662 19.9266 8.24807 19.8306 7.86379C19.8306 7.76772 19.8306 7.76772 19.7345 7.76772C19.8306 7.76772 19.7345 7.76772 19.6384 7.76772Z" fill="black"/>
<path d="M4.0735 11.0346C3.97743 11.0346 3.78528 11.0346 3.68921 10.9386C3.01673 10.6504 2.72852 9.78572 2.72852 9.01716C2.72852 8.15253 3.20887 7.38398 3.78529 7.19184C4.36171 7.09577 4.93813 7.38398 5.22634 8.05646C5.61062 8.92109 5.41847 10.3621 4.64991 10.9386C4.3617 10.9386 4.26564 11.0346 4.0735 11.0346ZM3.97743 8.15254C3.88136 8.15254 3.68921 8.53681 3.68921 9.01716C3.68921 9.49751 3.97742 9.97787 4.16956 10.0739C4.45777 9.8818 4.64993 9.01717 4.36172 8.44075C4.16958 8.05647 3.97743 8.15254 3.97743 8.15254Z" fill="black"/>
</svg>
