<svg width="24" height="24" viewBox="0 0 24 24" fill="none" xmlns="http://www.w3.org/2000/svg">
<path d="M20.9815 7.57568C20.4051 7.09533 19.7326 6.90319 19.1561 6.90319C19.0601 5.36608 18.5797 3.92503 17.0426 3.54075C15.7937 3.25254 14.833 3.82895 14.1605 4.88572C13.488 3.73288 12.3352 2.86825 11.0863 2.96432C9.83737 3.06039 8.97274 4.11716 8.49239 5.36607C7.72383 4.69358 6.76313 4.40538 5.80243 4.9818C5.03387 5.46215 4.6496 6.2307 4.55353 7.09533C2.34392 6.51891 0.23038 9.88136 1.95964 12.7635C1.95964 13.2438 2.24785 13.7242 2.7282 13.8202C8.87667 15.1652 15.1212 15.5495 21.3658 14.877C21.9422 14.7809 22.1343 14.1084 22.0382 13.532C22.4225 11.6106 22.5186 9.01673 20.9815 7.57568Z" fill="#BE8574"/>
<path d="M22.6155 13.5322C22.6155 13.5322 22.9037 21.9864 12.4321 23.0431C2.34473 24.0038 1.57617 13.6283 1.57617 13.6283L22.6155 13.5322Z" fill="#32B2A8"/>
<path d="M1.48035 14.2046C1.19214 14.2046 1 14.0125 1 13.7243C1 13.436 1.19214 13.2439 1.48035 13.2439L22.5197 13.0518C22.8079 13.0518 23 13.2439 23 13.5321C23 13.8203 22.8079 14.0125 22.5197 14.0125L1.48035 14.2046Z" fill="black"/>
<path d="M10.8963 12.7639C10.4159 12.7639 9.83948 12.6678 9.4552 12.3796C9.07093 12.1875 8.78272 11.8992 8.68665 11.515C8.59058 11.2268 8.4945 10.9385 8.59057 10.5543C8.68664 9.4975 9.35913 8.63287 10.2238 8.24859C11.0884 7.86431 11.953 8.05645 12.7216 8.72894C13.3941 9.30536 13.6823 10.17 13.3941 11.0346C13.2019 11.8032 12.5294 12.4757 11.7609 12.6678C11.4727 12.6678 11.1845 12.7639 10.8963 12.7639ZM9.4552 10.6503C9.4552 10.8425 9.4552 11.0346 9.55127 11.1307C9.64734 11.2268 9.74341 11.4189 9.93555 11.515C10.4159 11.8032 10.9923 11.8993 11.4727 11.7071C11.953 11.515 12.3373 11.1307 12.4334 10.7464C12.5294 10.2661 12.4334 9.78571 12.0491 9.4975C11.5687 9.11322 10.9923 9.01715 10.512 9.20929C9.93555 9.40143 9.55127 9.97785 9.4552 10.6503Z" fill="black"/>
<path d="M12.9119 6.71114C12.4315 6.71114 11.8551 6.61507 11.4708 6.32686C11.0865 6.13472 10.7983 5.84652 10.7023 5.46224C10.6062 5.17403 10.5101 4.88582 10.6062 4.50154C10.7023 3.44477 11.3748 2.58013 12.2394 2.19585C13.104 1.81158 13.9686 2.00372 14.7372 2.6762C15.4097 3.25262 15.6018 4.11726 15.4097 4.98189C15.2176 5.75045 14.5451 6.42294 13.7765 6.61508C13.3922 6.61508 13.104 6.71114 12.9119 6.71114ZM13.0079 2.96442C12.8158 2.96442 12.6237 2.96442 12.5276 3.06049C11.9512 3.25263 11.5669 3.82904 11.4708 4.5976C11.4708 4.78974 11.4708 4.98189 11.5669 5.07796C11.663 5.17403 11.759 5.36617 11.9512 5.46224C12.4315 5.75045 13.0079 5.84652 13.4883 5.65438C13.9686 5.46224 14.3529 5.07796 14.449 4.69368C14.5451 4.21333 14.449 3.73298 14.0647 3.44477C13.6804 3.06049 13.2962 2.96442 13.0079 2.96442Z" fill="black"/>
<path d="M3.88258 10.7463C3.40223 10.7463 2.82581 10.6502 2.44153 10.362C2.05725 10.1699 1.76904 9.88167 1.67297 9.49739C1.5769 9.20918 1.48083 8.92097 1.5769 8.53669C1.67297 7.47992 2.34546 6.61529 3.21009 6.23101C4.07472 5.84673 4.93935 6.03887 5.70791 6.71136C6.3804 7.28778 6.57254 8.15241 6.3804 9.01704C6.18826 9.7856 5.51577 10.4581 4.74721 10.6502C4.459 10.6502 4.17079 10.7463 3.88258 10.7463ZM4.07472 6.99957C3.88258 6.99957 3.69044 6.99957 3.59437 7.09564C3.01795 7.28778 2.63367 7.8642 2.5376 8.63276C2.5376 8.8249 2.5376 9.01704 2.63367 9.11311C2.72974 9.20918 2.82581 9.40132 3.01795 9.49739C3.4983 9.7856 4.07472 9.88167 4.55507 9.68953C5.03542 9.49739 5.4197 9.11311 5.51577 8.72883C5.61184 8.24848 5.51577 7.76813 5.13149 7.47992C4.74721 7.09564 4.36293 6.99957 4.07472 6.99957Z" fill="black"/>
<path d="M19.4463 10.6504C18.6777 10.6504 18.0053 10.2661 17.5249 9.68968C17.2367 9.3054 17.1406 8.92113 17.1406 8.44078C17.1406 7.76829 17.3328 7.19186 17.717 6.80758C18.1974 6.23116 18.966 6.13509 19.7345 6.32723C20.5991 6.61544 21.2716 7.28794 21.4638 8.05649C21.6559 9.01719 21.0795 10.17 20.1188 10.5543C20.0227 10.6504 19.7345 10.6504 19.4463 10.6504ZM18.4856 7.38401C18.2935 7.57615 18.1013 7.96043 18.1013 8.34471C18.1013 8.63292 18.1974 8.92112 18.2935 9.11326C18.5817 9.59361 19.2542 9.78575 19.8306 9.59361C20.407 9.40147 20.6952 8.72898 20.5991 8.15256C20.5031 7.67221 20.1188 7.28794 19.5424 7.0958C19.4463 7.0958 18.8699 6.99973 18.4856 7.38401Z" fill="black"/>
</svg>
