<svg width="24" height="24" viewBox="0 0 24 24" fill="none" xmlns="http://www.w3.org/2000/svg">
<path d="M20.7037 6.68696C20.1298 6.2087 19.5559 5.92174 18.982 6.01739C18.982 4.58261 18.5037 3.24348 17.0689 2.76522C15.9211 2.38261 14.9646 2.95652 14.295 3.91304C13.6254 2.76522 12.6689 2 11.4254 2C10.2776 2.09565 9.32109 2.95652 8.84283 4.2C8.07761 3.53044 7.21674 3.24348 6.26022 3.72174C5.59065 4.10435 5.11239 4.86957 4.92109 5.63479C2.81674 5.06087 0.712391 8.12174 2.24283 10.8957C2.24283 11.3739 2.43413 11.8522 2.91239 11.9478C8.84283 13.4783 14.8689 13.9565 20.7993 13.4783C21.3733 13.4783 21.6602 12.713 21.4689 12.1391C22.0428 10.513 22.2341 8.12174 20.7037 6.68696Z" fill="#EED3B1"/>
<path d="M22.522 11.9482C22.522 11.9482 22.809 20.3656 12.3829 21.4178C2.33944 22.3743 1.57422 12.0439 1.57422 12.0439L22.522 11.9482Z" fill="#32B2A8"/>
<path d="M1.47826 12.6176C1.1913 12.6176 1 12.4263 1 12.1393C1 11.8524 1.1913 11.6611 1.47826 11.6611L22.5217 11.5654C22.8087 11.5654 23 11.7567 23 12.0437C23 12.3306 22.8087 12.522 22.5217 12.522L1.47826 12.6176Z" fill="black"/>
<path d="M10.853 10.9915C10.4704 10.9915 9.99213 10.8959 9.60953 10.6089C9.32257 10.4176 9.03561 10.1306 8.93996 9.84369C8.84431 9.55673 8.74866 9.26978 8.84431 8.98282C8.93996 8.12196 9.41822 7.35674 10.2791 7.06978C11.0443 6.78282 11.8095 6.87847 12.4791 7.45238C13.053 7.93064 13.2443 8.69586 13.053 9.36543C12.8617 10.035 12.2878 10.6089 11.6182 10.8002C11.3313 10.9915 11.0443 10.9915 10.853 10.9915ZM10.9487 7.93064C10.853 7.93064 10.6617 7.93065 10.566 8.0263C10.0878 8.21761 9.80083 8.69587 9.80083 9.17413C9.80083 9.36543 9.80083 9.46108 9.80083 9.55674C9.80083 9.65239 9.99213 9.74804 10.0878 9.84369C10.4704 10.035 10.853 10.1306 11.2356 10.035C11.6182 9.93935 11.9052 9.65239 12.0008 9.26978C12.0965 8.88717 12.0008 8.50456 11.7139 8.31326C11.5226 8.0263 11.2356 7.93064 10.9487 7.93064Z" fill="black"/>
<path d="M18.8877 10.8961C18.3138 10.8961 17.6442 10.6091 17.3573 10.0352C17.166 9.74828 17.0703 9.36567 17.0703 8.98306C17.0703 8.5048 17.2616 7.93089 17.5486 7.64393C17.9312 7.16567 18.6007 7.07002 19.2703 7.26132C19.9399 7.45262 20.5138 8.02654 20.7051 8.6961C20.8964 9.55697 20.4181 10.4178 19.6529 10.7048C19.366 10.8004 19.1747 10.8961 18.8877 10.8961ZM18.2181 8.31349C18.0268 8.5048 17.9312 8.69611 17.9312 8.98306C17.9312 9.17437 18.0268 9.36567 18.1225 9.55697C18.3138 9.84393 18.7921 10.0352 19.1747 9.84393C19.5573 9.65262 19.7486 9.27001 19.6529 8.8874C19.5573 8.60045 19.2703 8.3135 18.8877 8.12219C18.7921 8.12219 18.5051 8.02654 18.2181 8.31349Z" fill="black"/>
<path d="M6.35693 7.1651C6.16563 7.1651 5.97432 7.1651 5.78302 7.06945C5.11345 6.87815 4.63519 6.39988 4.53954 5.82597C4.44389 5.25206 4.63519 4.7738 5.11345 4.39119C5.49606 4.10423 5.97432 4.00858 6.35693 4.10423C6.93084 4.29553 7.50476 4.7738 7.69606 5.34771C7.98302 6.01727 7.69606 6.68684 7.12215 7.06945C6.83519 7.06945 6.64389 7.1651 6.35693 7.1651ZM6.06997 6.11293C6.35693 6.20858 6.54823 6.20858 6.64389 6.11293C6.83519 6.01728 6.83519 5.73032 6.73954 5.63467C6.64389 5.44336 6.35693 5.1564 6.06997 5.06075C5.87867 4.9651 5.68736 5.06076 5.68736 5.15641C5.49606 5.34771 5.40041 5.53902 5.49606 5.73032C5.49606 5.82597 5.78302 6.01728 6.06997 6.11293Z" fill="black"/>
<path d="M14.6773 7.2605C14.5816 7.2605 14.5816 7.2605 14.486 7.2605C13.7208 7.16485 13.0512 6.49529 13.0512 5.73007C12.9555 4.8692 13.4338 4.19963 14.199 4.00833C14.9642 3.81703 15.9208 4.19964 16.3034 5.25181C16.399 5.53877 16.399 5.82573 16.3034 6.11268C16.0164 6.78225 15.3468 7.2605 14.6773 7.2605ZM14.486 4.8692H14.3903C14.1034 4.96485 13.9121 5.15615 14.0077 5.53876C14.0077 5.82572 14.2947 6.11268 14.6773 6.20833C14.9642 6.30398 15.3468 6.01703 15.4425 5.73007C15.4425 5.63442 15.4425 5.53876 15.4425 5.44311C15.2512 5.15616 14.8686 4.8692 14.486 4.8692Z" fill="black"/>
<path d="M3.29499 11.1822C3.19934 11.1822 3.19934 11.1822 3.10369 11.1822C2.52977 11.0865 1.95586 10.6083 1.95586 9.93869C1.86021 9.07782 2.43412 8.69521 2.91238 8.50391C3.48629 8.40825 4.34716 8.69521 4.63412 9.55608C4.72977 9.74738 4.72977 10.0343 4.63412 10.3213C4.34716 10.7996 3.8689 11.1822 3.29499 11.1822ZM3.19934 9.46043C3.10368 9.46043 3.10368 9.46043 3.19934 9.46043C3.10368 9.46043 2.91238 9.55607 2.91238 9.84303C2.91238 10.0343 3.10368 10.2256 3.29499 10.2256C3.48629 10.2256 3.6776 10.13 3.6776 9.93869C3.6776 9.84304 3.6776 9.84303 3.6776 9.84303C3.58194 9.55607 3.29499 9.46043 3.19934 9.46043Z" fill="black"/>
</svg>
