<svg width="24" height="24" viewBox="0 0 24 24" fill="none" xmlns="http://www.w3.org/2000/svg">
<path d="M20.7905 6.70743C20.2141 6.22708 19.6377 5.93887 19.0613 6.03494C19.0613 4.59389 18.5809 3.24891 17.1399 2.76856C15.987 2.38428 15.0263 2.9607 14.3538 3.9214C13.6813 2.76856 12.7206 2 11.4717 2C10.3189 2.09607 9.3582 2.9607 8.87785 4.20961C8.10929 3.53712 7.24467 3.24891 6.28397 3.72926C5.61148 4.11354 5.13112 4.8821 4.93898 5.65066C2.82544 5.07424 0.711903 8.14848 2.24902 10.9345C2.24902 11.4149 2.44117 11.8952 2.92152 11.9913C8.87785 13.5284 14.9303 14.0087 20.8866 13.5284C21.463 13.5284 21.7512 12.7598 21.5591 12.1834C22.1355 10.5502 22.3276 8.14847 20.7905 6.70743Z" fill="#FFE144"/>
<path d="M22.6155 11.9912C22.6155 11.9912 22.9037 20.4454 12.4321 21.5021C2.34473 22.4628 1.57617 12.0873 1.57617 12.0873L22.6155 11.9912Z" fill="#32B2A8"/>
<path d="M1.48035 12.6636C1.19214 12.6636 1 12.4714 1 12.1832C1 11.895 1.19214 11.7029 1.48035 11.7029L22.5197 11.5107C22.8079 11.5107 23 11.7029 23 11.9911C23 12.2793 22.8079 12.4714 22.5197 12.4714L1.48035 12.6636Z" fill="black"/>
<path d="M14.6415 6.03468C14.5454 6.03468 14.5454 6.03468 14.4493 6.03468C13.6808 5.93861 13.0083 5.26612 13.0083 4.49756C12.9122 3.63293 13.3926 2.96044 14.1611 2.7683C14.9297 2.57616 15.8904 2.96044 16.2746 4.01721C16.3707 4.30542 16.3707 4.59363 16.2746 4.88184C16.0825 5.6504 15.41 6.03468 14.6415 6.03468ZM13.969 4.40149C13.969 4.6897 14.2572 4.97791 14.6415 5.07398C14.9297 5.07398 15.314 4.88184 15.41 4.59363C15.41 4.49756 15.41 4.40149 15.41 4.30542C15.2179 3.82507 14.7375 3.63293 14.4493 3.63293C14.065 3.82507 13.969 4.01721 13.969 4.40149Z" fill="black"/>
<path d="M7.24499 7.76417C7.14892 7.76417 7.14891 7.76417 7.05284 7.76417C6.28428 7.6681 5.61179 6.99561 5.61179 6.22706C5.51572 5.36243 5.99608 4.68993 6.76464 4.49779C7.5332 4.30565 8.4939 4.68994 8.87818 5.74671C8.97425 6.03492 8.97425 6.32313 8.87818 6.61134C8.58997 7.28383 7.91748 7.76417 7.24499 7.76417ZM6.57249 6.13099C6.57249 6.4192 6.86071 6.7074 7.24499 6.80347C7.5332 6.80347 7.91747 6.61133 8.01354 6.32312C8.01354 6.22705 8.01354 6.13099 8.01354 6.03492C7.8214 5.55457 7.34105 5.36242 7.05284 5.36242C6.66856 5.45849 6.47642 5.65064 6.57249 6.13099Z" fill="black"/>
<path d="M10.8954 10.646C10.7993 10.646 10.7993 10.646 10.7032 10.646C9.93467 10.5499 9.26218 9.87745 9.26218 9.10889C9.16611 8.24426 9.64646 7.57177 10.415 7.37963C11.1836 7.18749 12.1443 7.57177 12.5286 8.62854C12.6246 8.91675 12.6246 9.20496 12.5286 9.49317C12.2404 10.2617 11.5679 10.646 10.8954 10.646ZM10.1268 9.01282C10.1268 9.30103 10.415 9.58924 10.7993 9.68531C11.0875 9.68531 11.4718 9.49317 11.5679 9.20496C11.5679 9.10889 11.5679 9.01282 11.5679 8.91675C11.3757 8.4364 10.8954 8.24426 10.6072 8.24426C10.319 8.4364 10.1268 8.62854 10.1268 9.01282Z" fill="black"/>
<path d="M19.3485 11.2231C19.2524 11.2231 19.2524 11.2231 19.1564 11.2231C18.3878 11.1271 17.7153 10.4546 17.7153 9.68603C17.6192 8.8214 18.0996 8.14892 18.8681 7.95678C19.6367 7.76464 20.5974 8.14891 20.9817 9.20568C21.0777 9.49389 21.0777 9.7821 20.9817 10.0703C20.6935 10.7428 20.021 11.2231 19.3485 11.2231ZM19.1564 8.8214C19.0603 8.8214 19.0603 8.8214 19.0603 8.8214C18.7721 8.91747 18.5799 9.10962 18.676 9.4939C18.676 9.78211 18.9642 10.0703 19.3485 10.1664C19.6367 10.1664 20.021 9.97424 20.1171 9.68603C20.1171 9.58996 20.1171 9.4939 20.1171 9.39783C19.9249 9.10962 19.5406 8.8214 19.1564 8.8214Z" fill="black"/>
<path d="M3.20908 11.2223C3.11301 11.2223 3.11301 11.2223 3.01694 11.2223C2.34445 11.1262 1.86411 10.6458 1.86411 9.97335C1.76804 9.20479 2.34446 8.72444 2.82481 8.5323C3.40123 8.43623 4.26586 8.72444 4.55407 9.58907C4.65014 9.78121 4.65014 10.0694 4.55407 10.3576C4.36193 10.838 3.7855 11.2223 3.20908 11.2223ZM3.11302 9.493C3.01695 9.493 2.82481 9.58907 2.82481 9.87728C2.82481 10.0694 3.01694 10.2616 3.20908 10.2616C3.40122 10.2616 3.59337 10.1655 3.59337 9.97335C3.59337 9.87728 3.59337 9.87728 3.59337 9.87728C3.4973 9.58907 3.30516 9.493 3.11302 9.493Z" fill="black"/>
</svg>
