<?xml version="1.0" encoding="UTF-8"?> <svg xmlns="http://www.w3.org/2000/svg" width="85" height="78" viewBox="0 0 85 78" fill="none"><path d="M31.8484 52.3249C34.4478 53.5624 35.5779 56.5999 34.4478 59.2999C33.2046 61.8874 30.1532 63.0124 27.4408 61.8874C24.7284 60.7624 23.7113 57.6124 24.8414 54.9124C26.0846 52.2124 29.2491 51.0874 31.8484 52.3249Z" fill="#E3CDA8"></path><path d="M31.1701 53.6749C33.0913 54.5749 33.8825 56.7124 32.9783 58.6249C32.0742 60.5374 29.9269 61.3249 28.0056 60.4249C26.0844 59.5249 25.2932 57.3874 26.1974 55.4749C27.1015 53.5624 29.3618 52.7749 31.1701 53.6749Z" fill="#EFD9B4"></path><path d="M29.4748 57.2749C30.2659 57.6124 30.831 58.3999 30.4919 58.9624C30.2659 59.5249 29.3618 59.6374 28.5706 59.1874C27.7795 58.8499 27.2145 58.0624 27.5535 57.4999C27.7795 56.9374 28.6837 56.8249 29.4748 57.2749Z" fill="#FFEED0"></path><path d="M24.8406 54.7999C24.6146 55.2499 24.8406 55.8124 25.2927 56.0374L26.4229 56.5999C26.8749 56.8249 27.44 56.7124 27.666 56.2624C27.8921 55.8124 27.666 55.2499 27.214 55.0249L25.9708 54.4624C25.6317 54.1249 25.0667 54.3499 24.8406 54.7999Z" fill="#C5AC8D"></path><path d="M46.1083 41.8926C47.9746 39.7208 47.7188 36.4541 45.537 34.5964C43.3552 32.7386 40.0736 32.9933 38.2073 35.1651C36.341 37.337 36.5968 40.6036 38.7786 42.4613C40.9604 44.3191 44.2421 44.0645 46.1083 41.8926Z" fill="#E3CDA8"></path><path d="M42.7485 42.1624C44.7819 41.8353 46.1639 39.9294 45.8354 37.9053C45.5069 35.8811 43.5921 34.5054 41.5587 34.8324C39.5253 35.1594 38.1433 37.0654 38.4718 39.0895C38.8003 41.1137 40.7151 42.4894 42.7485 42.1624Z" fill="#EFD9B4"></path><path d="M41.9317 38.3749C41.4796 39.1624 40.6885 39.6124 40.1235 39.2749C39.6714 38.9374 39.5584 38.1499 40.0104 37.3624C40.4625 36.5749 41.2536 36.1249 41.8187 36.4624C42.3838 36.6874 42.4968 37.5874 41.9317 38.3749Z" fill="#FFEED0"></path><path d="M44.8689 33.9874C44.4169 33.7624 43.8518 33.8749 43.6258 34.3249L42.9477 35.4499C42.7216 35.8999 42.8347 36.4624 43.1737 36.6874C43.6258 37.0249 44.1908 36.7999 44.4169 36.3499L45.095 35.2249C45.434 34.7749 45.321 34.2124 44.8689 33.9874Z" fill="#C5AC8D"></path><path d="M35.1269 31.6239C36.1441 34.3239 34.9009 37.3614 32.1885 38.3739C29.4761 39.3864 26.4247 38.1489 25.4076 35.4489C24.3904 32.7489 25.6336 29.7114 28.346 28.6989C31.0584 27.6864 34.1098 28.9239 35.1269 31.6239Z" fill="#E3CDA8"></path><path d="M32.7762 36.2571C34.2944 34.8715 34.3968 32.5231 33.0048 31.0118C31.6128 29.5004 29.2536 29.3986 27.7354 30.7842C26.2171 32.1698 26.1148 34.5183 27.5067 36.0296C28.8987 37.5409 31.2579 37.6428 32.7762 36.2571Z" fill="#EFD9B4"></path><path d="M30.0417 33.65C30.3807 34.55 30.2677 35.3375 29.7026 35.5625C29.1375 35.7875 28.4594 35.225 28.1204 34.4375C27.7814 33.5375 27.8944 32.75 28.4594 32.525C28.9115 32.3 29.7026 32.75 30.0417 33.65Z" fill="#FFEED0"></path><path d="M28.3454 28.7C27.8934 28.925 27.6673 29.375 27.8934 29.9375L28.3454 31.0625C28.5715 31.5125 29.0235 31.85 29.4756 31.625C29.9276 31.5125 30.2667 30.95 30.0407 30.3875L29.5886 29.15C29.3626 28.7 28.7975 28.475 28.3454 28.7Z" fill="#C5AC8D"></path><path d="M15.1679 25.6056C16.1851 28.3056 14.9419 31.3431 12.2295 32.3556C9.51715 33.3681 6.46572 32.1306 5.44858 29.4306C4.43144 26.7306 5.67461 23.6931 8.38699 22.6806C11.0994 21.5556 14.1508 22.9056 15.1679 25.6056Z" fill="#E3CDA8"></path><path d="M13.7593 29.006C14.5793 27.125 13.7122 24.9384 11.8226 24.1222C9.93293 23.3059 7.73635 24.1691 6.91636 26.0501C6.09637 27.9311 6.96348 30.1176 8.8531 30.9339C10.7427 31.7501 12.9393 30.887 13.7593 29.006Z" fill="#EFD9B4"></path><path d="M10.0827 27.6306C10.4217 28.5306 10.3087 29.3181 9.74364 29.5431C9.17856 29.7681 8.50046 29.2056 8.16142 28.4181C7.82237 27.5181 7.93539 26.7306 8.50046 26.5056C9.06554 26.1681 9.74364 26.7306 10.0827 27.6306Z" fill="#FFEED0"></path><path d="M8.38644 22.6806C7.93438 22.9056 7.70834 23.3556 7.93438 23.9181L8.38644 25.0431C8.61247 25.4931 9.06453 25.8306 9.5166 25.6056C9.96866 25.4931 10.3077 24.9306 10.0817 24.3681L9.62961 23.1306C9.40358 22.6806 8.8385 22.4556 8.38644 22.6806Z" fill="#C5AC8D"></path><path d="M13.9258 47.2913C14.9429 49.9913 13.6997 53.0288 10.9873 54.0413C8.27496 55.0538 5.22353 53.8163 4.20639 51.1163C3.18925 48.4163 4.43242 45.3788 7.1448 44.3663C9.74417 43.3538 12.7956 44.7038 13.9258 47.2913Z" fill="#E3CDA8"></path><path d="M12.4566 47.8538C13.2477 49.7663 12.2306 51.9038 10.3093 52.6913C8.38802 53.4788 6.24072 52.4663 5.44961 50.5538C4.6585 48.6413 5.67564 46.5038 7.59691 45.7163C9.51818 45.0413 11.7785 45.9413 12.4566 47.8538Z" fill="#EFD9B4"></path><path d="M8.72722 49.3163C9.06627 50.2163 8.95325 51.0038 8.38817 51.2288C7.82309 51.4538 7.145 50.8913 6.80595 50.1038C6.4669 49.2038 6.57992 48.4163 7.145 48.1913C7.71008 47.9663 8.38817 48.5288 8.72722 49.3163Z" fill="#FFEED0"></path><path d="M7.03097 44.3664C6.57891 44.5914 6.35288 45.0414 6.57891 45.6039L7.03097 46.7289C7.257 47.1789 7.70907 47.5164 8.16113 47.2914C8.6132 47.1789 8.95224 46.6164 8.72621 46.0539L8.27415 44.8164C8.04812 44.4789 7.59605 44.2539 7.03097 44.3664Z" fill="#C5AC8D"></path><path d="M46.4286 16.7749C44.9594 19.2499 41.7949 20.1499 39.3086 18.6874C36.8222 17.2249 35.9181 14.0749 37.3873 11.5999C38.8565 9.12492 42.021 8.22492 44.5073 9.68742C46.9937 11.0374 47.8978 14.1874 46.4286 16.7749Z" fill="#E3CDA8"></path><path d="M45.0731 15.9874C44.056 17.7874 41.7956 18.3499 39.9874 17.3374C38.1791 16.3249 37.6141 14.0749 38.6312 12.2749C39.6483 10.4749 41.9087 9.91243 43.7169 10.9249C45.5252 11.9374 46.2033 14.1874 45.0731 15.9874Z" fill="#EFD9B4"></path><path d="M41.6817 13.9625C41.2296 14.75 40.4385 15.2 39.8735 14.8625C39.4214 14.525 39.3084 13.7375 39.7604 12.95C40.2125 12.1625 41.0036 11.7125 41.5687 12.05C42.1338 12.275 42.1338 13.175 41.6817 13.9625Z" fill="#FFEED0"></path><path d="M44.5076 9.5749C44.0555 9.3499 43.4905 9.4624 43.2644 9.9124L42.5863 11.0374C42.3603 11.4874 42.4733 12.0499 42.8124 12.2749C43.2644 12.6124 43.8295 12.3874 44.0555 11.9374L44.7336 10.8124C45.0727 10.4749 44.9597 9.7999 44.5076 9.5749Z" fill="#C5AC8D"></path><path d="M24.7709 52.8434C26.1516 50.3374 25.2301 47.1917 22.7127 45.8173C20.1952 44.4428 17.0351 45.3601 15.6544 47.8661C14.2736 50.372 15.1951 53.5177 17.7125 54.8922C20.23 56.2666 23.3901 55.3493 24.7709 52.8434Z" fill="#E3CDA8"></path><path d="M23.4852 52.2124C22.4681 54.0124 20.2078 54.5749 18.3995 53.5624C16.5912 52.5499 16.0262 50.2999 17.0433 48.4999C18.0605 46.6999 20.3208 46.1374 22.129 47.1499C23.9373 48.1624 24.5024 50.4124 23.4852 52.2124Z" fill="#EFD9B4"></path><path d="M19.9825 50.1874C19.5304 50.9749 18.7393 51.4249 18.1742 51.0874C17.7222 50.7499 17.6092 49.9624 18.0612 49.1749C18.5133 48.3874 19.3044 47.9374 19.8695 48.2749C20.4345 48.4999 20.5476 49.3999 19.9825 50.1874Z" fill="#FFEED0"></path><path d="M22.9217 45.7999C22.4696 45.5749 21.9045 45.6874 21.6785 46.1374L21.0004 47.2624C20.7744 47.7124 20.8874 48.2749 21.2264 48.4999C21.6785 48.8374 22.2436 48.6124 22.4696 48.1624L23.1477 47.0374C23.4868 46.5874 23.3737 46.0249 22.9217 45.7999Z" fill="#C5AC8D"></path><path d="M56.9382 29.3749C58.7465 31.6249 58.2944 34.8874 56.0341 36.6874C53.7738 38.4874 50.4963 38.0374 48.688 35.7874C46.8798 33.5374 47.3319 30.2749 49.5922 28.4749C51.8525 26.6749 55.13 27.1249 56.9382 29.3749Z" fill="#E3CDA8"></path><path d="M55.8072 30.2749C57.0503 31.9624 56.7113 34.2124 55.1291 35.4499C53.4338 36.6874 51.1735 36.3499 49.9303 34.7749C48.6872 33.0874 49.0262 30.8374 50.6084 29.5999C52.1907 28.3624 54.451 28.6999 55.8072 30.2749Z" fill="#EFD9B4"></path><path d="M52.5306 32.7498C53.0956 33.4248 53.2087 34.3249 52.7566 34.6624C52.3045 34.9999 51.5134 34.6623 50.9483 33.9873C50.3833 33.3123 50.2702 32.4123 50.7223 32.0748C51.1744 31.7373 51.9655 32.0748 52.5306 32.7498Z" fill="#FFEED0"></path><path d="M49.593 28.4748C49.1409 28.8123 49.1409 29.3748 49.48 29.7123L50.2711 30.7248C50.6101 31.0623 51.1752 31.2873 51.5142 30.9498C51.9663 30.6123 52.0793 30.0498 51.7403 29.5998L50.9492 28.5873C50.6101 28.2498 50.045 28.1373 49.593 28.4748Z" fill="#C5AC8D"></path><path d="M25.6021 15.1008C25.9754 12.2671 23.9702 9.66862 21.1234 9.29707C18.2766 8.92553 15.6663 10.9216 15.293 13.7553C14.9198 16.5891 16.925 19.1876 19.7717 19.5591C22.6185 19.9307 25.2288 17.9346 25.6021 15.1008Z" fill="#E3CDA8"></path><path d="M23.5103 12.0777C24.7535 13.7652 24.4144 16.0152 22.8322 17.2527C21.137 18.4902 18.8766 18.1527 17.6335 16.5777C16.3903 14.8902 16.7293 12.6402 18.3116 11.4027C19.8938 10.1652 22.2671 10.5027 23.5103 12.0777Z" fill="#EFD9B4"></path><path d="M20.345 14.5528C20.9101 15.2278 21.0231 16.1278 20.571 16.4653C20.119 16.8028 19.3279 16.4653 18.7628 15.7903C18.1977 15.1153 18.0847 14.2153 18.5368 13.8778C18.8758 13.5403 19.7799 13.7653 20.345 14.5528Z" fill="#FFEED0"></path><path d="M17.2941 10.2778C16.8421 10.6153 16.8421 11.1778 17.1811 11.5153L17.9722 12.5278C18.3113 12.8653 18.8764 13.0903 19.2154 12.7528C19.6675 12.4153 19.7805 11.8528 19.4414 11.4028L18.6503 10.3903C18.3113 10.0528 17.7462 9.94026 17.2941 10.2778Z" fill="#C5AC8D"></path><path d="M65.5271 48.0499C67.5614 50.0749 67.6744 53.3374 65.6401 55.4749C63.6058 57.4999 60.3283 57.6124 58.1811 55.5874C56.1468 53.5624 56.0338 50.2999 58.068 48.1624C60.1023 46.1374 63.3798 46.1374 65.5271 48.0499Z" fill="#E3CDA8"></path><path d="M64.3972 49.175C65.8664 50.6375 65.8664 53 64.5102 54.4625C63.041 55.925 60.6677 55.925 59.1985 54.575C57.7293 53.1125 57.7293 50.75 59.0855 49.2875C60.5547 47.7125 62.928 47.7125 64.3972 49.175Z" fill="#EFD9B4"></path><path d="M61.6838 51.9874C62.3619 52.6624 62.5879 53.4499 62.1359 53.8999C61.6838 54.3499 60.8927 54.1249 60.2146 53.4499C59.5365 52.7749 59.3105 51.9874 59.7625 51.5374C60.1016 51.1999 61.0057 51.4249 61.6838 51.9874Z" fill="#FFEED0"></path><path d="M58.0687 48.1625C57.7297 48.5 57.7297 49.0625 58.0687 49.5125L58.9729 50.4125C59.3119 50.75 59.877 50.75 60.216 50.4125C60.5551 50.075 60.5551 49.5125 60.216 49.0625L59.3119 48.1625C58.9729 47.825 58.4078 47.825 58.0687 48.1625Z" fill="#C5AC8D"></path><path d="M55.8048 61.9741C57.8618 59.98 57.9053 56.7037 55.9021 54.6562C53.8988 52.6086 50.6075 52.5653 48.5505 54.5594C46.4936 56.5535 46.4501 59.8298 48.4533 61.8774C50.4565 63.9249 53.7479 63.9682 55.8048 61.9741Z" fill="#E3CDA8"></path><path d="M52.0811 61.9721C50.0468 61.9721 48.3516 60.2846 48.3516 58.1471C48.3516 56.1221 50.0468 54.4346 52.1941 54.4346C54.2284 54.4346 55.9236 56.1221 55.9236 58.2596C55.9236 60.3971 54.2284 62.0846 52.0811 61.9721Z" fill="#EFD9B4"></path><path d="M52.1933 58.0347C51.2892 58.0347 50.498 57.5847 50.498 56.9097C50.498 56.3472 51.2892 55.8972 52.1933 55.8972C53.0974 55.8972 53.8885 56.3472 53.8885 57.0222C53.8885 57.5847 53.0974 58.0347 52.1933 58.0347Z" fill="#FFEED0"></path><path d="M57.391 58.3721C57.391 57.8096 56.9389 57.4721 56.4869 57.4721H55.2437C54.7916 57.4721 54.3396 57.8096 54.2266 58.2596C54.2266 58.8221 54.5656 59.2721 55.1307 59.2721H56.4869C56.9389 59.2721 57.391 58.9346 57.391 58.3721Z" fill="#C5AC8D"></path><path d="M47.314 71.9296C47.4229 69.0735 45.1853 66.6703 42.3161 66.5619C39.447 66.4534 37.0327 68.6808 36.9238 71.5369C36.8149 74.3929 39.0525 76.7962 41.9217 76.9046C44.7908 77.013 47.205 74.7856 47.314 71.9296Z" fill="#E3CDA8"></path><path d="M39.5565 74.4039C38.0873 72.9414 37.9743 70.5789 39.4435 69.1164C40.9127 67.6539 43.2861 67.5414 44.7553 69.0039C46.2245 70.4663 46.3375 72.8289 44.8683 74.2914C43.3991 75.7539 41.0257 75.7538 39.5565 74.4039Z" fill="#EFD9B4"></path><path d="M42.2693 71.4789C41.5912 70.8039 41.3652 70.0164 41.8172 69.5664C42.2693 69.1164 43.0604 69.3414 43.7385 69.9039C44.4166 70.5789 44.6426 71.3664 44.1906 71.8164C43.8515 72.2664 42.9474 72.1539 42.2693 71.4789Z" fill="#FFEED0"></path><path d="M45.886 75.3038C46.225 74.9663 46.225 74.4038 45.886 73.9538L44.9818 73.0538C44.6428 72.7163 44.0777 72.7163 43.7387 73.0538C43.3996 73.3913 43.3996 74.0663 43.7387 74.4038L44.6428 75.3038C44.9818 75.6413 45.5469 75.6413 45.886 75.3038Z" fill="#C5AC8D"></path><path d="M80.7228 41.6352C82.7797 39.6411 82.8233 36.3648 80.82 34.3172C78.8168 32.2697 75.5254 32.2264 73.4685 34.2205C71.4116 36.2145 71.3681 39.4909 73.3713 41.5384C75.3745 43.5859 78.6659 43.6293 80.7228 41.6352Z" fill="#E3CDA8"></path><path d="M77.0088 41.6375C74.9745 41.6375 73.2793 39.95 73.2793 37.8125C73.2793 35.7875 74.9745 34.1 77.1218 34.1C79.1561 34.1 80.8514 35.7875 80.8514 37.925C80.8514 40.0625 79.1561 41.75 77.0088 41.6375Z" fill="#EFD9B4"></path><path d="M77.123 37.7C76.2188 37.7 75.4277 37.25 75.4277 36.575C75.4277 36.0125 76.2188 35.5625 77.123 35.5625C78.0271 35.5625 78.8182 36.0125 78.8182 36.6875C78.8182 37.25 78.0271 37.7 77.123 37.7Z" fill="#FFEED0"></path><path d="M82.3207 38.0375C82.3207 37.475 81.8686 37.1375 81.4166 37.1375H80.1734C79.7213 37.1375 79.2693 37.475 79.1562 37.925C79.1562 38.4875 79.4953 38.9375 80.0604 38.9375H81.4166C81.8686 38.9375 82.3207 38.6 82.3207 38.0375Z" fill="#C5AC8D"></path><path d="M68.3281 18.8688C70.5062 17.0064 70.7552 13.7391 68.8844 11.571C67.0135 9.40285 63.7312 9.15493 61.5531 11.0173C59.3751 12.8796 59.126 16.1469 60.9969 18.315C62.8677 20.4832 66.15 20.7311 68.3281 18.8688Z" fill="#E3CDA8"></path><path d="M64.8487 18.6875C62.8144 18.6875 61.1191 17 61.1191 14.8625C61.1191 12.8375 62.8144 11.15 64.9617 11.15C66.996 11.15 68.6912 12.8375 68.6912 14.975C68.5782 17.1125 66.8829 18.8 64.8487 18.6875Z" fill="#EFD9B4"></path><path d="M64.9628 14.7499C64.0587 14.7499 63.2676 14.2999 63.2676 13.6249C63.2676 13.0624 64.0587 12.6124 64.9628 12.6124C65.8669 12.6124 66.658 13.0624 66.658 13.7374C66.545 14.2999 65.8669 14.7499 64.9628 14.7499Z" fill="#FFEED0"></path><path d="M70.1605 15.0874C70.1605 14.5249 69.7085 14.1874 69.2564 14.1874H68.0132C67.5612 14.1874 67.1091 14.5249 66.9961 14.9749C66.9961 15.5374 67.3351 15.9874 67.9002 15.9874H69.2564C69.7085 15.9874 70.1605 15.6499 70.1605 15.0874Z" fill="#C5AC8D"></path><path d="M44.3327 64.502C46.363 62.481 46.363 59.2044 44.3327 57.1835C42.3025 55.1625 39.0109 55.1625 36.9807 57.1835C34.9505 59.2044 34.9505 62.481 36.9807 64.502C39.0109 66.5229 42.3025 66.5229 44.3327 64.502Z" fill="#E3CDA8"></path><path d="M43.2942 63.4678C44.7507 62.018 44.7507 59.6674 43.2942 58.2176C41.8378 56.7678 39.4764 56.7678 38.02 58.2176C36.5635 59.6674 36.5635 62.018 38.02 63.4678C39.4764 64.9176 41.8378 64.9176 43.2942 63.4678Z" fill="#EFD9B4"></path><path d="M40.4386 60.8472C40.4386 61.7472 39.9865 62.5347 39.4214 62.5347C38.8564 62.5347 38.4043 61.7472 38.4043 60.8472C38.4043 59.9472 38.8564 59.1597 39.4214 59.1597C39.8735 59.1597 40.4386 59.9472 40.4386 60.8472Z" fill="#FFEED0"></path><path d="M41.5698 54.4346C44.441 54.4346 46.7686 52.1177 46.7686 49.2596C46.7686 46.4015 44.441 44.0846 41.5698 44.0846C38.6986 44.0846 36.3711 46.4015 36.3711 49.2596C36.3711 52.1177 38.6986 54.4346 41.5698 54.4346Z" fill="#E3CDA8"></path><path d="M41.5694 52.9721C43.6291 52.9721 45.2989 51.31 45.2989 49.2596C45.2989 47.2093 43.6291 45.5471 41.5694 45.5471C39.5096 45.5471 37.8398 47.2093 37.8398 49.2596C37.8398 51.31 39.5096 52.9721 41.5694 52.9721Z" fill="#EFD9B4"></path><path d="M40.2144 50.9471C40.7762 50.9471 41.2315 50.1916 41.2315 49.2596C41.2315 48.3276 40.7762 47.5721 40.2144 47.5721C39.6527 47.5721 39.1973 48.3276 39.1973 49.2596C39.1973 50.1916 39.6527 50.9471 40.2144 50.9471Z" fill="#FFEED0"></path><path d="M51.9644 49.9624C54.8355 49.9624 57.1631 47.6455 57.1631 44.7874C57.1631 41.9294 54.8355 39.6124 51.9644 39.6124C49.0932 39.6124 46.7656 41.9294 46.7656 44.7874C46.7656 47.6455 49.0932 49.9624 51.9644 49.9624Z" fill="#E3CDA8"></path><path d="M51.9639 48.4999C54.0237 48.4999 55.6934 46.8378 55.6934 44.7874C55.6934 42.7371 54.0237 41.075 51.9639 41.075C49.9041 41.075 48.2344 42.7371 48.2344 44.7874C48.2344 46.8378 49.9041 48.4999 51.9639 48.4999Z" fill="#EFD9B4"></path><path d="M50.6089 46.4749C51.1707 46.4749 51.6261 45.7194 51.6261 44.7874C51.6261 43.8554 51.1707 43.0999 50.6089 43.0999C50.0472 43.0999 49.5918 43.8554 49.5918 44.7874C49.5918 45.7194 50.0472 46.4749 50.6089 46.4749Z" fill="#FFEED0"></path><path d="M36.7474 11.2809C38.4681 8.99298 37.9998 5.74975 35.7014 4.03691C33.403 2.32406 30.1449 2.79023 28.4242 5.07812C26.7035 7.36601 27.1718 10.6092 29.4702 12.3221C31.7686 14.0349 35.0267 13.5688 36.7474 11.2809Z" fill="#E3CDA8"></path><path d="M35.7252 10.1934C36.8422 8.4707 36.3447 6.17279 34.6141 5.06088C32.8835 3.94897 30.5751 4.44412 29.4581 6.16683C28.3411 7.88954 28.8385 10.1875 30.5691 11.2994C32.2997 12.4113 34.6082 11.9161 35.7252 10.1934Z" fill="#EFD9B4"></path><path d="M32.3253 8.14026C32.3253 9.04026 31.8732 9.82776 31.3082 9.82776C30.7431 9.82776 30.291 9.04026 30.291 8.14026C30.291 7.24026 30.7431 6.45276 31.3082 6.45276C31.8732 6.45276 32.3253 7.24026 32.3253 8.14026Z" fill="#FFEED0"></path><path d="M35.573 46.3074C36.2359 43.5265 34.5087 40.7372 31.715 40.0772C28.9213 39.4173 26.1192 41.1367 25.4562 43.9176C24.7933 46.6985 26.5206 49.4879 29.3142 50.1478C32.1079 50.8077 34.91 49.0883 35.573 46.3074Z" fill="#E3CDA8"></path><path d="M34.1392 45.9742C34.6141 43.9792 33.3745 41.9787 31.3704 41.5058C29.3662 41.033 27.3565 42.267 26.8815 44.262C26.4065 46.257 27.6462 48.2576 29.6503 48.7304C31.6545 49.2032 33.6642 47.9692 34.1392 45.9742Z" fill="#EFD9B4"></path><path d="M30.2667 45.1249C30.2667 46.0249 29.8146 46.8124 29.2496 46.8124C28.6845 46.8124 28.2324 46.0249 28.2324 45.1249C28.2324 44.2249 28.6845 43.4374 29.2496 43.4374C29.8146 43.4374 30.2667 44.2249 30.2667 45.1249Z" fill="#FFEED0"></path><path d="M24.9783 39.5402C25.6347 36.7579 23.9009 33.9727 21.1058 33.3194C18.3107 32.666 15.5127 34.3919 14.8564 37.1742C14.2 39.9566 15.9338 42.7417 18.7289 43.3951C21.524 44.0485 24.322 42.3226 24.9783 39.5402Z" fill="#E3CDA8"></path><path d="M23.5765 39.0727C23.9748 37.0611 22.6596 35.1089 20.6387 34.7124C18.6179 34.3158 16.6568 35.6251 16.2584 37.6367C15.86 39.6483 17.1753 41.6005 19.1961 41.9971C21.217 42.3936 23.1781 41.0843 23.5765 39.0727Z" fill="#EFD9B4"></path><path d="M19.6905 38.2902C19.6905 39.1902 19.2385 39.9777 18.6734 39.9777C18.1083 39.9777 17.6562 39.1902 17.6562 38.2902C17.6562 37.3902 18.1083 36.6027 18.6734 36.6027C19.2385 36.6027 19.6905 37.3902 19.6905 38.2902Z" fill="#FFEED0"></path><path d="M46.1708 30.0015C47.8811 27.7059 47.3982 24.4648 45.092 22.7622C42.7859 21.0597 39.5299 21.5405 37.8195 23.8361C36.1092 26.1317 36.5921 29.3728 38.8983 31.0754C41.2044 32.7779 44.4604 32.2972 46.1708 30.0015Z" fill="#E3CDA8"></path><path d="M45.1468 28.9114C46.2533 27.1819 45.7418 24.887 44.0044 23.7856C42.267 22.6841 39.9616 23.1932 38.8551 24.9227C37.7486 26.6522 38.26 28.9471 39.9974 30.0486C41.7348 31.15 44.0403 30.6409 45.1468 28.9114Z" fill="#EFD9B4"></path><path d="M41.7276 26.8999C41.7276 27.7999 41.2756 28.5874 40.7105 28.5874C40.1454 28.5874 39.6934 27.7999 39.6934 26.8999C39.6934 25.9999 40.1454 25.2124 40.7105 25.2124C41.2756 25.2124 41.7276 25.9999 41.7276 26.8999Z" fill="#FFEED0"></path><path d="M68.9057 42.701C70.7657 40.5237 70.5003 37.2578 68.313 35.4063C66.1258 33.5549 62.8449 33.819 60.9849 35.9963C59.125 38.1736 59.3903 41.4395 61.5776 43.291C63.7648 45.1424 67.0458 44.8783 68.9057 42.701Z" fill="#E3CDA8"></path><path d="M67.5853 41.973C69.0417 40.5232 69.0417 38.1726 67.5853 36.7228C66.1288 35.273 63.7674 35.273 62.311 36.7228C60.8545 38.1726 60.8545 40.5232 62.311 41.973C63.7674 43.4228 66.1288 43.4228 67.5853 41.973Z" fill="#EFD9B4"></path><path d="M64.6222 39.3875C64.6222 40.2875 64.1701 41.075 63.605 41.075C63.04 41.075 62.5879 40.2875 62.5879 39.3875C62.5879 38.4875 63.04 37.7 63.605 37.7C64.1701 37.7 64.6222 38.4875 64.6222 39.3875Z" fill="#FFEED0"></path><path d="M52.5972 13.6239C55.4683 13.6239 57.7959 11.3069 57.7959 8.44887C57.7959 5.59079 55.4683 3.27386 52.5972 3.27386C49.726 3.27386 47.3984 5.59079 47.3984 8.44887C47.3984 11.3069 49.726 13.6239 52.5972 13.6239Z" fill="#E3CDA8"></path><path d="M52.5967 12.1614C54.6565 12.1614 56.3262 10.4993 56.3262 8.44889C56.3262 6.39853 54.6565 4.73639 52.5967 4.73639C50.537 4.73639 48.8672 6.39853 48.8672 8.44889C48.8672 10.4993 50.537 12.1614 52.5967 12.1614Z" fill="#EFD9B4"></path><path d="M51.355 10.1364C51.9168 10.1364 52.3722 9.38083 52.3722 8.44885C52.3722 7.51687 51.9168 6.76135 51.355 6.76135C50.7933 6.76135 50.3379 7.51687 50.3379 8.44885C50.3379 9.38083 50.7933 10.1364 51.355 10.1364Z" fill="#FFEED0"></path><path d="M65.6254 32.2418C68.2746 31.14 69.525 28.109 68.4182 25.4719C67.3113 22.8347 64.2664 21.5901 61.6172 22.6919C58.9679 23.7937 57.7176 26.8247 58.8244 29.4618C59.9313 32.0989 62.9762 33.3436 65.6254 32.2418Z" fill="#E3CDA8"></path><path d="M67.3482 28.0484C67.6774 26.0243 66.2958 24.1179 64.2624 23.7902C62.229 23.4626 60.3138 24.8378 59.9847 26.8619C59.6555 28.886 61.0371 30.7925 63.0705 31.1202C65.1039 31.4478 67.0191 30.0726 67.3482 28.0484Z" fill="#EFD9B4"></path><path d="M63.38 27.4624C63.38 28.3624 62.9279 29.1499 62.3628 29.1499C61.7978 29.1499 61.3457 28.3624 61.3457 27.4624C61.3457 26.5624 61.7978 25.7749 62.3628 25.7749C62.9279 25.7749 63.38 26.5624 63.38 27.4624Z" fill="#FFEED0"></path><path d="M78.7527 50.7447C79.4156 47.9638 77.6884 45.1745 74.8947 44.5146C72.101 43.8546 69.2989 45.574 68.6359 48.3549C67.973 51.1358 69.7003 53.9252 72.4939 54.5851C75.2876 55.245 78.0897 53.5256 78.7527 50.7447Z" fill="#E3CDA8"></path><path d="M77.3208 50.4151C77.7958 48.4201 76.5561 46.4196 74.552 45.9468C72.5479 45.4739 70.5381 46.7079 70.0632 48.7029C69.5882 50.6979 70.8278 52.6985 72.8319 53.1713C74.8361 53.6441 76.8458 52.4101 77.3208 50.4151Z" fill="#EFD9B4"></path><path d="M73.3253 49.6249C73.3253 50.5249 72.8732 51.3124 72.3082 51.3124C71.7431 51.3124 71.291 50.5249 71.291 49.6249C71.291 48.7249 71.7431 47.9374 72.3082 47.9374C72.8732 47.9374 73.3253 48.6124 73.3253 49.6249Z" fill="#FFEED0"></path><path d="M70.491 66.2263C72.5212 64.2054 72.5212 60.9288 70.491 58.9078C68.4607 56.8869 65.1691 56.8869 63.1389 58.9078C61.1087 60.9288 61.1087 64.2054 63.1389 66.2263C65.1691 68.2473 68.4607 68.2473 70.491 66.2263Z" fill="#E3CDA8"></path><path d="M69.4525 65.1922C70.9089 63.7424 70.9089 61.3918 69.4525 59.942C67.996 58.4922 65.6346 58.4922 64.1782 59.942C62.7217 61.3918 62.7217 63.7424 64.1782 65.1922C65.6346 66.642 67.996 66.642 69.4525 65.1922Z" fill="#EFD9B4"></path><path d="M66.5441 62.5624C66.5441 63.4624 66.092 64.2499 65.5269 64.2499C64.9618 64.2499 64.5098 63.4624 64.5098 62.5624C64.5098 61.6624 64.9618 60.8749 65.5269 60.8749C66.092 60.8749 66.5441 61.5499 66.5441 62.5624Z" fill="#FFEED0"></path><path d="M59.4142 71.1964C60.1759 68.4407 58.5492 65.592 55.7808 64.8338C53.0124 64.0755 50.1507 65.6948 49.389 68.4506C48.6273 71.2063 50.254 74.055 53.0224 74.8132C55.7908 75.5715 58.6525 73.9522 59.4142 71.1964Z" fill="#E3CDA8"></path><path d="M57.968 70.8999C58.5627 68.9369 57.4461 66.8657 55.4741 66.2738C53.5021 65.6818 51.4214 66.7933 50.8267 68.7563C50.2321 70.7193 51.3486 72.7905 53.3207 73.3825C55.2927 73.9744 57.3734 72.8629 57.968 70.8999Z" fill="#EFD9B4"></path><path d="M54.089 69.8472C54.089 70.7472 53.6369 71.5347 53.0718 71.5347C52.5067 71.5347 52.0547 70.7472 52.0547 69.8472C52.0547 68.9472 52.5067 68.1597 53.0718 68.1597C53.6369 68.1597 54.089 68.9472 54.089 69.8472Z" fill="#FFEED0"></path><path d="M11.9753 42.0232C14.0055 40.0022 14.0055 36.7257 11.9753 34.7047C9.94512 32.6838 6.6535 32.6838 4.62329 34.7047C2.59308 36.7257 2.59308 40.0022 4.62329 42.0232C6.6535 44.0441 9.94512 44.0441 11.9753 42.0232Z" fill="#E3CDA8"></path><path d="M10.7598 41.1535C12.3082 39.8013 12.4621 37.4557 11.1037 35.9145C9.74528 34.3732 7.38891 34.22 5.84059 35.5722C4.29227 36.9244 4.13832 39.27 5.49673 40.8113C6.85514 42.3525 9.21151 42.5058 10.7598 41.1535Z" fill="#EFD9B4"></path><path d="M8.07139 38.3748C8.07139 39.2748 7.61933 40.0623 7.05425 40.0623C6.48917 40.0623 6.03711 39.2748 6.03711 38.3748C6.03711 37.4748 6.48917 36.6873 7.05425 36.6873C7.50632 36.6873 8.07139 37.4748 8.07139 38.3748Z" fill="#FFEED0"></path><path d="M21.6397 61.3092C22.0813 58.4852 20.1394 55.8395 17.3024 55.3999C14.4654 54.9603 11.8076 56.8933 11.366 59.7174C10.9244 62.5415 12.8663 65.1872 15.7033 65.6267C18.5403 66.0663 21.1981 64.1333 21.6397 61.3092Z" fill="#E3CDA8"></path><path d="M17.8997 63.9258C19.8043 63.1452 20.7127 60.9754 19.9285 59.0795C19.1444 57.1835 16.9647 56.2793 15.06 57.0599C13.1554 57.8404 12.247 60.0102 13.0312 61.9062C13.8153 63.8021 15.995 64.7063 17.8997 63.9258Z" fill="#EFD9B4"></path><path d="M16.253 60.4817C16.253 61.3817 15.801 62.1692 15.2359 62.1692C14.6708 62.1692 14.2188 61.3817 14.2188 60.4817C14.2188 59.5817 14.6708 58.7942 15.2359 58.7942C15.801 58.7942 16.253 59.5817 16.253 60.4817Z" fill="#FFEED0"></path><path d="M34.0866 71.9399C35.639 69.5357 34.9396 66.334 32.5244 64.7886C30.1091 63.2432 26.8927 63.9395 25.3403 66.3437C23.7878 68.7479 24.4872 71.9497 26.9025 73.495C29.3177 75.0404 32.5341 74.3441 34.0866 71.9399Z" fill="#E3CDA8"></path><path d="M32.3567 71.7794C33.8132 70.3296 33.8132 67.979 32.3568 66.5292C30.9003 65.0794 28.5389 65.0794 27.0825 66.5292C25.626 67.979 25.626 70.3296 27.0825 71.7794C28.5389 73.2292 30.9003 73.2292 32.3567 71.7794Z" fill="#EFD9B4"></path><path d="M29.3839 69.1998C29.3839 70.0998 28.9318 70.8873 28.3668 70.8873C27.8017 70.8873 27.3496 70.0998 27.3496 69.1998C27.3496 68.2998 27.8017 67.5123 28.3668 67.5123C28.9318 67.5123 29.3839 68.2998 29.3839 69.1998Z" fill="#FFEED0"></path><path d="M53.4351 24.7624C56.3062 24.7624 58.6338 22.4455 58.6338 19.5874C58.6338 16.7293 56.3062 14.4124 53.4351 14.4124C50.5639 14.4124 48.2363 16.7293 48.2363 19.5874C48.2363 22.4455 50.5639 24.7624 53.4351 24.7624Z" fill="#E3CDA8"></path><path d="M53.4346 23.2999C55.4944 23.2999 57.1641 21.6378 57.1641 19.5874C57.1641 17.5371 55.4944 15.8749 53.4346 15.8749C51.3748 15.8749 49.7051 17.5371 49.7051 19.5874C49.7051 21.6378 51.3748 23.2999 53.4346 23.2999Z" fill="#EFD9B4"></path><path d="M52.1929 21.2749C52.7547 21.2749 53.2101 20.5194 53.2101 19.5874C53.2101 18.6554 52.7547 17.8999 52.1929 17.8999C51.6312 17.8999 51.1758 18.6554 51.1758 19.5874C51.1758 20.5194 51.6312 21.2749 52.1929 21.2749Z" fill="#FFEED0"></path><path d="M79.0105 29.6388C81.0407 27.6179 81.0407 24.3413 79.0105 22.3203C76.9803 20.2994 73.6887 20.2994 71.6584 22.3203C69.6282 24.3413 69.6282 27.6179 71.6584 29.6388C73.6887 31.6597 76.9803 31.6597 79.0105 29.6388Z" fill="#E3CDA8"></path><path d="M77.972 28.6047C79.4284 27.1549 79.4284 24.8043 77.972 23.3544C76.5155 21.9046 74.1541 21.9046 72.6977 23.3544C71.2412 24.8043 71.2412 27.1549 72.6977 28.6047C74.1541 30.0545 76.5155 30.0545 77.972 28.6047Z" fill="#EFD9B4"></path><path d="M75.1359 25.9431C75.1359 26.8431 74.6838 27.6306 74.1187 27.6306C73.5536 27.6306 73.1016 26.8431 73.1016 25.9431C73.1016 25.0431 73.5536 24.2556 74.1187 24.2556C74.6838 24.3681 75.1359 25.0431 75.1359 25.9431Z" fill="#FFEED0"></path><path d="M26.8514 27.1915C27.5077 24.4092 25.7739 21.624 22.9788 20.9706C20.1837 20.3173 17.3858 22.0431 16.7294 24.8255C16.0731 27.6078 17.8069 30.393 20.602 31.0463C23.3971 31.6997 26.195 29.9738 26.8514 27.1915Z" fill="#E3CDA8"></path><path d="M25.419 26.8577C25.8905 24.8619 24.6474 22.8635 22.6424 22.3941C20.6374 21.9248 18.6299 23.1623 18.1584 25.1581C17.6869 27.1539 18.93 29.1523 20.935 29.6216C22.94 30.091 24.9475 28.8535 25.419 26.8577Z" fill="#EFD9B4"></path><path d="M21.4737 26.0279C21.4737 26.9279 21.0217 27.7154 20.4566 27.7154C19.8915 27.7154 19.4395 26.9279 19.4395 26.0279C19.4395 25.1279 19.8915 24.3404 20.4566 24.3404C21.0217 24.3404 21.4737 25.1279 21.4737 26.0279Z" fill="#FFEED0"></path><path d="M36.0241 20.3987C36.6871 17.6178 34.9598 14.8285 32.1662 14.1685C29.3725 13.5086 26.5704 15.228 25.9074 18.0089C25.2445 20.7898 26.9717 23.5792 29.7654 24.2391C32.5591 24.899 35.3612 23.1796 36.0241 20.3987Z" fill="#E3CDA8"></path><path d="M34.6065 20.0088C35.0521 18.007 33.783 16.0248 31.7721 15.5813C29.7612 15.1378 27.7698 16.401 27.3243 18.4028C26.8787 20.4045 28.1478 22.3868 30.1587 22.8303C32.1697 23.2738 34.161 22.0106 34.6065 20.0088Z" fill="#EFD9B4"></path><path d="M30.6046 19.2777C30.6046 20.1777 30.1525 20.9652 29.5875 20.9652C29.0224 20.9652 28.5703 20.1777 28.5703 19.2777C28.5703 18.3777 29.0224 17.5902 29.5875 17.5902C30.1525 17.5902 30.6046 18.2652 30.6046 19.2777Z" fill="#FFEED0"></path></svg> 