<?xml version="1.0" encoding="UTF-8"?> <svg xmlns="http://www.w3.org/2000/svg" width="327" height="383" viewBox="0 0 327 383" fill="none"><path d="M262.694 225.432V234H261.336V225.432H258.312V224.228H265.718V225.432H262.694ZM267.968 225.236C267.698 225.236 267.497 225.171 267.366 225.04C267.245 224.909 267.184 224.737 267.184 224.522V224.326C267.184 224.111 267.245 223.939 267.366 223.808C267.497 223.677 267.698 223.612 267.968 223.612C268.239 223.612 268.435 223.677 268.556 223.808C268.687 223.939 268.752 224.111 268.752 224.326V224.522C268.752 224.737 268.687 224.909 268.556 225.04C268.435 225.171 268.239 225.236 267.968 225.236ZM267.31 226.748H268.612V234H267.31V226.748ZM271.026 234V226.748H272.328V227.938H272.398C272.557 227.565 272.795 227.247 273.112 226.986C273.439 226.715 273.845 226.58 274.33 226.58C274.815 226.58 275.254 226.697 275.646 226.93C276.047 227.163 276.341 227.537 276.528 228.05H276.556C276.687 227.658 276.934 227.317 277.298 227.028C277.671 226.729 278.161 226.58 278.768 226.58C279.496 226.58 280.065 226.823 280.476 227.308C280.887 227.793 281.092 228.479 281.092 229.366V234H279.79V229.562C279.79 228.946 279.669 228.484 279.426 228.176C279.193 227.868 278.824 227.714 278.32 227.714C278.105 227.714 277.9 227.742 277.704 227.798C277.517 227.854 277.349 227.938 277.2 228.05C277.051 228.153 276.929 228.288 276.836 228.456C276.752 228.615 276.71 228.806 276.71 229.03V234H275.408V229.562C275.408 228.33 274.923 227.714 273.952 227.714C273.747 227.714 273.546 227.742 273.35 227.798C273.154 227.854 272.981 227.938 272.832 228.05C272.683 228.153 272.561 228.288 272.468 228.456C272.375 228.615 272.328 228.806 272.328 229.03V234H271.026ZM286.195 234.168C285.691 234.168 285.234 234.079 284.823 233.902C284.422 233.715 284.077 233.459 283.787 233.132C283.507 232.805 283.288 232.409 283.129 231.942C282.98 231.475 282.905 230.953 282.905 230.374C282.905 229.805 282.98 229.287 283.129 228.82C283.288 228.344 283.507 227.943 283.787 227.616C284.077 227.289 284.422 227.037 284.823 226.86C285.234 226.673 285.691 226.58 286.195 226.58C286.699 226.58 287.147 226.673 287.539 226.86C287.941 227.037 288.277 227.285 288.547 227.602C288.818 227.919 289.023 228.297 289.163 228.736C289.303 229.175 289.373 229.646 289.373 230.15V230.696H284.263V230.99C284.263 231.597 284.441 232.096 284.795 232.488C285.15 232.871 285.654 233.062 286.307 233.062C286.765 233.062 287.157 232.959 287.483 232.754C287.81 232.549 288.071 232.259 288.267 231.886L289.107 232.6C288.855 233.076 288.477 233.459 287.973 233.748C287.469 234.028 286.877 234.168 286.195 234.168ZM286.195 227.63C285.915 227.63 285.654 227.681 285.411 227.784C285.178 227.887 284.973 228.031 284.795 228.218C284.627 228.395 284.497 228.61 284.403 228.862C284.31 229.114 284.263 229.389 284.263 229.688V229.786H287.987V229.646C287.987 229.039 287.824 228.554 287.497 228.19C287.18 227.817 286.746 227.63 286.195 227.63Z" fill="#292929"></path><path d="M46.646 47L44.308 37.228H45.708L46.744 41.932L47.5 45.404H47.528L48.382 41.932L49.586 37.228H51.112L52.288 41.932L53.142 45.39H53.184L53.954 41.932L55.032 37.228H56.39L53.926 47H52.414L51.14 42.044L50.328 38.74H50.3L49.46 42.044L48.172 47H46.646ZM60.5087 47.168C60.0047 47.168 59.5474 47.0793 59.1368 46.902C58.7354 46.7153 58.3901 46.4587 58.1007 46.132C57.8207 45.8053 57.6014 45.4087 57.4427 44.942C57.2934 44.4753 57.2187 43.9527 57.2187 43.374C57.2187 42.8047 57.2934 42.2867 57.4427 41.82C57.6014 41.344 57.8207 40.9427 58.1007 40.616C58.3901 40.2893 58.7354 40.0373 59.1368 39.86C59.5474 39.6733 60.0047 39.58 60.5087 39.58C61.0128 39.58 61.4608 39.6733 61.8528 39.86C62.2541 40.0373 62.5901 40.2847 62.8608 40.602C63.1314 40.9193 63.3368 41.2973 63.4768 41.736C63.6168 42.1747 63.6868 42.646 63.6868 43.15V43.696H58.5767V43.99C58.5767 44.5967 58.7541 45.096 59.1087 45.488C59.4634 45.8707 59.9674 46.062 60.6208 46.062C61.0781 46.062 61.4701 45.9593 61.7968 45.754C62.1234 45.5487 62.3848 45.2593 62.5808 44.886L63.4208 45.6C63.1688 46.076 62.7908 46.4587 62.2867 46.748C61.7828 47.028 61.1901 47.168 60.5087 47.168ZM60.5087 40.63C60.2287 40.63 59.9674 40.6813 59.7247 40.784C59.4914 40.8867 59.2861 41.0313 59.1087 41.218C58.9407 41.3953 58.8101 41.61 58.7168 41.862C58.6234 42.114 58.5767 42.3893 58.5767 42.688V42.786H62.3008V42.646C62.3008 42.0393 62.1374 41.554 61.8108 41.19C61.4934 40.8167 61.0594 40.63 60.5087 40.63ZM66.2394 38.236C65.9687 38.236 65.768 38.1707 65.6374 38.04C65.516 37.9093 65.4554 37.7367 65.4554 37.522V37.326C65.4554 37.1113 65.516 36.9387 65.6374 36.808C65.768 36.6773 65.9687 36.612 66.2394 36.612C66.51 36.612 66.706 36.6773 66.8274 36.808C66.958 36.9387 67.0234 37.1113 67.0234 37.326V37.522C67.0234 37.7367 66.958 37.9093 66.8274 38.04C66.706 38.1707 66.51 38.236 66.2394 38.236ZM65.5814 39.748H66.8834V47H65.5814V39.748ZM75.5271 47.742C75.5271 48.498 75.2331 49.058 74.6451 49.422C74.0664 49.786 73.1611 49.968 71.9291 49.968C70.7717 49.968 69.9411 49.814 69.4371 49.506C68.9424 49.198 68.6951 48.764 68.6951 48.204C68.6951 47.812 68.7977 47.504 69.0031 47.28C69.2177 47.056 69.5117 46.8973 69.8851 46.804V46.65C69.4091 46.4633 69.1711 46.1087 69.1711 45.586C69.1711 45.222 69.2924 44.942 69.5351 44.746C69.7777 44.55 70.0764 44.41 70.4311 44.326V44.27C70.0017 44.0647 69.6704 43.7753 69.4371 43.402C69.2037 43.0193 69.0871 42.576 69.0871 42.072C69.0871 41.708 69.1524 41.372 69.2831 41.064C69.4137 40.756 69.5957 40.4947 69.8291 40.28C70.0717 40.056 70.3657 39.8833 70.7111 39.762C71.0564 39.6407 71.4484 39.58 71.8871 39.58C72.1391 39.58 72.3771 39.6033 72.6011 39.65C72.8251 39.6967 73.0351 39.7573 73.2311 39.832V39.678C73.2311 39.3793 73.3011 39.1413 73.4411 38.964C73.5811 38.7773 73.8051 38.684 74.1131 38.684H75.2191V39.776H73.7911V40.168C74.3977 40.616 74.7011 41.2507 74.7011 42.072C74.7011 42.436 74.6357 42.772 74.5051 43.08C74.3744 43.388 74.1877 43.6493 73.9451 43.864C73.7024 44.0787 73.4084 44.2467 73.0631 44.368C72.7177 44.4893 72.3257 44.55 71.8871 44.55C71.7471 44.55 71.6071 44.5453 71.4671 44.536C71.3271 44.5173 71.1964 44.494 71.0751 44.466C70.8604 44.5313 70.6691 44.6247 70.5011 44.746C70.3331 44.8673 70.2491 45.0307 70.2491 45.236C70.2491 45.4507 70.3424 45.5953 70.5291 45.67C70.7251 45.7447 70.9864 45.782 71.3131 45.782L72.9651 45.782C73.8611 45.782 74.5097 45.9593 74.9111 46.314C75.3217 46.6593 75.5271 47.1353 75.5271 47.742ZM74.3091 47.868C74.3091 47.5973 74.2017 47.378 73.9871 47.21C73.7817 47.0513 73.4131 46.972 72.8811 46.972L70.4451 46.972C70.0531 47.1773 69.8571 47.4853 69.8571 47.896C69.8571 48.1947 69.9737 48.4467 70.2071 48.652C70.4497 48.8667 70.8557 48.974 71.4251 48.974H72.4051C73.0211 48.974 73.4924 48.8807 73.8191 48.694C74.1457 48.5167 74.3091 48.2413 74.3091 47.868ZM71.9011 43.57C72.3677 43.57 72.7317 43.4627 72.9931 43.248C73.2637 43.0333 73.3991 42.702 73.3991 42.254V41.89C73.3991 41.442 73.2637 41.1107 72.9931 40.896C72.7317 40.6813 72.3677 40.574 71.9011 40.574C71.4344 40.574 71.0657 40.6813 70.7951 40.896C70.5337 41.1107 70.4031 41.442 70.4031 41.89V42.254C70.4031 42.702 70.5337 43.0333 70.7951 43.248C71.0657 43.4627 71.4344 43.57 71.9011 43.57ZM76.8819 36.64H78.1839V40.938H78.2539C78.4219 40.5367 78.6646 40.21 78.9819 39.958C79.3086 39.706 79.7472 39.58 80.2979 39.58C81.0446 39.58 81.6279 39.8227 82.0479 40.308C82.4772 40.7933 82.6919 41.4793 82.6919 42.366V47H81.3899V42.562C81.3899 41.33 80.8812 40.714 79.8639 40.714C79.6492 40.714 79.4392 40.742 79.2339 40.798C79.0379 40.854 78.8606 40.938 78.7019 41.05C78.5432 41.1527 78.4172 41.288 78.3239 41.456C78.2306 41.6147 78.1839 41.806 78.1839 42.03V47H76.8819V36.64ZM86.8053 47C86.3573 47 86.0166 46.8787 85.7833 46.636C85.55 46.384 85.4333 46.048 85.4333 45.628V40.854H84.2713V39.748H84.9153C85.158 39.748 85.326 39.6967 85.4193 39.594C85.5126 39.4913 85.5593 39.3187 85.5593 39.076V37.746H86.7353V39.748H88.2893V40.854H86.7353V45.894H88.1773V47H86.8053Z" fill="#292929"></path><path d="M46.618 262H45.26V252.228H49.292C50.16 252.228 50.8367 252.48 51.322 252.984C51.8167 253.488 52.064 254.193 52.064 255.098C52.064 255.807 51.9007 256.395 51.574 256.862C51.2567 257.329 50.7807 257.641 50.146 257.8L52.316 262H50.79L48.76 257.94H46.618V262ZM49.236 256.764C49.6747 256.764 50.0153 256.652 50.258 256.428C50.5007 256.195 50.622 255.868 50.622 255.448V254.748C50.622 254.328 50.5007 254.006 50.258 253.782C50.0153 253.549 49.6747 253.432 49.236 253.432H46.618V256.764H49.236ZM56.8994 262.168C56.3954 262.168 55.938 262.079 55.5274 261.902C55.126 261.715 54.7807 261.459 54.4914 261.132C54.2114 260.805 53.992 260.409 53.8334 259.942C53.684 259.475 53.6094 258.953 53.6094 258.374C53.6094 257.805 53.684 257.287 53.8334 256.82C53.992 256.344 54.2114 255.943 54.4914 255.616C54.7807 255.289 55.126 255.037 55.5274 254.86C55.938 254.673 56.3954 254.58 56.8994 254.58C57.4034 254.58 57.8514 254.673 58.2434 254.86C58.6447 255.037 58.9807 255.285 59.2514 255.602C59.522 255.919 59.7274 256.297 59.8674 256.736C60.0074 257.175 60.0774 257.646 60.0774 258.15V258.696H54.9674V258.99C54.9674 259.597 55.1447 260.096 55.4994 260.488C55.854 260.871 56.358 261.062 57.0114 261.062C57.4687 261.062 57.8607 260.959 58.1874 260.754C58.514 260.549 58.7754 260.259 58.9714 259.886L59.8114 260.6C59.5594 261.076 59.1814 261.459 58.6774 261.748C58.1734 262.028 57.5807 262.168 56.8994 262.168ZM56.8994 255.63C56.6194 255.63 56.358 255.681 56.1154 255.784C55.882 255.887 55.6767 256.031 55.4994 256.218C55.3314 256.395 55.2007 256.61 55.1074 256.862C55.014 257.114 54.9674 257.389 54.9674 257.688V257.786H58.6914V257.646C58.6914 257.039 58.528 256.554 58.2014 256.19C57.884 255.817 57.45 255.63 56.8994 255.63ZM64.198 262.168C63.526 262.168 62.9567 262.042 62.49 261.79C62.0327 261.538 61.636 261.197 61.3 260.768L62.182 260.012C62.4527 260.357 62.756 260.623 63.092 260.81C63.4373 260.997 63.834 261.09 64.282 261.09C64.7487 261.09 65.1033 260.997 65.346 260.81C65.5887 260.614 65.71 260.348 65.71 260.012C65.71 259.741 65.626 259.517 65.458 259.34C65.2993 259.163 64.996 259.041 64.548 258.976L63.932 258.878C63.5867 258.831 63.2693 258.757 62.98 258.654C62.6907 258.551 62.4433 258.416 62.238 258.248C62.0327 258.08 61.8693 257.875 61.748 257.632C61.636 257.389 61.58 257.1 61.58 256.764C61.58 256.409 61.6453 256.097 61.776 255.826C61.9067 255.546 62.0887 255.317 62.322 255.14C62.5553 254.953 62.8307 254.813 63.148 254.72C63.4747 254.627 63.8293 254.58 64.212 254.58C64.828 254.58 65.3413 254.683 65.752 254.888C66.1627 255.093 66.522 255.378 66.83 255.742L66.004 256.526C65.8267 256.293 65.584 256.092 65.276 255.924C64.9773 255.747 64.6087 255.658 64.17 255.658C63.722 255.658 63.386 255.751 63.162 255.938C62.9473 256.125 62.84 256.372 62.84 256.68C62.84 257.007 62.9427 257.245 63.148 257.394C63.3627 257.543 63.68 257.651 64.1 257.716L64.716 257.814C65.5187 257.935 66.0927 258.169 66.438 258.514C66.7927 258.859 66.97 259.312 66.97 259.872C66.97 260.581 66.7227 261.141 66.228 261.552C65.7333 261.963 65.0567 262.168 64.198 262.168ZM70.6376 262C70.1896 262 69.8489 261.879 69.6156 261.636C69.3822 261.384 69.2656 261.048 69.2656 260.628V255.854H68.1036V254.748H68.7476C68.9902 254.748 69.1582 254.697 69.2516 254.594C69.3449 254.491 69.3916 254.319 69.3916 254.076V252.746H70.5676V254.748H72.1216V255.854H70.5676V260.894H72.0096V262H70.6376ZM73.9835 262V254.748H75.2855V256.134H75.3555C75.4115 255.957 75.4955 255.784 75.6075 255.616C75.7195 255.448 75.8595 255.303 76.0275 255.182C76.1955 255.051 76.3915 254.949 76.6155 254.874C76.8488 254.79 77.1101 254.748 77.3995 254.748H77.8335V256.05H77.1895C76.5828 256.05 76.1115 256.162 75.7755 256.386C75.4488 256.601 75.2855 256.885 75.2855 257.24V262H73.9835ZM80.0115 253.236C79.7408 253.236 79.5401 253.171 79.4095 253.04C79.2881 252.909 79.2275 252.737 79.2275 252.522V252.326C79.2275 252.111 79.2881 251.939 79.4095 251.808C79.5401 251.677 79.7408 251.612 80.0115 251.612C80.2821 251.612 80.4781 251.677 80.5995 251.808C80.7301 251.939 80.7955 252.111 80.7955 252.326V252.522C80.7955 252.737 80.7301 252.909 80.5995 253.04C80.4781 253.171 80.2821 253.236 80.0115 253.236ZM79.3535 254.748H80.6555V262H79.3535V254.748ZM85.8132 262.168C85.2905 262.168 84.8285 262.079 84.4272 261.902C84.0258 261.725 83.6852 261.473 83.4052 261.146C83.1252 260.819 82.9105 260.423 82.7612 259.956C82.6212 259.48 82.5512 258.953 82.5512 258.374C82.5512 257.795 82.6212 257.273 82.7612 256.806C82.9105 256.339 83.1252 255.943 83.4052 255.616C83.6852 255.28 84.0258 255.023 84.4272 254.846C84.8285 254.669 85.2905 254.58 85.8132 254.58C86.5318 254.58 87.1152 254.739 87.5632 255.056C88.0112 255.373 88.3425 255.793 88.5572 256.316L87.4792 256.848C87.3578 256.493 87.1525 256.213 86.8632 256.008C86.5832 255.803 86.2332 255.7 85.8132 255.7C85.1878 255.7 84.7165 255.891 84.3992 256.274C84.0912 256.657 83.9372 257.147 83.9372 257.744V259.004C83.9372 259.601 84.0912 260.091 84.3992 260.474C84.7165 260.857 85.1878 261.048 85.8132 261.048C86.2612 261.048 86.6345 260.941 86.9332 260.726C87.2318 260.511 87.4745 260.208 87.6612 259.816L88.6132 260.404C88.3798 260.955 88.0298 261.389 87.5632 261.706C87.0965 262.014 86.5132 262.168 85.8132 262.168ZM92.0355 262C91.5875 262 91.2469 261.879 91.0135 261.636C90.7802 261.384 90.6635 261.048 90.6635 260.628V255.854H89.5015V254.748H90.1455C90.3882 254.748 90.5562 254.697 90.6495 254.594C90.7429 254.491 90.7895 254.319 90.7895 254.076V252.746H91.9655V254.748H93.5195V255.854H91.9655V260.894H93.4075V262H92.0355ZM96.0394 253.236C95.7688 253.236 95.5681 253.171 95.4374 253.04C95.3161 252.909 95.2554 252.737 95.2554 252.522V252.326C95.2554 252.111 95.3161 251.939 95.4374 251.808C95.5681 251.677 95.7688 251.612 96.0394 251.612C96.3101 251.612 96.5061 251.677 96.6274 251.808C96.7581 251.939 96.8234 252.111 96.8234 252.326V252.522C96.8234 252.737 96.7581 252.909 96.6274 253.04C96.5061 253.171 96.3101 253.236 96.0394 253.236ZM95.3814 254.748H96.6834V262H95.3814V254.748ZM100.679 262L98.1731 254.748H99.4751L100.665 258.22L101.421 260.726H101.505L102.275 258.22L103.479 254.748H104.725L102.205 262H100.679ZM108.88 262.168C108.376 262.168 107.918 262.079 107.508 261.902C107.106 261.715 106.761 261.459 106.472 261.132C106.192 260.805 105.972 260.409 105.814 259.942C105.664 259.475 105.59 258.953 105.59 258.374C105.59 257.805 105.664 257.287 105.814 256.82C105.972 256.344 106.192 255.943 106.472 255.616C106.761 255.289 107.106 255.037 107.508 254.86C107.918 254.673 108.376 254.58 108.88 254.58C109.384 254.58 109.832 254.673 110.224 254.86C110.625 255.037 110.961 255.285 111.232 255.602C111.502 255.919 111.708 256.297 111.848 256.736C111.988 257.175 112.058 257.646 112.058 258.15V258.696H106.948V258.99C106.948 259.597 107.125 260.096 107.48 260.488C107.834 260.871 108.338 261.062 108.992 261.062C109.449 261.062 109.841 260.959 110.168 260.754C110.494 260.549 110.756 260.259 110.952 259.886L111.792 260.6C111.54 261.076 111.162 261.459 110.658 261.748C110.154 262.028 109.561 262.168 108.88 262.168ZM108.88 255.63C108.6 255.63 108.338 255.681 108.096 255.784C107.862 255.887 107.657 256.031 107.48 256.218C107.312 256.395 107.181 256.61 107.088 256.862C106.994 257.114 106.948 257.389 106.948 257.688V257.786H110.672V257.646C110.672 257.039 110.508 256.554 110.182 256.19C109.864 255.817 109.43 255.63 108.88 255.63ZM121.973 260.81H121.917C121.749 261.258 121.483 261.599 121.119 261.832C120.764 262.056 120.335 262.168 119.831 262.168C119.374 262.168 118.963 262.084 118.599 261.916C118.244 261.739 117.941 261.487 117.689 261.16C117.437 260.824 117.246 260.423 117.115 259.956C116.984 259.489 116.919 258.962 116.919 258.374C116.919 257.786 116.984 257.259 117.115 256.792C117.246 256.325 117.437 255.929 117.689 255.602C117.941 255.266 118.244 255.014 118.599 254.846C118.963 254.669 119.374 254.58 119.831 254.58C120.335 254.58 120.764 254.697 121.119 254.93C121.483 255.154 121.749 255.49 121.917 255.938H121.973V251.64H123.275V262H121.973V260.81ZM120.209 261.034C120.452 261.034 120.68 261.001 120.895 260.936C121.11 260.871 121.296 260.777 121.455 260.656C121.614 260.535 121.74 260.395 121.833 260.236C121.926 260.077 121.973 259.9 121.973 259.704V257.044C121.973 256.848 121.926 256.671 121.833 256.512C121.74 256.353 121.614 256.213 121.455 256.092C121.296 255.971 121.11 255.877 120.895 255.812C120.68 255.747 120.452 255.714 120.209 255.714C119.621 255.714 119.154 255.901 118.809 256.274C118.473 256.647 118.305 257.142 118.305 257.758V258.99C118.305 259.606 118.473 260.101 118.809 260.474C119.154 260.847 119.621 261.034 120.209 261.034ZM126.348 253.236C126.078 253.236 125.877 253.171 125.746 253.04C125.625 252.909 125.564 252.737 125.564 252.522V252.326C125.564 252.111 125.625 251.939 125.746 251.808C125.877 251.677 126.078 251.612 126.348 251.612C126.619 251.612 126.815 251.677 126.936 251.808C127.067 251.939 127.132 252.111 127.132 252.326V252.522C127.132 252.737 127.067 252.909 126.936 253.04C126.815 253.171 126.619 253.236 126.348 253.236ZM125.69 254.748H126.992V262H125.69V254.748ZM132.178 262.168C131.674 262.168 131.217 262.079 130.806 261.902C130.405 261.715 130.059 261.459 129.77 261.132C129.49 260.805 129.271 260.409 129.112 259.942C128.963 259.475 128.888 258.953 128.888 258.374C128.888 257.805 128.963 257.287 129.112 256.82C129.271 256.344 129.49 255.943 129.77 255.616C130.059 255.289 130.405 255.037 130.806 254.86C131.217 254.673 131.674 254.58 132.178 254.58C132.682 254.58 133.13 254.673 133.522 254.86C133.923 255.037 134.259 255.285 134.53 255.602C134.801 255.919 135.006 256.297 135.146 256.736C135.286 257.175 135.356 257.646 135.356 258.15V258.696H130.246V258.99C130.246 259.597 130.423 260.096 130.778 260.488C131.133 260.871 131.637 261.062 132.29 261.062C132.747 261.062 133.139 260.959 133.466 260.754C133.793 260.549 134.054 260.259 134.25 259.886L135.09 260.6C134.838 261.076 134.46 261.459 133.956 261.748C133.452 262.028 132.859 262.168 132.178 262.168ZM132.178 255.63C131.898 255.63 131.637 255.681 131.394 255.784C131.161 255.887 130.955 256.031 130.778 256.218C130.61 256.395 130.479 256.61 130.386 256.862C130.293 257.114 130.246 257.389 130.246 257.688V257.786H133.97V257.646C133.97 257.039 133.807 256.554 133.48 256.19C133.163 255.817 132.729 255.63 132.178 255.63ZM139.029 262C138.581 262 138.24 261.879 138.007 261.636C137.773 261.384 137.657 261.048 137.657 260.628V255.854H136.495V254.748H137.139C137.381 254.748 137.549 254.697 137.643 254.594C137.736 254.491 137.783 254.319 137.783 254.076V252.746H138.959V254.748H140.513V255.854H138.959V260.894H140.401V262H139.029Z" fill="#E22336"></path><path d="M45.26 280.228H49.418C50.23 280.228 50.8693 280.457 51.336 280.914C51.8027 281.371 52.036 281.983 52.036 282.748C52.036 283.112 51.98 283.42 51.868 283.672C51.7653 283.924 51.6347 284.134 51.476 284.302C51.3173 284.461 51.14 284.582 50.944 284.666C50.748 284.75 50.5613 284.801 50.384 284.82V284.904C50.5707 284.913 50.776 284.96 51 285.044C51.2333 285.128 51.4527 285.263 51.658 285.45C51.8633 285.627 52.0313 285.861 52.162 286.15C52.302 286.43 52.372 286.775 52.372 287.186C52.372 287.587 52.3067 287.961 52.176 288.306C52.0453 288.642 51.868 288.936 51.644 289.188C51.42 289.44 51.154 289.641 50.846 289.79C50.538 289.93 50.202 290 49.838 290H45.26V280.228ZM46.618 288.824H49.432C49.8987 288.824 50.2627 288.707 50.524 288.474C50.7853 288.241 50.916 287.895 50.916 287.438V286.948C50.916 286.491 50.7853 286.145 50.524 285.912C50.2627 285.679 49.8987 285.562 49.432 285.562H46.618V288.824ZM46.618 284.414H49.208C49.6373 284.414 49.9733 284.307 50.216 284.092C50.4587 283.868 50.58 283.551 50.58 283.14V282.678C50.58 282.267 50.4587 281.955 50.216 281.74C49.9733 281.516 49.6373 281.404 49.208 281.404H46.618V284.414ZM59.7472 290C59.3458 290 59.0425 289.888 58.8372 289.664C58.6412 289.44 58.5198 289.151 58.4732 288.796H58.4032C58.2538 289.244 57.9972 289.585 57.6332 289.818C57.2692 290.051 56.8258 290.168 56.3032 290.168C55.5472 290.168 54.9592 289.977 54.5392 289.594C54.1192 289.202 53.9092 288.67 53.9092 287.998C53.9092 287.298 54.1612 286.766 54.6652 286.402C55.1785 286.029 55.9578 285.842 57.0032 285.842H58.3752V285.184C58.3752 284.699 58.2445 284.325 57.9832 284.064C57.7218 283.803 57.3158 283.672 56.7652 283.672C56.3358 283.672 55.9765 283.77 55.6872 283.966C55.4072 284.153 55.1738 284.4 54.9872 284.708L54.2032 283.994C54.4178 283.602 54.7398 283.271 55.1692 283C55.6078 282.72 56.1632 282.58 56.8352 282.58C57.7405 282.58 58.4405 282.799 58.9352 283.238C59.4298 283.667 59.6772 284.279 59.6772 285.072V288.894H60.4892V290H59.7472ZM56.5972 289.118C57.1105 289.118 57.5352 289.001 57.8712 288.768C58.2072 288.535 58.3752 288.236 58.3752 287.872V286.752H56.9892C56.3918 286.752 55.9532 286.841 55.6732 287.018C55.4025 287.195 55.2672 287.452 55.2672 287.788V288.068C55.2672 288.404 55.3838 288.665 55.6172 288.852C55.8598 289.029 56.1865 289.118 56.5972 289.118ZM63.5214 290C63.0734 290 62.7327 289.879 62.4994 289.636C62.2754 289.393 62.1634 289.071 62.1634 288.67V279.64H63.4654V288.894H64.5014V290H63.5214ZM71.4579 290C71.0565 290 70.7532 289.888 70.5479 289.664C70.3519 289.44 70.2305 289.151 70.1839 288.796H70.1139C69.9645 289.244 69.7079 289.585 69.3439 289.818C68.9799 290.051 68.5365 290.168 68.0139 290.168C67.2579 290.168 66.6699 289.977 66.2499 289.594C65.8299 289.202 65.6199 288.67 65.6199 287.998C65.6199 287.298 65.8719 286.766 66.3759 286.402C66.8892 286.029 67.6685 285.842 68.7139 285.842H70.0859V285.184C70.0859 284.699 69.9552 284.325 69.6939 284.064C69.4325 283.803 69.0265 283.672 68.4759 283.672C68.0465 283.672 67.6872 283.77 67.3979 283.966C67.1179 284.153 66.8845 284.4 66.6979 284.708L65.9139 283.994C66.1285 283.602 66.4505 283.271 66.8799 283C67.3185 282.72 67.8739 282.58 68.5459 282.58C69.4512 282.58 70.1512 282.799 70.6459 283.238C71.1405 283.667 71.3879 284.279 71.3879 285.072V288.894H72.1999V290H71.4579ZM68.3079 289.118C68.8212 289.118 69.2459 289.001 69.5819 288.768C69.9179 288.535 70.0859 288.236 70.0859 287.872V286.752H68.6999C68.1025 286.752 67.6639 286.841 67.3839 287.018C67.1132 287.195 66.9779 287.452 66.9779 287.788V288.068C66.9779 288.404 67.0945 288.665 67.3279 288.852C67.5705 289.029 67.8972 289.118 68.3079 289.118ZM73.8741 290V282.748H75.1761V283.938H75.2461C75.4141 283.537 75.6568 283.21 75.9741 282.958C76.3008 282.706 76.7394 282.58 77.2901 282.58C78.0368 282.58 78.6201 282.823 79.0401 283.308C79.4694 283.793 79.6841 284.479 79.6841 285.366V290H78.3821V285.562C78.3821 284.33 77.8734 283.714 76.8561 283.714C76.6414 283.714 76.4314 283.742 76.2261 283.798C76.0301 283.854 75.8528 283.938 75.6941 284.05C75.5354 284.153 75.4094 284.288 75.3161 284.456C75.2228 284.615 75.1761 284.806 75.1761 285.03V290H73.8741ZM84.7635 290.168C84.2408 290.168 83.7788 290.079 83.3775 289.902C82.9761 289.725 82.6355 289.473 82.3555 289.146C82.0755 288.819 81.8608 288.423 81.7115 287.956C81.5715 287.48 81.5015 286.953 81.5015 286.374C81.5015 285.795 81.5715 285.273 81.7115 284.806C81.8608 284.339 82.0755 283.943 82.3555 283.616C82.6355 283.28 82.9761 283.023 83.3775 282.846C83.7788 282.669 84.2408 282.58 84.7635 282.58C85.4821 282.58 86.0655 282.739 86.5135 283.056C86.9615 283.373 87.2928 283.793 87.5075 284.316L86.4295 284.848C86.3081 284.493 86.1028 284.213 85.8135 284.008C85.5335 283.803 85.1835 283.7 84.7635 283.7C84.1381 283.7 83.6668 283.891 83.3495 284.274C83.0415 284.657 82.8875 285.147 82.8875 285.744V287.004C82.8875 287.601 83.0415 288.091 83.3495 288.474C83.6668 288.857 84.1381 289.048 84.7635 289.048C85.2115 289.048 85.5848 288.941 85.8835 288.726C86.1821 288.511 86.4248 288.208 86.6115 287.816L87.5635 288.404C87.3301 288.955 86.9801 289.389 86.5135 289.706C86.0468 290.014 85.4635 290.168 84.7635 290.168ZM91.8978 290.168C91.3938 290.168 90.9365 290.079 90.5258 289.902C90.1245 289.715 89.7791 289.459 89.4898 289.132C89.2098 288.805 88.9905 288.409 88.8318 287.942C88.6825 287.475 88.6078 286.953 88.6078 286.374C88.6078 285.805 88.6825 285.287 88.8318 284.82C88.9905 284.344 89.2098 283.943 89.4898 283.616C89.7791 283.289 90.1245 283.037 90.5258 282.86C90.9365 282.673 91.3938 282.58 91.8978 282.58C92.4018 282.58 92.8498 282.673 93.2418 282.86C93.6431 283.037 93.9791 283.285 94.2498 283.602C94.5205 283.919 94.7258 284.297 94.8658 284.736C95.0058 285.175 95.0758 285.646 95.0758 286.15V286.696H89.9658V286.99C89.9658 287.597 90.1431 288.096 90.4978 288.488C90.8525 288.871 91.3565 289.062 92.0098 289.062C92.4671 289.062 92.8591 288.959 93.1858 288.754C93.5125 288.549 93.7738 288.259 93.9698 287.886L94.8098 288.6C94.5578 289.076 94.1798 289.459 93.6758 289.748C93.1718 290.028 92.5791 290.168 91.8978 290.168ZM91.8978 283.63C91.6178 283.63 91.3565 283.681 91.1138 283.784C90.8805 283.887 90.6751 284.031 90.4978 284.218C90.3298 284.395 90.1991 284.61 90.1058 284.862C90.0125 285.114 89.9658 285.389 89.9658 285.688V285.786H93.6898V285.646C93.6898 285.039 93.5265 284.554 93.1998 284.19C92.8825 283.817 92.4485 283.63 91.8978 283.63ZM101.562 288.81H101.506C101.338 289.258 101.072 289.599 100.708 289.832C100.354 290.056 99.9244 290.168 99.4204 290.168C98.9631 290.168 98.5524 290.084 98.1884 289.916C97.8338 289.739 97.5304 289.487 97.2784 289.16C97.0264 288.824 96.8351 288.423 96.7044 287.956C96.5738 287.489 96.5084 286.962 96.5084 286.374C96.5084 285.786 96.5738 285.259 96.7044 284.792C96.8351 284.325 97.0264 283.929 97.2784 283.602C97.5304 283.266 97.8338 283.014 98.1884 282.846C98.5524 282.669 98.9631 282.58 99.4204 282.58C99.9244 282.58 100.354 282.697 100.708 282.93C101.072 283.154 101.338 283.49 101.506 283.938H101.562V279.64H102.864V290H101.562V288.81ZM99.7984 289.034C100.041 289.034 100.27 289.001 100.484 288.936C100.699 288.871 100.886 288.777 101.044 288.656C101.203 288.535 101.329 288.395 101.422 288.236C101.516 288.077 101.562 287.9 101.562 287.704V285.044C101.562 284.848 101.516 284.671 101.422 284.512C101.329 284.353 101.203 284.213 101.044 284.092C100.886 283.971 100.699 283.877 100.484 283.812C100.27 283.747 100.041 283.714 99.7984 283.714C99.2104 283.714 98.7438 283.901 98.3984 284.274C98.0624 284.647 97.8944 285.142 97.8944 285.758V286.99C97.8944 287.606 98.0624 288.101 98.3984 288.474C98.7438 288.847 99.2104 289.034 99.7984 289.034ZM113.3 288.81H113.244C113.076 289.258 112.81 289.599 112.446 289.832C112.092 290.056 111.662 290.168 111.158 290.168C110.701 290.168 110.29 290.084 109.926 289.916C109.572 289.739 109.268 289.487 109.016 289.16C108.764 288.824 108.573 288.423 108.442 287.956C108.312 287.489 108.246 286.962 108.246 286.374C108.246 285.786 108.312 285.259 108.442 284.792C108.573 284.325 108.764 283.929 109.016 283.602C109.268 283.266 109.572 283.014 109.926 282.846C110.29 282.669 110.701 282.58 111.158 282.58C111.662 282.58 112.092 282.697 112.446 282.93C112.81 283.154 113.076 283.49 113.244 283.938H113.3V279.64H114.602V290H113.3V288.81ZM111.536 289.034C111.779 289.034 112.008 289.001 112.222 288.936C112.437 288.871 112.624 288.777 112.782 288.656C112.941 288.535 113.067 288.395 113.16 288.236C113.254 288.077 113.3 287.9 113.3 287.704V285.044C113.3 284.848 113.254 284.671 113.16 284.512C113.067 284.353 112.941 284.213 112.782 284.092C112.624 283.971 112.437 283.877 112.222 283.812C112.008 283.747 111.779 283.714 111.536 283.714C110.948 283.714 110.482 283.901 110.136 284.274C109.8 284.647 109.632 285.142 109.632 285.758V286.99C109.632 287.606 109.8 288.101 110.136 288.474C110.482 288.847 110.948 289.034 111.536 289.034ZM117.676 281.236C117.405 281.236 117.205 281.171 117.074 281.04C116.953 280.909 116.892 280.737 116.892 280.522V280.326C116.892 280.111 116.953 279.939 117.074 279.808C117.205 279.677 117.405 279.612 117.676 279.612C117.947 279.612 118.143 279.677 118.264 279.808C118.395 279.939 118.46 280.111 118.46 280.326V280.522C118.46 280.737 118.395 280.909 118.264 281.04C118.143 281.171 117.947 281.236 117.676 281.236ZM117.018 282.748H118.32V290H117.018V282.748ZM123.506 290.168C123.002 290.168 122.544 290.079 122.134 289.902C121.732 289.715 121.387 289.459 121.098 289.132C120.818 288.805 120.598 288.409 120.44 287.942C120.29 287.475 120.216 286.953 120.216 286.374C120.216 285.805 120.29 285.287 120.44 284.82C120.598 284.344 120.818 283.943 121.098 283.616C121.387 283.289 121.732 283.037 122.134 282.86C122.544 282.673 123.002 282.58 123.506 282.58C124.01 282.58 124.458 282.673 124.85 282.86C125.251 283.037 125.587 283.285 125.858 283.602C126.128 283.919 126.334 284.297 126.474 284.736C126.614 285.175 126.684 285.646 126.684 286.15V286.696H121.574V286.99C121.574 287.597 121.751 288.096 122.106 288.488C122.46 288.871 122.964 289.062 123.618 289.062C124.075 289.062 124.467 288.959 124.794 288.754C125.12 288.549 125.382 288.259 125.578 287.886L126.418 288.6C126.166 289.076 125.788 289.459 125.284 289.748C124.78 290.028 124.187 290.168 123.506 290.168ZM123.506 283.63C123.226 283.63 122.964 283.681 122.722 283.784C122.488 283.887 122.283 284.031 122.106 284.218C121.938 284.395 121.807 284.61 121.714 284.862C121.62 285.114 121.574 285.389 121.574 285.688V285.786H125.298V285.646C125.298 285.039 125.134 284.554 124.808 284.19C124.49 283.817 124.056 283.63 123.506 283.63ZM130.356 290C129.908 290 129.568 289.879 129.334 289.636C129.101 289.384 128.984 289.048 128.984 288.628V283.854H127.822V282.748H128.466C128.709 282.748 128.877 282.697 128.97 282.594C129.064 282.491 129.11 282.319 129.11 282.076V280.746H130.286V282.748H131.84V283.854H130.286V288.894H131.728V290H130.356Z" fill="#129C90"></path><path d="M34.142 328.974L33.218 328.316L34.59 326.594L32.49 326.006L32.854 324.942L34.884 325.712L34.786 323.542H35.92L35.836 325.712L37.866 324.942L38.216 326.006L36.116 326.594L37.488 328.316L36.578 328.96L35.36 327.14L34.142 328.974ZM43.7283 325.432V334H42.3703V325.432H39.3463V324.228H46.7523V325.432H43.7283ZM48.345 323.64H49.647V327.938H49.717C49.885 327.537 50.1277 327.21 50.445 326.958C50.7717 326.706 51.2104 326.58 51.761 326.58C52.5077 326.58 53.091 326.823 53.511 327.308C53.9404 327.793 54.155 328.479 54.155 329.366V334H52.853V329.562C52.853 328.33 52.3444 327.714 51.327 327.714C51.1124 327.714 50.9024 327.742 50.697 327.798C50.501 327.854 50.3237 327.938 50.165 328.05C50.0064 328.153 49.8804 328.288 49.787 328.456C49.6937 328.615 49.647 328.806 49.647 329.03V334H48.345V323.64ZM57.1484 325.236C56.8778 325.236 56.6771 325.171 56.5464 325.04C56.4251 324.909 56.3644 324.737 56.3644 324.522V324.326C56.3644 324.111 56.4251 323.939 56.5464 323.808C56.6771 323.677 56.8778 323.612 57.1484 323.612C57.4191 323.612 57.6151 323.677 57.7364 323.808C57.8671 323.939 57.9324 324.111 57.9324 324.326V324.522C57.9324 324.737 57.8671 324.909 57.7364 325.04C57.6151 325.171 57.4191 325.236 57.1484 325.236ZM56.4904 326.748H57.7924V334H56.4904V326.748ZM62.4321 334.168C61.7601 334.168 61.1908 334.042 60.7241 333.79C60.2668 333.538 59.8701 333.197 59.5341 332.768L60.4161 332.012C60.6868 332.357 60.9901 332.623 61.3261 332.81C61.6715 332.997 62.0681 333.09 62.5161 333.09C62.9828 333.09 63.3375 332.997 63.5801 332.81C63.8228 332.614 63.9441 332.348 63.9441 332.012C63.9441 331.741 63.8601 331.517 63.6921 331.34C63.5335 331.163 63.2301 331.041 62.7821 330.976L62.1661 330.878C61.8208 330.831 61.5035 330.757 61.2141 330.654C60.9248 330.551 60.6775 330.416 60.4721 330.248C60.2668 330.08 60.1035 329.875 59.9821 329.632C59.8701 329.389 59.8141 329.1 59.8141 328.764C59.8141 328.409 59.8795 328.097 60.0101 327.826C60.1408 327.546 60.3228 327.317 60.5561 327.14C60.7895 326.953 61.0648 326.813 61.3821 326.72C61.7088 326.627 62.0635 326.58 62.4461 326.58C63.0621 326.58 63.5755 326.683 63.9861 326.888C64.3968 327.093 64.7561 327.378 65.0641 327.742L64.2381 328.526C64.0608 328.293 63.8181 328.092 63.5101 327.924C63.2115 327.747 62.8428 327.658 62.4041 327.658C61.9561 327.658 61.6201 327.751 61.3961 327.938C61.1815 328.125 61.0741 328.372 61.0741 328.68C61.0741 329.007 61.1768 329.245 61.3821 329.394C61.5968 329.543 61.9141 329.651 62.3341 329.716L62.9501 329.814C63.7528 329.935 64.3268 330.169 64.6721 330.514C65.0268 330.859 65.2041 331.312 65.2041 331.872C65.2041 332.581 64.9568 333.141 64.4621 333.552C63.9675 333.963 63.2908 334.168 62.4321 334.168ZM73.362 334.168C72.8393 334.168 72.3773 334.079 71.976 333.902C71.5747 333.725 71.234 333.473 70.954 333.146C70.674 332.819 70.4593 332.423 70.31 331.956C70.17 331.48 70.1 330.953 70.1 330.374C70.1 329.795 70.17 329.273 70.31 328.806C70.4593 328.339 70.674 327.943 70.954 327.616C71.234 327.28 71.5747 327.023 71.976 326.846C72.3773 326.669 72.8393 326.58 73.362 326.58C74.0807 326.58 74.664 326.739 75.112 327.056C75.56 327.373 75.8913 327.793 76.106 328.316L75.028 328.848C74.9067 328.493 74.7013 328.213 74.412 328.008C74.132 327.803 73.782 327.7 73.362 327.7C72.7367 327.7 72.2653 327.891 71.948 328.274C71.64 328.657 71.486 329.147 71.486 329.744V331.004C71.486 331.601 71.64 332.091 71.948 332.474C72.2653 332.857 72.7367 333.048 73.362 333.048C73.81 333.048 74.1833 332.941 74.482 332.726C74.7807 332.511 75.0233 332.208 75.21 331.816L76.162 332.404C75.9287 332.955 75.5787 333.389 75.112 333.706C74.6453 334.014 74.062 334.168 73.362 334.168ZM77.8064 323.64H79.1084V327.938H79.1784C79.3464 327.537 79.589 327.21 79.9064 326.958C80.233 326.706 80.6717 326.58 81.2224 326.58C81.969 326.58 82.5524 326.823 82.9724 327.308C83.4017 327.793 83.6164 328.479 83.6164 329.366V334H82.3144V329.562C82.3144 328.33 81.8057 327.714 80.7884 327.714C80.5737 327.714 80.3637 327.742 80.1584 327.798C79.9624 327.854 79.785 327.938 79.6264 328.05C79.4677 328.153 79.3417 328.288 79.2484 328.456C79.155 328.615 79.1084 328.806 79.1084 329.03V334H77.8064V323.64ZM91.2297 334C90.8284 334 90.5251 333.888 90.3197 333.664C90.1237 333.44 90.0024 333.151 89.9557 332.796H89.8857C89.7364 333.244 89.4797 333.585 89.1157 333.818C88.7517 334.051 88.3084 334.168 87.7857 334.168C87.0297 334.168 86.4417 333.977 86.0217 333.594C85.6017 333.202 85.3917 332.67 85.3917 331.998C85.3917 331.298 85.6437 330.766 86.1477 330.402C86.6611 330.029 87.4404 329.842 88.4857 329.842H89.8577V329.184C89.8577 328.699 89.7271 328.325 89.4657 328.064C89.2044 327.803 88.7984 327.672 88.2477 327.672C87.8184 327.672 87.4591 327.77 87.1697 327.966C86.8897 328.153 86.6564 328.4 86.4697 328.708L85.6857 327.994C85.9004 327.602 86.2224 327.271 86.6517 327C87.0904 326.72 87.6457 326.58 88.3177 326.58C89.2231 326.58 89.9231 326.799 90.4177 327.238C90.9124 327.667 91.1597 328.279 91.1597 329.072V332.894H91.9717V334H91.2297ZM88.0797 333.118C88.5931 333.118 89.0177 333.001 89.3537 332.768C89.6897 332.535 89.8577 332.236 89.8577 331.872V330.752H88.4717C87.8744 330.752 87.4357 330.841 87.1557 331.018C86.8851 331.195 86.7497 331.452 86.7497 331.788V332.068C86.7497 332.404 86.8664 332.665 87.0997 332.852C87.3424 333.029 87.6691 333.118 88.0797 333.118ZM93.646 334V326.748H94.948V328.134H95.018C95.074 327.957 95.158 327.784 95.27 327.616C95.382 327.448 95.522 327.303 95.69 327.182C95.858 327.051 96.054 326.949 96.278 326.874C96.5113 326.79 96.7726 326.748 97.062 326.748H97.496V328.05H96.852C96.2453 328.05 95.774 328.162 95.438 328.386C95.1113 328.601 94.948 328.885 94.948 329.24V334H93.646ZM100.849 334C100.401 334 100.06 333.879 99.8267 333.636C99.5933 333.384 99.4767 333.048 99.4767 332.628V327.854H98.3147V326.748H98.9587C99.2013 326.748 99.3693 326.697 99.4627 326.594C99.556 326.491 99.6027 326.319 99.6027 326.076V324.746H100.779V326.748H102.333V327.854H100.779V332.894H102.221V334H100.849ZM108.281 325.236C108.01 325.236 107.81 325.171 107.679 325.04C107.558 324.909 107.497 324.737 107.497 324.522V324.326C107.497 324.111 107.558 323.939 107.679 323.808C107.81 323.677 108.01 323.612 108.281 323.612C108.552 323.612 108.748 323.677 108.869 323.808C109 323.939 109.065 324.111 109.065 324.326V324.522C109.065 324.737 109 324.909 108.869 325.04C108.748 325.171 108.552 325.236 108.281 325.236ZM107.623 326.748H108.925V334H107.623V326.748ZM113.565 334.168C112.893 334.168 112.324 334.042 111.857 333.79C111.4 333.538 111.003 333.197 110.667 332.768L111.549 332.012C111.82 332.357 112.123 332.623 112.459 332.81C112.804 332.997 113.201 333.09 113.649 333.09C114.116 333.09 114.47 332.997 114.713 332.81C114.956 332.614 115.077 332.348 115.077 332.012C115.077 331.741 114.993 331.517 114.825 331.34C114.666 331.163 114.363 331.041 113.915 330.976L113.299 330.878C112.954 330.831 112.636 330.757 112.347 330.654C112.058 330.551 111.81 330.416 111.605 330.248C111.4 330.08 111.236 329.875 111.115 329.632C111.003 329.389 110.947 329.1 110.947 328.764C110.947 328.409 111.012 328.097 111.143 327.826C111.274 327.546 111.456 327.317 111.689 327.14C111.922 326.953 112.198 326.813 112.515 326.72C112.842 326.627 113.196 326.58 113.579 326.58C114.195 326.58 114.708 326.683 115.119 326.888C115.53 327.093 115.889 327.378 116.197 327.742L115.371 328.526C115.194 328.293 114.951 328.092 114.643 327.924C114.344 327.747 113.976 327.658 113.537 327.658C113.089 327.658 112.753 327.751 112.529 327.938C112.314 328.125 112.207 328.372 112.207 328.68C112.207 329.007 112.31 329.245 112.515 329.394C112.73 329.543 113.047 329.651 113.467 329.716L114.083 329.814C114.886 329.935 115.46 330.169 115.805 330.514C116.16 330.859 116.337 331.312 116.337 331.872C116.337 332.581 116.09 333.141 115.595 333.552C115.1 333.963 114.424 334.168 113.565 334.168ZM121.751 334V326.748H123.053V327.938H123.123C123.291 327.537 123.533 327.21 123.851 326.958C124.177 326.706 124.616 326.58 125.167 326.58C125.913 326.58 126.497 326.823 126.917 327.308C127.346 327.793 127.561 328.479 127.561 329.366V334H126.259V329.562C126.259 328.33 125.75 327.714 124.733 327.714C124.518 327.714 124.308 327.742 124.103 327.798C123.907 327.854 123.729 327.938 123.571 328.05C123.412 328.153 123.286 328.288 123.193 328.456C123.099 328.615 123.053 328.806 123.053 329.03V334H121.751ZM132.682 334.168C132.187 334.168 131.735 334.079 131.324 333.902C130.923 333.725 130.577 333.473 130.288 333.146C129.999 332.81 129.775 332.409 129.616 331.942C129.457 331.475 129.378 330.953 129.378 330.374C129.378 329.795 129.457 329.273 129.616 328.806C129.775 328.339 129.999 327.943 130.288 327.616C130.577 327.28 130.923 327.023 131.324 326.846C131.735 326.669 132.187 326.58 132.682 326.58C133.177 326.58 133.625 326.669 134.026 326.846C134.437 327.023 134.787 327.28 135.076 327.616C135.365 327.943 135.589 328.339 135.748 328.806C135.907 329.273 135.986 329.795 135.986 330.374C135.986 330.953 135.907 331.475 135.748 331.942C135.589 332.409 135.365 332.81 135.076 333.146C134.787 333.473 134.437 333.725 134.026 333.902C133.625 334.079 133.177 334.168 132.682 334.168ZM132.682 333.048C133.251 333.048 133.713 332.871 134.068 332.516C134.423 332.161 134.6 331.629 134.6 330.92V329.828C134.6 329.119 134.423 328.587 134.068 328.232C133.713 327.877 133.251 327.7 132.682 327.7C132.113 327.7 131.651 327.877 131.296 328.232C130.941 328.587 130.764 329.119 130.764 329.828V330.92C130.764 331.629 130.941 332.161 131.296 332.516C131.651 332.871 132.113 333.048 132.682 333.048ZM137.877 334V326.748H139.179V327.938H139.249C139.417 327.537 139.66 327.21 139.977 326.958C140.304 326.706 140.743 326.58 141.293 326.58C142.04 326.58 142.623 326.823 143.043 327.308C143.473 327.793 143.687 328.479 143.687 329.366V334H142.385V329.562C142.385 328.33 141.877 327.714 140.859 327.714C140.645 327.714 140.435 327.742 140.229 327.798C140.033 327.854 139.856 327.938 139.697 328.05C139.539 328.153 139.413 328.288 139.319 328.456C139.226 328.615 139.179 328.806 139.179 329.03V334H137.877ZM145.799 330.416V329.058H149.551V330.416H145.799ZM154.629 334.168C154.106 334.168 153.644 334.079 153.243 333.902C152.842 333.725 152.501 333.473 152.221 333.146C151.941 332.819 151.726 332.423 151.577 331.956C151.437 331.48 151.367 330.953 151.367 330.374C151.367 329.795 151.437 329.273 151.577 328.806C151.726 328.339 151.941 327.943 152.221 327.616C152.501 327.28 152.842 327.023 153.243 326.846C153.644 326.669 154.106 326.58 154.629 326.58C155.348 326.58 155.931 326.739 156.379 327.056C156.827 327.373 157.158 327.793 157.373 328.316L156.295 328.848C156.174 328.493 155.968 328.213 155.679 328.008C155.399 327.803 155.049 327.7 154.629 327.7C154.004 327.7 153.532 327.891 153.215 328.274C152.907 328.657 152.753 329.147 152.753 329.744V331.004C152.753 331.601 152.907 332.091 153.215 332.474C153.532 332.857 154.004 333.048 154.629 333.048C155.077 333.048 155.45 332.941 155.749 332.726C156.048 332.511 156.29 332.208 156.477 331.816L157.429 332.404C157.196 332.955 156.846 333.389 156.379 333.706C155.912 334.014 155.329 334.168 154.629 334.168ZM163.511 332.81H163.441C163.376 332.987 163.287 333.16 163.175 333.328C163.073 333.487 162.937 333.631 162.769 333.762C162.611 333.883 162.419 333.981 162.195 334.056C161.971 334.131 161.71 334.168 161.411 334.168C160.665 334.168 160.077 333.925 159.647 333.44C159.218 332.955 159.003 332.269 159.003 331.382V326.748H160.305V331.186C160.305 332.418 160.819 333.034 161.845 333.034C162.051 333.034 162.251 333.011 162.447 332.964C162.653 332.908 162.83 332.824 162.979 332.712C163.138 332.6 163.264 332.46 163.357 332.292C163.46 332.124 163.511 331.928 163.511 331.704V326.748H164.813V334H163.511V332.81ZM169.458 334.168C168.786 334.168 168.217 334.042 167.75 333.79C167.293 333.538 166.896 333.197 166.56 332.768L167.442 332.012C167.713 332.357 168.016 332.623 168.352 332.81C168.698 332.997 169.094 333.09 169.542 333.09C170.009 333.09 170.364 332.997 170.606 332.81C170.849 332.614 170.97 332.348 170.97 332.012C170.97 331.741 170.886 331.517 170.718 331.34C170.56 331.163 170.256 331.041 169.808 330.976L169.192 330.878C168.847 330.831 168.53 330.757 168.24 330.654C167.951 330.551 167.704 330.416 167.498 330.248C167.293 330.08 167.13 329.875 167.008 329.632C166.896 329.389 166.84 329.1 166.84 328.764C166.84 328.409 166.906 328.097 167.036 327.826C167.167 327.546 167.349 327.317 167.582 327.14C167.816 326.953 168.091 326.813 168.408 326.72C168.735 326.627 169.09 326.58 169.472 326.58C170.088 326.58 170.602 326.683 171.012 326.888C171.423 327.093 171.782 327.378 172.09 327.742L171.264 328.526C171.087 328.293 170.844 328.092 170.536 327.924C170.238 327.747 169.869 327.658 169.43 327.658C168.982 327.658 168.646 327.751 168.422 327.938C168.208 328.125 168.1 328.372 168.1 328.68C168.1 329.007 168.203 329.245 168.408 329.394C168.623 329.543 168.94 329.651 169.36 329.716L169.976 329.814C170.779 329.935 171.353 330.169 171.698 330.514C172.053 330.859 172.23 331.312 172.23 331.872C172.23 332.581 171.983 333.141 171.488 333.552C170.994 333.963 170.317 334.168 169.458 334.168ZM175.898 334C175.45 334 175.109 333.879 174.876 333.636C174.643 333.384 174.526 333.048 174.526 332.628V327.854H173.364V326.748H174.008C174.251 326.748 174.419 326.697 174.512 326.594C174.605 326.491 174.652 326.319 174.652 326.076V324.746H175.828V326.748H177.382V327.854H175.828V332.894H177.27V334H175.898ZM181.975 334.168C181.481 334.168 181.028 334.079 180.617 333.902C180.216 333.725 179.871 333.473 179.581 333.146C179.292 332.81 179.068 332.409 178.909 331.942C178.751 331.475 178.671 330.953 178.671 330.374C178.671 329.795 178.751 329.273 178.909 328.806C179.068 328.339 179.292 327.943 179.581 327.616C179.871 327.28 180.216 327.023 180.617 326.846C181.028 326.669 181.481 326.58 181.975 326.58C182.47 326.58 182.918 326.669 183.319 326.846C183.73 327.023 184.08 327.28 184.369 327.616C184.659 327.943 184.883 328.339 185.041 328.806C185.2 329.273 185.279 329.795 185.279 330.374C185.279 330.953 185.2 331.475 185.041 331.942C184.883 332.409 184.659 332.81 184.369 333.146C184.08 333.473 183.73 333.725 183.319 333.902C182.918 334.079 182.47 334.168 181.975 334.168ZM181.975 333.048C182.545 333.048 183.007 332.871 183.361 332.516C183.716 332.161 183.893 331.629 183.893 330.92V329.828C183.893 329.119 183.716 328.587 183.361 328.232C183.007 327.877 182.545 327.7 181.975 327.7C181.406 327.7 180.944 327.877 180.589 328.232C180.235 328.587 180.057 329.119 180.057 329.828V330.92C180.057 331.629 180.235 332.161 180.589 332.516C180.944 332.871 181.406 333.048 181.975 333.048ZM187.171 334V326.748H188.473V327.938H188.543C188.701 327.565 188.939 327.247 189.257 326.986C189.583 326.715 189.989 326.58 190.475 326.58C190.96 326.58 191.399 326.697 191.791 326.93C192.192 327.163 192.486 327.537 192.673 328.05H192.701C192.831 327.658 193.079 327.317 193.443 327.028C193.816 326.729 194.306 326.58 194.913 326.58C195.641 326.58 196.21 326.823 196.621 327.308C197.031 327.793 197.237 328.479 197.237 329.366V334H195.935V329.562C195.935 328.946 195.813 328.484 195.571 328.176C195.337 327.868 194.969 327.714 194.465 327.714C194.25 327.714 194.045 327.742 193.849 327.798C193.662 327.854 193.494 327.938 193.345 328.05C193.195 328.153 193.074 328.288 192.981 328.456C192.897 328.615 192.855 328.806 192.855 329.03V334H191.553V329.562C191.553 328.33 191.067 327.714 190.097 327.714C189.891 327.714 189.691 327.742 189.495 327.798C189.299 327.854 189.126 327.938 188.977 328.05C188.827 328.153 188.706 328.288 188.613 328.456C188.519 328.615 188.473 328.806 188.473 329.03V334H187.171ZM200.226 325.236C199.955 325.236 199.755 325.171 199.624 325.04C199.503 324.909 199.442 324.737 199.442 324.522V324.326C199.442 324.111 199.503 323.939 199.624 323.808C199.755 323.677 199.955 323.612 200.226 323.612C200.497 323.612 200.693 323.677 200.814 323.808C200.945 323.939 201.01 324.111 201.01 324.326V324.522C201.01 324.737 200.945 324.909 200.814 325.04C200.693 325.171 200.497 325.236 200.226 325.236ZM199.568 326.748H200.87V334H199.568V326.748ZM202.612 334V332.922L206.63 327.854H202.738V326.748H208.184V327.742L204.096 332.894H208.296V334H202.612ZM212.67 334.168C212.166 334.168 211.708 334.079 211.298 333.902C210.896 333.715 210.551 333.459 210.262 333.132C209.982 332.805 209.762 332.409 209.604 331.942C209.454 331.475 209.38 330.953 209.38 330.374C209.38 329.805 209.454 329.287 209.604 328.82C209.762 328.344 209.982 327.943 210.262 327.616C210.551 327.289 210.896 327.037 211.298 326.86C211.708 326.673 212.166 326.58 212.67 326.58C213.174 326.58 213.622 326.673 214.014 326.86C214.415 327.037 214.751 327.285 215.022 327.602C215.292 327.919 215.498 328.297 215.638 328.736C215.778 329.175 215.848 329.646 215.848 330.15V330.696H210.738V330.99C210.738 331.597 210.915 332.096 211.27 332.488C211.624 332.871 212.128 333.062 212.782 333.062C213.239 333.062 213.631 332.959 213.958 332.754C214.284 332.549 214.546 332.259 214.742 331.886L215.582 332.6C215.33 333.076 214.952 333.459 214.448 333.748C213.944 334.028 213.351 334.168 212.67 334.168ZM212.67 327.63C212.39 327.63 212.128 327.681 211.886 327.784C211.652 327.887 211.447 328.031 211.27 328.218C211.102 328.395 210.971 328.61 210.878 328.862C210.784 329.114 210.738 329.389 210.738 329.688V329.786H214.462V329.646C214.462 329.039 214.298 328.554 213.972 328.19C213.654 327.817 213.22 327.63 212.67 327.63ZM222.334 332.81H222.278C222.11 333.258 221.844 333.599 221.48 333.832C221.126 334.056 220.696 334.168 220.192 334.168C219.735 334.168 219.324 334.084 218.96 333.916C218.606 333.739 218.302 333.487 218.05 333.16C217.798 332.824 217.607 332.423 217.476 331.956C217.346 331.489 217.28 330.962 217.28 330.374C217.28 329.786 217.346 329.259 217.476 328.792C217.607 328.325 217.798 327.929 218.05 327.602C218.302 327.266 218.606 327.014 218.96 326.846C219.324 326.669 219.735 326.58 220.192 326.58C220.696 326.58 221.126 326.697 221.48 326.93C221.844 327.154 222.11 327.49 222.278 327.938H222.334V323.64H223.636V334H222.334V332.81ZM220.57 333.034C220.813 333.034 221.042 333.001 221.256 332.936C221.471 332.871 221.658 332.777 221.816 332.656C221.975 332.535 222.101 332.395 222.194 332.236C222.288 332.077 222.334 331.9 222.334 331.704V329.044C222.334 328.848 222.288 328.671 222.194 328.512C222.101 328.353 221.975 328.213 221.816 328.092C221.658 327.971 221.471 327.877 221.256 327.812C221.042 327.747 220.813 327.714 220.57 327.714C219.982 327.714 219.516 327.901 219.17 328.274C218.834 328.647 218.666 329.142 218.666 329.758V330.99C218.666 331.606 218.834 332.101 219.17 332.474C219.516 332.847 219.982 333.034 220.57 333.034ZM33.806 345.236C33.5353 345.236 33.3347 345.171 33.204 345.04C33.0827 344.909 33.022 344.737 33.022 344.522V344.326C33.022 344.111 33.0827 343.939 33.204 343.808C33.3347 343.677 33.5353 343.612 33.806 343.612C34.0767 343.612 34.2727 343.677 34.394 343.808C34.5247 343.939 34.59 344.111 34.59 344.326V344.522C34.59 344.737 34.5247 344.909 34.394 345.04C34.2727 345.171 34.0767 345.236 33.806 345.236ZM33.148 346.748H34.45V354H33.148V346.748ZM38.2217 354C37.7737 354 37.433 353.879 37.1997 353.636C36.9757 353.393 36.8637 353.071 36.8637 352.67V343.64H38.1657V352.894H39.2017V354H38.2217ZM42.1562 354C41.7082 354 41.3675 353.879 41.1342 353.636C40.9102 353.393 40.7982 353.071 40.7982 352.67V343.64H42.1002V352.894H43.1362V354H42.1562ZM49.2526 352.81H49.1826C49.1173 352.987 49.0286 353.16 48.9166 353.328C48.814 353.487 48.6786 353.631 48.5106 353.762C48.352 353.883 48.1606 353.981 47.9366 354.056C47.7126 354.131 47.4513 354.168 47.1526 354.168C46.406 354.168 45.818 353.925 45.3886 353.44C44.9593 352.955 44.7446 352.269 44.7446 351.382V346.748H46.0466V351.186C46.0466 352.418 46.56 353.034 47.5866 353.034C47.792 353.034 47.9926 353.011 48.1886 352.964C48.394 352.908 48.5713 352.824 48.7206 352.712C48.8793 352.6 49.0053 352.46 49.0986 352.292C49.2013 352.124 49.2526 351.928 49.2526 351.704V346.748H50.5546V354H49.2526V352.81ZM55.1997 354.168C54.5277 354.168 53.9584 354.042 53.4917 353.79C53.0344 353.538 52.6377 353.197 52.3017 352.768L53.1837 352.012C53.4544 352.357 53.7577 352.623 54.0937 352.81C54.439 352.997 54.8357 353.09 55.2837 353.09C55.7504 353.09 56.105 352.997 56.3477 352.81C56.5904 352.614 56.7117 352.348 56.7117 352.012C56.7117 351.741 56.6277 351.517 56.4597 351.34C56.301 351.163 55.9977 351.041 55.5497 350.976L54.9337 350.878C54.5884 350.831 54.271 350.757 53.9817 350.654C53.6924 350.551 53.445 350.416 53.2397 350.248C53.0344 350.08 52.871 349.875 52.7497 349.632C52.6377 349.389 52.5817 349.1 52.5817 348.764C52.5817 348.409 52.647 348.097 52.7777 347.826C52.9084 347.546 53.0904 347.317 53.3237 347.14C53.557 346.953 53.8324 346.813 54.1497 346.72C54.4764 346.627 54.831 346.58 55.2137 346.58C55.8297 346.58 56.343 346.683 56.7537 346.888C57.1644 347.093 57.5237 347.378 57.8317 347.742L57.0057 348.526C56.8284 348.293 56.5857 348.092 56.2777 347.924C55.979 347.747 55.6104 347.658 55.1717 347.658C54.7237 347.658 54.3877 347.751 54.1637 347.938C53.949 348.125 53.8417 348.372 53.8417 348.68C53.8417 349.007 53.9444 349.245 54.1497 349.394C54.3644 349.543 54.6817 349.651 55.1017 349.716L55.7177 349.814C56.5204 349.935 57.0944 350.169 57.4397 350.514C57.7944 350.859 57.9717 351.312 57.9717 351.872C57.9717 352.581 57.7244 353.141 57.2297 353.552C56.735 353.963 56.0584 354.168 55.1997 354.168ZM61.6393 354C61.1913 354 60.8506 353.879 60.6173 353.636C60.3839 353.384 60.2673 353.048 60.2673 352.628V347.854H59.1053V346.748H59.7493C59.9919 346.748 60.1599 346.697 60.2533 346.594C60.3466 346.491 60.3933 346.319 60.3933 346.076V344.746H61.5693V346.748H63.1233V347.854H61.5693V352.894H63.0113V354H61.6393ZM64.9852 354V346.748H66.2872V348.134H66.3572C66.4132 347.957 66.4972 347.784 66.6092 347.616C66.7212 347.448 66.8612 347.303 67.0292 347.182C67.1972 347.051 67.3932 346.949 67.6172 346.874C67.8505 346.79 68.1119 346.748 68.4012 346.748H68.8352V348.05H68.1912C67.5845 348.05 67.1132 348.162 66.7772 348.386C66.4505 348.601 66.2872 348.885 66.2872 349.24V354H64.9852ZM75.5512 354C75.1498 354 74.8465 353.888 74.6412 353.664C74.4452 353.44 74.3238 353.151 74.2772 352.796H74.2072C74.0578 353.244 73.8012 353.585 73.4372 353.818C73.0732 354.051 72.6298 354.168 72.1072 354.168C71.3512 354.168 70.7632 353.977 70.3432 353.594C69.9232 353.202 69.7132 352.67 69.7132 351.998C69.7132 351.298 69.9652 350.766 70.4692 350.402C70.9825 350.029 71.7618 349.842 72.8072 349.842H74.1792V349.184C74.1792 348.699 74.0485 348.325 73.7872 348.064C73.5258 347.803 73.1198 347.672 72.5692 347.672C72.1398 347.672 71.7805 347.77 71.4912 347.966C71.2112 348.153 70.9778 348.4 70.7912 348.708L70.0072 347.994C70.2218 347.602 70.5438 347.271 70.9732 347C71.4118 346.72 71.9672 346.58 72.6392 346.58C73.5445 346.58 74.2445 346.799 74.7392 347.238C75.2338 347.667 75.4812 348.279 75.4812 349.072V352.894H76.2932V354H75.5512ZM72.4012 353.118C72.9145 353.118 73.3392 353.001 73.6752 352.768C74.0112 352.535 74.1792 352.236 74.1792 351.872V350.752H72.7932C72.1958 350.752 71.7572 350.841 71.4772 351.018C71.2065 351.195 71.0712 351.452 71.0712 351.788V352.068C71.0712 352.404 71.1878 352.665 71.4212 352.852C71.6638 353.029 71.9905 353.118 72.4012 353.118ZM79.7317 354C79.2837 354 78.943 353.879 78.7097 353.636C78.4764 353.384 78.3597 353.048 78.3597 352.628V347.854H77.1977V346.748H77.8417C78.0844 346.748 78.2524 346.697 78.3457 346.594C78.439 346.491 78.4857 346.319 78.4857 346.076V344.746H79.6617V346.748H81.2157V347.854H79.6617V352.894H81.1037V354H79.7317ZM83.7356 345.236C83.4649 345.236 83.2643 345.171 83.1336 345.04C83.0123 344.909 82.9516 344.737 82.9516 344.522V344.326C82.9516 344.111 83.0123 343.939 83.1336 343.808C83.2643 343.677 83.4649 343.612 83.7356 343.612C84.0063 343.612 84.2023 343.677 84.3236 343.808C84.4543 343.939 84.5196 344.111 84.5196 344.326V344.522C84.5196 344.737 84.4543 344.909 84.3236 345.04C84.2023 345.171 84.0063 345.236 83.7356 345.236ZM83.0776 346.748H84.3796V354H83.0776V346.748ZM89.5793 354.168C89.0846 354.168 88.632 354.079 88.2213 353.902C87.82 353.725 87.4746 353.473 87.1853 353.146C86.896 352.81 86.672 352.409 86.5133 351.942C86.3546 351.475 86.2753 350.953 86.2753 350.374C86.2753 349.795 86.3546 349.273 86.5133 348.806C86.672 348.339 86.896 347.943 87.1853 347.616C87.4746 347.28 87.82 347.023 88.2213 346.846C88.632 346.669 89.0846 346.58 89.5793 346.58C90.074 346.58 90.522 346.669 90.9233 346.846C91.334 347.023 91.684 347.28 91.9733 347.616C92.2626 347.943 92.4866 348.339 92.6453 348.806C92.804 349.273 92.8833 349.795 92.8833 350.374C92.8833 350.953 92.804 351.475 92.6453 351.942C92.4866 352.409 92.2626 352.81 91.9733 353.146C91.684 353.473 91.334 353.725 90.9233 353.902C90.522 354.079 90.074 354.168 89.5793 354.168ZM89.5793 353.048C90.1486 353.048 90.6106 352.871 90.9653 352.516C91.32 352.161 91.4973 351.629 91.4973 350.92V349.828C91.4973 349.119 91.32 348.587 90.9653 348.232C90.6106 347.877 90.1486 347.7 89.5793 347.7C89.01 347.7 88.548 347.877 88.1933 348.232C87.8386 348.587 87.6613 349.119 87.6613 349.828V350.92C87.6613 351.629 87.8386 352.161 88.1933 352.516C88.548 352.871 89.01 353.048 89.5793 353.048ZM94.7746 354V346.748H96.0766V347.938H96.1466C96.3146 347.537 96.5573 347.21 96.8746 346.958C97.2013 346.706 97.64 346.58 98.1906 346.58C98.9373 346.58 99.5206 346.823 99.9406 347.308C100.37 347.793 100.585 348.479 100.585 349.366V354H99.2826V349.562C99.2826 348.33 98.774 347.714 97.7566 347.714C97.542 347.714 97.332 347.742 97.1266 347.798C96.9306 347.854 96.7533 347.938 96.5946 348.05C96.436 348.153 96.31 348.288 96.2166 348.456C96.1233 348.615 96.0766 348.806 96.0766 349.03V354H94.7746Z" fill="#5C5C5C"></path><path fill-rule="evenodd" clip-rule="evenodd" d="M36.6447 32C37.0007 32 37.2893 32.2878 37.2893 32.6429V210.714H289.355C289.711 210.714 290 211.002 290 211.357C290 211.712 289.711 212 289.355 212H36V32.6429C36 32.2878 36.2886 32 36.6447 32Z" fill="#00857A"></path><path d="M114.992 133.733C81.1279 106.072 50.9499 98.9 37 97V211H290V192C278.558 192 258.206 192.348 224.055 190.1C181.571 187.303 151.89 163.872 114.992 133.733Z" fill="#C4ECE9"></path><path d="M206 97H290V37C286.476 37.645 270.575 34.8001 248.962 44.6596C222.813 56.5884 210.019 82.6718 206 97Z" fill="#FED0D4"></path><circle cx="286" cy="191" r="5" fill="#129C90"></circle><path d="M41.5 98C54.7836 100.078 80.1083 106.361 115.5 134C168 175 187 189.5 243 191.5C274.507 192.625 274.13 192 289 192" stroke="#129C90"></path><path d="M40 97.5C70.7005 103.688 81.8501 111.714 108.5 128C135.5 144.5 164.617 141.82 178.071 134.874C216.571 115 198.364 37 290 37" stroke="#E22336"></path><path d="M38 97L290 97" stroke="#E22336" stroke-dasharray="7 7"></path><circle cx="113" cy="132" r="5" fill="#E22336"></circle><circle cx="37" cy="97" r="5" fill="#129C90"></circle><path d="M113 137V210" stroke="#E22336" stroke-dasharray="7 7"></path><circle cx="286" cy="37" r="5" fill="#E22336"></circle><circle cx="36" cy="257" r="4" fill="#E22336"></circle><circle cx="36" cy="285" r="4" fill="#129C90"></circle></svg> 