<svg width="21" height="22" viewBox="0 0 21 22" fill="none" xmlns="http://www.w3.org/2000/svg">
<path d="M18.9208 5.87512C17.1434 2.2485 13.3515 1.26501 10.2113 1.01914C6.30096 0.711797 2.0351 3.96961 1.08713 7.8421C0.257657 10.7926 1.02789 14.6651 2.62758 17.1238C4.40503 19.7669 7.30817 21.1807 10.4483 20.9963C13.6477 20.8119 16.7286 19.1522 18.5653 16.3862C20.2243 13.8045 20.402 8.94852 18.9208 5.87512Z" fill="#F3C015"/>
<path fill-rule="evenodd" clip-rule="evenodd" d="M4.9291 2.8474C6.66644 1.59642 8.80328 0.850108 10.8486 1.00899C14.0587 1.25461 18.0673 2.24232 19.919 5.92452C20.7128 7.47235 21.0553 9.44489 20.9928 11.3341C20.9303 13.2211 20.4622 15.0642 19.5942 16.3432L19.5935 16.3443C17.699 19.1077 14.4851 20.7968 11.1501 20.9847C7.86232 21.1733 4.82028 19.7258 2.98248 17.0786C1.2838 14.638 0.462488 10.7691 1.34614 7.80905C1.82733 5.87125 3.19392 4.09683 4.9291 2.8474ZM5.25656 3.29654C3.60081 4.48877 2.32792 6.16259 1.88651 7.94792C1.88544 7.95226 1.88426 7.95657 1.88297 7.96086C1.05031 10.7411 1.82559 14.4416 3.44166 16.7633L3.44186 16.7636C5.16581 19.2468 8.01907 20.6088 11.1179 20.431L11.1182 20.4309C14.2923 20.2523 17.3418 18.6434 19.132 16.0324C19.9217 14.8684 20.3746 13.1389 20.435 11.3158C20.4952 9.495 20.1624 7.62017 19.4213 6.1754L19.4203 6.17339C17.7101 2.77159 13.9816 1.80497 10.8055 1.56198L10.8052 1.56195C8.92029 1.41549 6.91206 2.10448 5.25656 3.29654Z" fill="#030000"/>
<path fill-rule="evenodd" clip-rule="evenodd" d="M9.26894 3.103C10.9722 2.86464 12.7435 2.98276 14.3979 3.58303C16.0608 4.18637 17.486 5.33602 18.2934 6.91793C18.2957 6.92256 18.298 6.92726 18.3 6.93203C18.6669 7.77046 18.9136 8.6734 18.9755 9.58148C19.1591 11.9828 18.3025 14.5012 16.6464 16.3038C14.9885 18.1085 12.4081 19.1964 9.93495 18.9542C9.93484 18.9542 9.93473 18.9542 9.93463 18.9542L9.96154 18.6909L9.93528 18.9543C9.93517 18.9543 9.93506 18.9543 9.93495 18.9542C7.40943 18.7128 5.06445 17.2056 3.94965 15.0214C3.51798 14.1757 3.27314 13.2739 3.15089 12.379C3.15118 12.3807 3.15147 12.3824 3.15176 12.384L3.41814 12.3391L3.1502 12.374C3.15043 12.3757 3.15066 12.3774 3.15089 12.379C2.84771 10.6515 2.96592 8.72648 3.83248 7.08929C4.69768 5.45468 6.18134 4.18373 8.09394 3.57933C8.236 3.53443 8.38835 3.61077 8.43422 3.74984C8.48008 3.8889 8.40209 4.03803 8.26002 4.08293C6.48452 4.644 5.11289 5.82055 4.31249 7.33273C3.5143 8.84075 3.39395 10.6431 3.68453 12.2942C3.68511 12.2975 3.68563 12.3008 3.68608 12.3042C3.802 13.1558 4.03294 14.0005 4.43327 14.7849C5.45989 16.7963 7.63564 18.2028 9.98781 18.4276L9.98846 18.4277C12.2741 18.6516 14.6903 17.6417 16.2445 15.95C17.8004 14.2564 18.6094 11.8803 18.4364 9.62L18.4362 9.61782C18.3792 8.7806 18.1513 7.9383 17.8062 7.14751C17.8074 7.14982 17.8086 7.15213 17.8098 7.15444L18.0516 7.03619L17.8031 7.14035C17.8041 7.14273 17.8052 7.14512 17.8062 7.14751C17.0663 5.70271 15.7569 4.64047 14.21 4.07923C12.6522 3.51402 10.9734 3.39904 9.34546 3.62687C9.19767 3.64755 9.06074 3.54705 9.03961 3.40238C9.01848 3.25772 9.12116 3.12369 9.26894 3.103Z" fill="#030000"/>
</svg>
