<svg width="24" height="24" viewBox="0 0 24 24" fill="none" xmlns="http://www.w3.org/2000/svg">
<path d="M21.6004 16.5674C19.9004 15.1674 18.2004 13.7674 16.4004 12.2674C18.1004 10.7674 19.7004 9.26739 21.4004 7.86739C24.1004 5.56739 20.5004 1.3674 17.8004 3.6674C15.9004 5.3674 14.0004 7.0674 12.1004 8.7674C10.3004 7.2674 8.50043 5.86739 6.70043 4.36739C5.50043 3.46739 3.70042 3.9674 2.90042 5.0674C2.00042 6.3674 2.40043 7.9674 3.60043 8.8674C5.00043 10.0674 6.50042 11.1674 7.90042 12.3674C6.20042 13.8674 4.60042 15.3674 2.90042 16.8674C0.300425 19.2674 3.90043 23.4674 6.50043 21.0674C8.40043 19.3674 10.3004 17.6674 12.2004 15.8674C14.3004 17.5674 16.3004 19.2674 18.4004 20.9674C19.5004 21.9674 21.4004 21.3674 22.2004 20.2674C23.3004 19.0674 22.8004 17.4674 21.6004 16.5674Z" fill="#F38059"/>
<path d="M6.00044 21.9674C5.90044 21.9674 5.70044 21.8674 5.60044 21.7674C5.40044 21.5674 5.40044 21.2674 5.60044 21.0674C10.7004 16.5674 15.7004 11.8674 20.5004 7.06736C20.7004 6.86736 21.0004 6.86736 21.2004 7.06736C21.4004 7.26736 21.4004 7.56737 21.2004 7.76737C16.4004 12.6674 11.4004 17.3674 6.30044 21.8674C6.30044 21.9674 6.20044 21.9674 6.00044 21.9674Z" fill="black"/>
<path d="M8.00033 12.9674C7.90033 12.9674 7.80033 12.9674 7.70033 12.8674C6.30033 11.5674 4.80032 10.3674 3.30032 9.26742C3.10032 9.06742 3.00033 8.76742 3.20033 8.56742C3.40033 8.36742 3.70032 8.26741 3.90032 8.46741C5.50032 9.56741 7.00032 10.8674 8.40032 12.0674C8.60032 12.2674 8.60032 12.5674 8.40032 12.7674C8.20032 12.8674 8.10033 12.9674 8.00033 12.9674Z" fill="black"/>
</svg>
