<svg width="24" height="24" viewBox="0 0 24 24" fill="none" xmlns="http://www.w3.org/2000/svg">
<path d="M16.5493 1.96878C16.5493 1.96878 19.1408 3.26456 18.5428 6.1551C17.9447 9.04565 15.4529 9.34466 13.7584 9.04564C12.0639 8.74662 12.961 10.9394 17.0476 11.3381C21.0346 11.7368 22.2307 9.54399 22.7291 7.25149C23.1278 5.25801 22.0313 2.36747 19.1408 1.37073C16.2503 0.373991 14.9545 1.66976 16.5493 1.96878Z" fill="#F8CD3D"/>
<path d="M5.4853 11.737C3.79084 13.1324 1.89703 16.2223 2.7941 18.5148C2.69442 18.6145 2.69442 18.8138 2.89377 18.9135C4.78758 20.907 6.98041 22.9005 9.87095 23.0001C12.5622 23.0001 13.9576 21.0066 14.0573 18.4151C14.1569 16.1226 13.1602 13.8301 11.4657 12.2353C9.77128 10.7402 7.3791 10.2419 5.4853 11.737Z" fill="#FBB49B"/>
<path d="M5.08663 10.2417C4.48859 9.544 3.79087 8.84628 3.19283 8.14856C2.49511 8.7466 1.69772 9.24498 1 9.74335C1.49837 10.3414 2.09641 10.9394 2.59478 11.6371C1.09967 13.83 0.900324 16.8202 2.09641 19.2124C2.49511 19.9101 3.49185 21.3055 4.38892 20.4085C4.98696 19.8104 4.88729 18.6143 4.78761 17.6176C5.78435 18.6143 7.27946 19.7107 8.37588 18.8137C9.27294 18.0163 8.97392 16.7205 8.47555 15.5244C9.47229 16.1225 10.7681 16.5212 11.4658 15.7238C12.2632 14.9264 11.3661 13.6306 10.5687 12.7336C11.1667 12.8332 11.8645 12.8332 12.3628 12.2352C13.1602 11.3381 12.2632 10.5407 11.4658 10.142C9.47229 9.04563 7.08011 9.14531 5.08663 10.2417Z" fill="#32B2A8"/>
</svg>
