<svg width="24" height="24" viewBox="0 0 24 24" fill="none" xmlns="http://www.w3.org/2000/svg">
<path d="M23 8.89173C22.3007 11.6888 20.5026 15.3849 18.6046 17.1831C16.2071 19.3808 13.1104 20.08 9.51412 19.181C6.01778 18.3818 3.42051 16.3839 2.22177 13.6867C1.12292 11.0894 0.623449 7.99267 1.32272 5.0957L23 8.89173Z" fill="#FBB49B"/>
<path d="M14.1093 11.2892C13.7097 11.2892 13.3102 11.0894 13.1104 10.8896C12.8107 10.5899 12.6109 9.99056 12.7108 9.59098C12.8107 9.2913 13.0105 9.19141 13.3102 9.19141C13.6099 9.2913 13.7098 9.4911 13.7098 9.79078C13.7098 9.89068 13.7098 10.0905 13.8097 10.1904C13.9096 10.2903 14.1093 10.2903 14.2092 10.2903C14.409 10.2903 14.6088 10.0905 14.7087 9.89067C14.9085 9.69088 15.2082 9.69089 15.408 9.79078C15.6077 9.99058 15.6078 10.2903 15.5079 10.49C15.3081 10.7897 14.9085 11.0894 14.409 11.1893C14.3091 11.2892 14.2092 11.2892 14.1093 11.2892Z" fill="black"/>
<path d="M5.71822 9.19144C5.31864 9.19144 4.91905 8.99165 4.71926 8.79186C4.41958 8.49218 4.21979 7.8928 4.31969 7.49322C4.41958 7.19353 4.61935 7.09363 4.91904 7.09363C5.21872 7.19352 5.31864 7.39332 5.31864 7.69301C5.31864 7.7929 5.31862 7.99269 5.41851 8.09258C5.51841 8.19248 5.71822 8.19248 5.81812 8.19248C6.01791 8.19248 6.2177 7.9927 6.3176 7.79291C6.51739 7.59312 6.81705 7.59311 7.01684 7.69301C7.21664 7.8928 7.21664 8.19248 7.11675 8.39227C6.91696 8.69196 6.51737 8.99164 6.01789 9.09154C5.918 9.19143 5.81811 9.19144 5.71822 9.19144Z" fill="black"/>
<path d="M14.2093 22.5774C13.2104 22.5774 11.7119 22.3776 10.4133 21.5784C6.71713 19.2808 6.11776 15.1851 5.91797 11.489C5.91797 10.5899 6.41745 10.1903 6.91692 10.0904C7.5163 9.99053 8.11569 10.2902 8.21558 10.7897C8.21558 10.8896 8.31548 11.0894 8.31548 11.6888C8.41538 13.0873 8.71505 16.2839 10.0137 17.8823C11.4122 19.5805 12.7109 20.3797 16.8066 20.1799C17.1063 20.1799 17.3061 20.3797 17.3061 20.6793C17.3061 20.979 17.1063 21.1788 16.8066 21.1788C12.8108 21.3786 10.9128 20.7792 9.21454 18.5815C7.816 16.7834 7.51632 13.4869 7.31653 11.8885C7.31653 11.5889 7.31652 11.3891 7.21663 11.2892C7.21663 11.1893 7.11672 11.1893 7.01682 11.1893C6.91693 11.1893 6.91692 11.3891 6.91692 11.489C7.01682 14.9853 7.61619 18.7813 10.9127 20.7792C12.611 21.8781 15.0085 21.5784 15.0085 21.5784C15.3081 21.5784 15.5079 21.7782 15.6078 21.978C15.6078 22.2777 15.4081 22.4775 15.2083 22.5774C15.2083 22.5774 14.8087 22.5774 14.2093 22.5774Z" fill="black"/>
<path d="M9.01454 13.7866C8.11549 13.7866 7.51611 13.0874 7.51611 11.8886C7.51611 10.6899 8.11549 9.9906 9.01454 9.9906C9.9136 9.9906 10.7128 10.7898 10.7128 11.8886C10.7128 12.9875 10.0135 13.7866 9.01454 13.7866ZM9.01454 11.0894C8.61496 11.0894 8.51507 11.6888 8.51507 11.9885C8.51507 12.2882 8.51507 12.8876 9.01454 12.8876C9.41413 12.8876 9.71382 12.488 9.71382 11.9885C9.71382 11.489 9.41413 11.0894 9.01454 11.0894Z" fill="black"/>
<path d="M4.49562 10.3025C4.72591 9.80112 4.38425 9.15202 3.73251 8.85265C3.08077 8.55329 2.36575 8.71701 2.13547 9.21835C1.90519 9.71969 2.24685 10.3688 2.89858 10.6682C3.55032 10.9675 4.26534 10.8038 4.49562 10.3025Z" fill="#F89879"/>
<path d="M16.7792 12.5758C16.8013 12.0245 16.2382 11.5544 15.5215 11.5257C14.8049 11.497 14.206 11.9207 14.184 12.4719C14.1619 13.0232 14.725 13.4933 15.4416 13.522C16.1583 13.5507 16.7571 13.1271 16.7792 12.5758Z" fill="#F89879"/>
<path d="M14.2091 5.39545C14.2091 5.39545 14.1092 5.39545 14.2091 5.39545C13.6097 5.39545 12.9105 5.29555 12.3111 5.19566C12.1113 5.19566 12.0114 4.99587 11.9115 4.79608C11.8116 4.59629 11.9115 4.3965 12.0114 4.29661C12.2112 4.09682 12.5109 3.79712 12.8106 3.59733H12.7107C12.411 3.59733 12.2112 3.29765 12.3111 2.99796C12.3111 2.69828 12.6108 2.49848 12.9104 2.59837L14.309 2.79818C14.5088 2.79818 14.7086 2.99796 14.7086 3.19775C14.7086 3.39754 14.7086 3.59733 14.5088 3.69723C14.2091 3.89702 13.9094 4.09682 13.6097 4.29661C13.8095 4.29661 14.1092 4.2966 14.309 4.39649C14.6087 4.39649 14.8085 4.69618 14.8085 4.89597C14.6087 5.19566 14.4089 5.39545 14.2091 5.39545Z" fill="black"/>
<path d="M18.5048 4.19665C17.6057 4.19665 16.7067 4.19664 15.9075 4.09675C15.7077 4.09675 15.6078 3.99687 15.5079 3.79707C15.408 3.59728 15.5079 3.39749 15.6078 3.2976C16.0074 2.89802 16.3071 2.49842 16.7067 2.09884L15.7077 1.99895C15.408 1.99895 15.2083 1.69927 15.2083 1.49948C15.2083 1.19979 15.5079 1 15.7077 1L18.0053 1.09989C18.2051 1.09989 18.4049 1.29969 18.5048 1.49948C18.6047 1.69927 18.5048 1.89906 18.305 1.99895C17.8055 2.29864 17.4059 2.69821 17.0064 3.09779C17.5058 3.09779 18.0053 3.09779 18.5048 3.09779C18.8045 3.09779 19.0043 3.29759 19.0043 3.59727C19.0043 3.99685 18.8045 4.19665 18.5048 4.19665Z" fill="black"/>
</svg>
