<svg width="24" height="24" viewBox="0 0 24 24" fill="none" xmlns="http://www.w3.org/2000/svg">
<path d="M15.775 10.3936C12.8433 10.6868 9.91156 10.8822 6.97985 10.98C6.7844 10.98 6.58895 11.0777 6.49123 11.1754C6.19806 11.3709 6.10034 11.664 6.10034 11.9572C6.58896 14.9866 6.97986 18.0161 7.5662 20.9478C7.66392 21.2409 7.9571 21.5341 8.34799 21.5341C9.71612 21.4364 12.0615 21.5341 13.4296 21.4364C13.9182 21.4364 14.7 21.4364 15.1887 21.1432C15.5795 20.85 15.6773 20.3614 15.775 19.8728C16.5568 17.1365 16.2636 14.2048 16.9477 11.5663C16.9477 11.0777 16.0682 10.2959 15.775 10.3936Z" fill="#F8CD3D"/>
<path d="M19.0976 1.1099C17.8272 1.98941 16.1659 2.77119 15.091 3.94388C14.6023 4.53022 14.4069 5.21429 14.3092 5.89835C14.1137 6.87559 13.9183 7.85283 13.7228 8.83007C12.941 12.5436 12.1592 16.3548 11.3775 20.0683C11.182 20.9478 12.5501 21.3387 12.7456 20.4592C13.4297 17.1366 14.2114 13.7163 14.8955 10.3937C15.1887 8.83007 15.4819 7.07104 15.9705 5.50747C16.2636 4.62795 17.0454 4.33478 17.7295 3.84616C18.4136 3.35755 19.1954 2.86893 19.8794 2.38031C20.6612 1.89169 19.8794 0.621279 19.0976 1.1099Z" fill="#F38059"/>
<path d="M8.54348 22.7069C8.34803 22.7069 8.15259 22.5115 8.05486 22.316L5.02542 6.68024C4.9277 6.38706 5.12315 6.19163 5.41632 6.0939C5.7095 5.99618 5.90493 6.19162 6.00266 6.48479L9.0321 22.1206C9.12982 22.4138 8.93437 22.6092 8.54348 22.7069C8.6412 22.7069 8.54348 22.7069 8.54348 22.7069Z" fill="black"/>
<path d="M8.54355 23C8.25038 23 8.05493 22.8046 8.05493 22.5114C8.05493 22.2182 8.25038 22.0228 8.54355 22.0228C9.03217 22.0228 9.52079 21.9251 10.0094 21.9251C11.3775 21.8273 12.8434 21.6319 14.2115 21.6319L16.5569 6.7779C16.5569 6.48473 16.8501 6.28927 17.1432 6.38699C17.4364 6.38699 17.6319 6.68017 17.5341 6.97334L15.091 22.2182C15.091 22.4137 14.8956 22.6091 14.6024 22.6091C13.1366 22.6091 11.573 22.8046 10.0094 22.9023C9.61851 22.9023 9.03217 22.9023 8.54355 23Z" fill="black"/>
<path d="M6.29575 6.87568C6.00258 6.87568 5.80713 6.68024 5.80713 6.38707C5.80713 6.09389 6.00258 5.89845 6.29575 5.89845C9.71608 5.703 13.1364 5.703 16.6545 5.703C16.9476 5.703 17.1431 5.89845 17.1431 6.19162C17.1431 6.48479 16.9476 6.68024 16.6545 6.68024C13.1364 6.68024 9.71608 6.68024 6.29575 6.87568Z" fill="black"/>
<path d="M12.8432 15.5729C11.9637 15.5729 11.4751 14.8889 11.4751 14.2048C11.4751 13.5207 11.9637 12.8367 12.8432 12.8367C13.7227 12.8367 14.2114 13.5207 14.2114 14.2048C14.2114 14.5957 14.1136 14.8889 13.9182 15.0843C13.625 15.4752 13.2341 15.5729 12.8432 15.5729ZM12.8432 13.8139C12.7455 13.8139 12.6478 13.8139 12.5501 13.9116C12.4523 14.0094 12.4523 14.1071 12.4523 14.2048C12.4523 14.3025 12.4523 14.5957 12.8432 14.5957C12.9409 14.5957 13.0387 14.5957 13.1364 14.498C13.2341 14.4002 13.2341 14.3025 13.2341 14.2048C13.2341 14.1071 13.2341 13.8139 12.8432 13.8139Z" fill="black"/>
<path d="M8.83665 12.3482C7.95713 12.3482 7.46851 11.6641 7.46851 10.9801C7.46851 10.5892 7.56623 10.296 7.76168 10.1006C8.05485 9.80739 8.34802 9.61194 8.73892 9.61194C9.61843 9.61194 10.1071 10.296 10.1071 10.9801C10.1071 11.371 10.0093 11.6641 9.81388 11.8596C9.61844 12.1528 9.22754 12.3482 8.83665 12.3482ZM8.83665 10.5892C8.54348 10.5892 8.44574 10.8824 8.44574 10.9801C8.44574 11.0778 8.44575 11.371 8.83665 11.371C9.22754 11.371 9.22754 11.0778 9.22754 10.9801C9.22754 10.8824 9.12982 10.5892 8.83665 10.5892Z" fill="black"/>
<path d="M9.61839 20.4592C8.73887 20.4592 8.25024 19.7751 8.25024 19.091C8.25024 18.7001 8.34797 18.407 8.54342 18.2115C8.83659 17.9183 9.12976 17.7229 9.52066 17.7229C10.4002 17.7229 10.8888 18.407 10.8888 19.091C10.9865 19.7751 10.4979 20.4592 9.61839 20.4592ZM9.61839 18.7001C9.52066 18.7001 9.42293 18.7001 9.32521 18.7979C9.22749 18.8956 9.22748 18.9933 9.22748 19.091C9.22748 19.1888 9.22749 19.4819 9.61839 19.4819C9.71611 19.4819 9.81382 19.4819 9.91154 19.3842C10.0093 19.2865 10.0093 19.1888 10.0093 19.091C10.0093 18.9933 10.0093 18.7001 9.61839 18.7001Z" fill="black"/>
</svg>
