<svg width="24" height="24" viewBox="0 0 24 24" fill="none" xmlns="http://www.w3.org/2000/svg">
<path d="M18.1433 13.1927C18.0433 13.1927 17.8433 13.0927 17.7433 13.0927C13.7433 12.8927 9.64331 12.8927 5.64331 12.9927C5.24331 12.9927 4.94331 13.1927 4.64331 13.3927C4.44331 13.4927 4.24331 13.6927 4.14331 13.8927C5.04331 16.9927 6.34331 19.9927 7.64331 22.9927C9.24331 22.9927 10.9433 22.9927 12.5433 22.9927C13.8433 22.9927 16.6433 22.9927 16.6433 22.9927C17.4433 22.0927 18.2433 20.2927 18.6433 19.1927C19.1433 17.7927 19.7433 16.2927 20.3433 14.8927C20.8433 13.5927 19.1433 12.6927 18.1433 13.1927Z" fill="#C6896B"/>
<path d="M18.4433 7.09266C18.3433 5.99266 17.7433 4.99265 16.6433 4.39265C15.3433 3.69265 13.9433 3.89266 12.8433 4.59266C11.5433 3.29266 9.64333 2.79266 7.84333 3.59266C5.64333 4.49266 4.64333 6.49266 4.64333 8.69266C3.04333 9.09266 1.74332 10.5927 2.04332 12.4927C2.54332 15.8927 6.44333 16.5927 8.94333 14.8927L9.04332 14.7927C10.6433 16.6927 13.6433 17.0927 15.6433 15.2927C18.0433 16.5927 21.2433 15.4927 22.0433 12.5927C22.8433 9.79266 20.8433 7.49266 18.4433 7.09266Z" fill="#A0DFDA"/>
<path d="M15.5433 3.69268C15.5433 3.19268 15.4434 2.69268 15.1434 2.19268C14.3434 1.09268 12.7433 0.592679 11.5433 1.39268C11.2433 1.59268 11.0434 1.89268 10.9434 2.19268C10.7434 2.49268 10.5434 2.79269 10.4434 3.09269C10.1434 4.09269 10.5433 5.09269 11.3433 5.79269C12.1433 6.49269 13.2434 6.69269 14.2434 6.29269C15.2434 5.89269 15.7433 4.79268 15.5433 3.69268Z" fill="#F38059"/>
<path d="M9.14326 21.8927C8.94326 21.8927 8.64326 21.6927 8.64326 21.4927L7.84326 16.4927C7.84326 16.1927 7.94327 15.9927 8.24327 15.8927C8.54327 15.7927 8.74326 15.9927 8.84326 16.2927L9.64326 21.2927C9.64326 21.5927 9.44326 21.8927 9.14326 21.8927Z" fill="black"/>
<path d="M12.0432 22.6927C11.7432 22.6927 11.5432 22.3927 11.5432 22.0927C11.7432 20.2927 12.0432 18.5927 12.4432 16.7927C12.5432 16.4927 12.7432 16.3927 13.0432 16.3927C13.3432 16.4927 13.4432 16.6927 13.4432 16.9927C13.0432 18.6927 12.7432 20.3927 12.5432 22.1927C12.5432 22.4927 12.2432 22.6927 12.0432 22.6927Z" fill="black"/>
<path d="M14.8434 22.7927C14.7434 22.7927 14.7434 22.7927 14.6434 22.7927C14.3434 22.6927 14.2434 22.3927 14.3434 22.0927L16.6434 16.4927C16.7434 16.1927 17.0434 16.0927 17.3434 16.1927C17.6434 16.2927 17.7434 16.5926 17.6434 16.8926L15.3434 22.4927C15.2434 22.6927 15.0434 22.7927 14.8434 22.7927Z" fill="black"/>
</svg>
