<svg width="24" height="24" viewBox="0 0 24 24" fill="none" xmlns="http://www.w3.org/2000/svg">
<path d="M22.9254 6.40001C22.7254 9.20001 21.5254 13.2 19.9254 15.3C17.9254 17.9 15.0254 19 11.3254 18.7C7.72542 18.4 4.82542 16.9 3.32542 14.4C1.82542 12 0.825421 9.1 1.02542 6L22.9254 6.40001Z" fill="#FBB49B"/>
<path d="M9.82544 13.2C9.52544 13.2 9.32544 13 9.32544 12.7C9.32544 12.4 9.52544 12.2 9.82544 12.2L13.4254 12C13.7254 12 13.9254 12.2 13.9254 12.5C13.9254 12.8 13.7254 13 13.4254 13L9.82544 13.2C9.92544 13.2 9.92544 13.2 9.82544 13.2Z" fill="black"/>
<path d="M6.24882 11.8081C6.41147 11.2803 6.02986 10.6942 5.39648 10.499C4.7631 10.3038 4.11779 10.5735 3.95514 11.1013C3.7925 11.6291 4.1741 12.2152 4.80748 12.4104C5.44086 12.6056 6.08617 12.3359 6.24882 11.8081Z" fill="#F89879"/>
<path d="M17.9182 12.4969C18.5781 12.4362 19.0721 11.9412 19.0215 11.3912C18.971 10.8413 18.395 10.4446 17.735 10.5053C17.075 10.566 16.581 11.0611 16.6316 11.611C16.6822 12.161 17.2582 12.5576 17.9182 12.4969Z" fill="#F89879"/>
<path d="M4.52539 9.7C4.32539 9.7 4.02539 9.50001 4.02539 9.30001C4.02539 9.00001 4.22539 8.8 4.42539 8.7C5.32539 8.6 6.12539 8.6 7.02539 8.7C7.32539 8.7 7.52539 9 7.42539 9.2C7.42539 9.5 7.12539 9.70001 6.92539 9.60001C6.12539 9.60001 5.32539 9.6 4.52539 9.7Z" fill="black"/>
<path d="M16.3255 9.90002C16.1255 9.90002 15.8255 9.90002 15.6255 9.90002C15.3255 9.90002 15.1255 9.70002 15.1255 9.40002C15.1255 9.10002 15.3255 8.90002 15.6255 8.90002C16.4255 8.90002 17.1255 8.90002 17.9255 8.90002C18.2255 8.90002 18.4255 9.10002 18.4255 9.40002C18.4255 9.70002 18.2255 9.90002 17.9255 9.90002C17.4255 9.90002 16.9255 9.90002 16.3255 9.90002Z" fill="black"/>
</svg>
