<svg width="24" height="24" viewBox="0 0 24 24" fill="none" xmlns="http://www.w3.org/2000/svg">
<path d="M22.9254 6.39999C22.7254 9.19999 21.5254 13.2 19.9254 15.3C17.9254 17.9 15.0254 19 11.3254 18.7C7.72542 18.4 4.82542 16.9 3.32542 14.4C1.82542 12 0.825421 9.1 1.02542 6L22.9254 6.39999Z" fill="#FBB49B"/>
<path d="M12.2255 13.0001C11.7255 13.0001 11.3255 12.8001 10.8255 12.5001C10.6255 12.4001 10.5255 12.0001 10.7255 11.8001C10.9255 11.6001 11.2255 11.5001 11.4255 11.7001C11.8255 12.0001 12.3255 12.1 12.6255 11.9C12.9255 11.8 13.1255 11.5001 13.2255 11.2001C13.3255 10.9001 13.6255 10.8 13.8255 10.9C14.1255 11 14.2255 11.3001 14.1255 11.5001C13.9255 12.1001 13.4255 12.6 12.8255 12.9C12.7255 13 12.4255 13.0001 12.2255 13.0001Z" fill="black"/>
<path d="M16.7254 10.7C17.3881 10.7 17.9254 10.1628 17.9254 9.50005C17.9254 8.8373 17.3881 8.30005 16.7254 8.30005C16.0626 8.30005 15.5254 8.8373 15.5254 9.50005C15.5254 10.1628 16.0626 10.7 16.7254 10.7Z" fill="white"/>
<path d="M6.62553 10.4C7.28828 10.4 7.82554 9.86274 7.82554 9.2C7.82554 8.53726 7.28828 8 6.62553 8C5.96279 8 5.42554 8.53726 5.42554 9.2C5.42554 9.86274 5.96279 10.4 6.62553 10.4Z" fill="white"/>
<path d="M16.7255 10.3C17.1674 10.3 17.5255 9.94178 17.5255 9.49995C17.5255 9.05813 17.1674 8.69995 16.7255 8.69995C16.2837 8.69995 15.9255 9.05813 15.9255 9.49995C15.9255 9.94178 16.2837 10.3 16.7255 10.3Z" fill="#030000"/>
<path d="M6.62543 10C7.06726 10 7.42544 9.64186 7.42544 9.20003C7.42544 8.7582 7.06726 8.40002 6.62543 8.40002C6.18361 8.40002 5.82544 8.7582 5.82544 9.20003C5.82544 9.64186 6.18361 10 6.62543 10Z" fill="#030000"/>
<path d="M6.25712 11.8187C6.41977 11.2909 6.03816 10.7048 5.40478 10.5096C4.7714 10.3144 4.12609 10.5841 3.96345 11.1119C3.8008 11.6397 4.1824 12.2258 4.81578 12.421C5.44916 12.6162 6.09447 12.3465 6.25712 11.8187Z" fill="#F89879"/>
<path d="M18.3134 12.6916C18.9734 12.6309 19.4674 12.1359 19.4168 11.5859C19.3662 11.036 18.7902 10.6393 18.1303 10.7C17.4703 10.7607 16.9763 11.2558 17.0269 11.8057C17.0775 12.3557 17.6535 12.7523 18.3134 12.6916Z" fill="#F89879"/>
</svg>
