<svg width="24" height="24" viewBox="0 0 24 24" fill="none" xmlns="http://www.w3.org/2000/svg">
<path d="M22.9254 6.40001C22.7254 9.20001 21.5254 13.2 19.9254 15.3C17.9254 17.9 15.0254 19 11.3254 18.7C7.72542 18.4 4.82542 16.9 3.32542 14.4C1.82542 12 0.825421 9.1 1.02542 6L22.9254 6.40001Z" fill="#FBB49B"/>
<path d="M10.5254 12.5999C10.3254 12.5999 10.1254 12.4999 10.1254 12.2999C10.0254 12.0999 10.1254 11.7999 10.3254 11.5999C10.3254 11.5999 11.5254 11 13.3254 11.4C13.6254 11.5 13.7254 11.6999 13.7254 11.9999C13.6254 12.2999 13.4254 12.4 13.1254 12.4C11.7254 12.1 10.8254 12.5999 10.8254 12.5999C10.6254 12.5999 10.6254 12.5999 10.5254 12.5999Z" fill="black"/>
<path d="M15.6255 9.40002C15.6255 10.1 16.1255 10.6 16.7255 10.7C17.4255 10.7 17.9255 10.2 18.0255 9.60002L15.6255 9.40002Z" fill="white"/>
<path d="M5.42554 9.19998C5.42554 9.89998 6.02554 10.4 6.72554 10.4C7.42554 10.4 7.92554 9.79998 7.92554 9.09998L5.42554 9.19998Z" fill="white"/>
<path d="M16.0254 9.40002C16.0254 9.80002 16.3254 10.2 16.8254 10.3C17.2254 10.3 17.6254 10 17.7254 9.50002L16.0254 9.40002Z" fill="#030000"/>
<path d="M5.82544 9.19995C5.82544 9.59995 6.22544 9.99994 6.62544 9.99994C7.02544 9.99994 7.42544 9.59995 7.42544 9.19995H5.82544Z" fill="#030000"/>
<path d="M6.19608 11.7581C6.35873 11.2302 5.97713 10.6441 5.34375 10.449C4.71036 10.2538 4.06506 10.5234 3.90241 11.0513C3.73976 11.5791 4.12136 12.1652 4.75475 12.3604C5.38813 12.5555 6.03344 12.2859 6.19608 11.7581Z" fill="#F89879"/>
<path d="M18.3168 12.6913C18.9768 12.6306 19.4708 12.1355 19.4202 11.5856C19.3696 11.0356 18.7936 10.639 18.1337 10.6997C17.4737 10.7604 16.9797 11.2554 17.0303 11.8054C17.0809 12.3553 17.6569 12.752 18.3168 12.6913Z" fill="#F89879"/>
</svg>
