<svg width="56" height="56" viewBox="0 0 56 56" fill="none" xmlns="http://www.w3.org/2000/svg">
<rect width="56" height="56" rx="9" fill="#FFF2EE"/>
<path d="M33.8217 23.1267C33.8414 22.932 34.1009 22.862 34.2047 23.0279C35.8385 25.6356 37 28.2966 37 30.8965C37 36.9772 32.3795 40 28 40C23.5854 40 19 36.9422 19 31.2984C19 26.3 22.4826 23.6353 22.1607 20.071C22.1463 19.9112 22.3089 19.7904 22.4469 19.8724C23.5934 20.5545 24.4133 21.8696 24.5579 23.418C26.1594 21.1068 26.8884 17.7521 26.1872 14.4311C26.1517 14.2627 26.3245 14.1267 26.4715 14.2162C29.0624 15.7944 32.6628 20.2622 32.9475 25.2527C33.5012 24.759 33.734 23.9922 33.8217 23.1267Z" fill="#F38059"/>
</svg>
