<svg width="24" height="24" viewBox="0 0 24 24" fill="none" xmlns="http://www.w3.org/2000/svg">
<path d="M21.1265 14.2927C20.2925 12.8629 19.1963 11.7191 18.6006 10.1463C18.0763 8.78806 17.7189 7.35829 16.861 6.16682C15.7649 4.57025 13.8585 3.71239 12.1428 4.37961C9.61688 2.61623 6.20926 0.829026 3.34973 2.99751C0.156585 5.45194 3.37356 9.09784 2.84931 12.2195C2.37272 15.0552 0.776149 18.7964 3.54037 21.0126C4.66035 21.9181 6.16161 22.1087 7.54371 22.1564C9.09263 22.204 10.6654 22.0849 12.1905 21.8228C14.8355 21.7275 17.7427 21.4177 19.9589 20.2262C22.318 18.9632 22.3656 16.3897 21.1265 14.2927Z" fill="#011210"/>
<path d="M15.908 11.171C15.5744 11.0281 15.1931 11.0757 14.8595 11.1949C14.788 10.9327 14.7165 10.6468 14.6212 10.3847C14.0731 8.90723 12.9055 8.00171 11.4519 7.57278C10.308 7.09619 9.02125 6.90556 7.87744 7.12002C7.40085 7.16768 6.94809 7.28683 6.54299 7.47746C4.51749 8.45447 3.99324 10.5991 4.23153 12.8391C4.2077 14.1021 4.446 15.4127 4.94642 16.6041C5.49449 17.9386 6.85277 19.2016 8.23488 19.7973C9.71231 20.4407 10.6417 20.1309 11.9284 19.2254C13.3582 18.2007 14.5497 16.5803 14.9071 14.7693C15.1693 14.7454 15.4075 14.674 15.622 14.5786C16.0509 14.4595 16.4322 14.1974 16.6467 13.6969C17.0756 12.7914 16.9088 11.5761 15.908 11.171Z" fill="#FBB49B"/>
<path d="M8.63992 15.5318H8.61609C8.44928 15.508 8.30631 15.4603 8.1395 15.4365C7.99652 15.4127 7.85355 15.365 7.71057 15.3412C7.63908 15.3412 7.59142 15.2935 7.54376 15.2459C7.4961 15.1982 7.4961 15.1267 7.4961 15.0552C7.56759 14.6501 7.66291 14.1259 7.68674 13.5778C7.7344 12.7914 7.25781 12.0289 7.25781 12.0051C7.18632 11.8859 7.23398 11.7429 7.3293 11.6714C7.44845 11.6 7.59142 11.6476 7.66291 11.7429C7.68674 11.8144 8.21099 12.6723 8.16333 13.6255C8.1395 14.102 8.06801 14.5548 8.02035 14.9361C8.09184 14.9599 8.16333 14.9599 8.25865 14.9837C8.40162 15.0076 8.5446 15.0552 8.68758 15.0791C8.80672 15.1029 8.90204 15.222 8.90204 15.3412C8.85438 15.4603 8.73524 15.5318 8.63992 15.5318Z" fill="black"/>
<path d="M9.78371 11.2187C9.73605 11.2187 9.66456 11.1949 9.6169 11.1472C9.52158 11.0519 9.52158 10.9089 9.6169 10.8136C10.308 10.0749 11.5471 10.0987 12.1905 10.3847C12.3096 10.4323 12.3573 10.5753 12.3096 10.6944C12.262 10.8136 12.119 10.8613 11.9998 10.8136C11.4994 10.5753 10.4748 10.5991 9.95051 11.1472C9.92668 11.1949 9.85519 11.2187 9.78371 11.2187Z" fill="black"/>
<path d="M7.47233 12.148C7.40084 12.148 7.32935 12.1242 7.28169 12.0527C6.87659 11.4808 6.35234 11.2425 5.73278 11.3617C5.28002 11.4331 4.85109 11.6714 4.85109 11.6714C4.73194 11.7429 4.58896 11.6953 4.51748 11.5761C4.44599 11.457 4.49365 11.314 4.61279 11.2425C4.63662 11.2425 5.11321 10.9804 5.63746 10.8851C6.44766 10.7421 7.16254 11.0757 7.66296 11.7668C7.73445 11.8859 7.71062 12.0289 7.6153 12.1004C7.56764 12.1242 7.51999 12.148 7.47233 12.148Z" fill="black"/>
<path d="M11.0942 13.0774C11.4627 13.0774 11.7615 12.7786 11.7615 12.4101C11.7615 12.0416 11.4627 11.7429 11.0942 11.7429C10.7257 11.7429 10.427 12.0416 10.427 12.4101C10.427 12.7786 10.7257 13.0774 11.0942 13.0774Z" fill="black"/>
<path d="M5.87567 13.7684C6.21785 13.7684 6.49523 13.491 6.49523 13.1489C6.49523 12.8067 6.21785 12.5293 5.87567 12.5293C5.53349 12.5293 5.2561 12.8067 5.2561 13.1489C5.2561 13.491 5.53349 13.7684 5.87567 13.7684Z" fill="black"/>
<path d="M8.94965 17.2475C8.68752 17.2475 8.4254 17.176 8.16328 17.1045C8.04413 17.0569 7.97264 16.9377 8.0203 16.7947C8.06796 16.6756 8.1871 16.6041 8.33008 16.6518C8.94965 16.8424 9.35475 16.8662 9.83134 16.3182C9.92666 16.2228 10.0696 16.199 10.1649 16.2943C10.2603 16.3896 10.2841 16.5326 10.1888 16.6279C9.75985 17.0807 9.35475 17.2475 8.94965 17.2475Z" fill="black"/>
</svg>
