<svg width="24" height="24" viewBox="0 0 24 24" fill="none" xmlns="http://www.w3.org/2000/svg">
<path d="M12.6175 17.8216C12.7223 17.8739 12.8008 17.9263 12.8793 18.0048C17.5392 19.052 22.0159 10.5176 20.0001 5.67441C19.1623 3.65861 16.623 2.92559 14.6857 3.65861C11.8583 1.69517 8.03617 -0.346814 4.81612 2.11404C2.0673 4.23456 4.21399 14.4706 12.6175 17.8216Z" fill="#011210"/>
<path d="M20.4452 10.1511C20.0264 9.96781 19.5551 10.0202 19.1363 10.2034C19.0577 9.8631 18.953 9.52277 18.8483 9.20862C18.1676 7.37607 16.7016 6.22418 14.869 5.67442C13.4554 5.07229 11.8322 4.83668 10.3924 5.09847C9.81644 5.15083 9.2405 5.30791 8.71691 5.54352C6.17752 6.74777 5.52304 9.47041 5.81101 12.2454C5.91573 13.9732 6.07281 15.5964 6.43932 17.1933C6.93672 19.3138 8.06243 20.7537 9.79026 21.4867C11.6228 22.2721 14.2146 21.4081 15.8115 20.2824C17.6179 18.9997 18.7436 16.9053 19.2148 14.6277C19.5289 14.6015 19.8431 14.523 20.1049 14.3921C20.6547 14.235 21.1259 13.9209 21.3877 13.2926C21.8851 12.1669 21.7018 10.6485 20.4452 10.1511Z" fill="#FBB49B"/>
<path d="M13.3244 3.37063C11.4656 2.92558 6.04653 1.30246 4.84228 3.5277C4.03073 4.65341 3.82129 7.21898 4.89464 7.92582C7.722 9.78454 16.7015 6.51214 16.78 6.5645C17.7225 8.39704 17.6963 13.4496 17.5654 14.2088C17.4345 15.1775 17.0418 15.9367 15.8637 16.1723C14.4239 16.4603 12.6437 16.4079 11.2038 16.3294C9.55455 16.2246 7.90526 16.0676 6.25596 15.9367C5.86327 15.9105 5.73238 16.6959 5.78474 17.0886C6.04653 19.0782 6.4654 20.9107 8.00997 21.9055C9.60691 22.9527 12.4343 23.3192 14.2145 22.6386C17.5392 21.382 18.7958 17.4027 19.3456 13.9209C19.5288 13.2402 19.8168 10.4652 19.9739 9.39185C19.9739 7.55931 16.8586 4.20836 13.3244 3.37063Z" fill="#011210"/>
<path d="M9.50225 15.5178C9.42371 15.5178 9.34518 15.4916 9.29282 15.4131C9.24046 15.3607 9.21428 15.2822 9.24046 15.2037C9.24046 15.1775 9.58079 13.5805 9.73787 12.6119C9.8164 12.1145 9.86876 11.1982 9.21428 10.5699C9.10956 10.4652 9.10956 10.3081 9.21428 10.2034C9.319 10.0987 9.47607 10.0987 9.58079 10.2034C10.1829 10.7794 10.4185 11.6695 10.2615 12.6904C10.1567 13.3973 9.9473 14.4445 9.8164 14.968C10.34 14.9419 11.073 14.8633 11.073 14.8633C11.2301 14.8371 11.3348 14.968 11.361 15.0989C11.3872 15.2298 11.2563 15.3607 11.1254 15.3869C11.073 15.4131 9.9473 15.5178 9.50225 15.5178Z" fill="black"/>
<path d="M15.5497 10.6485C15.4974 10.6485 15.445 10.6485 15.4188 10.6223C14.5549 10.0987 13.6125 10.3343 12.8794 10.5961C12.7485 10.6485 12.5915 10.5699 12.5391 10.439C12.4867 10.3081 12.5653 10.1511 12.6962 10.0987C13.4554 9.83691 14.6073 9.54894 15.6806 10.1772C15.8115 10.2558 15.8377 10.4129 15.7592 10.5438C15.733 10.6223 15.6283 10.6485 15.5497 10.6485Z" fill="black"/>
<path d="M9.39764 10.6484C9.34528 10.6484 9.29292 10.6223 9.24056 10.5961C8.79551 10.2296 8.35047 10.1248 7.53891 10.1248C7.25094 10.1248 6.675 10.3081 6.49174 10.3605C6.36084 10.4128 6.20377 10.3343 6.15141 10.2034C6.09905 10.0725 6.17759 9.91541 6.30849 9.86306C6.33466 9.86306 7.06768 9.60126 7.51273 9.60126C8.45518 9.57508 9.00495 9.75834 9.55471 10.1772C9.65943 10.2557 9.68561 10.439 9.58089 10.5437C9.55471 10.6223 9.47618 10.6484 9.39764 10.6484Z" fill="black"/>
<path d="M14.1622 12.7166C14.5671 12.7166 14.8952 12.3885 14.8952 11.9836C14.8952 11.5788 14.5671 11.2506 14.1622 11.2506C13.7574 11.2506 13.4292 11.5788 13.4292 11.9836C13.4292 12.3885 13.7574 12.7166 14.1622 12.7166Z" fill="black"/>
<path d="M7.59093 12.5595C7.99577 12.5595 8.32395 12.2314 8.32395 11.8265C8.32395 11.4217 7.99577 11.0935 7.59093 11.0935C7.18609 11.0935 6.85791 11.4217 6.85791 11.8265C6.85791 12.2314 7.18609 12.5595 7.59093 12.5595Z" fill="black"/>
<path d="M11.0206 17.9786C10.8897 17.9786 10.7588 17.8739 10.7588 17.7168C10.7588 17.5598 10.8635 17.4551 11.0206 17.4551C11.5442 17.4551 12.0416 17.3242 12.5128 17.0885C12.6437 17.0362 12.8008 17.0885 12.8531 17.2194C12.9055 17.3503 12.8531 17.5074 12.7222 17.5598C12.1986 17.8216 11.6227 17.9786 11.0206 17.9786Z" fill="white"/>
</svg>
