<svg width="153" height="41" viewBox="0 0 153 41" fill="none" xmlns="http://www.w3.org/2000/svg">
<path d="M58.8909 30.0474C63.6974 30.0474 66.3738 27.1526 66.3738 22.5919V11.8318H62.9601V22.5919C62.9601 25.2409 61.6219 26.8249 58.8636 26.8249C56.16 26.8249 54.7945 25.2409 54.7945 22.5919V11.8318H51.2988V22.5919C51.2988 27.1799 54.0025 30.0474 58.8909 30.0474Z" fill="#292929"/>
<path d="M69.3028 29.6924H72.5526V22.6738C72.5526 20.1067 73.9181 18.8778 75.9664 18.8778C78.0146 18.8778 79.3801 20.1067 79.3801 22.6738V29.6924H82.6299V22.6738C82.6299 18.1404 79.9536 15.8464 75.9664 15.8464C71.9791 15.8464 69.3028 18.1677 69.3028 22.6738V29.6924Z" fill="#292929"/>
<path d="M87.598 14.4536C88.8542 14.4536 89.7554 13.5524 89.7554 12.2961C89.7554 11.0399 88.8542 10.1113 87.598 10.1113C86.3417 10.1113 85.4405 11.0399 85.4405 12.2961C85.4405 13.5524 86.3417 14.4536 87.598 14.4536ZM85.9594 29.6924H89.2092V16.2014H85.9594V29.6924Z" fill="#292929"/>
<path d="M92.5397 29.6924H95.7896V21.9911C95.7896 19.779 96.9366 18.8778 98.5206 18.8778C100.077 18.8778 101.252 19.8063 101.252 21.9911V29.6924H104.501V21.9911C104.501 19.8063 105.648 18.8778 107.205 18.8778C108.789 18.8778 109.936 19.779 109.936 21.9911V29.6924H113.186V21.9911C113.186 17.7581 110.728 15.8464 107.533 15.8464C105.485 15.8464 103.819 16.693 102.863 18.2769C101.88 16.693 100.214 15.8464 98.1929 15.8464C94.9976 15.8464 92.5397 17.7581 92.5397 21.9911V29.6924Z" fill="#292929"/>
<path d="M122.758 30.0474C125.953 30.0474 128.411 28.3815 129.421 25.8144H125.953C125.27 26.6883 124.205 27.098 122.758 27.098C120.846 27.098 119.344 26.0602 118.907 24.0939H129.968V22.9469C129.968 18.8504 127.018 15.8464 122.758 15.8464C118.497 15.8464 115.493 18.8504 115.493 22.9469C115.493 27.0434 118.497 30.0474 122.758 30.0474ZM118.989 21.4995C119.508 19.7244 120.928 18.7958 122.758 18.7958C124.533 18.7958 126.008 19.697 126.526 21.4995H118.989Z" fill="#292929"/>
<path d="M149.555 29.6924H152.805V10.3025H149.555V29.6924Z" fill="#292929"/>
<path fill-rule="evenodd" clip-rule="evenodd" d="M138.464 15.8477C140.594 15.8477 142.424 16.8581 143.243 18.8517V16.2027H146.22V22.8389C146.22 22.8752 146.22 22.9114 146.22 22.9475C146.22 22.9836 146.22 23.0198 146.22 23.0562V29.6924H143.243V27.0434C142.424 29.037 140.594 30.0474 138.464 30.0474C135.187 30.0474 131.746 27.6988 131.746 23.0835C131.746 23.038 131.746 22.9927 131.747 22.9475C131.746 22.9024 131.746 22.8571 131.746 22.8116C131.746 18.1963 135.187 15.8477 138.464 15.8477ZM135.023 22.9475C135.024 25.3232 136.635 27.0161 139.01 27.0161C141.386 27.0161 142.97 25.3232 142.97 22.9475C142.97 20.5719 141.386 18.879 139.01 18.879C136.635 18.879 135.024 20.5719 135.023 22.9475Z" fill="#292929"/>
<g clip-path="url(#clip0)">
<path d="M0.0527344 15.1058C0.0527344 9.79052 0.0527344 7.1329 1.10354 5.11001C1.98905 3.40534 3.37897 2.01541 5.08364 1.12991C7.10653 0.0791016 9.76415 0.0791016 15.0794 0.0791016H25.0261C30.3413 0.0791016 32.9989 0.0791016 35.0218 1.12991C36.7265 2.01541 38.1164 3.40534 39.0019 5.11001C40.0527 7.1329 40.0527 9.79052 40.0527 15.1058V25.0524C40.0527 30.3677 40.0527 33.0253 39.0019 35.0482C38.1164 36.7529 36.7265 38.1428 35.0218 39.0283C32.9989 40.0791 30.3413 40.0791 25.0261 40.0791H15.0794C9.76415 40.0791 7.10653 40.0791 5.08364 39.0283C3.37897 38.1428 1.98905 36.7529 1.10354 35.0482C0.0527344 33.0253 0.0527344 30.3677 0.0527344 25.0524V15.1058Z" fill="#00857A"/>
<path d="M27.5279 16.9482C31.08 16.9482 34.0053 19.632 34.3868 23.0824C34.4054 23.2511 34.418 23.4215 34.4242 23.5936H34.4289L34.4289 27.1719H30.3394C30.3394 27.1719 30.3394 24.1048 30.3394 23.7853C30.3394 23.4658 30.234 23.0824 30.234 23.0824C29.9006 21.9032 28.8147 21.0377 27.5279 21.0377C26.2411 21.0377 25.1552 21.9032 24.8219 23.0824C24.8219 23.0824 24.7164 23.4658 24.7164 23.7853C24.7164 24.1048 24.7164 25.1591 24.7164 25.1591V27.1719H20.627L20.627 23.5936H20.6316C20.6379 23.4215 20.6504 23.2511 20.6691 23.0824C21.0505 19.632 23.9758 16.9482 27.5279 16.9482Z" fill="#FCDB6F"/>
<path d="M9.76524 12.4756H5.67578V21.283C5.68359 25.0782 8.77026 28.1944 12.5767 28.1944C16.3832 28.1944 19.4699 25.0782 19.4777 21.283V12.4756H15.3882V21.2779C15.3832 22.8397 14.1036 24.105 12.5767 24.105C11.0499 24.105 9.77022 22.8397 9.76524 21.2778V12.4756Z" fill="#FCDB6F"/>
<ellipse cx="32.3843" cy="13.7534" rx="2.30032" ry="2.30032" fill="#FCDB6F"/>
</g>
<defs>
<clipPath id="clip0">
<rect width="40" height="40" fill="white" transform="translate(0.0527344 0.0791016)"/>
</clipPath>
</defs>
</svg>
