<svg width="24" height="24" viewBox="0 0 24 24" fill="none" xmlns="http://www.w3.org/2000/svg">
<path d="M14.4604 4.96779C14.0713 4.48146 13.585 3.99513 13.0014 3.5088C12.3205 3.02247 11.6396 2.6334 10.8615 2.43887C9.88885 1.95254 8.81892 1.66074 7.749 1.56348C7.35993 1.56348 7.06814 1.56348 6.67907 1.56348C5.02555 1.66074 3.37203 2.43887 2.49664 3.80059C-0.907674 7.39944 3.66383 13.0409 6.87361 15.3752C8.91619 16.8342 11.4451 17.7096 13.974 17.4178C16.0166 17.126 17.8647 15.667 17.8647 13.7217C17.9619 13.5272 17.9619 13.3327 17.9619 13.0409C18.2537 10.2202 16.6975 6.81584 14.4604 4.96779Z" fill="#C6896B"/>
<path d="M20.6856 15.959C19.9075 15.7645 19.1294 16.0563 18.5458 16.4453C17.8649 15.6672 17.0868 14.8891 16.3087 14.111C15.6278 13.5274 14.7524 13.9164 14.4606 14.5C13.9743 14.8891 13.7797 15.5699 14.2661 16.1535C14.9469 16.9317 15.5305 17.7098 16.2114 18.3907C16.0169 18.6825 15.8223 18.9743 15.7251 19.2661C15.4333 20.2387 15.9196 21.2114 16.795 21.6004C17.6704 21.9895 18.7403 21.9895 19.4212 21.2114C19.713 20.8223 19.9075 20.4332 19.8102 19.9469C20.102 19.9469 20.3938 19.9469 20.6856 19.8496C21.6583 19.5579 22.4364 18.6825 22.4364 17.7098C22.4364 16.9317 21.6583 16.1535 20.6856 15.959Z" fill="#FCF3CF"/>
<path d="M17.7691 14.4027C17.6718 14.4027 17.6718 14.4027 17.5745 14.4027C17.2827 14.3054 17.1855 14.0136 17.2827 13.8191C17.9636 11.8738 17.4773 9.44211 15.8238 7.01046C14.073 4.38428 11.7386 2.73076 9.30694 2.14716C6.48622 1.56357 3.56824 2.73076 2.20652 4.87061C2.10925 5.06514 1.81746 5.16241 1.52566 5.06514C1.33113 4.96788 1.23386 4.67608 1.33113 4.38428C2.79012 1.85536 6.19443 0.49364 9.4042 1.1745C12.1277 1.7581 14.6566 3.60615 16.6019 6.42686C18.4499 9.05305 18.9363 11.8738 18.1581 14.1109C18.1581 14.3054 17.9636 14.4027 17.7691 14.4027Z" fill="black"/>
<path d="M20.7842 20.7249C20.2979 20.7249 19.8116 20.5303 19.4225 20.2385C19.228 20.044 19.228 19.7522 19.3252 19.5577C19.5198 19.3631 19.8116 19.3631 20.0061 19.4604C20.4924 19.8495 21.1733 19.7522 21.6596 19.3631C22.1459 18.9741 22.2432 18.1959 22.0487 17.6123C21.8541 17.0287 21.2706 16.5424 20.4924 16.3479C19.9088 16.1534 19.1307 16.3479 18.7416 16.8342C18.6444 16.9315 18.5471 17.0287 18.3526 17.0287C18.158 17.0287 18.0608 16.9315 17.9635 16.8342C17.1854 15.9588 16.4073 15.1807 15.4346 14.4026C15.2401 14.208 15.2401 13.9162 15.3373 13.7217C15.5319 13.5272 15.8237 13.5272 16.0182 13.6244C16.7963 14.3053 17.5744 14.9862 18.2553 15.7643C18.8389 15.278 19.8116 15.0834 20.687 15.278C21.6596 15.5698 22.535 16.2506 22.8268 17.126C23.2159 18.0987 22.9241 19.2659 22.2432 19.9467C21.9514 20.5303 21.3678 20.7249 20.7842 20.7249Z" fill="black"/>
<path d="M18.0613 22.573C17.2832 22.573 16.4078 22.2812 16.0187 21.9894C15.3378 21.5031 14.9488 20.725 15.046 19.7523C15.046 18.9742 15.4351 18.2933 15.8242 18.0015C16.0187 17.9043 16.3105 17.9043 16.505 18.1961C16.6023 18.3906 16.6023 18.6824 16.3105 18.8769C16.2132 18.9742 16.0187 19.266 16.0187 19.8496C16.0187 20.2386 16.0187 20.8222 16.6023 21.2113C16.8941 21.4058 17.8668 21.6976 18.5476 21.5031C18.9367 21.4058 19.0339 21.2113 19.0339 21.114C19.1312 20.8222 19.423 20.725 19.7148 20.9195C20.0066 21.0168 20.1039 21.3086 19.9093 21.6004C19.7148 21.9894 19.3257 22.3785 18.8394 22.4758C18.5476 22.4758 18.2558 22.573 18.0613 22.573Z" fill="black"/>
<path d="M12.1265 18.0992C11.3484 18.0992 10.6675 18.002 9.88936 17.7102C8.72217 17.3211 7.55498 16.6402 6.29052 15.6676C4.15067 14.0141 2.30262 11.8742 1.03816 9.53982C0.940892 9.34528 1.03816 9.05349 1.23269 8.85895C1.42722 8.76169 1.71902 8.76169 1.91355 9.05349C3.17801 11.2906 4.9288 13.3332 6.97138 14.9867C8.13857 15.9594 9.2085 16.543 10.2784 16.8348C11.5429 17.2238 12.8073 17.2238 13.8773 16.932C14.1691 16.8348 14.3636 16.932 14.4609 17.2238C14.5581 17.5156 14.4609 17.7102 14.1691 17.8074C13.4882 18.002 12.9046 18.0992 12.1265 18.0992Z" fill="black"/>
</svg>
