<svg width="24" height="24" viewBox="0 0 24 24" fill="none" xmlns="http://www.w3.org/2000/svg">
<path d="M22.3758 7.23721C22.3758 7.14093 22.2795 6.94837 22.2795 6.85209C22.2795 6.75581 22.1832 6.75581 22.1832 6.65953C21.8944 6.37069 21.3167 6.17813 20.9316 6.37069C20.8353 6.37069 20.739 6.37069 20.5465 6.46697C19.9688 6.75581 19.3911 7.04465 18.9097 7.42977C17.5618 8.10373 16.2139 8.77769 14.8659 9.35537C13.9994 9.64421 13.1329 9.93305 12.2664 10.2219C12.4589 8.97025 13.8069 7.71861 14.4808 6.75581C14.4808 6.65953 14.5771 6.65953 14.5771 6.56325C14.9622 6.08185 15.4436 5.60045 15.7325 5.02277C16.0213 4.34881 15.925 3.57857 15.8287 2.90461C15.8287 2.32693 15.3473 2.03809 14.8659 2.03809C14.7697 2.03809 14.6734 2.03809 14.5771 2.03809H14.4808H14.3845C8.80029 3.38601 1.38672 6.08185 1.38672 13.014C1.38672 16.095 3.50489 18.4057 6.10445 19.6573C9.08914 21.1015 12.3626 20.909 15.0585 18.9834C15.925 18.4057 16.6953 17.6355 17.2729 16.8652C17.5618 16.6727 17.7543 16.3838 17.9469 16.1913C18.4283 15.7099 18.9097 15.1322 19.3911 14.5545C19.8725 13.9768 20.3539 13.3991 20.739 12.8215C21.3167 12.0512 21.8944 11.0884 22.1832 10.2219C22.8572 9.35537 22.6646 8.29629 22.3758 7.23721Z" fill="#F38059"/>
<path d="M11.3007 11.0881C11.0118 11.0881 10.723 11.0881 10.4342 10.9918C9.47135 10.7993 8.7011 9.93274 8.60482 9.06622C8.50854 8.48854 8.79738 7.91086 9.08622 7.42946C10.3379 5.11873 12.3597 3.19313 14.6705 2.03777C14.863 1.94149 15.1519 2.03777 15.3444 2.23033C15.4407 2.42289 15.3444 2.71173 15.1519 2.90429C12.9374 4.05965 11.1081 5.7927 9.95275 7.91086C9.76019 8.29598 9.56762 8.6811 9.56762 9.06622C9.6639 9.54762 10.1453 10.029 10.6267 10.1253C11.2044 10.3179 11.8784 10.1253 12.5523 10.029C15.4407 9.35506 18.2328 8.00714 20.5436 6.2741C20.7361 6.08154 21.025 6.17782 21.2175 6.37038C21.4101 6.56294 21.3138 6.85178 21.1212 7.04434C18.618 8.96994 15.7296 10.3179 12.7449 10.9918C12.3597 10.9918 11.7821 11.0881 11.3007 11.0881Z" fill="black"/>
<path d="M6.96936 18.1163C6.48796 18.1163 6.00656 18.1163 5.42888 18.02C3.88839 17.8274 2.63676 17.1535 1.9628 16.2869C1.28884 15.4204 1 14.2651 1 13.0134C1 11.9543 1.38512 10.8953 1.67396 9.83618C1.77024 9.54734 2.05908 9.45106 2.25164 9.54734C2.54048 9.64362 2.63675 9.93246 2.54047 10.125C2.25163 11.0878 1.9628 12.0506 1.9628 13.1097C1.9628 14.1688 2.15536 15.1316 2.73304 15.7093C3.50329 16.5758 4.65865 16.9609 5.62145 17.1535C7.54705 17.4423 9.47264 17.1535 11.2057 16.2869C12.0722 15.8055 12.9387 15.2279 13.709 14.6502C16.6937 12.4357 19.4858 10.0287 22.1816 7.3329C22.3742 7.14034 22.663 7.14034 22.8556 7.3329C23.0481 7.52546 23.0481 7.8143 22.8556 8.00686C20.1597 10.6064 17.2713 13.1097 14.2867 15.3241C13.5164 15.9018 12.6499 16.5758 11.6871 17.0572C10.2429 17.7311 8.60613 18.1163 6.96936 18.1163Z" fill="black"/>
<path d="M3.98617 15.3243C3.79361 15.3243 3.69733 15.228 3.60105 15.1317C3.40849 14.9392 3.50478 14.6503 3.69734 14.4578L8.31877 10.9917C8.51133 10.7991 8.80019 10.8954 8.99275 11.088C9.18531 11.2805 9.08902 11.5694 8.89646 11.7619L4.27501 15.228C4.17873 15.228 4.08245 15.3243 3.98617 15.3243Z" fill="white"/>
<path d="M9.85872 13.7844C9.37732 13.7844 8.89591 13.7844 8.31823 13.6881C7.64427 13.5918 7.06659 13.4955 6.48891 13.0141C5.52611 12.3402 5.04472 11.0885 5.141 9.83689C5.23728 8.87409 5.62239 7.81501 6.39263 6.75593C6.58519 6.56337 6.87404 6.46709 7.0666 6.65965C7.25916 6.85221 7.35543 7.14105 7.16287 7.33361C6.48891 8.29641 6.10379 9.16293 6.00751 9.93317C5.91123 10.896 6.29635 11.7625 6.97031 12.2439C7.35543 12.5327 7.93312 12.629 8.41452 12.7253C10.0513 13.0141 11.2066 12.8216 12.0732 12.2439C12.2657 12.0513 12.5546 12.1476 12.7471 12.3402C12.9397 12.5327 12.8434 12.8216 12.6508 13.0141C11.8806 13.5918 11.0141 13.7844 9.85872 13.7844Z" fill="white"/>
<path d="M7.8343 16.0945C6.58266 16.0945 5.33103 15.6131 4.56079 14.6503C3.69427 13.6875 3.21287 12.3395 3.40543 11.0879C3.40543 10.7991 3.69427 10.6065 3.88683 10.7028C4.17567 10.7028 4.36822 10.9916 4.27194 11.1842C4.17566 12.2433 4.56078 13.3023 5.23474 13.9763C5.9087 14.7465 6.96779 15.1317 8.02688 15.1317C8.31572 15.1317 8.50828 15.3242 8.50828 15.6131C8.50828 15.9019 8.31572 16.0945 8.02688 16.0945C7.9306 16.0945 7.8343 16.0945 7.8343 16.0945Z" fill="white"/>
</svg>
