<svg width="24" height="24" viewBox="0 0 24 24" fill="none" xmlns="http://www.w3.org/2000/svg">
<path d="M21.2004 7.39961C21.1004 7.19961 21.0004 7.09961 20.9004 6.89961C21.7004 6.29961 22.1004 5.29961 21.6004 4.19961C20.8004 2.69961 18.7004 2.79961 17.9004 4.09961C16.9004 3.49961 15.7004 3.19961 14.5004 3.29961C14.3004 3.19961 14.0004 3.19961 13.8004 3.29961C13.3004 3.39961 13.1004 3.79961 13.0004 4.19961C12.9004 4.49961 13.0004 4.89961 13.2004 5.19961C14.9004 7.29961 16.5004 9.69961 16.5004 12.4996C16.5004 13.3996 16.4004 14.1996 16.1004 14.7996C14.0004 17.1996 10.8004 17.6996 7.7004 17.2996C7.3004 16.1996 6.70041 15.1996 6.00041 14.2996C5.50041 13.6996 4.7004 12.6996 3.9004 13.2996C3.9004 13.2996 3.80041 13.2996 3.80041 13.3996C3.20041 13.5996 3.2004 14.4996 3.4004 14.9996C3.4004 15.0996 3.50041 15.1996 3.60041 15.3996C3.50041 15.3996 3.3004 15.2996 3.2004 15.2996C2.0004 14.8996 1.0004 14.8996 0.900401 15.9996C0.800401 17.0996 2.00041 17.8996 2.80041 18.2996C3.50041 18.5996 4.30041 18.7996 5.10041 18.7996C5.80041 18.8996 6.50041 18.8996 7.30041 18.8996C8.80041 20.2996 11.0004 21.2996 13.1004 21.3996C16.5004 22.0996 20.4004 19.7996 21.9004 16.6996C23.6004 13.5996 23.1004 10.0996 21.2004 7.39961Z" fill="#F38059"/>
<path d="M7.3 18.5005C7.2 18.5005 7.1 18.5005 7 18.4005C6.3 17.7005 5.49999 17.1005 4.69999 16.6005C3.79999 16.1005 2.9 15.8005 2.1 15.8005C1.8 15.8005 1.5 15.9005 1.5 16.1005C1.4 16.4005 1.09999 16.5005 0.89999 16.4005C0.59999 16.3005 0.500002 16.0005 0.600002 15.8005C0.800002 15.2005 1.3 14.9005 2.1 14.8005C3.1 14.7005 4.19999 15.1005 5.19999 15.7005C6.09999 16.2005 6.9 17.0005 7.6 17.6005C7.8 17.8005 7.8 18.1005 7.6 18.3005C7.6 18.4005 7.4 18.5005 7.3 18.5005Z" fill="black"/>
<path d="M11.2993 21.3004C11.1993 21.3004 11.1993 21.3004 11.0993 21.3004C10.8993 21.2004 10.6992 20.9004 10.8992 20.6004C11.3992 19.6004 11.4993 18.5004 11.2993 17.4004C11.1993 17.1004 11.3992 16.9004 11.6992 16.8004C11.9992 16.7004 12.1993 16.9004 12.2993 17.2004C12.4993 18.5004 12.3993 19.9004 11.7993 21.1004C11.6993 21.2004 11.4993 21.3004 11.2993 21.3004Z" fill="black"/>
<path d="M17.0996 20.7996C16.8996 20.7996 16.6996 20.5996 16.5996 20.3996C16.4996 19.5996 16.2996 18.6996 15.9996 17.9996C15.6996 17.2996 15.1996 16.6996 14.5996 16.2996C14.3996 16.0996 14.2996 15.7996 14.4996 15.5996C14.6996 15.3996 14.9996 15.2996 15.1996 15.4996C15.8996 15.9996 16.4996 16.7996 16.8996 17.5996C17.2996 18.4996 17.4996 19.3996 17.5996 20.1996C17.6996 20.3996 17.4996 20.6996 17.0996 20.7996C17.1996 20.7996 17.1996 20.7996 17.0996 20.7996Z" fill="black"/>
<path d="M22.0992 15.8998C21.9992 15.8998 21.7992 15.7998 21.6992 15.6998C20.3992 14.2998 18.5992 13.3998 16.6992 13.2998C16.3992 13.2998 16.1992 12.9998 16.1992 12.7998C16.1992 12.5998 16.4992 12.2998 16.6992 12.2998C18.8992 12.3998 20.8992 13.3998 22.3992 14.9998C22.5992 15.1998 22.5992 15.4998 22.3992 15.6998C22.2992 15.8998 22.1992 15.8998 22.0992 15.8998Z" fill="black"/>
<path d="M16.2009 10.4997C16.0009 10.4997 15.9009 10.3997 15.8009 10.1997C15.7009 9.99971 15.8009 9.69971 16.0009 9.49971C17.8009 8.49971 19.9009 7.99971 22.0009 8.19971C22.3009 8.19971 22.5009 8.49971 22.5009 8.69971C22.5009 8.99971 22.2009 9.19971 22.0009 9.19971C20.1009 8.99971 18.201 9.39971 16.601 10.2997C16.401 10.4997 16.3009 10.4997 16.2009 10.4997Z" fill="black"/>
<path d="M16.4018 10.5003C16.3018 10.5003 16.1018 10.4003 16.0018 10.3003C15.4018 9.60034 14.4018 9.10034 13.4018 8.90034C12.4018 8.70034 11.4018 8.80034 10.3018 9.00034C10.0018 9.10034 9.80179 8.90034 9.70179 8.60034C9.60179 8.30034 9.8018 8.10034 10.1018 8.00034C11.3018 7.70034 12.5018 7.60034 13.6018 7.80034C14.8018 8.10034 16.0018 8.70034 16.7018 9.50034C16.9018 9.70034 16.9018 10.0003 16.7018 10.2003C16.6018 10.4003 16.5018 10.5003 16.4018 10.5003Z" fill="black"/>
<path d="M10.4012 11.6002C10.2012 11.6002 10.1012 11.5002 10.0012 11.4002C9.90121 11.2002 9.90121 10.9002 10.2012 10.7002C11.8012 9.70019 13.9012 9.5002 15.7012 10.1002C16.0012 10.2002 16.1012 10.5002 16.0012 10.7002C15.9012 11.0002 15.6012 11.1002 15.4012 11.0002C13.9012 10.5002 12.1012 10.7002 10.7012 11.5002C10.6012 11.5002 10.5012 11.6002 10.4012 11.6002Z" fill="black"/>
<path d="M11.5002 13.6002C11.4002 13.6002 11.3002 13.6002 11.2002 13.5002C11.0002 13.4002 10.9002 13.1002 11.0002 12.8002C11.6002 11.8002 12.6002 11.1002 13.7002 10.9002C14.0002 10.8002 14.4002 10.8002 14.7002 10.8002L15.6002 10.7002C15.9002 10.7002 16.1002 10.9002 16.1002 11.2002C16.1002 11.5002 15.9002 11.7002 15.6002 11.7002L14.8002 11.8002C14.5002 11.8002 14.2002 11.8002 13.9002 11.9002C13.1002 12.1002 12.3002 12.6002 11.9002 13.3002C11.9002 13.5002 11.7002 13.6002 11.5002 13.6002Z" fill="black"/>
<path d="M19.8004 6.5C19.6004 6.5 19.5004 6.5 19.3004 6.4C18.6004 6.2 18.2004 5.4 18.3004 4.8C18.4004 4.1 19.0004 3.6 19.7004 3.5C19.9004 3.5 20.2004 3.6 20.2004 3.8C20.3004 3.8 20.4004 3.8 20.5004 3.9C21.1004 4.3 21.4004 5.1 21.0004 5.8C20.8004 6.2 20.3004 6.5 19.8004 6.5ZM19.8004 4.4C19.5004 4.4 19.3004 4.6 19.3004 4.9C19.3004 5.1 19.4004 5.4 19.6004 5.5C19.8004 5.6 20.1004 5.5 20.2004 5.3C20.3004 5.1 20.2004 4.9 20.1004 4.8C19.9004 4.6 19.9004 4.5 19.8004 4.4Z" fill="white"/>
</svg>
