<svg width="24" height="24" viewBox="0 0 24 24" fill="none" xmlns="http://www.w3.org/2000/svg">
<path d="M20.74 5.50477C19.9752 1.29837 15.1952 0.53357 11.9448 2.63677C9.93715 3.97517 8.69437 5.98277 7.92957 8.27717C7.45157 9.61557 7.16475 11.2408 7.16475 12.7704C7.06915 13.4396 7.16477 14.2044 7.45157 14.8736C7.45157 14.9692 7.54715 15.1604 7.64275 15.256C8.02515 15.734 8.40756 16.1164 8.78996 16.3076C10.224 17.2636 12.2316 16.9768 13.7612 16.3076C16.1512 15.1604 18.4455 12.866 19.5927 10.1892C20.6443 8.75517 21.0268 7.12997 20.74 5.50477Z" fill="#FBB49B"/>
<path d="M9.64939 20.5147C9.64939 19.8455 9.267 19.3675 8.8846 18.8895C9.3626 18.2203 10.701 15.8303 11.179 15.1611C11.5614 14.4919 11.0834 13.9183 10.5098 13.8227C10.1274 13.5359 9.55379 13.5359 9.17139 14.0139C8.69339 14.6831 7.355 16.8819 6.877 17.5511C6.877 17.5511 5.92099 16.9775 5.34739 17.0731C4.39139 17.2643 3.91341 17.7423 3.72221 18.5071C3.53101 19.2719 3.8178 20.0367 4.487 20.4191C4.8694 20.6103 5.92099 20.7059 6.20779 20.6103C6.20779 20.8015 6.3034 21.0883 6.399 21.2795C6.7814 21.9487 7.64181 22.4267 8.4066 22.2355C9.1714 22.0443 9.64939 21.2795 9.64939 20.5147Z" fill="#FCF3CF"/>
<path d="M7.8327 22.9996C7.4503 22.9996 7.06789 22.904 6.68549 22.7128C5.92069 22.2348 5.6339 21.1832 6.0163 20.3228C6.1119 20.1316 6.39869 19.9404 6.68549 20.1316C6.87669 20.2272 7.0679 20.514 6.8767 20.8008C6.6855 21.1832 6.87669 21.6612 7.25909 21.948C7.64149 22.2348 8.21508 22.1392 8.59748 21.8524C8.97988 21.5656 9.2667 21.0876 9.2667 20.514C9.2667 20.036 9.07548 19.558 8.59748 19.3668C8.50188 19.2712 8.3107 19.1756 8.3107 19.08C8.3107 18.9844 8.3107 18.7932 8.4063 18.6976L8.50191 18.5064C9.07551 17.7416 10.0315 16.3076 10.7007 15.256C10.7963 15.0648 11.0831 14.9692 11.3699 15.0648C11.5611 15.1604 11.6567 15.4472 11.5611 15.734C10.9875 16.69 10.1271 17.9328 9.55348 18.7932C10.1271 19.2712 10.3183 19.9404 10.3183 20.514C10.3183 21.3744 9.9359 22.1392 9.2667 22.6172C8.6931 22.8084 8.2151 22.9996 7.8327 22.9996Z" fill="black"/>
<path d="M5.34663 21.0883C4.48623 21.0883 3.81702 20.7059 3.33902 19.9411C2.95662 19.2719 2.86105 18.5071 3.24345 17.8379C3.62585 17.0731 4.39062 16.5951 5.25102 16.4995C5.92022 16.4039 6.58943 16.5951 6.87623 16.8819C7.06743 17.0731 7.06743 17.3599 6.87623 17.5511C6.68503 17.7423 6.39822 17.7423 6.20702 17.5511C6.11142 17.4555 5.72902 17.3599 5.25102 17.4555C4.86862 17.5511 4.39064 17.7423 4.10384 18.3159C3.91264 18.6027 3.91264 19.0807 4.19944 19.3675C4.48624 19.7499 4.86863 20.0367 5.44223 20.0367C5.72903 20.0367 5.92023 20.2279 5.92023 20.5147C5.92023 20.8971 5.72903 21.0883 5.34663 21.0883C5.34663 21.0883 5.44223 21.0883 5.34663 21.0883Z" fill="black"/>
<path d="M7.16228 13.0576C6.87548 13.0576 6.68428 12.8664 6.68428 12.5796C6.58868 11.4324 6.6843 10.3808 6.9711 9.2336C7.2579 8.0864 7.6403 6.9392 8.3095 5.792C9.0743 4.358 10.0303 3.21081 11.1775 2.35041C12.5159 1.39441 14.0455 0.916406 15.4795 1.01201C15.7663 1.01201 15.9575 1.29881 15.9575 1.49001C15.9575 1.68121 15.6707 1.96801 15.4795 1.96801C14.2367 1.87241 12.8983 2.35041 11.7511 3.21081C10.7951 3.9756 9.93469 5.0272 9.16989 6.3656C8.59629 7.4172 8.2139 8.4688 7.9271 9.5204C7.7359 10.572 7.64028 11.528 7.64028 12.5796C7.64028 12.8664 7.44908 13.0576 7.16228 13.0576Z" fill="black"/>
<path d="M19.9726 10.2855C19.877 10.2855 19.877 10.2855 19.7814 10.1899C19.5902 10.0943 19.3989 9.80754 19.5901 9.52074C20.1637 8.46914 20.355 7.32194 20.355 6.27034C20.2594 5.12314 19.8769 4.07154 19.1121 3.30674C18.921 3.11554 18.921 2.82874 19.1121 2.63754C19.3033 2.44634 19.5902 2.44634 19.7814 2.63754C20.6418 3.49794 21.2154 4.83634 21.311 6.17474C21.4066 7.32194 21.1198 8.66034 20.4506 9.90314C20.355 10.1899 20.1638 10.2855 19.9726 10.2855Z" fill="black"/>
<path d="M12.8042 17.1685C12.613 17.1685 12.4218 17.0729 12.3262 16.8817C12.2306 16.5949 12.4218 16.4037 12.613 16.3081C14.525 15.6389 16.2458 14.3005 17.393 12.5797C17.5842 12.3885 17.871 12.2929 18.0622 12.4841C18.2534 12.6753 18.349 12.9621 18.1578 13.1533C16.915 15.0653 15.003 16.4993 12.8998 17.1685H12.8042Z" fill="black"/>
</svg>
