<svg width="24" height="24" viewBox="0 0 24 24" fill="none" xmlns="http://www.w3.org/2000/svg">
<path d="M19.9709 1.73055C18.1448 3.28273 16.4101 4.7436 14.584 6.29578C13.9448 6.8436 14.31 7.66534 14.9492 7.93926C15.2231 8.57839 16.0448 8.9436 16.5927 8.30447C18.1448 6.56969 19.7883 4.92621 21.3405 3.19143C22.2535 2.18708 20.884 0.908815 19.9709 1.73055Z" fill="#FCF3CF"/>
<path d="M16.9585 5.56531C15.9542 5.01748 14.8585 5.2914 13.8542 5.56531C12.3933 5.83922 11.0237 6.20444 9.65416 6.66096C8.2846 7.11749 6.82373 7.75662 5.54546 8.57836C5.54546 8.57836 5.45417 8.57836 5.45417 8.66966C4.0846 9.4001 2.89764 10.4957 2.34981 11.9566C2.1672 12.1392 2.07591 12.3218 2.07591 12.5958C1.43678 17.2523 4.90634 21.5436 9.74547 21.5436C14.7672 21.5436 17.1411 15.061 17.9629 10.9523C18.3281 9.30879 18.9672 6.56966 16.9585 5.56531Z" fill="#FBB49B"/>
<path d="M11.0244 13.8738C9.83748 12.2303 7.55488 10.3129 5.36357 10.5869C3.08096 10.8608 2.62444 13.1434 3.08096 15.0608C3.53748 17.1608 4.99836 19.0782 6.82445 20.1738C7.46358 20.539 8.1027 20.7217 8.83314 20.7217C9.65488 20.813 10.3853 20.7217 11.0244 20.0825C12.6679 18.439 12.1201 15.6086 11.0244 13.8738Z" fill="#F38059"/>
<path d="M8.37496 15.2437C8.37496 15.1524 8.28365 15.061 8.28365 14.9697C8.19234 14.8784 8.19235 14.6958 8.10104 14.6045C8.00974 14.5132 7.91843 14.4219 7.82713 14.3306C7.73582 14.2393 7.55322 14.148 7.46191 14.148C7.37061 14.148 7.18801 14.0567 7.0967 14.148C7.0054 14.148 6.82278 14.2393 6.73148 14.2393C6.54887 14.4219 6.36626 14.6045 6.27495 14.8784C6.27495 15.061 6.18365 15.2437 6.27495 15.4263C6.27495 15.4263 6.27495 15.4263 6.27495 15.5176C6.27495 15.7002 6.36626 15.8828 6.45756 16.0654C6.54887 16.248 6.73147 16.4306 6.91408 16.5219C7.09669 16.6132 7.27931 16.7045 7.55322 16.7045C7.55322 16.7045 7.55322 16.7045 7.64452 16.7045H7.73583C8.00974 16.7045 8.55757 15.9741 8.37496 15.2437Z" fill="white"/>
<path d="M12.1182 18.7131C12.0269 18.7131 12.0269 18.7131 12.1182 18.7131C11.8443 18.7131 11.6617 18.4392 11.6617 18.1653C11.753 17.0697 11.6617 14.9697 10.9312 13.874C10.0182 12.5044 9.01384 11.6827 7.91819 11.1349C6.63993 10.587 5.17906 10.587 4.26601 11.3175C4.0834 11.5001 3.80949 11.4088 3.62688 11.2262C3.44427 11.0436 3.53557 10.7697 3.71818 10.587C4.90514 9.674 6.73123 9.58269 8.2834 10.3131C9.47036 10.861 10.566 11.8653 11.6617 13.3262C12.666 14.787 12.666 17.161 12.5747 18.2566C12.4834 18.5305 12.3008 18.7131 12.1182 18.7131Z" fill="black"/>
<path d="M9.28967 22.0002C9.01575 22.0002 8.83314 22.0002 8.55923 22.0002C6.27662 21.8176 4.08532 20.448 2.89836 18.5307C2.80705 18.348 2.80705 18.0741 3.08096 17.8915C3.26357 17.8002 3.53748 17.8002 3.72009 18.0741C4.81574 19.8089 6.73314 20.9959 8.74184 21.0872C9.38097 21.1785 10.3853 21.1785 11.5723 20.8133C11.8462 20.722 12.0288 20.9046 12.1201 21.0872C12.2114 21.3611 12.0288 21.5437 11.8462 21.635C10.9331 21.9089 10.1114 22.0002 9.28967 22.0002Z" fill="black"/>
<path d="M16.594 15.3344C16.5027 15.3344 16.5027 15.3344 16.4114 15.3344C16.1374 15.2431 16.0461 14.9691 16.1374 14.6952C16.9592 12.8691 17.8722 10.7691 17.7809 8.66914C17.7809 7.66479 17.3244 6.38653 16.32 6.02132C15.9548 5.93001 15.4983 5.93001 15.1331 5.93001C13.307 6.11262 11.4809 6.47784 9.74613 7.11697C9.47222 7.20827 9.28961 7.11697 9.1983 6.84306C9.107 6.56914 9.1983 6.38653 9.47222 6.29523C11.2983 5.6561 13.1244 5.19958 15.1331 5.01697C15.5896 5.01697 16.1374 4.92566 16.6853 5.10827C18.1461 5.56479 18.694 7.29958 18.7853 8.57784C18.8766 10.8605 17.8722 13.0518 17.0505 14.9691C16.8679 15.1518 16.7766 15.3344 16.594 15.3344Z" fill="black"/>
<path d="M13.6702 20.5391C13.5788 20.5391 13.3962 20.4478 13.3049 20.3565C13.1223 20.1739 13.1223 19.8999 13.3049 19.7173C14.1267 18.9869 14.7658 18.0739 15.3136 17.1608C15.4049 16.9782 15.6788 16.8869 15.9528 16.9782C16.1354 17.0695 16.2267 17.3434 16.1354 17.6173C15.5875 18.6217 14.8571 19.5347 14.0354 20.3565C13.8528 20.5391 13.7615 20.5391 13.6702 20.5391Z" fill="black"/>
<path d="M17.963 7.66522C17.8717 7.66522 17.6891 7.57392 17.5978 7.48261C17.4152 7.3 17.4152 7.02609 17.5978 6.84348C18.6022 5.93044 19.8804 4.46957 21.3413 2.64348C21.1587 2.46087 20.8848 2.27826 20.6108 2.09565L20.4282 2.00435C20.3369 1.91304 20.2456 1.91304 20.1543 1.91304C20.063 1.91304 19.9717 2.09565 19.8804 2.09565C17.7804 4.19565 16.0456 5.74783 16.0456 5.74783C15.863 5.93044 15.5891 5.93044 15.4065 5.74783C15.2239 5.56522 15.2239 5.29131 15.4065 5.1087C15.4065 5.1087 17.05 3.46522 19.2413 1.45652C19.4239 1.27391 19.6978 1 20.063 1C20.3369 1 20.6108 1.0913 20.8848 1.18261L21.0674 1.27391C21.5239 1.54783 21.9804 1.73044 22.3456 2.27826C22.4369 2.46087 22.4369 2.64348 22.3456 2.82609C20.7021 4.83479 19.3326 6.38696 18.2369 7.39131C18.1456 7.57392 18.0543 7.66522 17.963 7.66522Z" fill="black"/>
</svg>
