<svg width="24" height="24" viewBox="0 0 24 24" fill="none" xmlns="http://www.w3.org/2000/svg">
<path d="M1.68301 14.9957C1.68301 14.9957 1.97621 19.1982 6.47188 19.9801C11.163 20.8596 12.2381 18.3186 18.102 17.83C22.9886 17.439 22.7931 14.2139 22.9886 11.7706C23.0863 10.5001 22.4999 9.13182 21.0339 7.95903C19.177 6.59079 16.8315 6.10212 11.2607 5.418C0.803425 4.04975 1.09662 11.0865 1.68301 14.9957Z" fill="#F38059"/>
<path d="M10.5773 9.32741C10.4796 9.03421 10.3818 8.83875 10.1864 8.64328C10.1864 8.54555 10.0886 8.54556 9.99091 8.44782C9.40452 7.7637 8.32947 7.56823 7.54761 7.86143C6.2771 8.25236 5.49524 9.81607 6.17937 10.9889C6.86349 12.2594 8.7204 12.4548 9.79545 11.4775C9.89318 11.3798 9.99091 11.282 9.99091 11.1843C10.4796 10.6957 10.7728 10.1093 10.5773 9.32741Z" fill="white"/>
<path d="M8.3299 17.5365C7.05938 17.5365 5.8866 17.341 4.61608 16.9501C2.17278 16.0705 1 12.8453 1 11.2816C1 10.9884 1.19546 10.793 1.48866 10.793C1.78186 10.793 1.97732 10.9884 1.97732 11.2816C1.97732 12.5521 2.95464 15.2886 4.90928 15.9728C8.0367 17.1455 11.555 16.1682 14.0961 15.5818C15.2689 15.2886 16.1484 15.0932 16.7348 15.0932C17.028 15.0932 17.2235 15.2886 17.2235 15.5818C17.2235 15.875 17.028 16.0705 16.7348 16.0705C16.1484 16.0705 15.2689 16.266 14.2915 16.5592C12.6301 16.9501 10.48 17.5365 8.3299 17.5365Z" fill="black"/>
<path d="M19.1787 15.4841C18.9833 15.4841 18.7878 15.3864 18.6901 15.0932C18.5923 14.8 18.7878 14.6046 18.9833 14.5068C20.0583 14.2136 22.4039 13.1386 21.9152 10.1089C21.9152 9.81569 22.0129 9.62023 22.3061 9.52249C22.5993 9.42476 22.7948 9.62023 22.8925 9.91342C23.3812 12.5522 22.0129 14.7023 19.2764 15.4841C19.1787 15.4841 19.1787 15.4841 19.1787 15.4841Z" fill="black"/>
<path d="M1.88078 9.62019C1.78305 9.62019 1.78305 9.62019 1.68531 9.62019C1.39212 9.52246 1.29439 9.22927 1.39212 9.0338C2.07624 7.07917 4.03088 5.51545 6.57191 5.12453C9.79706 4.63587 17.0292 5.61319 20.743 7.56783C20.9385 7.66556 21.0362 7.95875 20.9385 8.25195C20.8408 8.44741 20.5476 8.54515 20.2544 8.44741C16.5406 6.59051 9.40614 5.71092 6.66964 6.10185C5.0082 6.39504 2.8581 7.37236 2.27171 9.327C2.27171 9.42473 2.07624 9.62019 1.88078 9.62019Z" fill="black"/>
</svg>
