<svg width="360" height="296" viewBox="0 0 360 296" fill="none" xmlns="http://www.w3.org/2000/svg">
<path d="M320.411 197.179C319.948 196.1 319.024 195.638 317.946 195.175C316.251 194.404 315.019 193.479 314.095 191.938C312.708 189.625 312.708 187.004 310.398 185.309C309.011 184.229 306.854 184.538 305.622 188.7C304.852 191.475 303.003 193.788 300.539 195.329C300.076 195.638 299.768 195.792 299.306 196.1C298.69 196.563 298.382 197.179 298.382 197.796C298.228 198.567 298.382 199.492 298.844 200.109C299.614 201.188 301.155 201.496 302.233 202.267C303.465 203.192 304.544 204.271 305.468 205.504C307.009 207.354 308.395 210.9 311.63 209.513C314.249 208.434 314.249 204.888 315.943 203.038C317.792 201.342 321.643 200.109 320.411 197.179Z" fill="#FEE8A5"/>
<path d="M326.418 184.846C326.726 185.308 327.343 185.462 327.959 185.617C328.883 185.925 329.807 186.233 330.423 187.004C331.502 188.237 331.81 189.625 333.35 190.242C334.275 190.704 335.353 190.242 335.353 187.775C335.353 186.233 335.969 184.692 337.047 183.458C337.202 183.304 337.356 182.996 337.664 182.842C337.972 182.533 337.972 182.071 337.972 181.762C337.972 181.3 337.818 180.837 337.356 180.529C336.739 180.067 335.969 180.067 335.199 179.758C334.429 179.45 333.658 178.987 333.042 178.371C331.964 177.446 330.732 175.75 329.191 176.829C327.959 177.754 328.421 179.758 327.805 180.992C327.343 182.225 325.494 183.458 326.418 184.846Z" fill="#FEE8A5"/>
<path d="M306.238 202.113C307.779 204.579 308.549 207.354 309.165 210.129C309.165 204.579 313.632 198.721 319.024 197.488C319.024 197.488 315.019 195.638 313.17 193.479C309.473 189.008 309.165 183.458 309.165 183.458C309.165 183.458 307.933 190.088 305.006 193.325C303.465 195.021 301.771 196.254 299.614 197.025C302.387 197.95 304.698 199.646 306.238 202.113Z" stroke="#030000" stroke-width="1.4" stroke-miterlimit="10" stroke-linecap="round" stroke-linejoin="round"/>
<path d="M334.275 181.3C333.35 179.758 332.734 178.063 332.426 176.367C332.426 179.913 329.653 183.612 326.264 184.383C326.264 184.383 328.729 185.462 329.961 186.85C332.272 189.625 332.426 193.017 332.426 193.017C332.426 193.017 333.196 188.854 335.045 186.85C335.969 185.771 337.047 185 338.434 184.537C336.739 183.921 335.353 182.842 334.275 181.3Z" stroke="#030000" stroke-width="1.4" stroke-miterlimit="10" stroke-linecap="round" stroke-linejoin="round"/>
<path d="M253.862 279.813L176.069 283.204C163.283 283.821 152.654 273.492 152.654 260.696V101.288C152.654 88.8001 162.667 78.7793 175.145 78.7793H252.938C265.416 78.7793 275.429 88.8001 275.429 101.288V257.304C275.429 269.329 265.878 279.35 253.862 279.813Z" fill="#32B2A8"/>
<path d="M257.713 108.533H170.215V150.313H257.713V108.533Z" fill="#C4ECE9"/>
<path d="M189.625 263.933H178.842C174.067 263.933 170.062 260.079 170.062 255.146V254.221C170.062 249.442 173.913 245.433 178.842 245.433H189.625C194.401 245.433 198.406 249.288 198.406 254.221V255.146C198.406 259.925 194.401 263.933 189.625 263.933Z" fill="#139B90"/>
<path d="M214.427 263.933H213.502C208.727 263.933 204.722 260.079 204.722 255.146V254.221C204.722 249.442 208.573 245.433 213.502 245.433H214.427C219.202 245.433 223.207 249.288 223.207 254.221V255.146C223.207 259.925 219.202 263.933 214.427 263.933Z" fill="#FEDB72"/>
<path d="M249.087 263.933H237.072C232.296 263.933 228.291 260.079 228.291 255.146V254.221C228.291 249.442 232.142 245.433 237.072 245.433H249.087C253.863 245.433 257.868 249.288 257.868 254.221V255.146C257.714 259.925 253.863 263.933 249.087 263.933Z" fill="#F89879"/>
<path d="M182.077 182.688H176.377C172.988 182.688 170.37 179.913 170.37 176.675V166.346C170.37 162.954 173.142 160.333 176.377 160.333H186.698C190.087 160.333 192.706 163.109 192.706 166.346V172.359C193.322 180.992 189.163 182.688 182.077 182.688Z" fill="#FFF2EE"/>
<path d="M214.735 183.15H209.035C205.646 183.15 203.027 180.375 203.027 177.138V166.808C203.027 163.417 205.8 160.796 209.035 160.796H219.356C222.745 160.796 225.364 163.571 225.364 166.808V174.208C225.518 182.533 222.745 182.688 214.735 183.15Z" fill="#FFF2EE"/>
<path d="M247.393 183.613H241.693C238.304 183.613 235.685 180.838 235.685 177.6V167.271C235.685 163.879 238.458 161.258 241.693 161.258H252.014C255.403 161.258 258.022 164.033 258.022 167.271V173.283C258.176 182.379 255.865 183.613 247.393 183.613Z" fill="#FFF2EE"/>
<path d="M185.466 210.283H176.223C172.834 210.283 170.215 207.508 170.215 204.271V193.942C170.215 190.55 172.988 187.929 176.223 187.929H186.544C189.933 187.929 192.552 190.704 192.552 193.942V199.954C192.552 206.429 191.32 210.283 185.466 210.283Z" fill="#FFF2EE"/>
<path d="M215.351 210.592H208.881C205.492 210.592 202.873 207.817 202.873 204.579V194.25C202.873 190.858 205.646 188.238 208.881 188.238H219.202C222.591 188.238 225.21 191.013 225.21 194.25V201.958C225.518 209.204 222.283 210.592 215.351 210.592Z" fill="#FFF2EE"/>
<path d="M247.084 211.054H241.385C237.996 211.054 235.377 208.279 235.377 205.042V194.713C235.377 191.321 238.15 188.7 241.385 188.7H251.706C255.095 188.7 257.714 191.475 257.714 194.713V204.117C257.714 209.975 252.938 211.054 247.084 211.054Z" fill="#FFF2EE"/>
<path d="M183.617 237.571H175.915C172.526 237.571 169.907 234.796 169.907 231.558V221.229C169.907 217.838 172.68 215.217 175.915 215.217H186.236C189.625 215.217 192.244 217.992 192.244 221.229V229.708C192.09 235.567 189.471 237.725 183.617 237.571Z" fill="#FFF2EE"/>
<path d="M217.816 238.033H208.419C205.03 238.033 202.411 235.258 202.411 232.021V221.692C202.411 218.3 205.184 215.679 208.419 215.679H218.74C222.129 215.679 224.748 218.454 224.748 221.692V227.704C225.21 234.488 223.669 238.033 217.816 238.033Z" fill="#FFF2EE"/>
<path d="M251.398 238.496H241.077C237.688 238.496 235.069 235.721 235.069 232.483V222C235.069 218.608 237.842 215.988 241.077 215.988H251.398C254.787 215.988 257.405 218.763 257.405 222V232.329C257.405 235.721 254.633 238.496 251.398 238.496Z" fill="#FFF2EE"/>
<path d="M168.675 92.5V5.7042L178.842 12.7959L187.776 5.7042L192.86 12.7959L201.949 2.9292L207.802 12.7959L215.505 2.9292L222.899 12.7959L227.828 2.9292L237.533 12.7959L245.698 2.9292L252.322 12.7959L260.024 2.9292V95.275L168.675 92.5Z" fill="#FEDB72"/>
<path d="M162.821 92.1917C197.173 94.5042 231.68 95.5833 266.032 95.275" stroke="#030000" stroke-width="1.4" stroke-miterlimit="10" stroke-linecap="round" stroke-linejoin="round"/>
<path d="M184.08 45.3252C185.774 39.621 188.393 34.8418 191.628 31.1418" stroke="#030000" stroke-width="1.4" stroke-miterlimit="10" stroke-linecap="round" stroke-linejoin="round"/>
<path d="M243.695 63.5167C238.92 81.4 224.593 88.8 205.03 83.8667C194.093 81.0917 186.39 72.4583 183.771 62.1292" stroke="#030000" stroke-width="1.4" stroke-miterlimit="10" stroke-linecap="round" stroke-linejoin="round"/>
<path d="M196.558 26.8251C203.644 21.8918 212.578 20.5043 221.821 22.8168C233.837 25.9001 242.771 34.5334 244.928 46.0959" stroke="#030000" stroke-width="1.4" stroke-miterlimit="10" stroke-linecap="round" stroke-linejoin="round"/>
<path d="M239.536 59.9709C234.915 73.6918 228.445 78.3168 218.432 80.0126" stroke="#030000" stroke-width="1.4" stroke-miterlimit="10" stroke-linecap="round" stroke-linejoin="round"/>
<path d="M189.779 46.096C193.322 31.9127 206.108 25.4377 220.28 28.9835C229.523 31.296 236.763 38.2335 238.92 46.2502" stroke="#030000" stroke-width="1.4" stroke-miterlimit="10" stroke-linecap="round" stroke-linejoin="round"/>
<path d="M214.427 80.6292C211.192 80.7833 207.803 80.3208 204.568 78.9333C195.325 74.925 190.55 69.0667 189.009 62.1292" stroke="#030000" stroke-width="1.4" stroke-miterlimit="10" stroke-linecap="round" stroke-linejoin="round"/>
<path d="M252.322 46.25C226.288 46.25 200.255 46.7125 174.375 47.7917C175.915 50.7208 177.456 53.0333 179.15 55.9625C177.764 57.0417 175.299 59.0458 172.526 60.7417" stroke="#030000" stroke-width="1.4" stroke-miterlimit="10" stroke-linecap="round" stroke-linejoin="round"/>
<path d="M173.297 62.7458C199.639 61.2042 228.291 61.8208 254.633 60.8958C253.092 58.5833 251.244 56.7333 249.703 54.4208C251.552 52.2625 253.246 50.1041 255.095 47.9458" stroke="#030000" stroke-width="1.4" stroke-miterlimit="10" stroke-linecap="round" stroke-linejoin="round"/>
<path d="M186.853 55.6544V54.8836C186.853 54.5752 187.007 54.4211 187.007 54.1128L187.161 53.6503V53.4961C187.161 53.3419 187.315 53.3419 187.315 53.1878C187.623 52.7253 187.777 52.2628 188.239 51.9544L188.393 51.8003L188.855 51.4919C189.009 51.4919 189.163 51.3378 189.317 51.3378C189.626 51.1836 189.934 51.1836 190.242 51.1836C190.55 51.1836 190.858 51.1836 191.166 51.3378C191.32 51.3378 191.474 51.4919 191.782 51.6461C191.782 51.6461 191.936 51.8003 192.09 51.8003L192.244 51.9544L192.09 51.8003C191.782 51.4919 191.012 51.1836 190.55 51.3378C190.396 51.3378 190.242 51.3378 189.934 51.3378H189.78C189.472 51.3378 189.009 51.4919 188.701 51.8003L188.239 52.1086L187.931 52.5711C187.931 52.7253 187.623 53.0336 187.623 53.1878V53.3419L187.315 54.1128V54.2669C187.315 54.2669 187.161 54.7294 187.161 54.8836C187.161 55.1919 187.161 55.6544 187.161 55.9627V56.2711V56.5794C187.161 56.7336 187.315 56.8877 187.315 57.1961C187.931 58.2752 188.855 58.4294 189.934 58.4294C190.396 58.4294 191.012 58.2752 191.474 58.1211C192.09 57.6586 192.244 57.1961 192.398 56.4252C192.398 56.2711 192.398 56.1169 192.398 55.9627C192.398 55.6544 192.244 55.1919 192.244 54.8836C192.09 54.8836 192.09 54.8836 191.936 54.8836C191.628 54.8836 191.474 54.8836 191.166 54.8836H191.012C191.32 54.8836 191.628 54.8836 191.936 54.8836C192.09 54.8836 192.09 54.7294 192.244 54.7294C192.244 54.8836 192.244 55.0377 192.244 55.1919C192.244 55.5002 192.398 55.8086 192.398 55.9627V56.1169V56.2711C192.398 56.5794 192.398 56.7336 192.244 57.0419C192.09 57.5044 191.782 57.8127 191.474 58.1211C191.166 58.4294 190.704 58.5836 190.396 58.5836C190.242 58.5836 190.088 58.5836 189.934 58.5836H189.626C188.547 58.5836 187.777 58.4294 187.161 57.5044C187.007 57.3502 187.007 57.0419 186.853 56.8877C186.699 56.5794 186.699 56.2711 186.699 55.9627L186.853 55.6544Z" fill="black" stroke="#030000" stroke-width="0.75" stroke-miterlimit="10" stroke-linecap="round" stroke-linejoin="round"/>
<path d="M195.017 56.2711L194.709 54.5752C194.709 54.2669 194.709 53.9586 194.709 53.4961C194.709 53.0336 194.709 52.5711 194.709 52.1086C194.709 51.9544 194.709 51.8002 194.709 51.4919V51.1836C194.709 51.1836 194.709 51.1836 194.863 51.3377C194.863 51.4919 194.863 51.6461 194.863 51.8002C194.863 52.2627 194.863 52.7252 194.863 53.3419C194.863 54.1127 194.863 54.7294 195.017 55.5002L195.171 56.5794V56.7336L195.325 57.1961C195.479 57.6586 195.941 58.1211 196.558 58.2752C196.712 58.2752 196.712 58.2752 196.866 58.2752H197.02C197.79 58.2752 198.252 58.1211 198.714 57.5044C198.714 57.3502 198.868 57.3502 198.868 57.1961C199.022 56.8877 199.176 56.5794 199.176 56.2711V55.1919C199.176 55.0377 199.022 54.2669 199.022 54.1127V53.9586C199.022 53.8044 199.022 53.3419 199.022 53.1877V52.7252C199.022 52.7252 199.022 52.5711 199.022 52.4169V51.8002C199.022 51.6461 199.022 51.4919 199.022 51.1836C199.022 51.1836 199.022 51.1836 199.022 51.0294C199.022 51.0294 199.022 50.8752 199.176 50.8752C199.176 51.3377 199.176 51.8002 199.33 52.2627C199.33 52.4169 199.33 52.7252 199.33 52.8794C199.33 53.0336 199.33 53.6502 199.33 53.8044V53.9586L199.484 54.7294C199.484 54.8836 199.484 55.1919 199.484 55.3461C199.484 55.8086 199.484 55.9627 199.484 56.4252C199.33 57.0419 199.022 57.6586 198.406 57.8127C198.252 57.8127 198.252 57.8127 198.098 57.8127C197.79 57.8127 197.482 57.9669 197.174 57.9669C196.712 57.9669 196.404 57.8127 196.095 57.5044C195.325 57.5044 195.171 56.8877 195.017 56.2711Z" fill="black" stroke="#030000" stroke-width="0.75" stroke-miterlimit="10" stroke-linecap="round" stroke-linejoin="round"/>
<path d="M201.179 58.121C201.333 58.121 201.333 57.6585 201.333 57.6585C201.487 57.3501 201.487 57.196 201.641 56.8876L201.949 55.6543C202.103 55.346 202.103 55.1918 202.257 54.8835C202.411 54.5751 202.565 54.1126 202.565 53.8043C202.565 53.6501 202.719 53.496 202.719 53.3418C202.719 53.0335 202.873 52.7251 203.027 52.4168L203.335 51.4918C203.335 51.3376 203.335 51.1835 203.489 51.1835V51.3376L203.798 52.1085C203.952 52.2626 203.952 52.4168 203.952 52.571C203.952 52.571 203.952 52.7251 204.106 52.7251C204.26 53.1876 204.414 53.6501 204.414 53.9585L204.568 54.5751C204.568 54.7293 204.722 54.8835 204.722 55.0376L204.876 55.8085C204.876 55.9626 204.876 55.9626 204.876 56.1168C204.876 56.4251 205.03 56.7335 205.184 57.0418C205.184 57.196 205.338 57.3501 205.338 57.5043C205.338 57.6585 205.492 57.8126 205.492 57.9668C205.492 57.9668 205.492 57.9668 205.338 57.9668C205.338 57.6585 205.184 57.3501 205.184 57.0418C205.184 56.8876 205.184 56.8876 205.03 56.7335L204.876 56.271C204.876 56.271 204.876 56.271 204.876 56.1168C204.876 56.1168 204.876 55.8085 204.722 55.6543H204.568C204.414 55.6543 204.26 55.6543 204.106 55.6543C203.952 55.6543 203.335 55.6543 201.641 55.9626V56.1168L201.487 56.5793C201.641 57.3501 201.333 57.8126 201.179 58.121C201.179 58.2751 201.179 58.121 201.179 58.121C201.179 58.121 201.179 58.2751 201.179 58.121ZM202.411 54.1126C202.411 54.2668 202.257 54.5751 202.257 54.5751C202.257 54.8835 202.103 55.0376 202.103 55.346C202.103 55.6543 201.949 55.8085 201.949 56.1168C202.103 56.1168 202.257 56.1168 202.411 55.9626C202.565 55.9626 202.873 55.8085 202.873 55.8085L204.414 55.6543H204.568C204.568 55.6543 204.876 55.6543 204.876 55.5001L204.722 55.0376L204.568 54.5751L204.414 54.2668L204.26 53.8043V53.496C204.26 53.3418 204.106 52.7251 203.952 52.571C203.952 52.4168 203.798 52.1085 203.798 51.9543L203.643 51.646L203.489 51.3376L203.335 51.0293C203.335 51.0293 203.335 51.0293 203.335 51.1835L203.181 51.4918V51.646C203.027 51.9543 202.873 52.2626 202.873 52.571V52.7251C202.873 52.8793 202.719 53.0335 202.719 53.1876L202.411 54.1126Z" fill="black"/>
<path d="M201.179 58.121C201.333 58.121 201.333 57.6585 201.333 57.6585C201.487 57.3501 201.487 57.196 201.641 56.8876L201.949 55.6543C202.103 55.346 202.103 55.1918 202.257 54.8835C202.411 54.5751 202.565 54.1126 202.565 53.8043C202.565 53.6501 202.719 53.496 202.719 53.3418C202.719 53.0335 202.873 52.7251 203.027 52.4168L203.335 51.4918C203.335 51.3376 203.335 51.1835 203.489 51.1835V51.3376L203.798 52.1085C203.952 52.2626 203.952 52.4168 203.952 52.571C203.952 52.571 203.952 52.7251 204.106 52.7251C204.26 53.1876 204.414 53.6501 204.414 53.9585L204.568 54.5751C204.568 54.7293 204.722 54.8835 204.722 55.0376L204.876 55.8085C204.876 55.9626 204.876 55.9626 204.876 56.1168C204.876 56.4251 205.03 56.7335 205.184 57.0418C205.184 57.196 205.338 57.3501 205.338 57.5043C205.338 57.6585 205.492 57.8126 205.492 57.9668C205.492 57.9668 205.492 57.9668 205.338 57.9668C205.338 57.6585 205.184 57.3501 205.184 57.0418C205.184 56.8876 205.184 56.8876 205.03 56.7335L204.876 56.271C204.876 56.271 204.876 56.271 204.876 56.1168C204.876 56.1168 204.876 55.8085 204.722 55.6543H204.568C204.414 55.6543 204.26 55.6543 204.106 55.6543C203.952 55.6543 203.335 55.6543 201.641 55.9626V56.1168L201.487 56.5793C201.641 57.3501 201.333 57.8126 201.179 58.121ZM201.179 58.121C201.179 58.121 201.179 58.2751 201.179 58.121ZM201.179 58.121C201.179 58.2751 201.179 58.121 201.179 58.121ZM202.411 54.1126C202.411 54.2668 202.257 54.5751 202.257 54.5751C202.257 54.8835 202.103 55.0376 202.103 55.346C202.103 55.6543 201.949 55.8085 201.949 56.1168C202.103 56.1168 202.257 56.1168 202.411 55.9626C202.565 55.9626 202.873 55.8085 202.873 55.8085L204.414 55.6543H204.568C204.568 55.6543 204.876 55.6543 204.876 55.5001L204.722 55.0376L204.568 54.5751L204.414 54.2668L204.26 53.8043V53.496C204.26 53.3418 204.106 52.7251 203.952 52.571C203.952 52.4168 203.798 52.1085 203.798 51.9543L203.643 51.646L203.489 51.3376L203.335 51.0293C203.335 51.0293 203.335 51.0293 203.335 51.1835L203.181 51.4918V51.646C203.027 51.9543 202.873 52.2626 202.873 52.571V52.7251C202.873 52.8793 202.719 53.0335 202.719 53.1876L202.411 54.1126Z" stroke="#030000" stroke-width="0.75" stroke-miterlimit="10" stroke-linecap="round" stroke-linejoin="round"/>
<path d="M207.803 55.6544C207.803 55.3461 207.803 54.8836 207.803 54.5753C207.803 54.4211 207.803 54.4211 207.803 54.2669L207.957 52.1086C207.957 51.9544 207.957 51.6461 207.957 51.4919V51.1836H208.111C208.419 51.1836 208.727 51.1836 209.035 51.1836H209.189L210.113 51.3378C210.267 51.3378 210.267 51.3378 210.422 51.4919L210.73 51.6461C210.73 51.6461 210.73 51.6461 210.884 51.6461C211.192 51.9544 211.5 52.4169 211.5 52.8794C211.5 53.3419 211.346 53.9586 210.884 54.2669L210.576 54.4211C210.267 54.5753 210.113 54.5753 209.805 54.5753C209.651 54.5753 209.651 54.5753 209.497 54.7294L208.881 54.8836H208.727H208.265L209.035 55.6544C209.035 55.6544 209.343 55.9627 209.497 55.9627C209.651 56.1169 210.113 56.5794 210.267 56.7336C210.576 56.8877 210.73 57.1961 210.884 57.3502L211.5 57.9669C211.5 57.9669 211.808 58.1211 211.808 58.2752C211.808 58.2752 211.808 58.4294 211.654 58.4294C211.654 58.4294 211.5 58.4294 211.5 58.2752L211.192 57.9669C210.884 57.6586 210.576 57.3502 210.422 57.0419C210.422 57.0419 210.422 57.0419 210.267 57.0419C210.267 57.0419 210.113 57.0419 210.113 56.8877C209.959 56.7336 209.651 56.5794 209.651 56.5794C209.651 56.5794 209.343 56.2711 209.189 56.1169C208.727 55.8086 208.419 55.5003 207.957 55.0378V55.1919C207.957 55.5002 207.957 55.8086 207.957 55.9627C207.957 56.5794 207.957 57.1961 208.111 57.6586C208.111 57.6586 208.111 58.1211 208.111 58.2752V58.4294V58.5836V58.4294C207.803 57.1961 207.803 56.4252 207.803 55.6544ZM207.957 54.2669H208.111C208.265 54.2669 208.419 54.2669 208.573 54.2669C208.881 54.2669 209.189 54.2669 209.497 54.1128C209.497 54.1128 209.651 54.1128 209.805 54.1128H210.113C210.884 53.9586 211.5 53.4961 211.346 52.7253C211.346 52.1086 211.038 51.4919 210.422 51.3378C210.267 51.3378 210.267 51.1836 210.113 51.1836H209.651C209.343 51.1836 209.035 51.1836 208.727 51.1836C208.573 51.1836 208.419 51.1836 208.265 51.1836C208.111 51.1836 208.111 51.1836 208.111 51.4919V51.8003C208.111 52.1086 208.111 52.4169 208.111 52.5711L207.957 54.2669Z" fill="black" stroke="#030000" stroke-width="0.75" stroke-miterlimit="10" stroke-linecap="round" stroke-linejoin="round"/>
<path d="M213.965 57.6584C214.119 57.6584 214.119 57.1959 214.119 57.1959C214.273 56.8876 214.273 56.7334 214.427 56.4251L214.735 55.1918C214.889 54.8834 214.889 54.7293 215.043 54.4209C215.197 54.1126 215.351 53.6501 215.351 53.3418C215.351 53.1876 215.505 53.0334 215.505 52.8793C215.505 52.5709 215.659 52.2626 215.813 51.9543L216.121 51.0293C216.121 50.8751 216.121 50.7209 216.276 50.7209V50.8751L216.584 51.6459C216.738 51.8001 216.738 51.9543 216.738 52.1084C216.738 52.1084 216.738 52.2626 216.892 52.2626C217.046 52.7251 217.2 53.1876 217.2 53.4959L217.354 54.1126C217.354 54.2668 217.508 54.4209 217.508 54.5751L217.662 55.3459C217.662 55.5001 217.662 55.5001 217.662 55.6543C217.662 55.9626 217.816 56.2709 217.97 56.5793C217.97 56.7334 218.124 56.8876 218.124 57.0418C218.124 57.1959 218.278 57.3501 218.278 57.5043C218.278 57.5043 218.278 57.5043 218.124 57.5043C218.124 57.1959 217.97 56.8876 217.97 56.5793C217.97 56.4251 217.97 56.4251 217.816 56.2709L217.662 55.8084C217.662 55.8084 217.662 55.8084 217.662 55.6543C217.662 55.6543 217.662 55.3459 217.508 55.1918H217.354C217.2 55.1918 217.046 55.1918 216.892 55.1918C216.738 55.1918 216.121 55.1918 214.427 55.5001V55.6543L214.273 56.1168C214.427 57.0418 214.273 57.3501 213.965 57.6584C214.119 57.8126 214.119 57.8126 213.965 57.6584C213.965 57.8126 213.965 57.8126 213.965 57.6584ZM215.351 53.8043C215.351 53.9584 215.197 54.2668 215.197 54.2668C215.197 54.5751 215.043 54.7293 215.043 55.0376C215.043 55.3459 214.889 55.5001 214.889 55.8084C215.043 55.8084 215.197 55.8084 215.351 55.6543C215.505 55.6543 215.813 55.5001 215.813 55.5001L217.354 55.3459H217.508C217.508 55.3459 217.816 55.3459 217.816 55.1918L217.662 54.7293L217.508 54.2668L217.354 53.9584L217.2 53.4959V53.1876C217.2 53.0334 217.046 52.4168 216.892 52.2626C216.892 52.1084 216.738 51.8001 216.738 51.6459L216.584 51.3376L216.43 51.0293L216.276 50.7209C216.276 50.7209 216.276 50.7209 216.276 50.8751L216.121 51.1834V51.3376C215.967 51.6459 215.813 51.9543 215.813 52.2626V52.4168C215.813 52.5709 215.659 52.7251 215.659 52.8793L215.351 53.8043C215.351 53.8043 215.351 53.6501 215.351 53.8043Z" fill="black"/>
<path d="M213.965 57.6584C214.119 57.6584 214.119 57.1959 214.119 57.1959C214.273 56.8876 214.273 56.7334 214.427 56.4251L214.735 55.1918C214.889 54.8834 214.889 54.7293 215.043 54.4209C215.197 54.1126 215.351 53.6501 215.351 53.3418C215.351 53.1876 215.505 53.0334 215.505 52.8793C215.505 52.5709 215.659 52.2626 215.813 51.9543L216.121 51.0293C216.121 50.8751 216.121 50.7209 216.276 50.7209V50.8751L216.584 51.6459C216.738 51.8001 216.738 51.9543 216.738 52.1084C216.738 52.1084 216.738 52.2626 216.892 52.2626C217.046 52.7251 217.2 53.1876 217.2 53.4959L217.354 54.1126C217.354 54.2668 217.508 54.4209 217.508 54.5751L217.662 55.3459C217.662 55.5001 217.662 55.5001 217.662 55.6543C217.662 55.9626 217.816 56.2709 217.97 56.5793C217.97 56.7334 218.124 56.8876 218.124 57.0418C218.124 57.1959 218.278 57.3501 218.278 57.5043C218.278 57.5043 218.278 57.5043 218.124 57.5043C218.124 57.1959 217.97 56.8876 217.97 56.5793C217.97 56.4251 217.97 56.4251 217.816 56.2709L217.662 55.8084C217.662 55.8084 217.662 55.8084 217.662 55.6543C217.662 55.6543 217.662 55.3459 217.508 55.1918H217.354C217.2 55.1918 217.046 55.1918 216.892 55.1918C216.738 55.1918 216.121 55.1918 214.427 55.5001V55.6543L214.273 56.1168C214.427 57.0418 214.273 57.3501 213.965 57.6584ZM213.965 57.6584C214.119 57.8126 214.119 57.8126 213.965 57.6584ZM213.965 57.6584C213.965 57.8126 213.965 57.8126 213.965 57.6584ZM215.351 53.8043C215.351 53.9584 215.197 54.2668 215.197 54.2668C215.197 54.5751 215.043 54.7293 215.043 55.0376C215.043 55.3459 214.889 55.5001 214.889 55.8084C215.043 55.8084 215.197 55.8084 215.351 55.6543C215.505 55.6543 215.813 55.5001 215.813 55.5001L217.354 55.3459H217.508C217.508 55.3459 217.816 55.3459 217.816 55.1918L217.662 54.7293L217.508 54.2668L217.354 53.9584L217.2 53.4959V53.1876C217.2 53.0334 217.046 52.4168 216.892 52.2626C216.892 52.1084 216.738 51.8001 216.738 51.6459L216.584 51.3376L216.43 51.0293L216.276 50.7209C216.276 50.7209 216.276 50.7209 216.276 50.8751L216.121 51.1834V51.3376C215.967 51.6459 215.813 51.9543 215.813 52.2626V52.4168C215.813 52.5709 215.659 52.7251 215.659 52.8793L215.351 53.8043ZM215.351 53.8043C215.351 53.6501 215.351 53.8043 215.351 53.8043Z" stroke="#030000" stroke-width="0.75" stroke-miterlimit="10" stroke-linecap="round" stroke-linejoin="round"/>
<path d="M223.208 54.4211C223.208 54.4211 223.054 54.4211 223.208 54.4211L221.975 52.7252C221.821 52.5711 221.667 52.4169 221.513 52.2627L221.051 51.4919C221.051 51.4919 221.051 51.3377 220.897 51.3377C220.897 51.1836 220.743 51.1836 220.743 51.0294C220.743 51.0294 220.743 50.8752 220.589 50.8752V50.7211V51.0294C220.589 51.1836 220.589 52.2627 220.589 52.5711C220.589 52.5711 220.589 53.3419 220.589 53.4961C220.589 53.9586 220.589 54.4211 220.743 54.8836C220.743 55.8086 220.897 56.5794 220.897 57.5044V57.6586C220.897 57.6586 220.897 57.6586 220.897 57.5044C220.897 56.8877 220.743 56.1169 220.743 55.5002C220.743 55.3461 220.743 54.7294 220.743 54.7294C220.743 54.2669 220.743 53.8044 220.743 53.4961V51.9544C220.743 51.8002 220.743 51.1836 220.743 51.0294C220.743 51.0294 220.743 50.8752 220.743 50.7211C220.743 50.7211 220.743 50.7211 220.897 50.7211L221.051 50.8752C221.359 51.3377 221.667 51.8002 221.821 52.2627L222.9 53.6502C222.9 53.6502 222.9 53.6502 223.054 53.8044L224.748 56.1169C224.748 56.2711 224.902 56.4252 225.056 56.4252C225.21 56.5794 225.21 56.7336 225.364 56.8877V57.0419C225.518 57.1961 225.672 57.3502 225.672 57.5044V57.3502L225.518 56.8877C225.518 56.7336 225.518 56.5794 225.518 56.4252C225.518 56.2711 225.518 56.2711 225.518 56.1169C225.518 55.9627 225.518 55.8086 225.518 55.6544L225.364 53.6502C225.364 53.4961 225.364 53.1877 225.364 53.0336C225.364 52.2627 225.364 51.3377 225.364 50.5669C225.364 50.8752 225.364 51.1836 225.364 51.6461C225.364 52.1086 225.364 52.5711 225.364 53.0336C225.364 53.4961 225.364 53.8044 225.518 54.2669V54.5752L225.672 55.9627C225.672 56.2711 225.826 56.7336 225.826 57.0419C225.826 57.1961 225.98 57.3502 225.98 57.5044C225.98 57.5044 225.98 57.6586 225.826 57.6586C225.672 57.6586 225.672 57.5044 225.672 57.3502C225.518 57.0419 225.21 56.7336 225.056 56.2711C224.902 56.1169 224.748 55.9627 224.748 55.6544L223.208 54.4211ZM225.21 57.3502C225.21 57.3502 225.21 57.1961 225.21 57.3502C225.21 57.1961 225.21 57.3502 225.21 57.3502Z" fill="black" stroke="#030000" stroke-width="0.75" stroke-miterlimit="10" stroke-linecap="round" stroke-linejoin="round"/>
<path d="M229.061 57.3501V57.0418V56.8876C229.061 56.8876 229.061 56.5793 229.061 56.4251V56.2709C229.061 55.6543 229.061 54.8834 229.061 54.2668C229.061 53.6501 229.061 52.8793 229.061 52.2626C229.061 52.1084 229.061 51.4918 229.061 51.3376V51.1834C229.061 51.0293 229.061 50.7209 229.061 50.5668H228.599C228.599 50.5668 228.445 50.5668 228.291 50.5668C228.137 50.5668 227.829 50.5668 227.675 50.4126H227.829H228.137H228.291C228.907 50.4126 229.523 50.4126 229.985 50.5668C230.14 50.5668 230.294 50.5668 230.448 50.5668C230.602 50.5668 230.756 50.5668 230.756 50.7209C230.602 50.7209 230.448 50.7209 230.448 50.7209C230.448 50.7209 230.294 50.7209 230.14 50.7209H229.677C229.523 50.7209 229.523 50.7209 229.369 50.7209C229.369 50.8751 229.369 51.1834 229.369 51.3376V53.0334C229.369 53.9584 229.369 54.7293 229.369 55.6543C229.369 56.1168 229.369 56.4251 229.369 56.8876L229.061 57.3501C229.215 57.3501 229.215 57.3501 229.061 57.3501C229.061 57.5043 229.061 57.3501 229.061 57.3501C229.061 57.3501 229.061 57.5043 229.061 57.3501Z" fill="black"/>
<path d="M229.061 57.3501V57.0418V56.8876C229.061 56.8876 229.061 56.5793 229.061 56.4251V56.2709C229.061 55.6543 229.061 54.8834 229.061 54.2668C229.061 53.6501 229.061 52.8793 229.061 52.2626C229.061 52.1084 229.061 51.4918 229.061 51.3376V51.1834C229.061 51.0293 229.061 50.7209 229.061 50.5668H228.599C228.599 50.5668 228.445 50.5668 228.291 50.5668C228.137 50.5668 227.829 50.5668 227.675 50.4126H227.829H228.137H228.291C228.907 50.4126 229.523 50.4126 229.985 50.5668C230.14 50.5668 230.294 50.5668 230.448 50.5668C230.602 50.5668 230.756 50.5668 230.756 50.7209C230.602 50.7209 230.448 50.7209 230.448 50.7209C230.448 50.7209 230.294 50.7209 230.14 50.7209H229.677C229.523 50.7209 229.523 50.7209 229.369 50.7209C229.369 50.8751 229.369 51.1834 229.369 51.3376V53.0334C229.369 53.9584 229.369 54.7293 229.369 55.6543C229.369 56.1168 229.369 56.4251 229.369 56.8876L229.061 57.3501ZM229.061 57.3501C229.215 57.3501 229.215 57.3501 229.061 57.3501ZM229.061 57.3501C229.061 57.3501 229.061 57.5043 229.061 57.3501ZM229.061 57.3501C229.061 57.5043 229.061 57.3501 229.061 57.3501Z" stroke="#030000" stroke-width="0.75" stroke-miterlimit="10" stroke-linecap="round" stroke-linejoin="round"/>
<path d="M235.069 57.1959C234.915 57.1959 234.607 57.1959 234.453 57.1959C234.298 57.1959 234.144 57.1959 233.99 57.1959C233.99 57.1959 233.682 57.1959 233.528 57.1959C233.528 57.1959 233.374 57.1959 233.22 57.1959C233.22 57.1959 233.066 57.1959 233.066 57.0417C233.066 57.0417 233.066 56.8876 233.066 56.7334C233.066 56.2709 233.066 55.6542 233.066 55.1917C233.066 55.0376 233.066 55.1917 233.066 55.0376C233.066 54.4209 233.066 53.8042 233.066 53.1876C233.066 52.4167 233.066 51.8001 232.912 51.0292C232.912 50.7209 232.912 50.2584 232.912 49.9501C232.912 49.7959 232.912 49.7959 233.066 49.7959H233.682C233.836 49.7959 234.144 49.7959 234.298 49.7959C234.607 49.7959 234.761 49.7959 235.069 49.7959H235.377C235.531 49.7959 235.531 49.7959 235.685 49.7959C235.839 49.7959 235.839 49.7959 235.839 49.9501C235.839 49.9501 235.839 49.9501 235.685 49.9501H235.531C235.377 49.9501 235.223 49.9501 235.223 49.9501H235.069H234.915C234.761 49.9501 234.453 49.9501 234.298 49.9501C233.99 49.9501 233.682 49.9501 233.374 49.9501C233.22 49.9501 232.912 49.9501 232.912 49.9501V50.1042C232.912 50.5667 232.912 51.1834 233.066 51.6459V53.6501C233.066 53.6501 233.22 53.6501 233.374 53.6501H233.528H233.836H234.144H234.453C234.607 53.6501 234.607 53.6501 234.761 53.6501C235.069 53.6501 235.377 53.8042 235.685 53.8042H235.839C235.993 53.8042 236.147 53.8042 236.147 53.9584V54.1126H235.993C235.685 54.1126 235.531 54.1126 235.223 54.1126C235.069 54.1126 234.761 53.9584 234.607 53.9584H234.144C234.144 53.9584 233.99 53.9584 233.836 53.9584C233.836 53.9584 233.836 53.9584 233.682 53.9584H233.374C233.374 54.1126 233.374 54.2667 233.374 54.4209C233.374 54.5751 233.374 55.9626 233.374 56.1167C233.374 56.2709 233.374 56.7334 233.374 56.8876C233.682 56.8876 233.836 56.8876 234.144 56.8876C234.298 56.8876 234.298 56.8876 234.298 56.8876H235.531H235.993H236.455C236.455 56.8876 236.609 56.8876 236.609 57.0417C236.609 57.0417 236.609 57.0417 236.455 57.0417C236.301 57.0417 236.147 57.0417 235.993 57.0417C235.839 57.1959 235.531 57.1959 235.069 57.1959C235.223 57.1959 235.223 57.1959 235.069 57.1959Z" fill="black"/>
<path d="M235.069 57.1959C234.915 57.1959 234.607 57.1959 234.453 57.1959C234.298 57.1959 234.144 57.1959 233.99 57.1959C233.99 57.1959 233.682 57.1959 233.528 57.1959C233.528 57.1959 233.374 57.1959 233.22 57.1959C233.22 57.1959 233.066 57.1959 233.066 57.0417C233.066 57.0417 233.066 56.8876 233.066 56.7334C233.066 56.2709 233.066 55.6542 233.066 55.1917C233.066 55.0376 233.066 55.1917 233.066 55.0376C233.066 54.4209 233.066 53.8042 233.066 53.1876C233.066 52.4167 233.066 51.8001 232.912 51.0292C232.912 50.7209 232.912 50.2584 232.912 49.9501C232.912 49.7959 232.912 49.7959 233.066 49.7959H233.682C233.836 49.7959 234.144 49.7959 234.298 49.7959C234.607 49.7959 234.761 49.7959 235.069 49.7959H235.377C235.531 49.7959 235.531 49.7959 235.685 49.7959C235.839 49.7959 235.839 49.7959 235.839 49.9501C235.839 49.9501 235.839 49.9501 235.685 49.9501H235.531C235.377 49.9501 235.223 49.9501 235.223 49.9501H235.069H234.915C234.761 49.9501 234.453 49.9501 234.298 49.9501C233.99 49.9501 233.682 49.9501 233.374 49.9501C233.22 49.9501 232.912 49.9501 232.912 49.9501V50.1042C232.912 50.5667 232.912 51.1834 233.066 51.6459V53.6501C233.066 53.6501 233.22 53.6501 233.374 53.6501H233.528H233.836H234.144H234.453C234.607 53.6501 234.607 53.6501 234.761 53.6501C235.069 53.6501 235.377 53.8042 235.685 53.8042H235.839C235.993 53.8042 236.147 53.8042 236.147 53.9584V54.1126H235.993C235.685 54.1126 235.531 54.1126 235.223 54.1126C235.069 54.1126 234.761 53.9584 234.607 53.9584H234.144C234.144 53.9584 233.99 53.9584 233.836 53.9584C233.836 53.9584 233.836 53.9584 233.682 53.9584H233.374C233.374 54.1126 233.374 54.2667 233.374 54.4209C233.374 54.5751 233.374 55.9626 233.374 56.1167C233.374 56.2709 233.374 56.7334 233.374 56.8876C233.682 56.8876 233.836 56.8876 234.144 56.8876C234.298 56.8876 234.298 56.8876 234.298 56.8876H235.531H235.993H236.455C236.455 56.8876 236.609 56.8876 236.609 57.0417C236.609 57.0417 236.609 57.0417 236.455 57.0417C236.301 57.0417 236.147 57.0417 235.993 57.0417C235.839 57.1959 235.531 57.1959 235.069 57.1959ZM235.069 57.1959C235.223 57.1959 235.223 57.1959 235.069 57.1959Z" stroke="#030000" stroke-width="0.75" stroke-miterlimit="10" stroke-linecap="round" stroke-linejoin="round"/>
<path d="M240.769 57.0418C240.615 57.0418 240.307 57.0418 240.153 57.0418C239.999 57.0418 239.845 57.0418 239.691 57.0418C239.691 57.0418 239.383 57.0418 239.229 57.0418C239.229 57.0418 239.074 57.0418 238.92 57.0418C238.92 57.0418 238.766 57.0418 238.766 56.8877C238.766 56.8877 238.766 56.7335 238.766 56.5793C238.766 56.1168 238.766 55.5002 238.766 55.0377C238.766 54.8835 238.766 55.0377 238.766 54.8835C238.766 54.2668 238.766 53.6502 238.766 53.0335C238.766 52.2627 238.766 51.646 238.612 50.8752C238.612 50.5668 238.612 50.1043 238.612 49.796C238.612 49.6418 238.612 49.6418 238.766 49.6418H239.383C239.537 49.6418 239.845 49.6418 239.999 49.6418C240.307 49.6418 240.461 49.6418 240.769 49.6418H241.077C241.231 49.6418 241.231 49.6418 241.385 49.6418C241.539 49.6418 241.539 49.6418 241.539 49.796C241.539 49.796 241.539 49.796 241.385 49.796H241.231C241.077 49.796 240.923 49.796 240.923 49.796H240.769H240.615C240.461 49.796 240.153 49.796 239.999 49.796C239.691 49.796 239.383 49.796 239.074 49.796C238.92 49.796 238.612 49.796 238.612 49.796V49.9502C238.612 50.4127 238.612 51.0293 238.766 51.4918V53.496C238.766 53.496 238.92 53.496 239.074 53.496H239.229H239.537H239.845H240.153C240.307 53.496 240.307 53.496 240.461 53.496C240.769 53.496 241.077 53.6502 241.385 53.6502H241.539C241.693 53.6502 241.847 53.6502 241.847 53.8043V53.9585H241.693C241.385 53.9585 241.231 53.9585 240.923 53.9585C240.769 53.9585 240.461 53.8043 240.307 53.8043H239.845C239.845 53.8043 239.691 53.8043 239.537 53.8043C239.537 53.8043 239.537 53.8043 239.383 53.8043H239.074C239.074 53.9585 239.074 54.1127 239.074 54.2668C239.074 54.421 239.074 55.8085 239.074 55.9627C239.074 56.1168 239.074 56.5793 239.074 56.7335C239.383 56.7335 239.537 56.7335 239.845 56.7335C239.999 56.7335 239.999 56.7335 239.999 56.7335H241.231H241.693H242.155C242.155 56.7335 242.309 56.7335 242.309 56.8877C242.309 56.8877 242.309 56.8877 242.155 56.8877C242.001 56.8877 241.847 56.8877 241.693 56.8877C241.539 57.0418 241.231 57.0418 240.769 57.0418C240.923 57.0418 240.923 57.0418 240.769 57.0418Z" fill="black"/>
<path d="M240.769 57.0418C240.615 57.0418 240.307 57.0418 240.153 57.0418C239.999 57.0418 239.845 57.0418 239.691 57.0418C239.691 57.0418 239.383 57.0418 239.229 57.0418C239.229 57.0418 239.074 57.0418 238.92 57.0418C238.92 57.0418 238.766 57.0418 238.766 56.8877C238.766 56.8877 238.766 56.7335 238.766 56.5793C238.766 56.1168 238.766 55.5002 238.766 55.0377C238.766 54.8835 238.766 55.0377 238.766 54.8835C238.766 54.2668 238.766 53.6502 238.766 53.0335C238.766 52.2627 238.766 51.646 238.612 50.8752C238.612 50.5668 238.612 50.1043 238.612 49.796C238.612 49.6418 238.612 49.6418 238.766 49.6418H239.383C239.537 49.6418 239.845 49.6418 239.999 49.6418C240.307 49.6418 240.461 49.6418 240.769 49.6418H241.077C241.231 49.6418 241.231 49.6418 241.385 49.6418C241.539 49.6418 241.539 49.6418 241.539 49.796C241.539 49.796 241.539 49.796 241.385 49.796H241.231C241.077 49.796 240.923 49.796 240.923 49.796H240.769H240.615C240.461 49.796 240.153 49.796 239.999 49.796C239.691 49.796 239.383 49.796 239.074 49.796C238.92 49.796 238.612 49.796 238.612 49.796V49.9502C238.612 50.4127 238.612 51.0293 238.766 51.4918V53.496C238.766 53.496 238.92 53.496 239.074 53.496H239.229H239.537H239.845H240.153C240.307 53.496 240.307 53.496 240.461 53.496C240.769 53.496 241.077 53.6502 241.385 53.6502H241.539C241.693 53.6502 241.847 53.6502 241.847 53.8043V53.9585H241.693C241.385 53.9585 241.231 53.9585 240.923 53.9585C240.769 53.9585 240.461 53.8043 240.307 53.8043H239.845C239.845 53.8043 239.691 53.8043 239.537 53.8043C239.537 53.8043 239.537 53.8043 239.383 53.8043H239.074C239.074 53.9585 239.074 54.1127 239.074 54.2668C239.074 54.421 239.074 55.8085 239.074 55.9627C239.074 56.1168 239.074 56.5793 239.074 56.7335C239.383 56.7335 239.537 56.7335 239.845 56.7335C239.999 56.7335 239.999 56.7335 239.999 56.7335H241.231H241.693H242.155C242.155 56.7335 242.309 56.7335 242.309 56.8877C242.309 56.8877 242.309 56.8877 242.155 56.8877C242.001 56.8877 241.847 56.8877 241.693 56.8877C241.539 57.0418 241.231 57.0418 240.769 57.0418ZM240.769 57.0418C240.923 57.0418 240.923 57.0418 240.769 57.0418Z" stroke="#030000" stroke-width="0.75" stroke-miterlimit="10" stroke-linecap="round" stroke-linejoin="round"/>
<path d="M197.636 43.7835L197.482 43.6293L196.095 42.0876L195.941 41.9335C195.941 41.9335 195.941 41.9335 195.787 41.7793L195.633 41.6251L195.479 41.3168H195.633L196.711 41.6251H196.865L197.636 41.9335H197.944C197.79 41.6251 197.79 41.471 197.79 41.1626L197.636 40.8543C197.636 40.7001 197.636 40.7001 197.636 40.5459L197.482 40.0834L197.328 39.7751C197.328 39.7751 197.328 39.7751 197.328 39.6209L197.174 39.3126V39.1584C197.174 39.3126 197.328 39.3126 197.482 39.3126C197.636 39.4668 197.79 39.4668 197.944 39.6209L199.792 41.0084L200.255 41.3168C200.409 41.3168 200.409 41.4709 200.563 41.6251L200.409 41.4709C200.409 41.4709 200.255 41.4709 200.255 41.3168L199.33 40.7001L199.176 40.5459L197.944 39.6209L197.79 39.4668L197.482 39.3126C197.482 39.3126 197.328 39.3126 197.328 39.1584V39.3126V39.4668C197.328 39.7751 197.482 39.9293 197.482 40.2376C197.636 40.7001 197.636 41.0084 197.79 41.4709L197.944 41.7793C197.944 41.7793 198.098 41.9335 197.944 41.9335C197.944 41.9335 197.944 41.9335 197.79 41.9335C197.79 41.9335 197.636 41.9335 197.636 41.7793L196.865 41.4709C196.557 41.4709 196.403 41.3168 196.095 41.3168H195.941H195.787H195.633C195.787 41.4709 195.787 41.4709 195.941 41.6251C195.941 41.6251 196.095 41.7793 196.249 41.9335L197.636 43.7835C197.636 43.7835 197.79 43.7835 197.79 43.9376C197.944 44.0918 197.944 44.0918 198.098 44.246C198.098 44.246 197.944 44.0918 197.79 43.9376L197.636 43.7835Z" fill="black"/>
<path d="M197.636 43.7835L197.482 43.6293L196.095 42.0876L195.941 41.9335C195.941 41.9335 195.941 41.9335 195.787 41.7793L195.633 41.6251L195.479 41.3168H195.633L196.711 41.6251H196.865L197.636 41.9335H197.944C197.79 41.6251 197.79 41.471 197.79 41.1626L197.636 40.8543C197.636 40.7001 197.636 40.7001 197.636 40.5459L197.482 40.0834L197.328 39.7751C197.328 39.7751 197.328 39.7751 197.328 39.6209L197.174 39.3126V39.1584C197.174 39.3126 197.328 39.3126 197.482 39.3126C197.636 39.4668 197.79 39.4668 197.944 39.6209L199.792 41.0084L200.255 41.3168C200.409 41.3168 200.409 41.4709 200.563 41.6251L200.409 41.4709C200.409 41.4709 200.255 41.4709 200.255 41.3168L199.33 40.7001L199.176 40.5459L197.944 39.6209L197.79 39.4668L197.482 39.3126C197.482 39.3126 197.328 39.3126 197.328 39.1584V39.3126V39.4668C197.328 39.7751 197.482 39.9293 197.482 40.2376C197.636 40.7001 197.636 41.0084 197.79 41.4709L197.944 41.7793C197.944 41.7793 198.098 41.9335 197.944 41.9335C197.944 41.9335 197.944 41.9335 197.79 41.9335C197.79 41.9335 197.636 41.9335 197.636 41.7793L196.865 41.4709C196.557 41.4709 196.403 41.3168 196.095 41.3168H195.941H195.787H195.633C195.787 41.4709 195.787 41.4709 195.941 41.6251C195.941 41.6251 196.095 41.7793 196.249 41.9335L197.636 43.7835ZM197.636 43.7835C197.636 43.7835 197.79 43.7835 197.79 43.9376C197.944 44.0918 197.944 44.0918 198.098 44.246C198.098 44.246 197.944 44.0918 197.79 43.9376L197.636 43.7835Z" stroke="#030000" stroke-width="0.5" stroke-miterlimit="10" stroke-linecap="round" stroke-linejoin="round"/>
<path d="M200.255 39.6209C200.101 39.6209 200.101 39.4667 200.101 39.3126C199.792 38.8501 199.484 38.3876 199.484 37.7709V37.4626C199.484 37.1542 199.638 37.0001 199.792 36.6917L199.947 36.5376L200.101 36.3834H200.255C200.409 36.2292 200.563 36.2292 200.871 36.2292H201.025C201.179 36.2292 201.333 36.3834 201.487 36.3834C201.641 36.5376 201.949 36.5376 202.103 36.6917C202.257 36.8459 202.411 36.8459 202.411 37.0001L202.719 37.4626C202.719 37.6167 202.873 37.6167 202.873 37.6167C203.027 37.9251 203.027 38.0792 203.027 38.3876C203.027 38.5417 203.027 38.5417 203.027 38.6959V38.8501L202.873 39.0042C202.719 39.1584 202.565 39.4667 202.411 39.4667C202.257 39.6209 201.949 39.7751 201.641 39.7751H201.487L201.179 39.6209H201.025L200.871 39.4667C200.717 39.4667 200.717 39.3126 200.563 39.3126L200.255 39.6209ZM202.411 40.0834C202.565 39.9292 202.719 39.7751 202.873 39.4667C202.873 39.4667 203.027 39.3126 203.027 39.1584C203.027 38.8501 203.027 38.5417 202.873 38.2334C202.873 38.0792 202.873 37.9251 202.719 37.7709C202.565 37.4626 202.411 37.3084 202.257 37.1542C202.103 37.0001 201.949 36.8459 201.795 36.6917C201.641 36.5376 201.487 36.5376 201.333 36.3834C201.179 36.3834 201.025 36.3834 200.871 36.2292C200.717 36.2292 200.717 36.2292 200.563 36.2292C200.409 36.2292 200.409 36.2292 200.255 36.2292H200.101L199.947 36.3834L199.792 36.5376C199.638 36.6917 199.638 36.8459 199.484 37.1542C199.484 37.7709 199.638 38.2334 199.947 38.6959L200.101 39.0042C200.255 39.1584 200.409 39.4667 200.717 39.6209H200.871L201.179 39.7751H201.333C201.641 40.2376 202.103 40.3917 202.411 40.0834Z" fill="black" stroke="#030000" stroke-width="0.5" stroke-miterlimit="10" stroke-linecap="round" stroke-linejoin="round"/>
<path d="M205.954 36.6918L205.338 36.2293C205.184 36.2293 205.03 36.0752 204.876 35.921C204.568 35.7668 204.414 35.6127 204.106 35.4585C203.952 35.3043 203.798 35.1502 203.644 35.1502C203.489 35.1502 203.489 34.996 203.335 34.996C203.335 34.996 203.181 34.996 203.181 34.8418L202.873 34.6877C202.873 34.8418 203.027 34.8418 203.027 34.996C203.181 35.3043 203.335 35.6127 203.489 35.7668L203.644 36.0752C203.644 36.2293 203.798 36.2293 203.798 36.3835L204.568 37.771L204.722 37.9252L204.876 38.2335V38.0793L204.568 37.6168L204.414 37.4627L203.798 36.5377L203.489 36.0752C203.489 35.921 203.335 35.7668 203.181 35.6127C203.027 35.4585 203.027 35.3043 202.873 35.1502C202.873 34.996 202.719 34.996 202.719 34.8418C202.719 34.8418 202.873 34.996 203.027 34.996C203.181 34.996 203.335 35.1502 203.335 35.1502L204.26 35.7668C204.414 35.921 204.722 36.0752 204.876 36.2293L205.03 36.3835C205.338 36.5377 205.492 36.6918 205.8 36.846C205.954 37.0002 206.108 37.1543 206.262 37.1543C206.262 37.1543 206.262 37.1543 206.416 37.1543V37.0002C206.262 36.6918 206.108 36.5377 206.108 36.2293L205.954 36.0752L205.492 35.1502C205.338 34.8418 205.184 34.3793 204.876 33.9168V33.7627C204.876 33.7627 204.722 33.4543 204.876 33.4543V33.6085V33.7627C205.184 34.5335 205.646 35.3043 205.954 36.0752L206.262 36.5377C206.416 36.6918 206.416 36.846 206.57 37.0002C206.57 37.0002 206.57 37.1543 206.724 37.1543C206.57 37.0002 206.416 37.0002 206.416 36.846H206.262L205.954 36.6918Z" fill="black" stroke="#030000" stroke-width="0.5" stroke-miterlimit="10" stroke-linecap="round" stroke-linejoin="round"/>
<path d="M208.573 36.6918L208.265 36.8459V36.6918V36.5376C208.265 36.3834 208.265 36.3834 208.111 36.2293L207.803 35.3043C207.649 35.1501 207.649 34.8418 207.649 34.6876L207.495 34.2251L207.341 33.4543L207.187 32.9918V32.8376C207.187 32.8376 207.341 32.8376 207.341 32.6834L208.265 32.3751C208.265 32.3751 208.419 32.3751 208.573 32.2209H208.881C208.727 32.2209 208.727 32.2209 208.573 32.2209H208.419C207.957 32.3751 207.649 32.5293 207.187 32.5293C207.187 32.5293 207.033 32.5293 207.033 32.6834C207.187 32.9918 207.187 33.3001 207.341 33.4543C207.341 33.6084 207.341 33.7626 207.495 33.9168C207.495 34.0709 207.649 34.3793 207.649 34.5334C207.803 34.5334 207.957 34.3793 208.111 34.3793L208.727 34.2251C208.727 34.2251 208.881 34.2251 209.035 34.0709H209.189H209.497H209.343H209.189L208.881 34.2251H208.727C208.573 34.2251 208.419 34.3793 208.419 34.3793L207.957 34.5334L208.265 35.7668L208.419 36.0751V36.2293C208.419 36.2293 208.419 36.3834 208.573 36.3834C208.419 36.6918 208.419 36.5376 208.573 36.6918C208.573 36.5376 208.419 36.5376 208.573 36.6918C208.727 36.5376 208.573 36.5376 208.573 36.6918L208.727 36.5376C209.035 36.5376 209.189 36.3834 209.497 36.3834C209.651 36.3834 209.806 36.2293 209.806 36.2293C209.96 36.2293 210.114 36.0751 210.268 36.0751C210.268 36.0751 210.114 36.0751 209.96 36.0751C209.497 36.2293 209.035 36.2293 208.727 36.3834C208.727 36.5376 208.573 36.5376 208.573 36.6918Z" fill="black"/>
<path d="M208.573 36.6918L208.265 36.8459V36.6918V36.5376C208.265 36.3834 208.265 36.3834 208.111 36.2293L207.803 35.3043C207.649 35.1501 207.649 34.8418 207.649 34.6876L207.495 34.2251L207.341 33.4543L207.187 32.9918V32.8376C207.187 32.8376 207.341 32.8376 207.341 32.6834L208.265 32.3751C208.265 32.3751 208.419 32.3751 208.573 32.2209H208.881C208.727 32.2209 208.727 32.2209 208.573 32.2209H208.419C207.957 32.3751 207.649 32.5293 207.187 32.5293C207.187 32.5293 207.033 32.5293 207.033 32.6834C207.187 32.9918 207.187 33.3001 207.341 33.4543C207.341 33.6084 207.341 33.7626 207.495 33.9168C207.495 34.0709 207.649 34.3793 207.649 34.5334C207.803 34.5334 207.957 34.3793 208.111 34.3793L208.727 34.2251C208.727 34.2251 208.881 34.2251 209.035 34.0709H209.189H209.497H209.343H209.189L208.881 34.2251H208.727C208.573 34.2251 208.419 34.3793 208.419 34.3793L207.957 34.5334L208.265 35.7668L208.419 36.0751V36.2293C208.419 36.2293 208.419 36.3834 208.573 36.3834C208.419 36.6918 208.419 36.5376 208.573 36.6918ZM208.573 36.6918C208.419 36.5376 208.573 36.5376 208.573 36.6918ZM208.573 36.6918C208.573 36.5376 208.727 36.5376 208.573 36.6918ZM208.573 36.6918L208.727 36.5376C209.035 36.5376 209.189 36.3834 209.497 36.3834C209.651 36.3834 209.806 36.2293 209.806 36.2293C209.96 36.2293 210.114 36.0751 210.268 36.0751C210.268 36.0751 210.114 36.0751 209.96 36.0751C209.497 36.2293 209.035 36.2293 208.727 36.3834C208.727 36.5376 208.573 36.5376 208.573 36.6918Z" stroke="#030000" stroke-width="0.5" stroke-miterlimit="10" stroke-linecap="round" stroke-linejoin="round"/>
<path d="M212.116 35.7667C212.116 35.6126 212.116 35.6126 212.116 35.4584V35.3042V34.9959C212.116 34.6876 212.27 34.2251 212.424 33.9167L212.27 33.7626L212.116 33.6084C212.116 33.4542 211.962 33.4542 211.808 33.3001L211.654 33.1459L211.192 32.5292C211.038 32.3751 211.038 32.2209 210.884 32.0667C210.884 31.9126 210.729 31.9126 210.729 31.7584C210.729 31.7584 210.729 31.7584 210.729 31.6042C210.729 31.7584 210.884 31.9126 210.884 31.9126C211.038 32.0667 211.038 32.0667 211.192 32.2209L211.5 32.5292C211.5 32.5292 211.654 32.6834 211.654 32.8376L211.808 32.9917C211.808 32.9917 211.962 33.3001 212.116 33.3001L212.27 33.4542C212.27 33.4542 212.424 33.1459 212.424 32.9917V32.8376L212.578 32.5292L212.732 32.0667C212.732 32.0667 212.732 32.0667 212.732 31.9126C212.732 31.6042 212.886 31.4501 212.886 31.2959C212.886 31.6042 212.732 31.9126 212.732 32.2209C212.732 32.3751 212.732 32.5292 212.732 32.5292L212.116 34.9959C212.116 35.1501 211.962 35.4584 212.116 35.7667C212.116 35.9209 212.116 35.9209 212.116 35.7667Z" fill="black"/>
<path d="M212.116 35.7667C212.116 35.6126 212.116 35.6126 212.116 35.4584V35.3042V34.9959C212.116 34.6876 212.27 34.2251 212.424 33.9167L212.27 33.7626L212.116 33.6084C212.116 33.4542 211.962 33.4542 211.808 33.3001L211.654 33.1459L211.192 32.5292C211.038 32.3751 211.038 32.2209 210.884 32.0667C210.884 31.9126 210.729 31.9126 210.729 31.7584C210.729 31.7584 210.729 31.7584 210.729 31.6042C210.729 31.7584 210.884 31.9126 210.884 31.9126C211.038 32.0667 211.038 32.0667 211.192 32.2209L211.5 32.5292C211.5 32.5292 211.654 32.6834 211.654 32.8376L211.808 32.9917C211.808 32.9917 211.962 33.3001 212.116 33.3001L212.27 33.4542C212.27 33.4542 212.424 33.1459 212.424 32.9917V32.8376L212.578 32.5292L212.732 32.0667C212.732 32.0667 212.732 32.0667 212.732 31.9126C212.732 31.6042 212.886 31.4501 212.886 31.2959C212.886 31.6042 212.732 31.9126 212.732 32.2209C212.732 32.3751 212.732 32.5292 212.732 32.5292L212.116 34.9959C212.116 35.1501 211.962 35.4584 212.116 35.7667ZM212.116 35.7667C212.116 35.9209 212.116 35.9209 212.116 35.7667Z" stroke="#030000" stroke-width="0.5" stroke-miterlimit="10" stroke-linecap="round" stroke-linejoin="round"/>
<path d="M218.278 35.9208V35.7667C218.278 35.6125 218.432 35.4583 218.432 35.3042C218.586 34.8417 218.586 34.5333 218.74 34.0708C218.74 33.7625 218.894 33.3 219.048 32.9917L219.202 32.375V32.2208C219.51 32.2208 219.664 32.375 219.972 32.375C219.972 32.375 220.126 32.375 220.126 32.5292C220.28 32.5292 220.434 32.6833 220.434 32.6833L220.589 32.8375C220.743 33.1458 220.743 33.4542 220.589 33.7625C220.434 34.0708 220.434 34.225 220.126 34.3792C219.972 34.3792 219.818 34.5333 219.664 34.3792C219.51 34.3792 219.51 34.3792 219.356 34.3792C219.356 34.3792 219.51 34.3792 219.51 34.5333C219.664 34.5333 219.818 34.6875 219.818 34.8417C219.972 35.15 220.126 35.7667 220.126 36.075C220.126 36.075 220.126 36.2292 219.972 36.2292C219.972 36.2292 219.972 36.3833 219.818 36.3833C219.664 36.3833 219.664 36.5375 219.51 36.5375C219.356 36.5375 219.356 36.5375 219.202 36.5375H219.048H218.894H218.74C218.586 36.5375 218.586 36.5375 218.432 36.5375H218.278C218.124 36.5375 218.124 36.5375 217.97 36.3833C218.278 36.2292 218.124 36.075 218.278 35.9208C218.278 35.9208 218.278 36.075 218.278 35.9208ZM218.278 36.075C218.432 36.075 218.432 36.075 218.278 36.075C218.432 36.2292 218.586 36.2292 218.586 36.2292H218.74C218.894 36.2292 218.894 36.2292 219.048 36.2292C219.202 36.2292 219.356 36.2292 219.51 36.2292C219.818 36.2292 219.972 36.075 220.126 35.7667C220.28 35.4583 220.126 34.8417 219.818 34.5333C219.664 34.3792 219.664 34.3792 219.51 34.3792C219.356 34.3792 219.356 34.225 219.202 34.225H218.894H218.74V34.3792C218.586 34.6875 218.586 35.15 218.432 35.4583C218.432 35.6125 218.432 35.6125 218.278 35.7667C218.432 35.7667 218.432 35.9208 218.278 36.075C218.278 36.075 218.278 35.9208 218.278 36.075ZM218.894 34.0708C219.51 34.225 220.28 34.3792 220.743 33.9167C220.743 33.7625 220.743 33.7625 220.897 33.6083C220.897 33.3 220.897 32.9917 220.743 32.6833C220.743 32.6833 220.743 32.5292 220.589 32.5292C220.434 32.5292 220.434 32.375 220.28 32.375H220.126L219.818 32.2208L219.356 32.0667L219.202 32.5292C219.202 32.6833 219.202 32.8375 219.048 32.9917C219.048 33.1458 218.894 33.4542 218.894 33.6083C218.894 33.9167 218.894 33.9167 218.894 34.0708Z" fill="black"/>
<path d="M218.278 35.9208V35.7667C218.278 35.6125 218.432 35.4583 218.432 35.3042C218.586 34.8417 218.586 34.5333 218.74 34.0708C218.74 33.7625 218.894 33.3 219.048 32.9917L219.202 32.375V32.2208C219.51 32.2208 219.664 32.375 219.972 32.375C219.972 32.375 220.126 32.375 220.126 32.5292C220.28 32.5292 220.434 32.6833 220.434 32.6833L220.589 32.8375C220.743 33.1458 220.743 33.4542 220.589 33.7625C220.434 34.0708 220.434 34.225 220.126 34.3792C219.972 34.3792 219.818 34.5333 219.664 34.3792C219.51 34.3792 219.51 34.3792 219.356 34.3792C219.356 34.3792 219.51 34.3792 219.51 34.5333C219.664 34.5333 219.818 34.6875 219.818 34.8417C219.972 35.15 220.126 35.7667 220.126 36.075C220.126 36.075 220.126 36.2292 219.972 36.2292C219.972 36.2292 219.972 36.3833 219.818 36.3833C219.664 36.3833 219.664 36.5375 219.51 36.5375C219.356 36.5375 219.356 36.5375 219.202 36.5375H219.048H218.894H218.74C218.586 36.5375 218.586 36.5375 218.432 36.5375H218.278C218.124 36.5375 218.124 36.5375 217.97 36.3833C218.278 36.2292 218.124 36.075 218.278 35.9208ZM218.278 35.9208C218.278 36.075 218.278 35.9208 218.278 35.9208ZM218.278 36.075C218.432 36.075 218.432 36.075 218.278 36.075C218.432 36.2292 218.586 36.2292 218.586 36.2292H218.74C218.894 36.2292 218.894 36.2292 219.048 36.2292C219.202 36.2292 219.356 36.2292 219.51 36.2292C219.818 36.2292 219.972 36.075 220.126 35.7667C220.28 35.4583 220.126 34.8417 219.818 34.5333C219.664 34.3792 219.664 34.3792 219.51 34.3792C219.356 34.3792 219.356 34.225 219.202 34.225H218.894H218.74V34.3792C218.586 34.6875 218.586 35.15 218.432 35.4583C218.432 35.6125 218.432 35.6125 218.278 35.7667C218.432 35.7667 218.432 35.9208 218.278 36.075ZM218.278 36.075C218.278 35.9208 218.278 36.075 218.278 36.075ZM218.894 34.0708C219.51 34.225 220.28 34.3792 220.743 33.9167C220.743 33.7625 220.743 33.7625 220.897 33.6083C220.897 33.3 220.897 32.9917 220.743 32.6833C220.743 32.6833 220.743 32.5292 220.589 32.5292C220.434 32.5292 220.434 32.375 220.28 32.375H220.126L219.818 32.2208L219.356 32.0667L219.202 32.5292C219.202 32.6833 219.202 32.8375 219.048 32.9917C219.048 33.1458 218.894 33.4542 218.894 33.6083C218.894 33.9167 218.894 33.9167 218.894 34.0708Z" stroke="#030000" stroke-width="0.5" stroke-miterlimit="10" stroke-linecap="round" stroke-linejoin="round"/>
<path d="M221.051 36.8459C221.513 36.5376 221.821 36.0751 222.283 35.7667L222.437 35.6126L222.591 35.4584L223.207 34.8417L223.669 34.5334L223.977 34.2251C223.977 34.2251 224.131 34.2251 224.131 34.0709L224.285 33.9167V34.0709C224.285 34.3792 224.131 34.5334 224.131 34.8417V34.9959L223.977 35.7667V35.9209L223.823 36.2292C223.823 36.3834 223.823 36.5376 223.669 36.5376L223.515 37.1542V37.3084V37.4626V37.6167V37.7709C223.515 37.7709 223.515 37.7709 223.515 37.6167V37.4626V37.3084L223.823 36.5376L223.361 36.2292C223.053 36.0751 222.745 35.9209 222.437 35.7667L222.283 35.9209L221.975 36.2292C221.359 36.6917 221.205 36.8459 221.051 36.8459C220.896 37.0001 220.896 37.1542 220.896 37.0001C220.896 36.8459 221.051 36.8459 221.051 36.8459ZM223.515 36.6917L223.977 34.6876C223.977 34.5334 224.131 34.2251 224.131 34.0709V33.9167C223.977 34.0709 223.823 34.2251 223.669 34.3792L223.053 34.8417L222.437 35.4584C222.283 35.6126 222.283 35.6126 222.129 35.7667L222.745 36.0751H222.899C223.207 36.5376 223.361 36.6917 223.515 36.6917Z" fill="black"/>
<path d="M221.051 36.8459C221.513 36.5376 221.821 36.0751 222.283 35.7667L222.437 35.6126L222.591 35.4584L223.207 34.8417L223.669 34.5334L223.977 34.2251C223.977 34.2251 224.131 34.2251 224.131 34.0709L224.285 33.9167V34.0709C224.285 34.3792 224.131 34.5334 224.131 34.8417V34.9959L223.977 35.7667V35.9209L223.823 36.2292C223.823 36.3834 223.823 36.5376 223.669 36.5376L223.515 37.1542V37.3084V37.4626V37.6167V37.7709C223.515 37.7709 223.515 37.7709 223.515 37.6167V37.4626V37.3084L223.823 36.5376L223.361 36.2292C223.053 36.0751 222.745 35.9209 222.437 35.7667L222.283 35.9209L221.975 36.2292C221.359 36.6917 221.205 36.8459 221.051 36.8459ZM221.051 36.8459C220.896 37.0001 220.896 37.1542 220.896 37.0001C220.896 36.8459 221.051 36.8459 221.051 36.8459ZM223.515 36.6917L223.977 34.6876C223.977 34.5334 224.131 34.2251 224.131 34.0709V33.9167C223.977 34.0709 223.823 34.2251 223.669 34.3792L223.053 34.8417L222.437 35.4584C222.283 35.6126 222.283 35.6126 222.129 35.7667L222.745 36.0751H222.899C223.207 36.5376 223.361 36.6917 223.515 36.6917Z" stroke="#030000" stroke-width="0.5" stroke-miterlimit="10" stroke-linecap="round" stroke-linejoin="round"/>
<path d="M225.364 37.0001C225.672 36.6917 225.98 36.3834 226.442 36.2292H226.596H226.904C227.212 36.2292 227.366 36.2292 227.674 36.2292H227.828L228.137 36.3834C228.137 36.3834 228.137 36.3834 228.291 36.3834L228.445 36.5376C228.753 36.6917 228.907 37.0001 228.907 37.3084C228.907 37.4626 228.907 37.4626 228.907 37.6167C228.907 37.6167 228.907 37.6167 228.907 37.4626C228.907 37.3084 228.907 37.0001 228.753 36.8459L228.599 36.6917L228.291 36.5376H228.137C227.983 36.5376 227.983 36.5376 227.828 36.3834C227.674 36.3834 227.52 36.3834 227.212 36.3834C227.058 36.3834 226.904 36.3834 226.75 36.5376C226.134 36.5376 225.672 36.6917 225.364 37.0001C225.056 37.4626 224.748 37.7709 224.748 38.2334C224.748 38.3876 224.748 38.5417 224.748 38.5417C224.902 39.0042 225.056 39.3126 225.364 39.6209C225.672 39.9292 226.288 40.2376 226.75 40.0834C226.75 40.0834 226.904 40.0834 226.904 39.9292C226.904 39.9292 227.058 39.9292 227.058 39.7751C227.058 39.7751 227.212 39.7751 227.212 39.6209C227.212 39.6209 227.212 39.6209 227.366 39.6209L227.212 39.7751L226.904 39.9292C226.75 39.9292 226.596 39.9292 226.442 39.9292H226.288C226.134 39.9292 225.826 39.7751 225.672 39.6209C225.518 39.6209 225.518 39.4667 225.364 39.4667L225.21 39.3126C225.21 39.1584 225.056 39.1584 225.056 39.0042C224.902 38.6959 224.748 38.3876 224.748 37.9251V37.7709L224.902 37.4626V37.3084C225.056 37.4626 225.21 37.3084 225.364 37.0001Z" fill="black"/>
<path d="M225.364 37.0001C225.672 36.6917 225.98 36.3834 226.442 36.2292H226.596H226.904C227.212 36.2292 227.366 36.2292 227.674 36.2292H227.828L228.137 36.3834C228.137 36.3834 228.137 36.3834 228.291 36.3834L228.445 36.5376C228.753 36.6917 228.907 37.0001 228.907 37.3084C228.907 37.4626 228.907 37.4626 228.907 37.6167C228.907 37.6167 228.907 37.6167 228.907 37.4626C228.907 37.3084 228.907 37.0001 228.753 36.8459L228.599 36.6917L228.291 36.5376H228.137C227.983 36.5376 227.983 36.5376 227.828 36.3834C227.674 36.3834 227.52 36.3834 227.212 36.3834C227.058 36.3834 226.904 36.3834 226.75 36.5376C226.134 36.5376 225.672 36.6917 225.364 37.0001ZM225.364 37.0001C225.056 37.4626 224.748 37.7709 224.748 38.2334C224.748 38.3876 224.748 38.5417 224.748 38.5417C224.902 39.0042 225.056 39.3126 225.364 39.6209C225.672 39.9292 226.288 40.2376 226.75 40.0834C226.75 40.0834 226.904 40.0834 226.904 39.9292C226.904 39.9292 227.058 39.9292 227.058 39.7751C227.058 39.7751 227.212 39.7751 227.212 39.6209C227.212 39.6209 227.212 39.6209 227.366 39.6209L227.212 39.7751L226.904 39.9292C226.75 39.9292 226.596 39.9292 226.442 39.9292H226.288C226.134 39.9292 225.826 39.7751 225.672 39.6209C225.518 39.6209 225.518 39.4667 225.364 39.4667L225.21 39.3126C225.21 39.1584 225.056 39.1584 225.056 39.0042C224.902 38.6959 224.748 38.3876 224.748 37.9251V37.7709L224.902 37.4626V37.3084C225.056 37.4626 225.21 37.3084 225.364 37.0001Z" stroke="#030000" stroke-width="0.5" stroke-miterlimit="10" stroke-linecap="round" stroke-linejoin="round"/>
<path d="M228.753 40.7001C228.599 40.8543 228.29 41.0085 228.136 41.1626C227.982 41.3168 227.828 41.471 227.52 41.6251H227.366L227.52 41.471L227.828 41.3168C228.136 41.0084 228.445 40.8543 228.907 40.5459L229.061 40.3918C229.523 40.0835 229.831 39.7751 230.293 39.4668C230.447 39.4668 230.447 39.3126 230.601 39.1584L230.447 39.3126L230.293 39.4668C229.831 39.7751 229.523 40.0835 229.061 40.3918C229.215 40.3918 229.061 40.5459 228.753 40.7001C228.907 40.5459 229.061 40.7001 229.215 40.7001H229.677C229.831 40.7001 229.831 40.7001 229.985 40.7001C230.139 40.7001 230.293 40.7001 230.447 40.7001C230.601 40.7001 230.601 40.7001 230.755 40.7001H231.217C231.371 40.7001 231.371 40.7001 231.525 40.7001H232.142C232.142 40.7001 231.988 40.7001 231.834 40.7001C231.68 40.7001 231.525 40.7001 231.371 40.7001C231.217 40.7001 231.217 40.7001 231.217 40.7001H230.601C230.601 40.7001 230.601 40.7001 230.447 40.7001C230.293 40.7001 230.139 40.7001 229.985 40.7001H229.831C229.523 40.7001 229.369 40.7001 229.061 40.7001H228.753C228.907 40.7001 228.907 40.7001 228.753 40.7001C228.753 40.8543 228.753 41.0085 228.753 41.1626C228.753 41.3168 228.753 41.3168 228.753 41.471C228.753 41.7793 228.753 42.0876 228.599 42.396V42.5501V42.7043V43.0126V43.1668V42.8585C228.599 42.7043 228.599 42.396 228.599 42.2418C228.599 42.0876 228.599 42.0876 228.599 41.9335C228.599 41.7793 228.599 41.7793 228.599 41.6251V41.3168V41.1626V41.0085C228.753 41.0085 228.753 40.7001 228.753 40.7001Z" fill="black"/>
<path d="M228.753 40.7001C228.599 40.8543 228.29 41.0085 228.136 41.1626C227.982 41.3168 227.828 41.471 227.52 41.6251H227.366L227.52 41.471L227.828 41.3168C228.136 41.0084 228.445 40.8543 228.907 40.5459L229.061 40.3918C229.523 40.0835 229.831 39.7751 230.293 39.4668C230.447 39.4668 230.447 39.3126 230.601 39.1584L230.447 39.3126L230.293 39.4668C229.831 39.7751 229.523 40.0835 229.061 40.3918C229.215 40.3918 229.061 40.5459 228.753 40.7001ZM228.753 40.7001C228.907 40.5459 229.061 40.7001 229.215 40.7001H229.677C229.831 40.7001 229.831 40.7001 229.985 40.7001C230.139 40.7001 230.293 40.7001 230.447 40.7001C230.601 40.7001 230.601 40.7001 230.755 40.7001H231.217C231.371 40.7001 231.371 40.7001 231.525 40.7001H232.142C232.142 40.7001 231.988 40.7001 231.834 40.7001C231.68 40.7001 231.525 40.7001 231.371 40.7001C231.217 40.7001 231.217 40.7001 231.217 40.7001H230.601C230.601 40.7001 230.601 40.7001 230.447 40.7001C230.293 40.7001 230.139 40.7001 229.985 40.7001H229.831C229.523 40.7001 229.369 40.7001 229.061 40.7001H228.753ZM228.753 40.7001C228.907 40.7001 228.907 40.7001 228.753 40.7001ZM228.753 40.7001C228.753 40.8543 228.753 41.0085 228.753 41.1626C228.753 41.3168 228.753 41.3168 228.753 41.471C228.753 41.7793 228.753 42.0876 228.599 42.396V42.5501V42.7043V43.0126V43.1668V42.8585C228.599 42.7043 228.599 42.396 228.599 42.2418C228.599 42.0876 228.599 42.0876 228.599 41.9335C228.599 41.7793 228.599 41.7793 228.599 41.6251V41.3168V41.1626V41.0085C228.753 41.0085 228.753 40.7001 228.753 40.7001Z" stroke="#030000" stroke-width="0.5" stroke-miterlimit="10" stroke-linecap="round" stroke-linejoin="round"/>
<path d="M195.479 67.2159L195.633 67.0618L197.174 65.6743C197.174 65.6743 197.328 65.5201 197.482 65.5201C197.482 65.5201 197.482 65.5201 197.636 65.366L197.79 65.2118L198.098 65.0576V65.2118L197.79 66.2909V66.4451L197.482 67.2159L197.328 67.3701C197.636 67.2159 197.79 67.2159 198.098 67.2159L198.406 67.0618C198.56 67.0618 198.56 67.0618 198.714 67.0618L199.176 66.9076L199.484 66.7534C199.484 66.7534 199.484 66.7534 199.638 66.7534C199.638 66.7534 199.947 66.7534 199.947 66.5993H200.101C199.947 66.5993 199.947 66.7534 199.947 66.9076C199.793 67.0618 199.793 67.2159 199.638 67.3701L198.252 69.2201L197.944 69.6826C197.944 69.8368 197.79 69.8368 197.636 69.9909L197.79 69.8368C197.79 69.8368 197.79 69.6826 197.944 69.6826L198.714 68.7576L198.868 68.6034L199.793 67.3701L199.947 67.2159C199.947 67.2159 200.101 66.9076 200.255 66.9076C200.255 66.9076 200.255 66.7534 200.409 66.7534H200.255H200.101C199.793 66.7534 199.638 66.9076 199.33 66.9076C198.868 67.0618 198.56 67.0618 198.098 67.2159L197.79 67.3701C197.79 67.3701 197.636 67.5243 197.636 67.3701C197.636 67.3701 197.636 67.3701 197.636 67.2159C197.636 67.2159 197.636 67.0618 197.79 67.0618L198.098 66.2909C198.098 65.9826 198.252 65.8284 198.406 65.5201V65.366V65.2118V65.0576C198.252 65.2118 198.252 65.2118 198.098 65.366C197.944 65.366 197.944 65.5201 197.79 65.6743L195.479 67.2159C195.479 67.2159 195.479 67.3701 195.325 67.3701C195.171 67.5243 195.017 67.5243 195.017 67.6784C195.017 67.6784 195.171 67.5243 195.325 67.5243L195.479 67.2159Z" fill="black"/>
<path d="M195.479 67.2159L195.633 67.0618L197.174 65.6743C197.174 65.6743 197.328 65.5201 197.482 65.5201C197.482 65.5201 197.482 65.5201 197.636 65.366L197.79 65.2118L198.098 65.0576V65.2118L197.79 66.2909V66.4451L197.482 67.2159L197.328 67.3701C197.636 67.2159 197.79 67.2159 198.098 67.2159L198.406 67.0618C198.56 67.0618 198.56 67.0618 198.714 67.0618L199.176 66.9076L199.484 66.7534C199.484 66.7534 199.484 66.7534 199.638 66.7534C199.638 66.7534 199.947 66.7534 199.947 66.5993H200.101C199.947 66.5993 199.947 66.7534 199.947 66.9076C199.793 67.0618 199.793 67.2159 199.638 67.3701L198.252 69.2201L197.944 69.6826C197.944 69.8368 197.79 69.8368 197.636 69.9909L197.79 69.8368C197.79 69.8368 197.79 69.6826 197.944 69.6826L198.714 68.7576L198.868 68.6034L199.793 67.3701L199.947 67.2159C199.947 67.2159 200.101 66.9076 200.255 66.9076C200.255 66.9076 200.255 66.7534 200.409 66.7534H200.255H200.101C199.793 66.7534 199.638 66.9076 199.33 66.9076C198.868 67.0618 198.56 67.0618 198.098 67.2159L197.79 67.3701C197.79 67.3701 197.636 67.5243 197.636 67.3701C197.636 67.3701 197.636 67.3701 197.636 67.2159C197.636 67.2159 197.636 67.0618 197.79 67.0618L198.098 66.2909C198.098 65.9826 198.252 65.8284 198.406 65.5201V65.366V65.2118V65.0576C198.252 65.2118 198.252 65.2118 198.098 65.366C197.944 65.366 197.944 65.5201 197.79 65.6743L195.479 67.2159ZM195.479 67.2159C195.479 67.2159 195.479 67.3701 195.325 67.3701C195.171 67.5243 195.017 67.5243 195.017 67.6784C195.017 67.6784 195.171 67.5243 195.325 67.5243L195.479 67.2159Z" stroke="#030000" stroke-width="0.5" stroke-miterlimit="10" stroke-linecap="round" stroke-linejoin="round"/>
<path d="M199.792 69.6835C199.792 69.5294 199.947 69.5293 199.947 69.3752C200.255 68.9127 200.717 68.4502 201.179 68.296L201.487 68.1418C201.641 68.1418 202.103 68.1418 202.257 68.296C202.257 68.296 202.411 68.296 202.411 68.4502C202.411 68.4502 202.565 68.4502 202.565 68.6043C202.565 68.6043 202.565 68.6043 202.565 68.7585C202.719 68.9127 202.719 69.0669 202.873 69.221V69.3752C202.873 69.5293 202.873 69.6835 202.873 69.8377C202.873 70.146 202.719 70.3002 202.719 70.4544C202.719 70.6085 202.565 70.7627 202.565 70.9169L202.257 71.3794L202.103 71.5335C201.949 71.6877 201.641 71.8419 201.333 71.996C201.179 71.996 201.179 72.1502 201.025 72.1502H200.871H200.563C200.409 72.1502 200.101 71.996 199.947 71.8419C199.638 71.6877 199.484 71.5335 199.484 71.2252V71.071V70.7627V70.6085V70.4544C199.484 70.3002 199.484 70.3002 199.638 70.146L199.792 69.6835ZM200.101 71.8419C200.409 71.996 200.563 71.996 200.871 72.1502C201.025 72.1502 201.025 72.1502 201.179 72.1502C201.487 72.1502 201.795 71.996 201.949 71.8419C202.103 71.6877 202.257 71.6877 202.257 71.5335C202.411 71.3794 202.565 71.071 202.719 70.9169C202.873 70.7627 202.873 70.4544 203.027 70.3002C203.027 70.146 203.181 69.9919 203.181 69.8377C203.181 69.6835 203.181 69.5293 203.181 69.3752C203.181 69.221 203.181 69.221 203.027 69.0668C203.027 68.9127 203.027 68.9127 202.873 68.7585C202.873 68.7585 202.873 68.6043 202.719 68.6043L202.565 68.4502C202.565 68.4502 202.411 68.4502 202.411 68.296C202.257 68.296 201.949 68.296 201.795 68.296C201.179 68.4502 200.871 68.7585 200.409 69.221L200.255 69.5293C200.101 69.6835 199.947 69.9918 199.947 70.3002V70.4544V70.7627V70.9169C199.638 71.2252 199.638 71.5335 200.101 71.8419Z" fill="black" stroke="#030000" stroke-width="0.5" stroke-miterlimit="10" stroke-linecap="round" stroke-linejoin="round"/>
<path d="M205.03 73.5375V72.7667C205.03 72.6125 205.03 72.3042 205.03 72.3042C205.03 71.9959 205.03 71.6875 205.03 71.3792C205.03 71.225 205.03 70.9167 205.03 70.7625C205.03 70.6084 205.03 70.6084 205.03 70.4542V70.3V69.9917C205.03 70.1459 204.876 70.1458 204.876 70.3C204.722 70.6083 204.568 70.9167 204.568 71.0708L204.414 71.3792C204.414 71.5334 204.414 71.5334 204.26 71.6875L203.644 73.075V73.2292L203.49 73.5375V73.3834L203.644 72.9209C203.644 72.7667 203.644 72.7667 203.798 72.6125L204.26 71.5334L204.414 71.0708C204.568 70.9167 204.568 70.7625 204.568 70.6083C204.722 70.4542 204.722 70.3 204.876 69.9917C204.876 69.8375 204.876 69.8375 205.03 69.6833C205.03 69.8375 205.03 69.9917 205.03 69.9917C205.03 70.1459 205.03 70.3 205.03 70.3V71.5334C205.03 71.8417 205.03 71.9959 205.03 72.3042V72.4584C205.03 72.7667 205.03 73.075 205.03 73.5375C205.03 73.5375 205.03 73.8459 205.03 74V74.1542V74C205.184 73.6917 205.184 73.5375 205.338 73.2292L205.492 73.075L205.954 72.15C206.109 71.8417 206.417 71.3792 206.571 71.0708V70.9167C206.571 70.9167 206.725 70.6084 206.725 70.7625V70.9167C206.725 70.9167 206.725 71.0708 206.571 71.0708C206.109 71.8417 205.8 72.6125 205.492 73.3834L205.184 74C205.184 74.1542 205.03 74.3084 205.03 74.4625V74.6167C205.03 74.4625 205.03 74.3084 205.03 74.1542V74V73.5375Z" fill="black"/>
<path d="M205.03 73.5375V72.7667C205.03 72.6125 205.03 72.3042 205.03 72.3042C205.03 71.9959 205.03 71.6875 205.03 71.3792C205.03 71.225 205.03 70.9167 205.03 70.7625C205.03 70.6084 205.03 70.6084 205.03 70.4542V70.3V69.9917C205.03 70.1459 204.876 70.1458 204.876 70.3C204.722 70.6083 204.568 70.9167 204.568 71.0708L204.414 71.3792C204.414 71.5334 204.414 71.5334 204.26 71.6875L203.644 73.075V73.2292L203.49 73.5375V73.3834L203.644 72.9209C203.644 72.7667 203.644 72.7667 203.798 72.6125L204.26 71.5334L204.414 71.0708C204.568 70.9167 204.568 70.7625 204.568 70.6083C204.722 70.4542 204.722 70.3 204.876 69.9917C204.876 69.8375 204.876 69.8375 205.03 69.6833C205.03 69.8375 205.03 69.9917 205.03 69.9917C205.03 70.1459 205.03 70.3 205.03 70.3V71.5334C205.03 71.8417 205.03 71.9959 205.03 72.3042V72.4584C205.03 72.7667 205.03 73.075 205.03 73.5375ZM205.03 73.5375C205.03 73.5375 205.03 73.8459 205.03 74V74.1542V74C205.184 73.6917 205.184 73.5375 205.338 73.2292L205.492 73.075L205.954 72.15C206.109 71.8417 206.417 71.3792 206.571 71.0708V70.9167C206.571 70.9167 206.725 70.6084 206.725 70.7625V70.9167C206.725 70.9167 206.725 71.0708 206.571 71.0708C206.109 71.8417 205.8 72.6125 205.492 73.3834L205.184 74C205.184 74.1542 205.03 74.3084 205.03 74.4625V74.6167C205.03 74.4625 205.03 74.3084 205.03 74.1542V74V73.5375Z" stroke="#030000" stroke-width="0.5" stroke-miterlimit="10" stroke-linecap="round" stroke-linejoin="round"/>
<path d="M207.341 75.3876L207.033 75.2334V75.0793V74.9251C207.033 74.7709 207.033 74.7709 207.033 74.6168L207.341 73.6918C207.341 73.5376 207.495 73.2293 207.495 73.0751L207.649 72.6126L207.803 71.8418L207.957 71.3793V71.2251H208.111L209.035 71.5334C209.189 71.5334 209.189 71.5334 209.343 71.5334L209.651 71.6876C209.497 71.6876 209.497 71.5334 209.343 71.5334H209.189C208.727 71.3793 208.419 71.2251 207.957 71.2251H207.803C207.803 71.5334 207.649 71.8418 207.649 71.9959C207.649 72.1501 207.495 72.3043 207.495 72.4584C207.495 72.6126 207.341 72.9209 207.341 73.0751C207.495 73.0751 207.649 73.0751 207.803 73.2293L208.419 73.3834C208.419 73.3834 208.573 73.3834 208.727 73.3834H208.881L209.189 73.5376C209.189 73.5376 209.035 73.5376 209.035 73.3834H208.881H208.573H208.419C208.265 73.3834 208.111 73.3834 207.957 73.2293L207.495 73.0751L207.187 74.3084L207.033 74.6168V74.7709V74.9251C207.033 75.2334 207.187 75.3876 207.341 75.3876C207.187 75.3876 207.187 75.3876 207.341 75.3876H207.495C207.803 75.3876 207.957 75.5418 208.265 75.6959C208.419 75.6959 208.573 75.6959 208.573 75.8501C208.727 75.8501 208.881 76.0043 209.035 76.0043C209.035 76.0043 208.881 76.0043 208.881 75.8501C208.419 75.6959 208.111 75.5418 207.649 75.3876C207.341 75.5418 207.341 75.3876 207.341 75.3876Z" fill="black"/>
<path d="M207.341 75.3876L207.033 75.2334V75.0793V74.9251C207.033 74.7709 207.033 74.7709 207.033 74.6168L207.341 73.6918C207.341 73.5376 207.495 73.2293 207.495 73.0751L207.649 72.6126L207.803 71.8418L207.957 71.3793V71.2251H208.111L209.035 71.5334C209.189 71.5334 209.189 71.5334 209.343 71.5334L209.651 71.6876C209.497 71.6876 209.497 71.5334 209.343 71.5334H209.189C208.727 71.3793 208.419 71.2251 207.957 71.2251H207.803C207.803 71.5334 207.649 71.8418 207.649 71.9959C207.649 72.1501 207.495 72.3043 207.495 72.4584C207.495 72.6126 207.341 72.9209 207.341 73.0751C207.495 73.0751 207.649 73.0751 207.803 73.2293L208.419 73.3834C208.419 73.3834 208.573 73.3834 208.727 73.3834H208.881L209.189 73.5376C209.189 73.5376 209.035 73.5376 209.035 73.3834H208.881H208.573H208.419C208.265 73.3834 208.111 73.3834 207.957 73.2293L207.495 73.0751L207.187 74.3084L207.033 74.6168V74.7709V74.9251C207.033 75.2334 207.187 75.3876 207.341 75.3876ZM207.341 75.3876C207.187 75.3876 207.187 75.3876 207.341 75.3876ZM207.341 75.3876H207.495C207.803 75.3876 207.957 75.5418 208.265 75.6959C208.419 75.6959 208.573 75.6959 208.573 75.8501C208.727 75.8501 208.881 76.0043 209.035 76.0043C209.035 76.0043 208.881 76.0043 208.881 75.8501C208.419 75.6959 208.111 75.5418 207.649 75.3876C207.341 75.5418 207.341 75.3876 207.341 75.3876Z" stroke="#030000" stroke-width="0.5" stroke-miterlimit="10" stroke-linecap="round" stroke-linejoin="round"/>
<path d="M211.346 76.3127C211.346 76.1585 211.346 76.1585 211.5 76.1585V76.0043C211.5 76.0043 211.654 75.8502 211.654 75.696C211.808 75.3877 211.962 75.0793 212.116 74.771C212.116 74.771 212.116 74.6168 211.962 74.4627L211.808 74.1543C211.808 74.0001 211.654 74.0002 211.654 73.846V73.6918L211.346 73.0752C211.346 72.921 211.192 72.7668 211.192 72.6126C211.192 72.4585 211.192 72.4585 211.038 72.3043V72.1501C211.038 72.3043 211.192 72.4585 211.192 72.4585C211.192 72.6126 211.346 72.7668 211.346 72.921L211.5 73.2293C211.5 73.2293 211.654 73.3835 211.654 73.5377L211.808 73.6918L211.962 74.0002V74.1543C211.962 74.1543 212.116 74.3085 212.116 74.4627C212.116 74.4627 212.27 74.1543 212.27 74.0002V73.846L212.424 73.5377L212.578 73.0752C212.578 73.0752 212.578 73.0751 212.578 72.921C212.732 72.7668 212.732 72.4585 212.886 72.3043C212.732 72.6127 212.578 72.921 212.578 73.0752C212.578 73.2293 212.578 73.3835 212.424 73.3835L211.346 75.696C211.192 75.8502 211.192 76.0043 211.038 76.3127C211.346 76.4668 211.346 76.4668 211.346 76.3127Z" fill="black" stroke="#030000" stroke-width="0.5" stroke-miterlimit="10" stroke-linecap="round" stroke-linejoin="round"/>
<path d="M218.74 75.6961C218.74 75.3877 218.74 75.2336 218.586 75.0794C218.432 74.6169 218.278 74.3086 218.124 73.8461C217.97 73.5377 217.816 73.0752 217.662 72.7669L217.508 72.1502V71.9961C217.662 71.8419 217.97 71.8419 218.278 71.6877H218.432C218.586 71.6877 218.74 71.6877 218.74 71.6877C218.74 71.6877 218.894 71.6877 219.048 71.8419C219.356 71.9961 219.51 72.3044 219.664 72.6127C219.819 72.9211 219.664 73.0752 219.51 73.3836C219.51 73.5377 219.356 73.6919 219.202 73.6919C219.202 73.6919 219.048 73.8461 218.894 73.8461H219.048C219.202 73.8461 219.356 73.8461 219.51 73.8461C219.819 74.0002 220.281 74.3086 220.435 74.6169C220.435 74.6169 220.435 74.6169 220.435 74.7711V74.9252V75.0794C220.435 75.2336 220.281 75.2336 220.281 75.3877C220.281 75.5419 220.127 75.5419 220.127 75.5419H219.973H219.819H219.664C219.664 75.5419 219.51 75.5419 219.51 75.6961H219.356C219.202 75.6961 219.202 75.6961 219.048 75.6961H218.74C218.74 75.8502 218.74 75.8502 218.74 75.6961ZM218.124 73.8461C218.74 73.6919 219.51 73.2294 219.51 72.6127C219.51 72.4586 219.51 72.4586 219.51 72.3044C219.356 71.9961 219.202 71.6877 218.894 71.6877H218.74C218.586 71.6877 218.586 71.6877 218.432 71.6877H218.278L217.97 71.8419L217.508 71.9961L217.662 72.4586C217.662 72.6127 217.816 72.7669 217.816 72.9211C217.816 73.2294 217.97 73.3836 218.124 73.8461C218.124 73.6919 218.124 73.6919 218.124 73.8461ZM218.894 75.8502C219.048 75.8502 219.202 75.8502 219.202 75.8502H219.356C219.356 75.8502 219.51 75.6961 219.664 75.6961C219.819 75.6961 219.973 75.5419 220.127 75.3877C220.281 75.2336 220.435 74.9252 220.281 74.6169C220.127 74.3086 219.664 73.8461 219.356 73.6919C219.202 73.6919 219.048 73.6919 219.048 73.6919C218.894 73.6919 218.894 73.6919 218.74 73.6919L218.432 73.8461C218.432 73.8461 218.278 73.8461 218.278 74.0002V74.1544C218.432 74.4627 218.586 74.7711 218.586 75.2336C218.586 75.3877 218.586 75.3877 218.74 75.5419C218.74 75.5419 218.74 75.5419 218.894 75.8502C218.74 75.6961 218.74 75.6961 218.894 75.8502C218.74 75.8502 218.74 75.6961 218.894 75.8502C218.894 75.8502 218.74 75.8502 218.894 75.8502Z" fill="black"/>
<path d="M218.74 75.6961C218.74 75.3877 218.74 75.2336 218.586 75.0794C218.432 74.6169 218.278 74.3086 218.124 73.8461C217.97 73.5377 217.816 73.0752 217.662 72.7669L217.508 72.1502V71.9961C217.662 71.8419 217.97 71.8419 218.278 71.6877H218.432C218.586 71.6877 218.74 71.6877 218.74 71.6877C218.74 71.6877 218.894 71.6877 219.048 71.8419C219.356 71.9961 219.51 72.3044 219.664 72.6127C219.819 72.9211 219.664 73.0752 219.51 73.3836C219.51 73.5377 219.356 73.6919 219.202 73.6919C219.202 73.6919 219.048 73.8461 218.894 73.8461H219.048C219.202 73.8461 219.356 73.8461 219.51 73.8461C219.819 74.0002 220.281 74.3086 220.435 74.6169C220.435 74.6169 220.435 74.6169 220.435 74.7711V74.9252V75.0794C220.435 75.2336 220.281 75.2336 220.281 75.3877C220.281 75.5419 220.127 75.5419 220.127 75.5419H219.973H219.819H219.664C219.664 75.5419 219.51 75.5419 219.51 75.6961H219.356C219.202 75.6961 219.202 75.6961 219.048 75.6961H218.74ZM218.74 75.6961C218.74 75.8502 218.74 75.8502 218.74 75.6961ZM218.124 73.8461C218.74 73.6919 219.51 73.2294 219.51 72.6127C219.51 72.4586 219.51 72.4586 219.51 72.3044C219.356 71.9961 219.202 71.6877 218.894 71.6877H218.74C218.586 71.6877 218.586 71.6877 218.432 71.6877H218.278L217.97 71.8419L217.508 71.9961L217.662 72.4586C217.662 72.6127 217.816 72.7669 217.816 72.9211C217.816 73.2294 217.97 73.3836 218.124 73.8461ZM218.124 73.8461C218.124 73.6919 218.124 73.6919 218.124 73.8461ZM218.894 75.8502C219.048 75.8502 219.202 75.8502 219.202 75.8502H219.356C219.356 75.8502 219.51 75.6961 219.664 75.6961C219.819 75.6961 219.973 75.5419 220.127 75.3877C220.281 75.2336 220.435 74.9252 220.281 74.6169C220.127 74.3086 219.664 73.8461 219.356 73.6919C219.202 73.6919 219.048 73.6919 219.048 73.6919C218.894 73.6919 218.894 73.6919 218.74 73.6919L218.432 73.8461C218.432 73.8461 218.278 73.8461 218.278 74.0002V74.1544C218.432 74.4627 218.586 74.7711 218.586 75.2336C218.586 75.3877 218.586 75.3877 218.74 75.5419C218.74 75.5419 218.74 75.5419 218.894 75.8502ZM218.894 75.8502C218.74 75.6961 218.74 75.6961 218.894 75.8502ZM218.894 75.8502C218.74 75.6961 218.74 75.8502 218.894 75.8502ZM218.894 75.8502C218.74 75.8502 218.894 75.8502 218.894 75.8502Z" stroke="#030000" stroke-width="0.5" stroke-miterlimit="10" stroke-linecap="round" stroke-linejoin="round"/>
<path d="M221.975 74.4627C221.975 74.0002 221.821 73.3835 221.667 72.921V72.7669V72.6127L221.513 71.8418L221.359 71.2252V70.7627V70.6085C221.359 70.6085 221.205 70.4543 221.359 70.4543C221.359 70.4543 221.513 70.4543 221.513 70.6085C221.667 70.7627 221.821 71.071 222.129 71.2252L222.283 71.3793L222.899 71.996L223.054 72.1502L223.208 72.4585C223.362 72.6127 223.362 72.6127 223.516 72.7669L223.824 73.2294C223.824 73.2294 223.824 73.3835 223.978 73.3835L224.132 73.5377L224.286 73.6919L224.44 73.846C224.44 73.846 224.44 73.846 224.286 73.846L224.132 73.6919C224.132 73.6919 224.132 73.5377 223.978 73.5377L223.516 72.921C223.516 72.921 223.053 73.0752 222.899 73.0752C222.591 73.2294 222.283 73.3835 221.975 73.5377V73.846V74.3085C221.975 74.1544 221.975 74.4627 221.975 74.4627C222.129 74.6169 222.129 74.771 221.975 74.771C221.975 74.6169 221.975 74.4627 221.975 74.4627ZM223.362 72.4585L221.975 70.9168C221.821 70.7627 221.667 70.6085 221.513 70.4543C221.513 70.6085 221.513 70.9168 221.667 71.071L221.821 71.8418L221.975 72.6127C221.975 72.6127 221.975 72.6127 221.975 72.7669C221.975 72.921 221.975 73.0752 221.975 73.2294V73.3835H222.129L222.745 73.0752C222.745 73.0752 222.899 73.0752 222.899 72.921C222.899 72.6127 223.054 72.4585 223.362 72.4585Z" fill="black"/>
<path d="M221.975 74.4627C221.975 74.0002 221.821 73.3835 221.667 72.921V72.7669V72.6127L221.513 71.8418L221.359 71.2252V70.7627V70.6085C221.359 70.6085 221.205 70.4543 221.359 70.4543C221.359 70.4543 221.513 70.4543 221.513 70.6085C221.667 70.7627 221.821 71.071 222.129 71.2252L222.283 71.3793L222.899 71.996L223.054 72.1502L223.208 72.4585C223.362 72.6127 223.362 72.6127 223.516 72.7669L223.824 73.2294C223.824 73.2294 223.824 73.3835 223.978 73.3835L224.132 73.5377L224.286 73.6919L224.44 73.846C224.44 73.846 224.44 73.846 224.286 73.846L224.132 73.6919C224.132 73.6919 224.132 73.5377 223.978 73.5377L223.516 72.921C223.516 72.921 223.053 73.0752 222.899 73.0752C222.591 73.2294 222.283 73.3835 221.975 73.5377V73.846V74.3085C221.975 74.1544 221.975 74.4627 221.975 74.4627ZM221.975 74.4627C222.129 74.6169 222.129 74.771 221.975 74.771C221.975 74.6169 221.975 74.4627 221.975 74.4627ZM223.362 72.4585L221.975 70.9168C221.821 70.7627 221.667 70.6085 221.513 70.4543C221.513 70.6085 221.513 70.9168 221.667 71.071L221.821 71.8418L221.975 72.6127C221.975 72.6127 221.975 72.6127 221.975 72.7669C221.975 72.921 221.975 73.0752 221.975 73.2294V73.3835H222.129L222.745 73.0752C222.745 73.0752 222.899 73.0752 222.899 72.921C222.899 72.6127 223.054 72.4585 223.362 72.4585Z" stroke="#030000" stroke-width="0.5" stroke-miterlimit="10" stroke-linecap="round" stroke-linejoin="round"/>
<path d="M224.286 70.9168C223.978 70.6085 223.824 70.146 223.824 69.6835V69.5293V69.221C223.824 68.9127 223.978 68.7585 223.978 68.4502C223.978 68.4502 223.978 68.296 224.132 68.296L224.286 67.9876L224.44 67.8335C224.748 67.6793 225.056 67.5251 225.364 67.5251C225.518 67.5251 225.518 67.5252 225.672 67.6793C225.672 67.6793 225.672 67.6793 225.518 67.6793C225.364 67.6793 225.056 67.5252 224.902 67.6793L224.748 67.8335L224.44 67.9876C224.44 67.9876 224.44 68.1418 224.286 68.1418C224.132 68.296 224.132 68.296 224.132 68.4502C224.132 68.6043 223.978 68.7585 223.978 68.9127C223.978 69.0668 223.978 69.221 223.978 69.3752C223.978 70.146 224.132 70.6085 224.286 70.9168C224.594 71.2252 225.056 71.6877 225.364 71.8418C225.518 71.8418 225.672 71.8418 225.672 71.8418C226.134 71.8418 226.442 71.6877 226.751 71.3793C227.059 71.071 227.521 70.6085 227.521 69.9918C227.521 69.9918 227.521 69.8377 227.521 69.6835C227.521 69.6835 227.521 69.5293 227.367 69.5293V69.3752C227.367 69.3752 227.367 69.3752 227.367 69.221L227.521 69.3752V69.6835C227.521 69.8377 227.521 69.9918 227.521 70.146C227.521 70.146 227.521 70.3002 227.367 70.3002C227.213 70.4543 227.059 70.6085 226.905 70.9168C226.751 70.9168 226.751 71.071 226.751 71.071L226.596 71.2252C226.442 71.2252 226.442 71.3793 226.288 71.3793C225.98 71.5335 225.518 71.5335 225.21 71.5335H225.056L224.748 71.3793C224.748 71.3793 224.594 71.3793 224.594 71.2252C224.748 71.3793 224.44 71.2252 224.286 70.9168Z" fill="black"/>
<path d="M224.286 70.9168C223.978 70.6085 223.824 70.146 223.824 69.6835V69.5293V69.221C223.824 68.9127 223.978 68.7585 223.978 68.4502C223.978 68.4502 223.978 68.296 224.132 68.296L224.286 67.9876L224.44 67.8335C224.748 67.6793 225.056 67.5251 225.364 67.5251C225.518 67.5251 225.518 67.5252 225.672 67.6793C225.672 67.6793 225.672 67.6793 225.518 67.6793C225.364 67.6793 225.056 67.5252 224.902 67.6793L224.748 67.8335L224.44 67.9876C224.44 67.9876 224.44 68.1418 224.286 68.1418C224.132 68.296 224.132 68.296 224.132 68.4502C224.132 68.6043 223.978 68.7585 223.978 68.9127C223.978 69.0668 223.978 69.221 223.978 69.3752C223.978 70.146 224.132 70.6085 224.286 70.9168ZM224.286 70.9168C224.594 71.2252 225.056 71.6877 225.364 71.8418C225.518 71.8418 225.672 71.8418 225.672 71.8418C226.134 71.8418 226.442 71.6877 226.751 71.3793C227.059 71.071 227.521 70.6085 227.521 69.9918C227.521 69.9918 227.521 69.8377 227.521 69.6835C227.521 69.6835 227.521 69.5293 227.367 69.5293V69.3752C227.367 69.3752 227.367 69.3752 227.367 69.221L227.521 69.3752V69.6835C227.521 69.8377 227.521 69.9918 227.521 70.146C227.521 70.146 227.521 70.3002 227.367 70.3002C227.213 70.4543 227.059 70.6085 226.905 70.9168C226.751 70.9168 226.751 71.071 226.751 71.071L226.596 71.2252C226.442 71.2252 226.442 71.3793 226.288 71.3793C225.98 71.5335 225.518 71.5335 225.21 71.5335H225.056L224.748 71.3793C224.748 71.3793 224.594 71.3793 224.594 71.2252C224.748 71.3793 224.44 71.2252 224.286 70.9168Z" stroke="#030000" stroke-width="0.5" stroke-miterlimit="10" stroke-linecap="round" stroke-linejoin="round"/>
<path d="M228.291 68.1418C228.445 68.296 228.599 68.4501 228.907 68.6043C229.061 68.7585 229.215 68.9126 229.369 69.0668C229.369 69.0668 229.369 69.0668 229.369 69.221C229.369 69.221 229.369 69.221 229.215 69.221L229.061 69.0668L228.753 68.9126C228.445 68.6043 228.137 68.296 227.829 67.9876L227.675 67.8335C227.367 67.5251 227.059 67.0626 226.597 66.7543C226.443 66.6001 226.443 66.6001 226.289 66.446L226.443 66.6001L226.597 66.7543C226.905 67.0626 227.367 67.5251 227.675 67.8335C227.983 67.6793 228.137 67.8335 228.291 68.1418C228.137 67.9876 228.137 67.8335 228.137 67.8335V67.371C228.137 67.2168 228.137 67.2168 228.137 67.0626C228.137 66.9085 228.137 66.7543 228.137 66.6001C228.137 66.446 228.137 66.446 228.137 66.2918V65.8293C228.137 65.6751 228.137 65.6751 228.137 65.521L227.983 64.9043C227.983 64.9043 227.983 65.0585 227.983 65.2126C227.983 65.3668 227.983 65.521 227.983 65.6751C227.983 65.8293 227.983 65.8293 227.983 65.8293L228.137 66.446C228.137 66.446 228.137 66.446 228.137 66.6001C228.137 66.7543 228.137 66.9085 228.137 67.0626V67.2168C228.137 67.5251 228.137 67.6793 228.291 67.9876V68.1418C228.291 67.9876 228.291 67.9876 228.291 68.1418C228.445 67.9876 228.599 67.9876 228.753 67.9876C228.907 67.9876 228.907 67.9876 229.061 67.9876C229.369 67.9876 229.678 67.9876 229.986 67.9876H230.14H230.294H230.602H230.756H230.448C230.294 67.9876 229.986 67.9876 229.832 67.9876C229.678 67.9876 229.678 67.9876 229.524 67.9876C229.369 67.9876 229.369 67.9876 229.215 67.9876H228.907H228.753H228.599L228.291 68.1418Z" fill="black"/>
<path d="M228.291 68.1418C228.445 68.296 228.599 68.4501 228.907 68.6043C229.061 68.7585 229.215 68.9126 229.369 69.0668C229.369 69.0668 229.369 69.0668 229.369 69.221C229.369 69.221 229.369 69.221 229.215 69.221L229.061 69.0668L228.753 68.9126C228.445 68.6043 228.137 68.296 227.829 67.9876L227.675 67.8335C227.367 67.5251 227.059 67.0626 226.597 66.7543C226.443 66.6001 226.443 66.6001 226.289 66.446L226.443 66.6001L226.597 66.7543C226.905 67.0626 227.367 67.5251 227.675 67.8335C227.983 67.6793 228.137 67.8335 228.291 68.1418ZM228.291 68.1418C228.137 67.9876 228.137 67.8335 228.137 67.8335V67.371C228.137 67.2168 228.137 67.2168 228.137 67.0626C228.137 66.9085 228.137 66.7543 228.137 66.6001C228.137 66.446 228.137 66.446 228.137 66.2918V65.8293C228.137 65.6751 228.137 65.6751 228.137 65.521L227.983 64.9043C227.983 64.9043 227.983 65.0585 227.983 65.2126C227.983 65.3668 227.983 65.521 227.983 65.6751C227.983 65.8293 227.983 65.8293 227.983 65.8293L228.137 66.446C228.137 66.446 228.137 66.446 228.137 66.6001C228.137 66.7543 228.137 66.9085 228.137 67.0626V67.2168C228.137 67.5251 228.137 67.6793 228.291 67.9876V68.1418ZM228.291 68.1418C228.291 67.9876 228.291 67.9876 228.291 68.1418ZM228.291 68.1418C228.445 67.9876 228.599 67.9876 228.753 67.9876C228.907 67.9876 228.907 67.9876 229.061 67.9876C229.369 67.9876 229.678 67.9876 229.986 67.9876H230.14H230.294H230.602H230.756H230.448C230.294 67.9876 229.986 67.9876 229.832 67.9876C229.678 67.9876 229.678 67.9876 229.524 67.9876C229.369 67.9876 229.369 67.9876 229.215 67.9876H228.907H228.753H228.599C228.599 67.9876 228.291 68.1418 228.291 68.1418Z" stroke="#030000" stroke-width="0.5" stroke-miterlimit="10" stroke-linecap="round" stroke-linejoin="round"/>
<path d="M223.207 120.096C220.434 123.333 217.661 126.725 215.197 130.117C213.964 127.958 212.886 125.8 211.654 123.642C209.035 118.708 201.641 123.025 204.106 128.112C206.262 132.275 208.573 136.437 210.883 140.446C212.732 143.375 216.583 143.067 218.432 140.446C221.821 135.512 225.518 130.887 229.369 126.417C232.912 121.946 226.904 115.779 223.207 120.096Z" fill="#32B2A8"/>
<path d="M205.646 128.575C208.727 133.2 211.962 137.825 215.505 142.142C220.588 135.667 224.594 129.963 228.907 122.871" stroke="#030000" stroke-width="1.4" stroke-miterlimit="10" stroke-linecap="round" stroke-linejoin="round"/>
<path d="M207.495 127.033C208.573 126.263 209.651 125.646 210.73 125.183C212.732 128.729 215.659 132.583 215.659 132.583C217.97 129.038 224.132 120.096 224.286 120.096C224.286 120.096 229.061 123.025 228.907 123.025" stroke="#030000" stroke-width="1.4" stroke-miterlimit="10" stroke-linecap="round" stroke-linejoin="round"/>
<path d="M331.348 253.604C331.348 252.062 329.961 250.829 328.113 250.829C325.494 250.829 322.875 250.675 320.256 250.675C320.41 247.283 320.718 243.892 321.181 240.5C323.029 240.654 325.032 240.654 326.88 240.808C328.575 240.808 330.115 239.421 330.115 238.033C330.115 235.104 330.115 232.175 330.115 229.092C330.115 227.55 328.575 226.317 326.88 226.317C312.4 226.317 298.074 226.317 283.593 226.317C281.745 225.7 279.28 226.625 279.28 228.783C279.28 231.713 279.126 234.642 278.664 237.417C278.664 237.571 278.664 237.725 278.664 237.725C276.353 237.879 274.043 238.033 271.886 238.342C270.191 238.65 269.267 240.5 269.575 241.733C269.575 241.888 269.729 242.042 269.883 242.35C269.883 245.433 270.037 248.517 270.037 251.6C270.037 253.604 272.194 254.529 274.043 254.221C275.429 254.221 276.969 254.221 278.356 254.221C278.202 257.15 278.048 260.079 278.048 263.008C278.048 263.162 278.048 263.162 278.048 263.317C277.894 263.317 277.894 263.317 277.74 263.317C275.737 263.317 273.272 263.008 271.732 264.396C270.191 265.783 270.346 267.942 270.346 269.792C270.346 271.95 270.191 273.954 270.191 276.112C270.191 277.654 271.732 278.887 273.426 278.887C288.061 279.042 302.695 279.042 317.329 279.196C318.562 279.196 320.102 278.271 320.41 277.192C321.181 273.8 321.489 270.254 321.643 266.708C323.799 266.708 325.802 266.708 327.959 266.708C329.807 266.708 331.039 265.475 331.193 263.933C331.502 260.387 331.502 256.996 331.348 253.604Z" fill="#FEDB72"/>
<path d="M274.351 238.342C291.296 239.575 315.019 240.037 331.964 240.346" stroke="#030000" stroke-width="1.4" stroke-miterlimit="10" stroke-linecap="round" stroke-linejoin="round"/>
<path d="M272.964 254.375C289.293 252.525 316.559 250.829 332.888 250.675" stroke="#030000" stroke-width="1.4" stroke-miterlimit="10" stroke-linecap="round" stroke-linejoin="round"/>
<path d="M274.351 263.471C291.912 263.933 315.481 265.013 332.888 266.092" stroke="#030000" stroke-width="1.4" stroke-miterlimit="10" stroke-linecap="round" stroke-linejoin="round"/>
<path d="M282.361 226.471C298.536 226.317 314.711 226.471 330.886 227.088" stroke="#030000" stroke-width="1.4" stroke-miterlimit="10" stroke-linecap="round" stroke-linejoin="round"/>
<path d="M354.762 254.221C350.141 245.125 340.282 242.658 332.117 242.041C321.95 241.271 310.859 249.441 308.394 259.154C306.238 266.554 308.24 276.266 312.4 282.433C317.021 289.062 324.569 292.608 332.734 292.146C341.052 291.683 349.063 287.521 353.838 280.583C358.151 274.108 358.613 261.929 354.762 254.221Z" fill="#F3C015"/>
<path d="M355.841 254.067C351.373 245.125 341.668 242.658 333.658 242.042C323.799 241.271 312.862 249.288 310.551 258.692C308.395 265.938 310.397 275.496 314.556 281.508C319.024 287.983 326.418 291.529 334.428 291.067C342.593 290.604 350.449 286.442 355.07 279.658C359.23 273.492 359.692 261.621 355.841 254.067Z" stroke="#030000" stroke-width="1.4" stroke-miterlimit="10" stroke-linecap="round" stroke-linejoin="round"/>
<path d="M326.726 247.9C321.951 249.442 318.254 252.679 316.097 256.842C313.94 261.004 313.632 265.938 314.402 270.409C314.711 272.721 315.327 275.034 316.405 277.192C319.178 282.742 325.032 286.596 331.347 287.213C337.509 287.829 343.979 285.054 348.138 280.429C352.298 275.804 354.454 269.329 353.992 263.163C353.838 260.85 353.222 258.538 352.298 256.379C350.295 252.371 346.752 249.442 342.593 247.9C338.434 246.359 333.966 246.05 329.653 246.667" stroke="#030000" stroke-width="1.4" stroke-miterlimit="10" stroke-linecap="round" stroke-linejoin="round"/>
<path d="M138.447 132.07C142.2 124.419 137.752 114.681 133.443 108.282C128.995 101.604 123.157 95.6222 117.18 90.1967C115.79 88.6664 114.4 87.1362 113.01 85.745C107.312 79.624 100.918 73.5029 93.2728 69.886C86.8789 66.8254 75.0641 63.2085 70.6162 71.138C66.7243 78.3719 72.7012 88.2491 76.3151 94.3701C81.458 102.856 88.4079 110.229 95.3578 117.046C101.752 123.306 108.146 130.123 116.207 134.296C123.018 137.913 134.138 140.834 138.447 132.07Z" fill="#32B2A8"/>
<path d="M123.732 130.629C128.597 133.968 134.851 135.498 140.689 134.107C146.805 132.577 151.253 128.125 153.894 122.561C159.315 111.432 158.342 95.0161 147.361 87.504C142.357 84.0261 135.824 82.6349 129.987 84.5825C125.817 85.9737 122.62 89.0342 120.396 92.7903C119.284 94.0423 118.45 95.5726 117.616 96.9637C111.917 107.815 113.029 123.256 123.732 130.629Z" fill="#FEDB72"/>
<path d="M101.346 123.145C99.8197 119.725 98.0159 116.316 96.0787 113.051C92.0708 106.666 86.9683 100.742 81.4765 95.5295C75.9903 90.4559 69.6488 84.8592 62.5891 82.2146C56.2348 79.8206 48.0733 80.9786 44.2869 87.2541C41.9405 91.2451 42.6497 95.1153 44.5979 98.6581C44.4919 99.4976 46.9737 102.462 47.8345 103.124C49.0004 104.471 50.1609 105.678 51.3159 106.746C54.2089 109.555 57.0909 112.087 60.2453 114.468C66.8701 120.193 74.034 125.478 81.8375 129.346C85.2421 131.022 88.7747 132.414 92.4352 133.522C95.3903 134.38 99.1842 135.343 101.73 132.876C104.825 130.248 102.716 126.154 101.346 123.145Z" fill="#F38059"/>
<path d="M49.5923 87.7405C42.5782 82.7273 35.7031 77.7086 28.1664 73.5515C21.9072 70.0399 13.0766 64.8201 5.51998 67.2071C-1.48656 69.4333 -0.201631 77.3182 5.4856 80.4347C6.76852 81.2193 8.17387 81.5814 9.71262 81.799C11.668 82.0002 13.7404 81.6398 15.5679 82.1245C18.523 82.9822 19.5099 86.8414 21.809 88.6997C25.1131 91.3535 29.0861 89.8042 32.8086 88.9609C37.7757 87.9292 42.6807 88.8491 47.0905 91.32C47.9403 91.7041 48.6293 91.5376 49.1684 91.0986C50.4129 90.9102 51.025 88.7977 49.5923 87.7405Z" fill="#32B2A8"/>
<path d="M53.2601 85.5072C53.516 84.9401 53.494 84.3841 52.9165 83.8501C49.8956 81.3242 47.9474 77.7815 47.3771 73.9058C46.9787 70.8586 47.1303 67.6505 44.2757 65.8142C42.2818 64.64 39.2318 64.8998 37.7606 62.8696C36.8779 61.6515 36.6732 59.9889 35.9238 58.6263C35.4633 57.5308 34.7304 56.5852 33.7253 55.7896C29.8381 52.4627 23.7599 53.5383 23.8515 59.382C24.0929 65.4983 30.279 70.6835 34.4604 74.4164C39.5081 78.9504 45.0839 82.7675 50.6596 86.5845C51.9535 87.6472 53.4429 86.6137 53.2601 85.5072Z" fill="#32B2A8"/>
<path d="M166.827 120.25C162.359 142.45 152.192 165.112 138.482 177.6C122 192.708 100.587 196.717 75.9399 190.242C52.0628 184.075 34.1936 170.046 26.6453 151.392C19.4052 133.662 16.1702 112.387 21.5618 91.8833L166.827 120.25Z" fill="#FBB49B"/>
<path d="M78.251 251.137C81.1778 228.629 83.7966 207.817 86.4154 187.621" stroke="#030000" stroke-width="1.4" stroke-miterlimit="10" stroke-linecap="round" stroke-linejoin="round"/>
<path d="M83.026 265.783C82.1018 273.337 81.0234 281.046 79.9451 288.908C79.9451 288.908 72.3969 289.062 65.4648 288.6C69.1619 286.75 71.9348 285.517 73.9373 284.283C74.8616 276.112 75.9399 268.096 76.8642 260.387" stroke="#030000" stroke-width="1.4" stroke-miterlimit="10" stroke-linecap="round" stroke-linejoin="round"/>
<path d="M93.5013 188.238C89.9582 212.75 87.0314 234.488 84.1045 257.15" stroke="#030000" stroke-width="1.4" stroke-miterlimit="10" stroke-linecap="round" stroke-linejoin="round"/>
<path d="M76.0942 281.663C76.0942 281.663 78.2509 281.817 80.4075 281.971" stroke="#030000" stroke-width="1.4" stroke-miterlimit="10" stroke-linecap="round" stroke-linejoin="round"/>
<path d="M72.0891 283.05C72.0891 283.05 68.7001 275.342 67.1596 276.421C65.6191 277.346 72.0891 283.05 72.0891 283.05ZM72.0891 283.05C72.0891 283.05 65.157 279.196 64.3868 280.583C63.6166 281.971 65.7732 282.742 69.4703 283.513" stroke="#030000" stroke-width="1.4" stroke-miterlimit="10" stroke-linecap="round" stroke-linejoin="round"/>
<path d="M66.2353 183.613C66.2353 183.613 55.6062 219.225 64.2327 242.813C70.7027 260.388 103.36 281.046 103.36 281.046C104.285 283.358 105.825 287.367 107.211 291.221C107.828 285.208 108.136 280.429 108.598 275.958C108.598 275.958 83.6425 259.925 74.8619 246.821C61.3059 226.779 73.3214 186.233 73.3214 186.233" stroke="#030000" stroke-width="1.4" stroke-miterlimit="10" stroke-linecap="round" stroke-linejoin="round"/>
<path d="M100.742 279.967C101.974 278.271 102.898 275.958 104.131 274.108" stroke="#030000" stroke-width="1.4" stroke-miterlimit="10" stroke-linecap="round" stroke-linejoin="round"/>
<path d="M102.898 280.583C102.898 280.583 95.5038 284.592 96.7362 286.133C97.9686 287.521 102.898 280.583 102.898 280.583ZM102.898 280.583C102.898 280.583 99.6631 287.829 101.049 288.446C102.436 289.063 103.052 286.904 103.514 283.05" stroke="#030000" stroke-width="1.4" stroke-miterlimit="10" stroke-linecap="round" stroke-linejoin="round"/>
<path d="M90.2663 132.583C88.4177 136.746 83.3342 138.596 78.4048 134.433" stroke="#030000" stroke-width="1.4" stroke-miterlimit="10" stroke-linecap="round" stroke-linejoin="round"/>
<path d="M19.4053 124.104C13.3975 127.342 12.0111 136.746 14.4759 143.067C16.9406 149.388 22.9484 153.858 29.1102 156.788C38.8151 161.104 49.7523 162.029 60.5355 162.183C71.1646 162.183 83.7964 161.413 94.4255 162.492" stroke="#030000" stroke-width="1.4" stroke-miterlimit="10" stroke-linecap="round" stroke-linejoin="round"/>
<path d="M74.8618 162.338C89.3421 169.738 102.744 176.058 116.454 179.913C126.621 182.842 134.786 183.458 144.028 180.375C157.122 176.213 159.587 159.408 156.968 152.625" stroke="#030000" stroke-width="1.4" stroke-miterlimit="10" stroke-linecap="round" stroke-linejoin="round"/>
<path d="M65.0029 154.783C69.7783 154.938 74.7078 154.783 79.7913 154.783C84.4127 154.783 89.1881 154.783 93.6554 156.171C98.1227 157.558 102.282 161.875 103.822 166.192" stroke="#030000" stroke-width="1.4" stroke-miterlimit="10" stroke-linecap="round" stroke-linejoin="round"/>
<path d="M24.3349 130.887C20.4838 133.2 20.3298 139.058 22.7945 142.604C25.2592 146.304 30.8049 149.233 34.9641 150.621C40.6638 152.471 46.2094 153.396 51.9091 154.012" stroke="#030000" stroke-width="1.4" stroke-miterlimit="10" stroke-linecap="round" stroke-linejoin="round"/>
<path d="M90.2661 162.029C97.6603 165.267 105.979 169.121 113.681 171.433C120.151 173.283 142.334 180.992 149.112 165.112" stroke="#030000" stroke-width="1.4" stroke-miterlimit="10" stroke-linecap="round" stroke-linejoin="round"/>
<path d="M76.7101 154.629C71.7806 150.467 65.0026 148.462 58.5327 149.387C55.7599 149.696 52.679 150.929 51.9088 153.55C51.6007 154.629 52.2169 156.787 53.1411 157.404C55.7599 159.408 60.6894 158.175 61.9217 157.25" stroke="#030000" stroke-width="1.4" stroke-miterlimit="10" stroke-linecap="round" stroke-linejoin="round"/>
<path d="M118.764 126.879L109.984 128.112L118.302 131.658" stroke="#030000" stroke-width="1.4" stroke-miterlimit="10" stroke-linecap="round" stroke-linejoin="round"/>
<path d="M59.1469 126.521C60.0739 124.141 58.4479 121.284 55.515 120.14C52.5822 118.996 49.4531 119.998 48.5261 122.378C47.5991 124.758 49.2252 127.614 52.158 128.759C55.0909 129.903 58.2199 128.901 59.1469 126.521Z" fill="#F89879"/>
<path d="M121.749 139.465C122.088 136.933 119.834 134.542 116.714 134.123C113.594 133.705 110.79 135.418 110.451 137.95C110.112 140.481 112.367 142.873 115.486 143.291C118.606 143.709 121.41 141.996 121.749 139.465Z" fill="#F89879"/>
<path d="M62.8462 122.1C65.8239 122.1 68.2378 119.684 68.2378 116.704C68.2378 113.724 65.8239 111.308 62.8462 111.308C59.8685 111.308 57.4546 113.724 57.4546 116.704C57.4546 119.684 59.8685 122.1 62.8462 122.1Z" fill="white"/>
<path d="M62.8463 120.25C64.803 120.25 66.3893 118.662 66.3893 116.704C66.3893 114.746 64.803 113.158 62.8463 113.158C60.8895 113.158 59.3032 114.746 59.3032 116.704C59.3032 118.662 60.8895 120.25 62.8463 120.25Z" fill="#030000"/>
</svg>
