<svg width="24" height="24" viewBox="0 0 24 24" fill="none" xmlns="http://www.w3.org/2000/svg">
<path d="M21.5208 1.49512C21.4235 1.49512 21.3262 1.59242 21.2289 1.68973C21.1316 1.78703 21.0343 1.88434 20.937 1.98165C13.639 7.13888 6.92487 13.2692 1.1838 20.1779C0.794576 20.5672 1.08649 21.151 1.47572 21.2483C1.57303 21.3456 1.76764 21.4429 1.96225 21.4429C11.4983 21.7348 19.5747 14.3396 20.2558 4.80353C20.2558 4.70623 20.2558 4.60892 20.2558 4.60892C20.7424 4.02508 21.2289 3.44124 21.8127 2.85741C21.91 2.7601 22.1047 2.66279 22.202 2.56549L22.2993 2.46818C22.1047 2.17626 21.8127 1.88434 21.5208 1.49512Z" fill="#32B2A8"/>
<path d="M11.5953 11.3232C8.18959 11.3232 8.18959 16.5778 11.5953 16.5778C15.001 16.5778 15.001 11.3232 11.5953 11.3232Z" fill="#A0DFDA"/>
<path d="M15.488 7.91797C12.8608 7.91797 12.8608 11.9075 15.488 11.9075C18.1153 12.0048 18.1153 7.91797 15.488 7.91797Z" fill="#A0DFDA"/>
<path d="M19.088 5.77692C18.8934 5.58231 18.5042 5.3877 18.2122 5.3877C17.9203 5.3877 17.5311 5.485 17.3365 5.77692C17.1419 6.06884 16.9473 6.36076 16.9473 6.65268V6.74999C16.9473 7.0419 17.0446 7.43113 17.3365 7.62574C17.5311 7.82036 17.9203 8.01496 18.2122 8.01496C18.5042 8.01496 18.8934 7.91766 19.088 7.62574C19.2826 7.33382 19.4772 7.0419 19.4772 6.74999V6.65268C19.3799 6.26346 19.2826 5.97153 19.088 5.77692Z" fill="#A0DFDA"/>
<path d="M5.85394 17.3564C4.19973 17.3564 4.19973 19.8864 5.85394 19.8864C7.50814 19.8864 7.50814 17.3564 5.85394 17.3564Z" fill="#A0DFDA"/>
<path d="M17.8233 16.7725C14.223 16.7725 14.223 22.3189 17.8233 22.3189C21.3263 22.3189 21.4236 16.7725 17.8233 16.7725Z" fill="#32B2A8"/>
<path d="M13.7373 20.4703C13.4454 20.2757 13.1535 20.0811 12.7643 20.0811C12.3751 20.0811 12.0831 20.1784 11.7912 20.4703L11.6939 20.5676C11.402 20.8595 11.3047 21.1514 11.3047 21.5406C11.3047 21.8326 11.4993 22.3191 11.6939 22.5137C11.9858 22.7083 12.2777 22.9029 12.667 22.9029C13.0562 22.9029 13.3481 22.8056 13.64 22.5137L13.7373 22.4164C14.0293 22.1245 14.1266 21.8326 14.1266 21.4433C14.1266 21.1514 14.0293 20.6649 13.7373 20.4703Z" fill="#32B2A8"/>
<path d="M17.7254 22.8052C16.8497 22.8052 15.9739 22.416 15.3901 21.8321C14.6116 20.9564 14.3197 19.6914 14.8062 18.5237C14.9035 18.2318 15.1954 18.1345 15.3901 18.2318C15.682 18.3291 15.7793 18.621 15.682 18.8156C15.3901 19.5941 15.5847 20.4698 16.0712 21.0537C16.655 21.6375 17.5308 21.9294 18.3092 21.6375C18.6012 21.5402 18.7958 21.7348 18.8931 21.9294C18.9904 22.2214 18.7958 22.416 18.6012 22.5133C18.3092 22.7079 18.0173 22.8052 17.7254 22.8052Z" fill="black"/>
<path d="M11.888 23.0005C11.888 23.0005 11.7907 23.0005 11.6934 23.0005C11.0123 22.8058 10.623 22.1247 10.623 21.4436C10.623 21.1516 10.915 20.957 11.1096 20.957C11.4015 20.957 11.5961 21.249 11.5961 21.4436C11.5961 21.6382 11.7907 21.9301 11.9853 21.9301C12.2773 22.0274 12.3746 22.3193 12.2773 22.5139C12.2773 22.8058 12.0826 23.0005 11.888 23.0005Z" fill="black"/>
<path d="M1.9621 20.0808C1.86479 20.0808 1.76749 20.0808 1.67018 19.9835C1.47557 19.7889 1.37827 19.497 1.57288 19.3024C6.04897 12.9775 12.2766 7.23638 21.2288 1.10608C21.4234 0.911468 21.7153 1.00877 21.9099 1.20339C22.1045 1.398 22.0072 1.68992 21.8126 1.88453C12.9577 7.91753 6.82742 13.6586 2.44863 19.8862C2.25402 20.0808 2.05941 20.0808 1.9621 20.0808Z" fill="black"/>
<path d="M18.1145 8.30668C18.0172 8.30668 17.9199 8.30668 17.8226 8.30668C17.4334 8.20937 17.0442 7.91745 16.7522 7.52823C16.4603 7.139 16.363 6.65248 16.4603 6.26325C16.5576 5.97133 16.7522 5.87402 17.0442 5.87402C17.3361 5.97133 17.4334 6.16594 17.4334 6.45786C17.4334 6.65247 17.4334 6.84708 17.5307 7.0417C17.628 7.23631 17.8226 7.33362 18.0172 7.33362C18.2118 7.33362 18.4064 7.33362 18.6011 7.23631C18.7957 7.13901 18.893 6.94439 18.893 6.74978C18.9903 6.45786 19.1849 6.26325 19.4768 6.36055C19.7687 6.45786 19.866 6.65247 19.866 6.94439C19.7687 7.33362 19.4768 7.72284 19.0876 8.01476C18.7957 8.20937 18.4064 8.30668 18.1145 8.30668Z" fill="black"/>
<path d="M15.4885 12.686C15.0019 12.686 14.4181 12.4914 14.0289 12.1995C13.3477 11.7129 12.9585 10.8372 13.0558 9.96141C13.0558 9.66949 13.3477 9.47488 13.5423 9.57219C13.8343 9.57219 14.0289 9.86411 13.9316 10.0587C13.8343 10.5453 14.1262 11.1291 14.5154 11.421C14.9046 11.7129 15.4885 11.8102 15.975 11.6156C16.4615 11.421 16.7535 10.8372 16.6561 10.3506C16.6561 10.0587 16.8508 9.8641 17.1427 9.8641C17.4346 9.8641 17.6292 10.0587 17.6292 10.3506C17.7265 11.2264 17.1427 12.1022 16.3642 12.4914C16.1696 12.5887 15.7804 12.686 15.4885 12.686Z" fill="black"/>
<path d="M11.4977 16.8694C10.6219 16.8694 9.84346 16.5775 9.35693 15.9936C8.9677 15.5071 8.67578 14.826 8.67578 13.9502C8.67578 13.561 8.67578 12.9771 8.9677 12.4906C9.06501 12.296 9.35693 12.1987 9.64884 12.296C9.84346 12.3933 9.94076 12.6852 9.84346 12.9771C9.74615 13.1717 9.64884 13.4637 9.74615 13.8529C9.74615 14.534 9.94076 14.9233 10.2327 15.3125C10.7192 15.799 11.4977 15.8963 12.0815 15.799C12.4707 15.7017 12.7626 15.6044 12.9573 15.4098C13.1519 15.2152 13.3465 14.9233 13.3465 14.7286C13.3465 14.4367 13.6384 14.2421 13.833 14.3394C14.1249 14.3394 14.3195 14.6313 14.2222 14.8259C14.1249 15.3125 13.9303 15.799 13.4438 16.1882C13.0546 16.4802 12.6653 16.6748 12.0815 16.7721C11.8869 16.8694 11.6923 16.8694 11.4977 16.8694Z" fill="black"/>
<path d="M5.66022 20.1777C5.17369 20.1777 4.68715 19.8858 4.39523 19.4966C4.00601 19.01 4.00601 18.3289 4.29793 17.6477C4.39523 17.3558 4.68715 17.2585 4.97907 17.3558C5.27099 17.4531 5.3683 17.745 5.27099 18.037C5.17368 18.3289 5.17368 18.7181 5.27099 18.9127C5.3683 19.1073 5.66021 19.2046 5.85483 19.1073C6.14675 19.01 6.34136 19.1073 6.53597 19.3993C6.63328 19.6912 6.53597 19.8858 6.24405 20.0804C6.04944 20.1777 5.85483 20.1777 5.66022 20.1777Z" fill="black"/>
<path d="M18.9914 17.7452C18.5049 16.9668 17.3372 17.0641 16.6561 17.5506C16.4615 17.7452 16.2669 18.0372 16.4615 18.3291C16.4615 18.5237 16.5588 18.7183 16.7534 18.8156C17.1426 19.0102 17.5318 19.1075 17.9211 19.0102C18.1157 19.0102 18.213 19.0102 18.4076 19.0102C18.8941 18.7183 19.2834 18.2318 18.9914 17.7452Z" fill="#A0DFDA"/>
<path d="M13.0561 20.4697C12.6669 20.4697 12.375 20.7616 12.375 21.0536C12.375 21.3455 12.6669 21.6374 12.9588 21.6374H13.0561C13.3481 21.6374 13.64 21.3455 13.64 21.0536C13.64 20.7616 13.3481 20.4697 13.0561 20.4697Z" fill="#A0DFDA"/>
</svg>
