<svg width="24" height="24" viewBox="0 0 24 24" fill="none" xmlns="http://www.w3.org/2000/svg">
<path d="M22.1592 7.0416C21.6592 6.1416 16.5592 3.2416 15.6592 3.1416C15.5592 3.1416 15.3592 3.1416 15.2592 3.1416C15.1592 3.1416 15.1592 3.2416 15.0592 3.2416C13.8592 3.8416 4.65921 7.7416 3.55921 8.3416C2.85921 8.7416 2.05922 9.0416 1.65922 9.7416C1.25922 10.6416 1.45921 11.9416 1.55921 12.8416C1.55921 14.0416 1.45923 15.4416 1.75923 16.5416C2.35923 18.1416 5.05921 20.8416 6.55921 21.5416C7.15921 21.8416 7.75922 21.8416 8.35922 21.6416C9.85922 21.3416 19.7592 17.6416 20.9592 16.7416C22.2592 15.8416 22.7592 15.2416 22.7592 13.6416C22.7592 12.0416 22.8592 8.4416 22.1592 7.0416Z" fill="#FCF3CF"/>
<path d="M1.75982 17.7414C1.55982 17.7414 1.25982 17.5414 1.25982 17.3414C0.959816 15.1414 0.959804 12.9414 1.0598 10.7414C1.0598 10.3414 1.15981 9.84142 1.35981 9.44142C1.55981 9.14142 1.85981 8.84142 2.15981 8.64142C3.35981 7.84142 8.55981 5.54142 11.9598 4.14142C13.0598 3.64142 13.9598 3.24142 14.3598 3.14142C14.6598 3.04142 15.0598 2.94142 15.4598 3.04142C15.7598 3.04142 16.0598 3.14142 16.3598 3.24142C17.5598 3.74142 18.5598 4.34142 19.5598 5.14142C19.7598 5.34142 19.8598 5.64142 19.6598 5.84142C19.4598 6.04142 19.1598 6.14142 18.9598 5.94142C18.0598 5.24142 17.0598 4.64142 16.0598 4.24142C15.8598 4.14142 15.6598 4.04142 15.4598 4.04142C15.1598 4.04142 14.9598 4.04142 14.8598 4.04142C14.4598 4.24142 13.5598 4.64142 12.4598 5.14142C9.25981 6.54142 3.95982 8.84142 2.75982 9.64142C2.55982 9.84142 2.35982 9.94142 2.25982 10.1414C2.15982 10.3414 2.1598 10.6414 2.0598 10.9414C1.9598 13.0414 2.05982 15.2414 2.25982 17.4414C2.25982 17.4414 2.05982 17.6414 1.75982 17.7414C1.75982 17.7414 1.85982 17.7414 1.75982 17.7414Z" fill="black"/>
<path d="M7.1598 13.941C6.4598 13.941 5.9598 13.641 5.4598 13.341C4.3598 12.641 3.6598 12.241 2.7598 11.441C2.5598 11.241 2.4598 10.941 2.6598 10.741C2.8598 10.541 3.15979 10.541 3.35979 10.641C4.25979 11.441 4.8598 11.841 5.9598 12.441C6.3598 12.741 6.7598 12.941 7.1598 12.941C7.4598 12.941 7.8598 12.741 8.1598 12.641C9.2598 12.141 12.5598 10.741 15.5598 9.54102C17.4598 8.74102 19.3598 8.04102 20.1598 7.64102C20.4598 7.54102 20.6598 7.64101 20.8598 7.94101C20.9598 8.24101 20.8598 8.44102 20.5598 8.64102C19.6598 9.04102 17.8598 9.74102 15.8598 10.541C12.8598 11.741 9.5598 13.141 8.4598 13.641C8.1598 13.741 7.7598 13.941 7.1598 13.941Z" fill="black"/>
<path d="M7.36015 21.241C7.06015 21.241 6.86015 21.041 6.86015 20.741C6.96015 19.441 6.86016 17.541 6.76016 16.241L6.66016 15.041C6.66016 14.741 6.86015 14.541 7.06015 14.541C7.36015 14.541 7.56015 14.741 7.56015 14.941L7.66016 16.141C7.76016 17.441 7.86016 19.441 7.76016 20.841C7.86016 21.041 7.66015 21.241 7.36015 21.241Z" fill="black"/>
</svg>
