<svg width="24" height="24" viewBox="0 0 24 24" fill="none" xmlns="http://www.w3.org/2000/svg">
<path d="M20.3675 10.8C19.7675 6.9 17.5675 1.1 12.7675 1C12.2675 1 11.7675 0.999998 11.3675 1.1C11.1675 1.1 10.8675 1.2 10.5675 1.3C8.5675 2 7.1675 3.7 6.1675 5.7C4.4675 8.6 3.7675 12.1 4.0675 15.5C4.2675 17.5 4.9675 19.3 6.3675 20.6C8.4675 23.1 12.9675 23.5 15.8675 22.1C20.4675 20 21.0675 15.2 20.3675 10.8Z" fill="#FCF3CF"/>
<path d="M16.5674 10.9001C14.8674 7.30013 9.7674 7.20012 8.3674 11.1001C7.7674 12.8001 7.5674 14.9001 8.8674 16.4001C10.1674 17.8001 12.1674 18.0001 13.7674 17.2001C14.3674 17.0001 15.0674 16.6001 15.5674 16.1001C17.0674 14.7001 17.4674 12.8001 16.5674 10.9001Z" fill="#F8CD3D"/>
<path d="M6.96657 20.7C6.86657 20.7 6.66657 20.6 6.56657 20.5C4.76657 18.2 3.96657 15 4.36657 11.8C4.66657 9.00003 5.86657 6.30003 7.76657 3.50003C7.96657 3.30003 8.26657 3.20003 8.46657 3.40003C8.66657 3.60003 8.76657 3.90003 8.56657 4.10003C6.76657 6.70003 5.66657 9.40003 5.26657 12C4.86657 15 5.56657 17.9 7.26657 20C7.46657 20.2 7.36657 20.5 7.16657 20.7C7.16657 20.6 7.06657 20.7 6.96657 20.7Z" fill="black"/>
<path d="M12.5668 22.7004C12.2668 22.7004 12.0668 22.7004 11.7668 22.7004C11.4668 22.7004 11.2668 22.4004 11.3668 22.1004C11.3668 21.8004 11.6668 21.6004 11.9668 21.7004C14.7668 22.0004 17.6668 20.3004 18.8668 17.6004C19.8668 14.9004 19.2668 11.8004 18.5668 9.40039C18.0668 7.70039 17.1668 4.30039 14.7668 3.00039C13.6668 2.40039 12.3668 2.30039 10.8668 2.80039C10.5668 2.90039 10.3668 2.70039 10.2668 2.50039C10.1668 2.30039 10.3668 2.00039 10.5668 1.90039C12.2668 1.40039 13.8668 1.50039 15.2668 2.20039C18.0668 3.70039 19.0668 7.40039 19.5668 9.20039C20.2668 11.8004 20.9668 15.1004 19.6668 18.1004C18.4668 20.7004 15.4668 22.7004 12.5668 22.7004Z" fill="black"/>
</svg>
