<svg width="24" height="24" viewBox="0 0 24 24" fill="none" xmlns="http://www.w3.org/2000/svg">
<path d="M10.9531 17.5715C10.9531 15.9525 10.9531 14.3334 10.9531 12.8096V10.5239C10.9531 10.0477 11.1436 9.28581 10.8579 8.90485C10.7627 8.80962 10.6674 8.71438 10.5722 8.71438C10.4769 8.61914 10.4769 8.61914 10.3817 8.61914C8.76266 8.61914 7.04836 8.61914 5.42932 8.71438C5.23884 8.71438 5.14361 8.80962 5.14361 8.90485C5.04837 9.00009 4.95312 9.09533 4.95312 9.19057C5.04836 12.2382 5.14361 15.2858 5.14361 18.3334C5.14361 19.0953 5.14362 19.8572 5.23886 20.7144C5.23886 21.0001 5.23885 21.2858 5.52456 21.4763C6.19123 22.0477 7.90551 21.8572 8.76265 21.762C9.52455 21.762 10.5722 21.762 10.9531 21.0001C11.3341 20.2382 10.9531 18.6191 10.9531 17.5715Z" fill="#FCF3CF"/>
<path d="M4.47619 21.7615C4.19048 21.7615 4 21.571 4 21.2853V9.95196C4 8.99958 4.00001 7.85673 4.57143 6.90435C4.76191 6.61863 4.95239 6.33292 5.14287 6.14244C5.33334 5.85673 5.52383 5.66625 5.7143 5.38053C5.90478 4.90434 5.90476 3.76149 5.80952 3.19006C5.80952 2.90434 6.00002 2.71387 6.19049 2.71387C6.47621 2.71387 6.66668 2.90434 6.66668 3.19006C6.66668 3.38053 6.85715 5.09482 6.4762 5.85672C6.28572 6.33291 5.99999 6.61863 5.80952 6.90435C5.61904 7.09482 5.42857 7.2853 5.33333 7.47577C4.85714 8.23768 4.85714 9.19006 4.85714 10.0472V21.3805C4.95238 21.571 4.7619 21.7615 4.47619 21.7615Z" fill="black"/>
<path d="M11.7139 19.2861C11.4282 19.2861 11.2377 19.0956 11.2377 18.8099C11.2377 15.8575 11.2377 12.8099 11.1424 9.85752C11.1424 9.19085 11.0472 8.52418 10.8567 7.95275C10.7615 7.66704 10.571 7.38133 10.3805 7.09561C10.1901 6.8099 10.0948 6.61942 9.90435 6.33371C9.42816 5.38132 9.5234 4.04799 9.5234 3.95275C9.5234 3.66704 9.71388 3.47656 9.99959 3.47656C10.2853 3.47656 10.4758 3.76228 10.4758 3.95275C10.4758 4.23847 10.4758 5.28609 10.7615 5.85751C10.8567 6.14323 11.0472 6.33371 11.1424 6.52418C11.3329 6.8099 11.5234 7.19085 11.7139 7.5718C11.9996 8.33371 12.0948 9.19085 12.0948 9.85752C12.19 12.8099 12.2853 15.8575 12.1901 18.9051C12.1901 19.0004 11.9996 19.2861 11.7139 19.2861Z" fill="black"/>
<path d="M10.7618 23.0003H4.85705C4.57134 23.0003 4.38086 22.8098 4.38086 22.5241C4.38086 22.2384 4.57134 22.0479 4.85705 22.0479H10.7618C10.8571 22.0479 10.9523 22.0479 10.9523 22.0479C10.9523 22.0479 11.0475 21.9527 11.0475 21.7622C11.0475 21.286 11.1428 19.8574 11.1428 19.8574H12.0952C12.0952 19.8574 12.0951 21.286 11.9999 21.8574C11.9999 22.0479 11.9047 22.6193 11.4285 22.905C11.238 23.0003 10.9523 23.0003 10.7618 23.0003Z" fill="black"/>
<path d="M6.19103 3.38063C5.90532 3.38063 5.71484 3.19015 5.71484 2.90443C5.71484 2.61872 5.90532 2.42824 6.19103 2.42824L10.0958 2.33301C10.3815 2.33301 10.572 2.52348 10.572 2.8092C10.572 3.09491 10.3815 3.28539 10.0958 3.28539L6.19103 3.38063Z" fill="black"/>
<path d="M10.191 3.28572C9.90524 3.28572 9.71476 3 9.71476 2.71429C9.71476 2.61905 9.81 2.2381 9.81 1.95238C9.33381 1.95238 8.76238 1.95238 8.28619 1.95238C7.90524 1.95238 7.5243 1.95238 7.14335 1.95238C6.85764 1.95238 6.66714 1.95238 6.38143 1.95238C6.38143 2.14286 6.38143 2.33333 6.38143 2.52381C6.38143 2.80952 6.2862 3 6.00048 3.09524C5.71477 3.19048 5.52428 3 5.42905 2.71429C5.33381 2.33333 5.42905 1.85714 5.42905 1.57143C5.42905 1.28571 5.61952 1.19047 5.90524 1.09524C6.28619 1.09524 6.7624 1.09524 7.14335 1.09524C7.5243 1.09524 7.90524 1.09524 8.28619 1.09524C8.95286 1.09524 10.2862 1 10.2862 1C10.5719 1 10.7624 1.19048 10.7624 1.47619C10.7624 2.04762 10.6671 2.80953 10.6671 2.80953C10.6671 3.09524 10.3814 3.28572 10.191 3.28572Z" fill="black"/>
<path d="M19.9036 14.8102C19.9036 14.2388 19.9036 13.8578 19.2369 13.7626C18.094 13.5721 16.5702 13.953 15.3321 14.0483H15.2369C15.0464 14.0483 14.9512 14.1435 14.9512 14.334C14.9512 16.5245 15.1416 19.0007 15.9036 21.0007C16.1893 21.6673 16.7607 21.7626 17.4274 21.6673C17.9988 21.6673 19.1417 21.6673 19.5226 21.0959C19.9036 20.4292 19.8083 19.1911 19.8083 18.4292C19.9036 17.2864 19.9036 16.0483 19.9036 14.8102Z" fill="#FCF3CF"/>
<path d="M15.1425 22.9052C14.952 22.9052 14.6663 22.7147 14.6663 22.5242C14.0949 19.0004 13.7139 15.3814 13.5234 11.7623C13.5234 11.4766 13.7139 11.2861 13.9996 11.2861C14.2853 11.2861 14.4758 11.4766 14.4758 11.7623C14.6663 15.2861 15.0473 18.9052 15.6187 22.429C15.6187 22.6195 15.5234 22.8099 15.1425 22.9052C15.1425 22.9052 15.2377 22.9052 15.1425 22.9052Z" fill="black"/>
<path d="M20.3809 12.0481H14.857C14.5713 12.0481 14.3809 11.8576 14.3809 11.5719C14.3809 11.2862 14.5713 11.0957 14.857 11.0957H20.3809C20.6666 11.0957 20.8571 11.2862 20.8571 11.5719C20.8571 11.8576 20.6666 12.0481 20.3809 12.0481Z" fill="black"/>
<path d="M19.9996 22.8099C19.7139 22.8099 19.5234 22.5242 19.5234 22.3338C19.7139 19.3814 19.9044 15.1909 19.9044 11.7623C19.9044 11.4766 20.0949 11.2861 20.3806 11.2861C20.6663 11.2861 20.8568 11.4766 20.8568 11.7623C20.8568 15.2861 20.6663 19.4766 20.4758 22.429C20.4758 22.6195 20.2853 22.8099 19.9996 22.8099Z" fill="black"/>
<path d="M15.2379 23.0007C14.9522 23.0007 14.7617 22.8103 14.7617 22.5246C14.7617 22.2388 14.9522 22.0484 15.2379 22.0484C16.9522 22.0484 18.095 21.9531 19.9046 21.9531C20.1903 21.9531 20.3808 22.1436 20.3808 22.4293C20.3808 22.715 20.1903 22.9055 19.9046 22.9055C18.1903 22.9055 16.9522 22.9055 15.2379 23.0007Z" fill="black"/>
</svg>
