<svg width="24" height="24" viewBox="0 0 24 24" fill="none" xmlns="http://www.w3.org/2000/svg">
<path d="M18.6377 4.14673C17.9518 5.12661 17.2659 6.0085 16.678 6.98838C16.286 7.47832 15.8941 7.96826 15.6001 8.36021C15.3061 8.36021 15.0122 8.4582 14.7182 8.65418C12.7584 9.53607 11.2886 12.1817 13.7383 12.3777C14.7182 12.4757 15.8941 11.8878 16.482 11.1039C17.1679 10.32 17.2659 9.43808 17.1679 8.65418C17.4619 8.36021 17.7558 7.96826 17.9518 7.87027C18.2458 7.57631 18.5397 7.28234 18.8337 6.98838C21.0874 5.02862 24.517 1.50105 22.2633 1.01111C20.8915 0.815136 19.2256 3.26483 18.6377 4.14673Z" fill="#A0DFDA"/>
<path d="M19.2256 8.94806C18.8337 8.55611 18.3437 8.45812 17.8538 8.45812C17.8538 7.38025 17.4618 6.49836 16.384 6.2044C15.4041 6.00842 14.7182 6.40037 14.1302 7.08629C13.6403 6.30238 12.7584 5.71445 11.8765 5.81244C10.8966 5.91043 10.2107 6.49836 9.81876 7.38025C9.23083 6.89031 8.54493 6.69433 7.76102 7.08629C7.17309 7.38025 6.87912 7.87019 6.68315 8.45812C5.01735 8.06617 3.25357 10.2219 4.52741 12.1817C4.52741 12.4756 4.72339 12.8676 5.01735 12.8676C9.72078 13.8475 14.5222 14.2394 19.3236 13.8475C19.8136 13.8475 20.0095 13.3575 19.9115 12.9656C20.3035 11.5937 20.4995 9.92794 19.2256 8.94806Z" fill="#FCF3CF"/>
<path d="M22.2634 11.1035C22.2634 11.1035 22.5573 21.2943 12.2686 22.2741C2.37179 23.254 1.58789 11.1035 1.58789 11.1035H22.2634Z" fill="#A0DFDA"/>
<path d="M1.48994 11.7898C1.19598 11.7898 1 11.5938 1 11.2998C1 11.0059 1.19598 10.8099 1.48994 10.8099L22.1654 10.7119C22.4594 10.7119 22.6554 10.9079 22.6554 11.2019C22.6554 11.4958 22.4594 11.6918 22.1654 11.6918L1.48994 11.7898Z" fill="black"/>
</svg>
