<svg width="24" height="24" viewBox="0 0 24 24" fill="none" xmlns="http://www.w3.org/2000/svg">
<path d="M20.5032 8.01278C19.9267 7.43637 19.2543 7.05209 18.4857 6.76388C17.8132 6.47567 17.0446 6.3796 16.5643 5.89925C15.5075 5.03462 15.4115 3.59357 14.1625 2.92108C13.7783 2.72894 13.4901 2.92108 13.2979 3.30536C12.7215 4.74641 10.8962 5.03462 9.64727 5.70711C8.49443 6.3796 8.01407 7.82065 6.66909 8.20493C5.42019 8.5892 4.26735 8.78134 3.30665 9.74204C2.44202 10.6067 2.15382 11.7595 2.5381 12.9123C2.5381 13.0084 2.63417 13.1045 2.73024 13.2006C3.88308 15.7944 7.6298 15.8905 10.1276 15.8905C11.8569 15.8905 13.6822 15.7944 15.4115 15.5062C16.9486 15.3141 18.6778 15.0259 20.0228 14.1613C22.2324 12.7202 22.4246 9.83811 20.5032 8.01278Z" fill="#FCF3CF"/>
<path d="M22.6155 11.376C22.6155 11.376 22.9037 21.7515 12.4321 22.8083C2.34472 23.769 1.57617 11.472 1.57617 11.472L22.6155 11.376Z" fill="#32B2A8"/>
<path d="M1.48035 12.0483C1.19214 12.0483 1 11.8562 1 11.568C1 11.2798 1.19214 11.0876 1.48035 11.0876L22.5197 10.8955C22.8079 10.8955 23 11.0876 23 11.3759C23 11.6641 22.8079 11.8562 22.5197 11.8562L1.48035 12.0483Z" fill="black"/>
<path d="M8.39651 10.0307C8.78079 9.83854 9.06901 9.55033 9.45329 9.26212C9.45329 9.26212 9.45328 9.16605 9.35721 9.16605C7.91616 7.14859 6.37906 5.13112 4.93801 3.11365L4.84193 3.01758C4.45765 3.30579 4.07337 3.594 3.78516 3.78614C3.78516 3.78614 3.78516 3.88221 3.88123 3.88221C5.22621 5.99575 6.66726 8.01321 8.39651 10.0307C8.30044 10.0307 8.30044 10.0307 8.39651 10.0307Z" fill="#F38059"/>
<path d="M10.0307 8.10917C10.4149 7.91703 10.7992 7.72489 11.1835 7.62882V7.53275C9.83853 5.41921 8.58962 3.20961 7.34071 1C6.95643 1.28821 6.47608 1.48035 6.0918 1.76856C6.0918 1.86463 6.09179 1.86463 6.18786 1.9607C7.3407 4.07424 8.68568 6.0917 10.0307 8.10917C10.0307 8.20524 10.0307 8.20524 10.0307 8.10917C10.0307 8.20524 10.0307 8.20524 10.0307 8.10917Z" fill="#F38059"/>
</svg>
