<svg width="24" height="24" viewBox="0 0 24 24" fill="none" xmlns="http://www.w3.org/2000/svg">
<path d="M10.9831 17.5479C10.9831 15.9219 10.9831 14.2958 10.9831 12.7653V10.4697C10.9831 9.99142 11.1744 9.22621 10.8875 8.8436C10.7918 8.74794 10.6962 8.65229 10.6005 8.65229C10.5049 8.55664 10.5049 8.55664 10.4092 8.55664C8.78312 8.55664 7.06138 8.55664 5.43529 8.65229C5.24399 8.65229 5.14834 8.74794 5.14834 8.8436C5.05269 8.93925 4.95703 9.0349 4.95703 9.13055C5.05268 12.1914 5.14834 15.2523 5.14834 18.3132C5.14834 19.0784 5.14834 19.8436 5.24399 20.7045C5.24399 20.9914 5.24399 21.2784 5.53094 21.4697C6.20051 22.0436 7.92225 21.8523 8.78312 21.7566C9.54834 21.7566 10.6005 21.7566 10.9831 20.9914C11.3657 20.2262 10.9831 18.6001 10.9831 17.5479Z" fill="#FCF3CF"/>
<path d="M4.47826 21.7564C4.1913 21.7564 4 21.5651 4 21.2781V9.89554C4 8.93902 4 7.79119 4.57391 6.83467C4.76522 6.54772 4.95653 6.26076 5.14783 6.06946C5.33913 5.7825 5.53044 5.59119 5.72174 5.30424C5.91305 4.82598 5.91304 3.67815 5.81739 3.10424C5.81739 2.81728 6.0087 2.62598 6.29565 2.62598C6.58261 2.62598 6.77391 2.81728 6.77391 3.10424C6.77391 3.29554 6.96522 5.01728 6.58261 5.7825C6.39131 6.26076 6.10435 6.54772 5.91304 6.83467C5.72174 7.02598 5.53043 7.21728 5.43478 7.40859C4.95652 8.1738 4.95652 9.13032 4.95652 9.99119V21.3738C4.95652 21.5651 4.76522 21.7564 4.47826 21.7564Z" fill="black"/>
<path d="M11.7469 19.2699C11.4599 19.2699 11.2686 19.0786 11.2686 18.7916C11.2686 15.8264 11.2686 12.7655 11.173 9.8003C11.173 9.13073 11.0773 8.46117 10.886 7.88725C10.7904 7.6003 10.599 7.31334 10.4077 7.02639C10.2164 6.73943 10.1208 6.54812 9.92948 6.26117C9.45122 5.30464 9.54687 3.96551 9.54687 3.86986C9.54687 3.58291 9.73817 3.3916 10.0251 3.3916C10.3121 3.3916 10.5034 3.67856 10.5034 3.86986C10.5034 4.15682 10.5034 5.20899 10.7903 5.78291C10.886 6.06986 11.0773 6.26117 11.173 6.45247C11.3643 6.73943 11.5556 7.12204 11.7469 7.50465C12.0338 8.26987 12.1295 9.13073 12.1295 9.8003C12.2251 12.8612 12.3208 15.8264 12.2251 18.8873C12.2251 19.0786 12.0338 19.2699 11.7469 19.2699Z" fill="black"/>
<path d="M10.7915 23.0003H4.86107C4.57412 23.0003 4.38281 22.809 4.38281 22.522C4.38281 22.2351 4.57412 22.0438 4.86107 22.0438H10.7915C10.8872 22.0438 10.9828 22.0438 10.9828 22.0438C10.9828 22.0438 11.0785 21.9481 11.0785 21.7568C11.0785 21.2785 11.1741 19.8438 11.1741 19.8438H12.1306C12.1306 19.8438 12.1306 21.2785 12.035 21.8524C12.035 22.0438 11.9393 22.6177 11.4611 22.9046C11.2698 23.0003 10.9828 23.0003 10.7915 23.0003Z" fill="black"/>
<path d="M6.20092 3.39104C5.91396 3.39104 5.72266 3.19974 5.72266 2.91278C5.72266 2.62582 5.91396 2.43452 6.20092 2.43452L10.1227 2.33887C10.4096 2.33887 10.6009 2.53017 10.6009 2.81713C10.6009 3.10408 10.4096 3.29539 10.1227 3.29539L6.20092 3.39104Z" fill="black"/>
<path d="M10.2177 3.29565C10.2177 3.29565 10.122 3.29565 10.2177 3.29565C9.93074 3.29565 9.73944 3.0087 9.73944 2.72174C9.73944 2.62609 9.83509 2.24348 9.83509 1.95652C9.35683 1.95652 8.78292 1.95652 8.30466 1.95652C7.92205 1.95652 7.53944 1.95652 7.15683 1.95652C6.86988 1.95652 6.67857 1.95652 6.39161 1.95652C6.39161 2.14783 6.39161 2.33913 6.39161 2.53044C6.39161 2.81739 6.29596 3.0087 6.009 3.10435C5.72205 3.10435 5.53074 3.0087 5.43509 2.72174C5.33944 2.33913 5.43509 1.86087 5.43509 1.57392C5.43509 1.28696 5.62639 1.19131 5.91335 1.09565C6.29596 1.09565 6.77422 1.09565 7.15683 1.09565C7.53944 1.09565 7.92205 1.09565 8.30466 1.09565C8.97422 1.09565 10.3133 1 10.3133 1C10.6003 1 10.7916 1.1913 10.7916 1.47826C10.7916 2.05217 10.696 2.81739 10.696 2.81739C10.696 3.10435 10.409 3.29565 10.2177 3.29565Z" fill="black"/>
<path d="M19.8782 14.773C19.8782 14.1991 19.8782 13.8164 19.2086 13.7208C18.0608 13.5295 16.5304 13.9121 15.2869 14.0078H15.1913C15 14.0078 14.9043 14.1034 14.9043 14.2947C14.9043 16.4947 15.0956 18.9817 15.8608 20.9904C16.1478 21.6599 16.7217 21.7556 17.3913 21.6599C17.9652 21.6599 19.113 21.6599 19.4956 21.086C19.8782 20.4164 19.7826 19.173 19.7826 18.4078C19.9739 17.2599 19.9739 16.0164 19.8782 14.773Z" fill="#FCF3CF"/>
<path d="M15.1905 22.9039C14.9992 22.9039 14.7123 22.7126 14.7123 22.5213C14.1384 18.9822 13.7558 15.3474 13.5645 11.7126C13.5645 11.4257 13.7558 11.2344 14.0427 11.2344C14.3297 11.2344 14.521 11.4257 14.521 11.7126C14.7123 15.2518 15.0949 18.8865 15.6688 22.4257C15.6688 22.617 15.5732 22.8083 15.1905 22.9039C15.1905 22.9039 15.2862 22.9039 15.1905 22.9039Z" fill="black"/>
<path d="M20.4519 11.9995H14.904C14.6171 11.9995 14.4258 11.8082 14.4258 11.5212C14.4258 11.2343 14.6171 11.043 14.904 11.043H20.4519C20.7388 11.043 20.9301 11.2343 20.9301 11.5212C20.9301 11.8082 20.7388 11.9995 20.4519 11.9995Z" fill="black"/>
<path d="M20.0681 22.8083C19.7811 22.8083 19.5898 22.5213 19.5898 22.33C19.7811 19.3648 19.9725 15.1561 19.9725 11.7126C19.9725 11.4257 20.1638 11.2344 20.4507 11.2344C20.7377 11.2344 20.929 11.4257 20.929 11.7126C20.929 15.2518 20.7377 19.4605 20.5464 22.4257C20.5464 22.617 20.3551 22.8083 20.0681 22.8083Z" fill="black"/>
<path d="M15.2869 22.9994C14.9999 22.9994 14.8086 22.8081 14.8086 22.5212C14.8086 22.2342 14.9999 22.0429 15.2869 22.0429C17.0086 22.0429 18.1564 21.9473 19.9738 21.9473C20.2608 21.9473 20.4521 22.1386 20.4521 22.4255C20.4521 22.7125 20.2608 22.9038 19.9738 22.9038C18.2521 22.9038 17.0086 22.9994 15.2869 22.9994Z" fill="black"/>
<path d="M10.6957 12.1917C10.1218 11.6178 9.45226 12.096 8.974 12.67C8.40009 13.4352 8.30443 14.296 8.01748 15.2526C8.01748 15.2526 8.01747 15.1569 7.92182 15.1569C7.82617 14.7743 7.63486 14.296 7.44356 13.9134C7.25225 13.4352 6.86965 12.8613 6.39139 12.7656C6.00878 12.67 5.53052 12.7656 5.33921 13.0526C5.14791 13.2439 5.14791 13.4352 5.14791 13.6265C5.05226 14.0091 5.43487 14.583 5.62617 14.87C6.10443 15.4439 6.77399 15.8265 7.44356 16.2091C7.53921 16.2091 7.63487 16.3047 7.63487 16.2091C7.63487 16.6873 7.73052 17.1656 7.73052 17.6439C7.82617 18.1221 8.49573 18.1221 8.40008 17.6439C8.30443 17.1656 8.30443 16.6873 8.30443 16.3047C8.40008 16.3047 8.40009 16.3047 8.49574 16.2091C9.64356 15.6352 11.9392 13.5308 10.6957 12.1917Z" fill="#32B2A8"/>
</svg>
