<svg width="24" height="24" viewBox="0 0 24 24" fill="none" xmlns="http://www.w3.org/2000/svg">
<path d="M21.1224 6.22161C21.0255 3.99091 20.0556 1.7602 17.6309 1.56623C16.0791 1.37225 14.2364 1.66322 12.9755 2.5361C11.9087 3.40899 11.3267 4.66982 10.5508 5.73668C9.29001 7.28847 7.64122 8.25835 6.18642 9.51918C5.99244 9.61617 5.89545 9.71316 5.70148 9.81015C1.43404 12.7198 1.04609 19.7998 6.38039 21.8366C9.09603 22.9034 12.3936 23.2914 15.1092 22.1275C17.7279 21.0607 19.0857 18.733 19.6676 16.0173C20.0556 14.4655 20.2496 12.9137 20.4435 11.3619C20.8315 9.61617 21.1224 7.8704 21.1224 6.22161Z" fill="#32B2A8"/>
<path d="M16.1748 12.4281C15.5929 10.5853 14.2351 9.22751 12.2954 9.13053C10.3556 8.93655 8.41587 10.1004 7.34901 11.6522C4.82734 15.2407 8.99779 19.7021 12.7803 18.6353C14.1381 18.2473 15.205 17.3744 15.7869 16.1136C16.4658 15.1437 16.6598 13.8829 16.1748 12.4281Z" fill="#C6896B"/>
<path d="M2.88815 18.0536C2.69418 18.0536 2.5002 17.9567 2.5002 17.7627C1.33635 15.532 2.40321 12.9133 3.66404 11.3615C4.53693 10.2947 5.70078 9.42178 6.76764 8.54889C7.34956 8.06396 7.93148 7.67601 8.41642 7.19107C9.28931 6.41517 10.0652 5.54229 10.7441 4.76639C11.0351 4.37844 11.423 3.99049 11.714 3.69953C12.3929 2.92363 13.2658 2.05075 14.3326 1.56581C15.4965 0.983888 16.8543 0.789911 17.9212 1.27485C18.2121 1.37183 18.3091 1.66279 18.2121 1.95376C18.1151 2.24472 17.8242 2.34171 17.5332 2.24472C16.7573 1.95376 15.6905 2.05075 14.7206 2.53568C13.8477 3.02062 13.1688 3.60254 12.2959 4.47543C12.005 4.86338 11.617 5.15434 11.326 5.54229C10.5501 6.41517 9.77424 7.28806 8.90136 8.06396C8.31943 8.54889 7.73751 9.03383 7.15559 9.51877C6.08873 10.3917 5.02187 11.1675 4.24597 12.1374C3.17911 13.4952 2.20923 15.629 3.17911 17.4717C3.27609 17.6657 3.17911 17.9567 2.98514 18.1506C2.98514 18.0536 2.98514 18.0536 2.88815 18.0536Z" fill="black"/>
<path d="M10.2584 22.9996C8.41563 22.9996 6.57287 22.5146 5.02108 21.4478C4.8271 21.2538 4.73012 20.9628 4.92409 20.7688C5.11807 20.5749 5.40903 20.4779 5.603 20.6719C7.54275 21.9327 9.96743 22.3206 12.1981 21.8357C14.4288 21.2538 16.3686 19.799 17.5324 17.7622C18.4053 16.2104 18.6963 14.4647 19.0842 12.8159C19.7631 9.32435 20.3451 5.92979 18.6963 3.31113C18.5993 3.11716 18.5993 2.8262 18.8903 2.63223C19.0842 2.53524 19.3752 2.53524 19.5692 2.8262C21.3149 5.8328 20.733 9.51832 20.0541 13.1068C19.6662 14.8526 19.2782 16.6954 18.4053 18.3442C17.1445 20.5749 14.9138 22.2237 12.4891 22.9026C11.7132 22.9026 10.9373 22.9996 10.2584 22.9996Z" fill="black"/>
<path d="M11.2292 18.8296C9.96837 18.8296 8.80452 18.3446 7.83465 17.5687C6.6708 16.5019 6.08888 14.7561 6.28285 13.2043C6.57381 11.5555 7.64068 10.1977 9.09548 9.51879C9.28946 9.4218 9.58042 9.51879 9.77439 9.80976C9.87138 10.1007 9.77439 10.2947 9.48343 10.4887C8.31958 10.9736 7.4467 12.1374 7.25272 13.3983C7.05875 14.6591 7.54368 16.0169 8.41657 16.8898C9.38644 17.7627 10.7443 18.1507 12.0051 17.8597C12.2961 17.7627 12.49 17.9567 12.587 18.2476C12.684 18.5386 12.49 18.7326 12.1991 18.8296C12.0051 18.8296 11.6172 18.8296 11.2292 18.8296Z" fill="black"/>
</svg>
