<svg width="237" height="346" viewBox="0 0 237 346" fill="none" xmlns="http://www.w3.org/2000/svg">
<path d="M39.7101 38.8793C39.7101 38.8793 33.8701 25.4344 32.8838 20.9831C31.5082 14.7797 34.1491 9.77035 40.0151 8.12867C45.881 6.48699 52.1232 -1.79927 60.8767 0.355027C73.6143 3.48265 72.8681 17.2715 66.6842 21.327L64.0497 34.1684C60.8962 42.3119 53.3172 46.3804 39.7101 38.8793Z" fill="#002926"/>
<path d="M36.0568 26.7776C36.0243 31.7481 36.0567 43.2918 42.4742 47.3797C54.1412 54.8289 62.7324 46.4908 63.6993 41.3127C65.315 32.663 66.4181 14.4164 54.7446 12.9304C41.4295 11.2433 36.0568 21.8072 36.0568 26.7776Z" fill="#FED3C4"/>
<path d="M111.036 125.09C108.576 107.739 100.939 76.7677 87.7017 65.8729C75.3274 55.6984 60.7145 55.1793 60.3057 45.6018L42.708 45.485C42.708 45.485 42.708 53.6544 34.5191 56.5744C26.3301 59.5009 15.072 67.1188 9.27095 83.5486C4.8196 96.1564 2.56148 111.288 1.095 126.167C0.19954 135.258 5.9292 171.602 5.9292 171.602C5.9292 171.602 2.17863 181.79 6.01354 186.092C9.2385 189.713 13.4952 188.765 13.4952 188.765L14.4231 172.627C14.4231 172.627 22.1253 116.843 23.3517 108.167C23.3517 108.167 24.3056 116.778 23.4621 128.088C23.1311 132.487 19.5363 140.066 20.4967 149.968C20.4967 149.968 16.0842 182.906 17.0835 195.351C18.7187 215.72 19.7699 230.313 19.7699 230.313C19.7699 230.313 16.9472 253.083 21.4246 268.922C25.9019 284.761 29.049 296.422 29.049 296.422C29.2566 298.342 29.3669 301.029 28.6856 303.014C27.5176 306.441 25.5969 311.138 28.3936 314.097C31.1903 317.056 38.1593 316.012 38.1593 316.012C38.1593 316.012 41.7022 316.154 41.0987 311.502C40.1579 304.234 40.0865 296.921 40.1124 293.703C40.7354 285.566 45.1413 245.809 46.4715 225.31C47.0036 217.115 50.6244 188.194 50.6244 188.194C50.6244 188.194 53.4081 221.216 54.1543 229.418C55.6467 245.809 61.7852 296.409 61.7917 296.435C61.7722 300.153 61.597 306.291 60.8054 312.404C60.2019 317.056 63.7448 316.914 63.7448 316.914C63.7448 316.914 69.8573 317.108 73.9258 316.914C76.45 316.797 74.3865 307.342 73.2185 303.91C72.0505 300.484 73.2185 294.929 73.2185 294.929C73.2185 294.929 78.5394 273.75 79.8242 266.138C82.5819 249.812 81.6281 229.009 81.6281 229.009C81.6281 229.009 86.7218 179.947 86.4882 167.015C86.3779 160.811 85.3786 145.913 85.3786 145.913C87.7795 138.418 84.3015 132.896 83.698 126.479C82.7636 116.531 81.8033 107.09 81.1674 99.7902C81.1674 99.7902 89.7391 122.04 90.5892 129.853C91.7701 140.735 91.6015 175.255 91.6015 175.255L92.445 192.639C92.445 192.639 96.3513 192.71 99.9266 189.434C103.775 185.904 100.011 174.944 100.011 174.944C100.011 174.944 113.495 142.435 111.036 125.09Z" fill="#FED3C4"/>
<path d="M64.8933 52.8887C64.8933 52.8887 58.8392 60.5715 48.3921 59.8058C42.2342 59.3581 38.0165 54.6926 38.0165 54.6926C38.0165 54.6926 35.0446 55.8671 29.9768 58.1771C26.1679 59.9161 16.5643 64.9774 10.919 79.0906C4.80006 94.3913 3.3855 107.875 3.3855 107.875C3.3855 107.875 11.1072 110.854 22.573 113.572L23.3257 108.174C23.3257 108.174 23.9162 117.842 23.436 128.094C23.436 128.094 36.3878 112.949 56.1463 113.566C75.9049 114.182 83.6655 126.492 83.6655 126.492C83.6655 126.492 81.5502 103.904 81.1349 99.803L85.437 111.639C85.437 111.639 97.9799 110.263 106.578 103.521C106.578 103.521 100.348 77.4165 89.2784 67.3004C79.5386 58.3977 68.1572 54.712 64.8933 52.8887Z" fill="#C4ECE9"/>
<path d="M20.4837 149.981C20.4837 149.981 34.6034 159.001 53.3367 158.118C72.07 157.236 85.3592 145.932 85.3592 145.932C85.3592 145.932 87.202 162.336 86.1249 177.222C85.0477 192.114 83.7175 207.31 83.7175 207.31C83.7175 207.31 67.7809 210.419 52.2141 207.31L50.5984 188.207L48.3014 207.31C48.3014 207.31 36.284 213.436 18.1217 208.693C18.1217 208.693 15.8506 188.914 16.9667 178.766C18.3099 166.638 20.4837 149.981 20.4837 149.981Z" fill="#C4ECE9"/>
<path d="M51.7728 50.3387C56.3994 50.1181 58.6056 47.5679 59.6633 48.3985C60.721 49.2291 58.0281 54.8095 52.3503 54.8095C46.6726 54.8095 42.7274 50.7669 43.7851 48.9371C44.8363 47.1137 46.5753 50.5853 51.7728 50.3387Z" fill="#FBB49B"/>
<path d="M50.6763 152.979C60.0397 152.674 71.22 147.165 76.5668 144.609C80.9922 142.493 75.0289 157.411 50.6763 158.157C33.5068 158.683 23.9033 147.976 25.3633 146.821C28.2508 144.531 35.9531 153.459 50.6763 152.979Z" fill="#FBB49B"/>
<path d="M23.4492 128.108C23.4492 128.108 26.8363 129.788 30.0159 129.113C33.1954 128.438 31.3461 131.326 26.7325 131.618C22.1254 131.904 22.6056 132.41 22.6056 132.41C22.6056 132.41 23.4102 129.022 23.4492 128.108Z" fill="#FBB49B"/>
<path d="M83.685 126.505C83.685 126.505 80.8364 128.347 78.6172 128.101C76.4045 127.854 77.4621 130.262 80.6352 130.645C83.8082 131.027 84.4052 130.645 84.4052 130.645C84.4052 130.645 83.938 127.653 83.685 126.505Z" fill="#FBB49B"/>
<path d="M23.3452 108.18C23.3452 108.18 21.7489 96.1628 22.5989 93.3401C23.4425 90.5175 24.604 96.033 27.1022 98.2133C29.6004 100.394 36.9198 103.729 42.1758 102.321C47.4318 100.913 46.0237 106.727 38.3279 108.634C30.6256 110.536 25.2139 112.599 23.7345 114.319L23.3452 108.18Z" fill="#A0DFDA"/>
<path d="M81.1479 99.8161C81.1479 99.8161 80.6677 89.8752 79.1299 88.9732C77.592 88.0777 76.9496 101.847 72.3296 103.43C67.7095 105.014 59.7542 101.808 61.4218 104.501C63.0894 107.194 70.2791 108.608 75.6648 110.276C81.0571 111.944 82.3354 112.846 82.3354 112.846L81.1479 99.8161Z" fill="#A0DFDA"/>
<path d="M36.2709 172.608C30.6905 170.369 29.211 171.206 30.8787 173.335C32.5463 175.463 44.3495 178.416 51.0266 190.031L52.9537 176.826C52.9537 176.826 50.2609 178.221 36.2709 172.608Z" fill="#A0DFDA"/>
<path d="M64.6857 173.484C64.6857 173.484 57.8075 177.423 51.1889 177.079C50.6049 188.214 51.0786 192.302 52.0714 204.059" stroke="#030000" stroke-width="2" stroke-miterlimit="10" stroke-linecap="round" stroke-linejoin="round"/>
<path d="M54.9655 45.2773C53.5575 42.7077 50.2092 42.0264 48.016 44.0055C47.9706 44.0509 47.9381 44.0963 47.8927 44.1482C47.3347 44.6284 46.9908 45.2578 46.8869 45.9651C46.5885 46.7308 46.4911 47.6068 46.6793 48.5412C47.2049 51.2146 50.021 53.1677 52.7009 52.3177C55.7053 51.3573 56.3606 47.8209 54.9655 45.2773Z" fill="#E45C30"/>
<path d="M53.5769 151.221C63.083 150.027 70.7463 140.884 69.2669 131.307C69.2799 131.118 69.2734 130.917 69.2409 130.703C68.1703 123.5 64.2315 116.46 56.9121 114.241C49.9431 112.125 43.9604 115.636 40.1839 121.294C38.0945 123.844 36.8421 127.134 36.6085 130.431C36.602 130.56 36.602 130.69 36.5955 130.82C36.1348 134.577 36.7513 138.418 38.7044 141.831C40.8003 147.762 46.7311 152.084 53.5769 151.221Z" fill="#E45C30"/>
<path d="M21.9372 95.8579C21.4311 94.3201 20.3929 92.9185 19.1665 91.8154C17.0511 89.9206 13.9365 88.9343 11.2761 90.3489C8.69351 91.7245 7.73316 94.8457 7.79156 97.6229C7.86294 100.744 9.38133 103.703 12.3532 104.936C15.1434 106.097 18.4527 105.468 20.4837 103.19C22.2357 101.231 22.8262 98.3172 21.9372 95.8579Z" fill="#E45C30"/>
<path d="M103.658 94.5731C103.483 93.6517 103.165 92.8341 102.73 92.1138C102.094 90.868 101.043 89.9855 99.8099 89.4015C99.5438 89.2587 99.2713 89.1419 98.9923 89.0251C95.2482 86.5788 89.9209 86.0468 86.657 89.1744C83.0102 92.6589 84.2756 98.0511 87.1826 101.672C87.4162 102.022 87.6757 102.353 87.9677 102.678C88.5193 103.281 89.2331 103.846 90.0247 104.267C90.0701 104.293 90.1156 104.326 90.161 104.352C90.44 104.527 90.719 104.637 90.9915 104.696C91.0175 104.709 91.0499 104.722 91.0759 104.728C92.484 105.351 94.1516 105.481 96.0009 104.851C96.7731 104.592 97.4674 104.241 98.0838 103.82C101.692 102.418 104.475 98.9077 103.658 94.5731Z" fill="#E45C30"/>
<path d="M40.5408 186.838C38.1594 180.7 33.124 177.39 26.5573 178.402C21.4376 179.188 17.8428 185.443 19.452 190.303C20.2372 192.678 21.9243 195.144 24.0461 197.123C27.0505 200.977 31.7549 203.339 36.5372 200.523C41.3065 197.713 42.4355 191.731 40.5408 186.838Z" fill="#E45C30"/>
<path d="M85.0217 186.896C85.093 186.072 85.0866 185.242 84.9892 184.437C85.0541 184.009 84.9892 183.555 84.7427 183.12C84.0289 180.304 82.1406 177.935 78.8378 177.059C77.4946 176.702 76.1839 176.715 74.9445 177.014C69.4939 177.241 65.5097 182.886 65.3929 188.22C64.8219 191.445 65.5357 194.91 67.677 197.447C75.23 206.408 85.385 195.189 85.0217 186.896Z" fill="#E45C30"/>
<path d="M211.848 73.079C211.848 73.079 216.514 59.2151 216.941 54.511C217.368 49.8132 217.323 42.8207 211.555 40.2583C205.786 37.6959 200.54 27.6119 191.329 29.1609C179.888 31.0859 177.236 40.7364 181.577 46.3839C181.577 46.3903 188.493 79.842 211.848 73.079Z" fill="#002926"/>
<path d="M175.451 130.026C176.057 125.8 174.731 117.953 185.414 102.247C190.902 94.1775 194.886 92.4437 193.681 83.0864C193.681 83.0864 186.804 81.9709 182.45 75.8836C176.873 68.0816 181.577 46.3903 181.577 46.3903C182.501 46.811 187.632 51.2538 193.414 56.4041C193.822 55.5308 194.159 54.6384 194.943 53.9692C196.04 53.0449 197.582 52.8409 198.774 53.7142C201.114 55.4352 200.572 59.6231 199.673 62.0134C206.143 67.8458 211.848 73.079 211.848 73.079C211.848 73.079 211.535 74.8446 215.914 81.1104C218.394 84.6545 233.431 94.3942 234.336 107.079C235.241 119.763 237.019 145.63 232.526 160.526C229.052 172.044 224.864 174.798 224.864 174.798C224.864 174.798 232.226 188.605 229.504 202.8C226.789 216.995 218.031 245.379 220.141 254.437C222.257 263.495 225.272 276.785 222.856 293.39C220.44 309.995 215.003 326.306 215.003 332.043C215.003 337.78 217.419 343.822 213.492 344.727C209.566 345.633 199.431 343.924 195.319 344.543C186.638 345.856 183.954 343.924 183.954 343.924C183.954 343.924 184.273 341.298 188.104 339.966C197.601 336.651 202.216 333.056 202.516 330.946C202.816 328.83 195.67 272.565 193.254 265.318C190.838 258.07 185.663 228.029 183.075 207.746C183.075 207.746 165.667 192.404 164.239 181.517C163.219 173.753 165.775 166.977 166.081 164.721C166.444 162.018 166.209 156.421 170.014 142.099C171.499 136.553 175.247 131.473 175.451 130.026Z" fill="#FED3C4"/>
<path d="M169.708 193.054L202.287 180.866L193.254 217.276C193.254 217.276 200.266 219.793 203.683 215.255C207.099 210.717 205.652 205.146 205.652 205.146L225.616 173.6C225.616 173.6 231.2 189.185 230.174 198.676C228.848 210.972 221.766 236.283 221.766 236.283C221.766 236.283 200.311 239.464 187.295 236.283L182.692 207.931C182.699 207.931 173.233 200.996 169.708 193.054Z" fill="#C4ECE9"/>
<path d="M217.1 82.825C217.1 82.825 201.547 94.6937 191.999 93.2531C191.999 93.2531 178.702 107.378 176.312 122.026C173.915 136.68 173.902 130.727 170.639 140.142L209.572 156.651C209.865 150.767 208.858 135.501 208.858 135.501L235.458 134.456C235.458 134.456 235.458 112.452 233.482 102.757C232.194 96.4402 224.59 87.1785 217.1 82.825Z" fill="#C4ECE9"/>
<path d="M187.479 73.2001C192.113 73.9778 195.651 74.5514 201.777 75.3992C204.148 77.2541 202.86 82.2005 198.36 82.4491C193.433 82.7168 189.347 80.9065 186.969 78.803C184.197 76.3553 183.068 72.4607 187.479 73.2001Z" fill="#FFFF50"/>
<path d="M178.422 145.993C176.318 159.207 174.393 172.599 177.536 185.813C177.886 187.285 180.143 186.616 179.792 185.15C176.752 172.37 178.664 159.36 180.704 146.58C180.939 145.094 178.664 144.502 178.422 145.993Z" fill="#F38059"/>
<path d="M180.385 174.409C180.207 171.318 180.2 168.207 180.353 165.109C180.525 161.776 180.819 158.41 181.443 155.115C181.73 153.591 182.138 152.087 182.75 150.653C183.26 149.474 184.726 147.74 186.313 148.078C189.252 148.702 188.933 152.246 189.398 154.592C189.902 157.154 191.565 159.334 192.655 161.667C193.784 164.096 194.096 166.709 193.357 169.31C192.98 170.649 192.394 171.904 191.661 173.096C190.928 174.282 190.265 175.359 190.118 176.755C189.978 178.055 190.042 179.349 189.685 180.624C189.36 181.778 188.818 182.906 187.964 183.779C187.059 184.704 185.797 185.449 184.465 185.01C183.234 184.602 182.482 183.448 181.94 182.364C180.704 179.929 180.538 177.099 180.385 174.409Z" fill="#FFBC00"/>
<path d="M165.922 173.262C166.298 169.839 167.566 166.537 167.745 163.325C167.936 159.921 168.427 156.524 169.243 153.139C169.695 151.252 170.027 149.659 170.626 148.04C172.736 142.373 176.924 143.597 176.325 146.299C174.935 152.559 174.457 158.78 173.807 165.122C173.488 168.246 173.788 172.217 173.896 175.315C174.24 185.137 178.785 190.562 171.098 190.562C168.491 190.562 167.171 185.787 166.432 183.416C165.527 180.529 165.603 176.213 165.922 173.262Z" fill="#FFFF50"/>
<path d="M234.744 123.397C234.961 138.65 235.043 154.528 228.459 168.29C226.923 171.496 225.055 174.524 223.187 177.545C218.91 184.468 205.27 202.264 205.658 205.146C206.047 208.027 205.767 211.086 204.339 213.617C202.911 216.147 199.322 218.429 193.261 217.276" stroke="#030000" stroke-width="2" stroke-miterlimit="10" stroke-linecap="round" stroke-linejoin="round"/>
<path d="M196.811 161.291C196.811 161.291 205.072 162.024 209.464 157.409C209.464 157.409 208.979 161.202 207.558 165.505C207.558 165.505 201.343 167.251 196.811 165.505C194.204 164.504 193.669 161.31 196.811 161.291Z" fill="#FBB49B"/>
<path d="M182.699 207.931C182.699 207.931 190.309 204.336 192.043 196.617C193.783 188.898 196.065 195.457 194.051 199.9C192.037 204.343 192.368 210.717 183.712 214.191L182.699 207.931Z" fill="#A0DFDA"/>
<path d="M209.247 142.29C209.247 142.29 199.182 138.567 194.841 138.733C190.501 138.899 198.87 142.64 201.343 144.438C203.816 146.235 209.878 151.571 209.878 151.571C209.878 151.571 209.846 143.565 209.247 142.29Z" fill="#A0DFDA"/>
<path d="M207.354 113.74C207.768 123.39 209.865 146.331 209.878 151.571C209.91 161.387 206.417 168.424 202.28 180.86C198.143 193.296 196.148 205.42 193.248 217.269" stroke="#030000" stroke-width="2" stroke-miterlimit="10" stroke-linecap="round" stroke-linejoin="round"/>
<path d="M193.681 83.0865C193.681 83.0865 196.613 83.9534 203.051 82.1495C205.76 81.3909 204.403 85.1517 200.833 86.6879C197.264 88.2304 193.764 88.3197 193.764 88.3197C193.764 88.3197 194.083 84.833 193.681 83.0865Z" fill="#FBB49B"/>
<path d="M222.034 221.107C218.056 224.625 208.763 222.133 209.355 216.689C211.414 209.869 216.01 205.713 217.208 201.117C217.808 198.822 219.446 192.48 219.924 190.154C220.268 188.471 220.759 186.558 221.39 184.927C222.359 182.396 224.507 181.459 226.03 182.97C228.44 185.354 228.829 192.659 228.669 197.382C228.427 204.336 227.382 216.377 222.034 221.107Z" fill="#FFFF50"/>
<path d="M175.738 125.87C175.738 126.157 177.204 131.562 180.672 133.494C184.139 135.425 178.09 137.503 174.298 131.798L175.738 125.87Z" fill="#A0DFDA"/>
</svg>
