<svg width="56" height="56" viewBox="0 0 56 56" fill="none" xmlns="http://www.w3.org/2000/svg">
<rect width="56" height="56" rx="9" fill="#F0F8FF"/>
<path d="M29.8135 19.4434H33.0726C33.8919 19.4434 34.2924 18.5212 33.7098 17.9917L28.6301 13.2437C28.4562 13.0873 28.2246 13 27.9837 13C27.7429 13 27.5113 13.0873 27.3374 13.2437L22.2759 17.9917C21.6933 18.5212 22.0938 19.4434 22.9131 19.4434H26.1722V36.5569H22.9131C22.0938 36.5569 21.6933 37.4791 22.2759 38.0086L27.3556 42.7566C27.7197 43.0811 28.2842 43.0811 28.6483 42.7566L33.728 38.0086C34.3106 37.4791 33.8919 36.5569 33.0908 36.5569H29.8135V19.4434Z" fill="#8ECAF9"/>
</svg>
