<svg width="24" height="24" viewBox="0 0 24 24" fill="none" xmlns="http://www.w3.org/2000/svg">
<path d="M14.1686 14.6028C13.5706 10.6162 13.3713 6.52987 13.471 2.54323C13.471 2.44357 13.471 2.44356 13.471 2.44356C13.471 2.0449 13.2716 1.74591 12.9726 1.54657C12.873 1.44691 12.8729 1.4469 12.7733 1.4469C12.4743 1.24757 11.976 1.24756 11.5773 1.24756C11.5773 1.24756 11.5773 1.24756 11.4776 1.24756H11.378C10.0823 1.44689 8.68699 1.74589 7.98933 2.84222C7.88966 2.94189 7.88965 2.9419 7.88965 3.04156C7.39132 4.03822 7.49099 5.43355 7.59065 6.62955C7.59065 9.32053 8.28832 11.9118 9.58397 14.4035C9.68364 14.7025 9.88298 15.0015 9.98265 15.3005C9.98265 15.3005 9.98265 15.3005 9.98265 15.4001C10.182 15.7988 10.2816 16.0978 10.5806 16.4965C10.78 17.0945 11.2783 17.5928 11.8763 17.8918C12.1753 18.0911 12.574 18.1908 12.9726 18.1908C13.3713 18.1908 13.6703 18.0911 13.9693 17.8918C14.1686 17.6925 14.2683 17.4931 14.3679 17.2938C14.5673 16.4965 14.2683 15.4001 14.1686 14.6028Z" fill="#F89879"/>
<path d="M22.2415 18.8884C22.1418 18.5894 21.9425 18.4898 21.6435 18.3901C21.5438 18.2905 21.4442 18.2904 21.3445 18.2904C20.6468 18.0911 19.8495 18.1908 19.1518 17.9915C18.2548 17.7921 17.4575 17.4931 16.6602 17.0945C15.7632 16.6958 14.9659 16.3968 14.2682 17.1941C13.8695 17.5928 13.6702 18.1908 13.1719 18.4898C12.4742 18.8885 11.5772 17.8918 10.7799 17.9915C10.6802 17.9915 10.6802 17.9914 10.6802 18.0911C10.5806 18.0911 10.5806 18.1908 10.5806 18.3901C10.5806 19.1874 10.3812 20.9814 11.0789 21.5794C11.6769 22.0778 13.1719 21.3801 13.8695 21.2804C16.5605 20.7821 19.4508 21.1808 22.0421 19.9848C22.1418 19.9848 22.1418 19.8851 22.1418 19.8851C22.2415 19.5861 22.4408 19.1874 22.2415 18.8884Z" fill="#F8CD3D"/>
<path d="M22.1418 19.4863C18.8528 21.7787 14.5672 19.9847 10.9792 20.8817H10.8796C10.7799 20.8817 10.6802 20.9813 10.6802 20.9813C10.2816 21.5793 10.4809 22.3767 11.1786 22.6756C12.4742 23.174 14.2682 22.277 15.5639 22.0776C17.1585 21.7786 18.8528 21.8783 20.4475 21.38C21.2448 21.1807 22.7398 20.5827 22.6402 19.586C22.6402 19.3867 22.3412 19.287 22.1418 19.4863Z" fill="#011210"/>
<path d="M16.0621 18.5894C15.7631 18.5894 15.5637 18.3901 15.5637 18.0911C15.5637 17.5928 15.7631 16.9948 16.0621 16.5961C16.2614 16.3968 16.5604 16.2971 16.7597 16.4965C16.959 16.6958 17.0587 16.9948 16.8594 17.1941C16.66 17.4931 16.5604 17.7921 16.4607 18.1908C16.5604 18.3901 16.361 18.5894 16.0621 18.5894Z" fill="black"/>
<path d="M17.1585 19.1875C16.8595 19.1875 16.6602 18.8885 16.6602 18.6892C16.6602 18.0912 16.8595 17.5928 17.1585 17.0945C17.2582 16.8952 17.5571 16.7955 17.8561 16.8952C18.0555 16.9948 18.1551 17.2938 18.0555 17.5928C17.8561 17.9915 17.7565 18.3902 17.7565 18.7888C17.6568 18.9882 17.4575 19.1875 17.1585 19.1875Z" fill="black"/>
<path d="M9.58373 21.9781C9.78306 21.7788 9.78305 21.4798 9.78305 21.1808C9.78305 21.0811 9.78305 20.9814 9.78305 20.8818C9.58372 20.1841 9.18507 19.4864 8.98574 18.7888C8.68674 17.8918 8.58707 17.0945 8.58707 16.1975C8.4874 15.2008 8.38774 14.4035 7.39108 14.1045C6.89275 13.9051 6.19509 14.1045 5.69676 13.8055C4.9991 13.4068 5.39776 12.1112 4.9991 11.5132L4.89943 11.4135C4.79976 11.3138 4.70009 11.3138 4.60043 11.4135C3.90276 11.8122 2.20845 12.5098 2.00912 13.4068C1.80979 14.2041 3.2051 15.2008 3.60377 15.6991C5.39775 17.7921 6.39441 20.5828 8.78639 22.1774C8.88606 22.1774 8.88607 22.2771 8.98574 22.2771C9.0854 22.2771 9.38439 22.2771 9.58373 21.9781Z" fill="#F8CD3D"/>
<path d="M9.08557 22.1774C5.4976 20.3834 4.99927 15.7988 2.40795 13.1078C2.40795 13.1078 2.40795 13.1078 2.40795 13.0081C2.30829 12.9085 2.20863 12.9085 2.20863 12.9085C1.4113 12.8088 0.912971 13.4068 1.01264 14.2041C1.21197 15.5994 2.90629 16.7954 3.70362 17.7921C4.70028 19.0877 5.4976 20.5827 6.69359 21.7787C7.29159 22.3767 8.48757 23.473 9.2849 22.7754C9.38457 22.576 9.2849 22.2771 9.08557 22.1774Z" fill="#011210"/>
<path d="M7.29176 16.6958C7.09243 16.6958 6.8931 16.5961 6.8931 16.3968C6.79344 16.1975 6.8931 15.8985 7.09243 15.6991C7.59076 15.4998 8.18876 15.4001 8.68709 15.4001C8.98609 15.4001 9.18542 15.6992 9.08575 15.9981C9.08575 16.2971 8.78676 16.4965 8.48777 16.3968C8.18877 16.3968 7.7901 16.3968 7.49111 16.5961C7.39144 16.6958 7.29176 16.6958 7.29176 16.6958Z" fill="black"/>
<path d="M7.29158 17.8919C7.09225 17.8919 6.89291 17.7922 6.79325 17.5929C6.69358 17.3936 6.79326 17.0946 6.99259 16.8952C7.49092 16.6959 8.08891 16.4966 8.68691 16.4966C8.88624 16.4966 9.18524 16.6959 9.18524 16.9949C9.18524 17.2939 8.98591 17.4932 8.68691 17.4932C8.28825 17.4932 7.78991 17.5929 7.39125 17.7922C7.49092 17.8919 7.39124 17.8919 7.29158 17.8919Z" fill="black"/>
<path d="M22.1419 1.4469C22.1419 1.4469 22.0423 1.44689 22.0423 1.34723C20.7466 1.04823 19.451 0.848914 18.1553 1.14791C16.8596 1.34724 15.6637 1.94524 14.4677 2.6429C14.4677 2.6429 14.368 2.64288 14.368 2.74254C12.4743 3.83887 10.78 5.23419 9.58402 6.72918C8.88636 7.42684 8.28837 8.22419 7.69037 9.02152C7.09238 9.71918 6.59404 10.4168 6.09571 11.1145C5.69705 11.6128 5.39805 12.3105 5.59738 12.9085C5.69705 13.4068 5.99606 13.8055 6.49439 13.9051C7.69038 14.6028 8.88636 13.4068 9.78335 12.7092C12.9727 10.2175 16.461 7.92519 20.049 5.93187C20.6469 5.73253 21.1453 5.53321 21.6436 5.03488C21.9426 4.73588 22.1419 4.23754 22.2416 3.83887C22.3413 3.53988 22.4409 3.24088 22.4409 2.84221C22.5406 2.44355 22.5406 2.04488 22.5406 1.74588C22.3413 1.54655 22.2416 1.4469 22.1419 1.4469Z" fill="#FBB49B"/>
</svg>
