<svg width="24" height="24" viewBox="0 0 24 24" fill="none" xmlns="http://www.w3.org/2000/svg">
<path d="M19.3949 9.88485C18.9162 9.50193 18.4376 9.31046 17.9589 9.31046C17.9589 7.97023 17.9589 6.53428 17.7674 5.19405C17.576 3.94955 17.2888 2.89652 16.0443 2.32213C14.3211 1.55629 12.0236 1.36482 10.0133 1.84348C9.63036 1.93921 8.86451 2.2264 8.57732 2.32213C6.6627 3.66236 6.85414 7.2044 6.75841 9.21474C6.08829 9.02328 5.22674 9.21474 4.65235 9.6934C3.59931 10.6507 3.69503 12.0867 3.98222 13.3312C4.26942 14.5757 4.74808 15.8202 6.08831 16.2988C7.71573 16.8732 9.72609 16.6817 11.4492 16.7775C13.1724 16.7775 15.087 17.0647 16.8101 16.7775C18.3418 16.4903 19.1077 14.8629 19.6821 13.5226C20.1607 12.3739 20.4479 10.8422 19.3949 9.88485Z" fill="#A0DFDA"/>
<path d="M12.6937 13.1398C11.162 13.1398 9.53455 13.0441 8.00285 12.9483C7.90712 12.9483 7.61992 12.9483 7.42846 12.7569C7.14127 12.5654 7.04555 12.2782 7.04555 12.1825C6.94982 11.8953 6.9498 11.6081 6.85407 11.3209C6.75834 10.938 6.75836 10.6508 6.66263 10.3636C6.47117 9.88494 6.18395 9.50202 5.80103 9.40629C5.32238 9.31056 4.74799 9.69349 4.36507 10.1721C4.17361 10.3636 3.88643 10.4593 3.69497 10.2679C3.50351 10.0764 3.40777 9.78921 3.59923 9.59775C4.07789 8.92763 5.03519 8.25753 5.9925 8.54472C6.66262 8.73618 7.23701 9.31056 7.5242 10.1721C7.61993 10.5551 7.71565 10.938 7.81138 11.2252C7.81138 11.5124 7.90712 11.7038 8.00285 11.991V12.0868C8.00285 12.0868 8.00286 12.0868 8.09859 12.0868C10.2047 12.2782 12.4065 12.2782 14.6083 12.1825C14.8955 12.1825 15.0869 12.3739 15.0869 12.6611C15.0869 12.9483 14.8955 13.1398 14.6083 13.1398C13.9382 13.1398 13.268 13.1398 12.6937 13.1398Z" fill="black"/>
<path d="M17.2888 17.2561C17.193 17.2561 17.1931 17.2561 17.0973 17.2561L5.51391 16.9689C5.32245 16.9689 5.22672 16.8732 5.13099 16.7774C4.07795 15.2458 3.40783 13.5226 3.0249 11.7037C2.92917 11.4165 3.12063 11.2251 3.40782 11.1293C3.69501 11.0336 3.88648 11.2251 3.98221 11.5123C4.36513 13.1397 4.93952 14.6714 5.89683 16.1073L17.2888 16.3945C17.4802 16.3945 17.6717 16.3945 17.7674 16.3945C17.8632 16.2988 17.9589 16.2031 18.1504 16.0116C19.012 14.8628 19.7778 13.6183 20.065 12.1824C20.1607 11.7037 20.1607 11.0336 19.7778 10.4592C19.3949 9.88485 18.629 9.59764 17.9589 9.7891C17.2888 9.98056 16.8101 10.6507 16.8101 11.3208C16.8101 11.608 16.6187 11.7995 16.3315 11.7995C16.0443 11.7995 15.8528 11.608 15.8528 11.3208C15.8528 10.172 16.6187 9.11899 17.6717 8.8318C18.7248 8.5446 19.9693 9.02327 20.5436 9.98058C20.9266 10.6507 21.0223 11.4165 20.9266 12.3738C20.6394 14.0013 19.7778 15.3415 18.9162 16.586C18.7248 16.7775 18.5333 17.0646 18.1504 17.2561C17.7675 17.2561 17.4802 17.2561 17.2888 17.2561Z" fill="black"/>
<path d="M17.2888 8.73614C17.0016 8.73614 16.8102 8.54468 16.8102 8.25749C16.8102 7.10872 16.8102 5.95996 16.8102 4.81119C16.8102 3.85388 16.6187 2.80084 15.8528 2.41792C15.5657 2.22646 15.1827 2.22644 14.8955 2.13071C12.8852 1.84352 10.9706 1.93926 8.96025 2.22645C8.67306 2.22645 8.38587 2.32219 8.09868 2.41792C7.5243 2.80084 7.42855 3.75813 7.33282 4.52398C7.33282 5.67275 7.33282 6.82152 7.33282 7.87456C7.33282 8.16175 7.14136 8.35321 6.85416 8.35321C6.56697 8.35321 6.37551 8.16175 6.37551 7.87456C6.27978 6.82152 6.27978 5.67275 6.37551 4.52398C6.37551 3.47094 6.56699 2.22644 7.62003 1.65206C8.00295 1.4606 8.38585 1.36487 8.76878 1.26914C10.7791 0.981948 12.8852 0.886211 14.9913 1.1734C15.4699 1.26913 15.9486 1.26913 16.3315 1.55632C17.4803 2.22644 17.6717 3.66242 17.7675 4.81119C17.8632 5.95996 17.8632 7.20444 17.7675 8.35321C17.7675 8.54467 17.4803 8.73614 17.2888 8.73614Z" fill="black"/>
<path d="M12.215 19.458C11.9278 19.458 11.7363 19.2665 11.7363 18.9793V16.5861C11.7363 16.2989 11.9278 16.1074 12.215 16.1074C12.5022 16.1074 12.6936 16.2989 12.6936 16.5861V18.9793C12.6936 19.2665 12.5022 19.458 12.215 19.458Z" fill="black"/>
<path d="M15.4699 20.0324H9.43886C9.15167 20.0324 8.96021 19.8409 8.96021 19.5537C8.96021 19.2665 9.15167 19.0751 9.43886 19.0751H15.4699C15.7571 19.0751 15.9485 19.2665 15.9485 19.5537C15.9485 19.8409 15.7571 20.0324 15.4699 20.0324Z" fill="black"/>
<path d="M8.57723 23C8.19431 23 7.81138 22.9043 7.52419 22.6171C7.04554 22.1385 6.94979 21.4684 7.23698 20.894C7.52417 20.3196 8.19429 20.0324 8.76868 20.1281C8.86441 20.1281 8.96015 20.2239 8.96015 20.2239C9.05588 20.2239 9.1516 20.2239 9.24733 20.3196C9.72598 20.6068 10.0132 21.0854 10.0132 21.5641C10.0132 22.0427 9.72598 22.6171 9.24733 22.8086C9.05587 23.0001 8.76869 23 8.57723 23ZM8.57723 21.0854C8.38577 21.0854 8.19431 21.1812 8.09858 21.3726C8.00285 21.5641 8.09856 21.8513 8.19429 21.947C8.38575 22.0427 8.57722 22.1385 8.76868 22.0427C8.96014 21.947 9.05589 21.7555 9.05589 21.5641C9.05589 21.3726 8.96014 21.1812 8.76868 21.0854C8.76868 21.0854 8.76867 21.0854 8.67294 21.0854C8.67294 21.0854 8.67296 21.0854 8.57723 21.0854Z" fill="black"/>
<path d="M15.8528 23C15.4699 23 15.087 22.9043 14.7998 22.6171C14.3212 22.1385 14.2254 21.4684 14.5126 20.894C14.7998 20.3196 15.4699 20.0324 16.0443 20.1281C16.14 20.1281 16.2358 20.2239 16.2358 20.2239C16.3315 20.2239 16.4272 20.2239 16.523 20.3196C17.0016 20.6068 17.2888 21.0854 17.2888 21.5641C17.2888 22.0427 17.0016 22.6171 16.523 22.8086C16.3315 23.0001 16.0443 23 15.8528 23ZM15.8528 21.0854C15.6614 21.0854 15.4699 21.1812 15.3742 21.3726C15.2785 21.5641 15.3742 21.8513 15.4699 21.947C15.6614 22.0427 15.8529 22.1385 16.0443 22.0427C16.2358 21.947 16.3315 21.7555 16.3315 21.5641C16.3315 21.3726 16.2358 21.1812 16.0443 21.0854C16.0443 21.0854 16.0443 21.0854 15.9486 21.0854C15.9486 21.0854 15.9486 21.0854 15.8528 21.0854Z" fill="black"/>
</svg>
