<svg width="24" height="24" viewBox="0 0 24 24" fill="none" xmlns="http://www.w3.org/2000/svg">
<path d="M22.0197 11.1268C22.0197 10.9308 21.9216 10.8327 21.8236 10.7347C21.7255 10.5386 21.5295 10.3425 21.2353 10.3425C18.2941 10.2445 15.3528 10.2445 12.4115 10.2445C11.333 7.7934 10.1565 5.53841 8.68588 3.28344C8.68588 3.18539 8.58784 3.08736 8.4898 2.98932C8.09763 2.49911 7.41134 2.79323 7.31329 3.38149C5.64657 5.83255 3.8818 8.18557 2.11704 10.5386C2.01899 10.6366 2.01899 10.8327 2.01899 10.9308V11.0288C1.92094 14.2642 1.92095 17.5977 2.11704 20.8331C2.11704 20.9311 2.11703 21.0291 2.21507 21.1272V21.7154C2.21507 22.0096 2.5092 22.4017 2.80333 22.3037C3.78376 22.3037 4.66613 22.3037 5.64656 22.2057C5.45047 20.0487 5.45048 17.8918 5.45048 15.7349C5.35243 15.5388 5.45049 15.1466 5.84266 15.1466C6.627 15.1466 7.41134 15.2446 8.29372 15.1466C8.58785 15.1466 8.78393 15.2446 8.78393 15.5388C8.78393 17.7937 9.1761 19.9507 9.1761 22.1076C12.9998 22.0096 16.9215 21.9115 20.7451 21.8135C21.1373 22.0096 21.7255 21.9115 21.7255 21.3233C22.1177 17.9898 22.1177 14.5583 22.0197 11.1268ZM18.7843 17.7937C17.9999 17.7937 17.2156 17.7937 16.3332 17.7937H16.2352C16.0391 17.7937 15.843 17.5977 15.843 17.4016C15.7449 16.6172 15.7449 15.8329 15.7449 14.9505C15.7449 14.8525 15.7449 14.7544 15.843 14.7544C15.843 14.6564 15.941 14.6564 16.0391 14.6564C16.8234 14.4603 17.7058 14.5583 18.5882 14.5583C18.7843 14.5583 18.9804 14.7544 18.9804 14.9505C18.9804 15.8329 19.0784 16.6172 19.1764 17.4996C19.1764 17.5976 18.9804 17.7937 18.7843 17.7937Z" fill="#F8CD3D"/>
<path d="M22.6078 10.7347C22.8039 10.7347 22.902 10.5386 23 10.4405C23 10.3425 23 10.3425 23 10.2444C23 10.1464 23 10.0484 22.902 9.95032C21.5294 7.40121 19.9607 4.85211 18.294 2.49909C18.1959 2.40105 18.1959 2.40104 18.0979 2.303C17.1175 2.20495 16.137 2.20497 15.0586 2.10693C12.4114 2.10693 9.86231 2.00889 7.21516 2.10693H7.11711C7.01907 2.10693 6.92104 2.20495 6.823 2.303C6.823 2.303 6.823 2.40105 6.823 2.49909C7.99951 5.0482 9.56818 7.49925 10.8427 9.95032C11.2349 10.2444 11.7251 10.3425 12.2153 10.3425C12.3134 10.3425 12.3134 10.3425 12.4114 10.3425C15.8429 10.6366 19.1763 10.6366 22.6078 10.7347Z" fill="#011210"/>
<path d="M1.52868 11.617C1.43063 11.617 1.33259 11.617 1.23455 11.519C1.03846 11.4209 0.940421 11.0288 1.03846 10.8327C3.09736 7.49922 4.66604 5.04814 6.92102 2.20491C7.1171 2.00882 7.41123 1.91081 7.60731 2.10689C7.8034 2.30298 7.90144 2.59709 7.70536 2.79317C5.54842 5.6364 3.97975 8.08748 1.92085 11.3229C1.82281 11.519 1.62672 11.617 1.52868 11.617Z" fill="black"/>
<path d="M13.1957 22.2056C12.9016 22.2056 12.7055 22.0095 12.7055 21.7154L12.4114 12.8916C12.4114 12.5975 12.6075 12.4014 12.9016 12.4014C13.0977 12.4014 13.3918 12.5975 13.3918 12.8916L13.6859 21.7154C13.6859 22.0095 13.4898 22.2056 13.1957 22.2056Z" fill="black"/>
</svg>
