<svg width="24" height="24" viewBox="0 0 24 24" fill="none" xmlns="http://www.w3.org/2000/svg">
<path d="M19.7523 17.0627C19.9523 15.7627 19.5523 14.2627 19.1523 13.2627C18.4523 11.2627 16.9523 9.56272 14.7523 9.26272C13.2523 8.96272 11.1523 8.86272 9.5523 9.46272C8.0523 9.76272 6.7523 10.3627 5.8523 11.7627C4.9523 13.2627 4.0523 15.2627 4.3523 17.0627H19.7523Z" fill="#A0DFDA"/>
<path d="M15.5523 5.26269C15.5523 5.16269 15.5523 5.16269 15.5523 5.26269C15.5523 5.16269 15.5523 5.16269 15.5523 5.26269C15.5523 5.16269 15.5523 5.06268 15.4523 5.06268C15.4523 4.96268 15.3523 4.8627 15.3523 4.8627C15.3523 4.7627 15.2523 4.76269 15.1523 4.66269H15.0523C14.9523 4.66269 14.7523 4.56268 14.6523 4.56268C14.4523 4.06268 14.1523 3.46269 13.6523 3.16269H13.5523C12.9523 2.76269 12.2523 2.6627 11.5523 2.8627C10.5523 2.9627 9.55231 3.66269 9.55231 4.76269C8.85231 4.66269 8.45231 5.56269 8.65231 6.16269C8.75231 6.46269 9.05231 6.76269 9.35231 6.76269C9.45231 6.96269 9.55231 7.1627 9.65231 7.3627V7.46267C9.65231 7.56267 9.75231 7.56269 9.75231 7.66269C10.0523 8.06269 10.3523 8.36269 10.7523 8.66269C10.7523 8.86269 10.7523 9.06269 10.7523 9.26269C10.7523 9.56269 10.6523 9.86268 10.9523 10.0627C11.3523 10.3627 11.9523 10.4627 12.5523 10.4627C12.9523 10.4627 13.2523 10.1627 13.3523 9.86268C13.5523 9.46268 13.4523 8.96268 13.3523 8.56268C13.9523 8.16268 14.3523 7.36268 14.5523 6.56268C14.8523 6.56268 15.0523 6.46269 15.1523 6.26269C15.1523 6.26269 15.1523 6.26269 15.1523 6.16269V6.06268V5.96267C15.5523 5.56267 15.5523 5.36269 15.5523 5.26269Z" fill="#FBB49B"/>
<path d="M14.8522 1.66274C14.0522 0.862738 12.8522 0.862744 11.8522 1.26274C11.3522 1.46274 11.0522 1.86273 10.6522 2.06273C10.3522 2.16273 10.0522 2.16275 9.8522 2.36275C9.1522 2.86275 9.2522 3.86274 9.3522 4.66274C9.2522 5.86274 9.35221 7.16274 9.95221 8.26274C10.4522 9.16274 11.4522 9.46274 12.4522 9.46274C14.4522 9.56274 14.9522 7.96274 15.0522 6.26274C15.0522 6.06274 15.0522 5.76273 15.1522 5.56273C15.1522 5.46273 15.1522 5.36274 15.1522 5.26274C15.1522 5.26274 15.1522 5.26274 15.1522 5.16274C15.3522 4.06274 15.7522 2.56274 14.8522 1.66274ZM10.4522 3.76274C10.4522 3.66274 10.5522 3.56273 10.5522 3.46273C11.5522 4.06273 12.7522 4.26273 13.8522 4.06273C13.9522 4.06273 14.0522 3.96273 14.2522 3.96273C14.3522 4.46273 14.5522 5.36275 14.5522 5.36275C14.5522 5.76275 14.4522 6.26274 14.4522 6.66274C13.2522 6.36274 11.7522 6.36274 10.5522 6.76274C10.4522 6.76274 10.2522 6.86275 10.1522 6.86275C10.1522 6.76275 10.0522 5.66274 10.0522 5.26274C10.0522 4.66274 10.1522 4.16274 10.4522 3.76274Z" fill="#011210"/>
<path d="M19.0521 12.5627H5.35214C5.05214 12.5627 4.95215 12.7627 4.95215 12.8627V22.6628C4.95215 22.7628 5.05215 22.8627 5.15215 22.8627H18.9521C19.1521 22.8627 19.2521 22.7628 19.2521 22.4628V12.6628C19.3521 12.6628 19.2521 12.5627 19.0521 12.5627Z" fill="#C6896B"/>
<path d="M20.3522 18.5627C20.3522 18.2627 20.2522 17.6627 20.2522 17.6627C20.1522 17.3627 20.0522 17.0627 19.9522 16.7627C19.8522 16.5627 19.7522 16.1627 19.4522 16.1627C19.2522 16.1627 19.1522 16.2627 19.1522 16.5627C19.1522 16.9627 19.1522 17.2627 19.1522 17.6627C19.0522 17.6627 19.0522 17.6627 18.9522 17.6627C18.0522 17.7627 17.2522 18.1627 17.3522 19.3627C17.4522 19.9627 17.7522 20.4627 18.3522 20.7627C18.7522 20.9627 19.5522 21.1627 19.9522 20.8627C20.4522 20.2627 20.4522 19.0627 20.3522 18.5627Z" fill="#FBB49B"/>
<path d="M4.05225 18.5627C4.05225 18.2627 4.15226 17.6627 4.15226 17.6627C4.25226 17.3627 4.35226 17.0627 4.45226 16.7627C4.55226 16.5627 4.65226 16.1627 4.95226 16.1627C5.15226 16.1627 5.25225 16.2627 5.25225 16.5627C5.25225 16.9627 5.25225 17.2627 5.25225 17.6627C5.35225 17.6627 5.35226 17.6627 5.45226 17.6627C6.35226 17.7627 7.15225 18.1627 7.05225 19.3627C6.95225 19.9627 6.65225 20.4627 6.05225 20.7627C5.65225 20.9627 4.85226 21.1627 4.45226 20.8627C3.95226 20.2627 3.95225 19.0627 4.05225 18.5627Z" fill="#FBB49B"/>
<path d="M19.2522 15.1627H5.05225C4.75225 15.1627 4.55225 14.9627 4.55225 14.6627C4.55225 14.3627 4.75225 14.1627 5.05225 14.1627H19.2522C19.5522 14.1627 19.7522 14.3627 19.7522 14.6627C19.7522 14.9627 19.4522 15.1627 19.2522 15.1627Z" fill="black"/>
</svg>
