<svg width="24" height="24" viewBox="0 0 24 24" fill="none" xmlns="http://www.w3.org/2000/svg">
<path d="M21.0278 4.18411C18.8387 1.59698 16.1521 3.78608 14.162 5.27865L9.68427 8.76133C9.38576 8.96034 8.98774 9.15935 8.68922 9.25885C7.59467 9.75638 6.3011 10.0549 5.20654 10.4529C3.11694 11.249 1.42535 12.7415 1.22634 15.1297C1.02733 17.2193 2.02238 19.3089 3.71397 20.5029C7.99269 23.5876 13.3659 20.9009 16.5501 17.5178C18.2417 15.6272 19.7343 13.5376 20.8288 11.1495C21.7244 9.05985 22.8189 6.27371 21.0278 4.18411Z" fill="#AB8DDB"/>
<path d="M22.9173 5.17922C22.2208 4.58219 21.6238 4.08466 20.6287 3.78614C20.7282 3.58713 21.6238 2.09456 21.8228 1.39803C21.5243 1.19902 21.3253 1.09951 21.0267 1C20.6287 1.69654 20.1312 2.39308 19.6337 3.08961C18.7381 2.29357 17.6436 1.99506 16.4495 2.19407C16.151 2.29358 16.151 2.69159 16.4495 2.79109C17.0465 3.08961 17.5441 3.38813 18.0416 3.88565C17.3451 4.58219 16.748 5.27873 16.2505 6.17427C16.151 6.47279 16.35 6.7713 16.6485 6.6718C17.4446 6.27378 18.2406 5.87576 19.0366 5.67675C19.3352 6.37328 19.6337 7.06981 19.9322 7.76634C20.0317 8.06486 20.5292 7.96536 20.5292 7.66685C20.5292 6.97031 20.5292 6.27378 20.4297 5.67675C21.2257 5.77625 21.9223 5.77625 22.7183 5.87576C22.9173 5.77625 23.1163 5.37823 22.9173 5.17922Z" fill="#32B2A8"/>
<path d="M7.99182 22.0953C7.89231 22.0953 7.79282 22.0953 7.69332 22.0953C4.60866 21.9958 1.82251 19.9061 1.02647 17.2195C0.926962 16.921 1.12597 16.722 1.32498 16.6225C1.6235 16.523 1.82252 16.722 1.92202 16.921C2.51905 19.2096 5.00668 20.9012 7.69332 21.0007C10.0814 21.1002 12.5691 20.0057 14.7582 18.0156C16.7483 16.2245 18.2408 13.8363 19.5344 11.6472C19.6339 11.4482 20.0319 11.3487 20.2309 11.4482C20.4299 11.5477 20.5295 11.8462 20.4299 12.1448C19.0369 14.4334 17.5443 16.921 15.4547 18.8116C13.1661 21.0007 10.4794 22.0953 7.99182 22.0953Z" fill="black"/>
</svg>
