<svg width="24" height="24" viewBox="0 0 24 24" fill="none" xmlns="http://www.w3.org/2000/svg">
<path d="M22.3018 12.3014C22.2019 10.6034 21.1032 9.20511 19.605 8.60583C19.9047 7.40727 19.7049 6.20871 18.6062 5.30979C17.5076 4.41087 16.1092 4.31098 14.9107 4.7105C14.4113 3.7117 13.5124 3.11242 12.2139 3.01254C11.0154 2.91266 9.61705 3.41206 8.71813 4.41086C7.71932 4.11122 6.52077 4.2111 5.52197 4.7105C4.22353 5.40966 3.824 6.90787 3.92388 8.30619C2.72532 8.50595 1.72651 9.10523 1.32699 10.5035C0.927472 11.802 1.12724 13.2003 1.72652 14.3989C2.22592 16.0968 4.42327 17.3953 5.82159 18.1943C7.8192 19.293 10.1164 19.9922 12.3138 19.9922C16.1092 19.9922 20.1044 18.1943 21.6026 14.6985C22.2019 13.9993 22.4017 13.2003 22.3018 12.3014Z" fill="#FCF3CF"/>
<path d="M6.71935 7.60665C6.61947 7.60665 6.51959 7.60665 6.41971 7.50677C6.21995 7.30701 6.12006 7.00737 6.31982 6.80761C6.9191 5.90869 7.91791 5.3094 8.91671 5.20952C10.0154 5.10964 11.0142 5.50916 11.8132 6.20832C12.013 6.40808 12.013 6.70772 11.8132 6.90748C11.6135 7.10724 11.3138 7.10724 11.1141 6.90748C10.6147 6.40808 9.71576 6.10844 9.0166 6.20832C8.21755 6.3082 7.51839 6.70772 7.11887 7.40688C7.11887 7.50676 6.91911 7.60665 6.71935 7.60665Z" fill="black"/>
<path d="M19.7048 11.602C19.4051 11.602 19.2054 11.4022 19.2054 11.1026C19.1055 10.3035 18.706 9.50447 18.1067 9.10495C17.5074 8.70543 16.6085 8.70543 16.0092 9.10495C15.8095 9.30471 15.5098 9.20482 15.3101 9.00506C15.1103 8.8053 15.2102 8.50567 15.4099 8.30591C16.3089 7.70663 17.6073 7.70663 18.6061 8.30591C19.505 8.90519 20.1043 9.90398 20.2042 11.0027C20.3041 11.3023 20.1043 11.602 19.7048 11.602C19.8047 11.602 19.8047 11.602 19.7048 11.602Z" fill="black"/>
<path d="M4.42323 13.2C4.32335 13.2 4.32335 13.2 4.42323 13.2C4.12359 13.2 3.92383 13.0002 3.92383 12.7006C3.92383 12.6007 3.92383 11.2024 5.62179 10.2036C7.31975 9.2048 8.81795 10.3035 8.91783 10.3035C9.11759 10.5032 9.21748 10.8029 9.01772 11.0026C8.81796 11.2024 8.5183 11.3023 8.31854 11.1025C8.21866 11.1025 7.21987 10.4034 6.12119 11.0026C4.92263 11.7018 4.92263 12.6007 4.92263 12.6007C4.82275 13.0002 4.62299 13.2 4.42323 13.2Z" fill="black"/>
<path d="M16.4081 13.5004C16.3082 13.5004 16.1085 13.4005 16.0086 13.3006C15.6091 12.8012 14.9099 12.5016 14.3106 12.4017C13.7114 12.3018 13.0122 12.5016 12.4129 12.8012C12.2132 12.9011 12.1133 13.001 12.0134 13.2007C11.8136 13.4005 11.514 13.5004 11.3142 13.3006C11.1145 13.1009 11.0146 12.8012 11.2144 12.6015C11.4141 12.4017 11.6139 12.2019 11.9135 12.0022C12.6127 11.5028 13.5116 11.303 14.4105 11.4029C15.3094 11.5028 16.1085 11.9023 16.7078 12.6015C16.9075 12.8012 16.9075 13.1009 16.7078 13.3006C16.6079 13.5004 16.508 13.5004 16.4081 13.5004Z" fill="black"/>
<path d="M12.5128 20.8914C11.4141 15.7976 6.42009 13.3006 1.52597 13.8C1.42609 13.8 1.42608 13.8 1.3262 13.8998C1.12644 13.8998 0.926688 14.0996 1.02657 14.2994C1.62585 19.593 6.61984 22.9889 11.8136 21.5906C11.9135 21.5906 12.0134 21.4907 12.0134 21.4907C12.2131 21.4907 12.6127 21.1911 12.5128 20.8914Z" fill="#32B2A8"/>
<path d="M22.5996 13.1999C17.5057 12.301 13.3108 15.9966 11.9125 20.6909C11.9125 20.7908 11.9125 20.7908 11.9125 20.8907C11.8126 21.0905 11.9125 21.2902 12.2121 21.3901C17.306 22.7884 22.3999 19.4924 22.9991 14.1987C22.9991 14.0989 22.9991 13.999 22.9991 13.8991C22.9991 13.6993 22.8993 13.2998 22.5996 13.1999Z" fill="#32B2A8"/>
</svg>
