<svg width="24" height="24" viewBox="0 0 24 24" fill="none" xmlns="http://www.w3.org/2000/svg">
<path d="M8.33667 11.4349L9.53667 20.9349C10.4367 20.9349 11.3367 20.8349 12.2367 20.6349L10.9367 10.5348C11.7367 9.63485 13.0367 8.13485 12.8367 6.83485C12.8367 6.53485 12.7367 6.13486 12.4367 5.93486C12.1367 5.63486 11.7367 5.53485 11.3367 5.53485C11.3367 5.53485 11.3367 5.43486 11.4367 5.43486C11.9367 4.53486 12.1367 3.53484 11.5367 2.73484C11.1367 2.23484 10.5367 2.13485 10.0367 2.33485C9.93667 2.03485 9.83667 1.63485 9.63667 1.33485C9.53667 1.13485 9.33667 1.03485 9.13667 1.03485C8.63667 0.934847 8.23667 1.03485 7.93667 1.53485C7.73667 1.83485 7.63667 2.23485 7.63667 2.63485C7.23667 2.63485 6.93667 2.63486 6.53667 2.93486C6.23667 3.13486 6.03667 3.53485 5.93667 3.83485V3.93486C5.63667 4.73486 5.93667 5.53484 6.43667 6.23484C6.13667 6.33484 5.83667 6.53486 5.63667 6.93486C4.63667 8.53486 6.83667 10.5349 8.33667 11.4349Z" fill="#32B2A8"/>
<path d="M9.8375 11.1349C9.6375 11.1349 9.4375 10.9349 9.3375 10.7349C9.0375 9.63493 8.8375 8.33494 8.0375 7.43494C7.6375 6.93494 7.1375 6.73493 6.7375 6.73493C6.5375 6.73493 6.2375 6.83494 6.1375 7.03494C6.0375 7.13494 5.9375 7.23494 6.0375 7.43494C6.1375 7.73495 5.9375 7.93494 5.6375 8.03494C5.3375 8.13494 5.1375 7.93494 5.0375 7.63494C4.9375 7.23494 5.0375 6.83495 5.3375 6.43495C5.6375 6.03495 6.1375 5.73493 6.6375 5.73493C7.3375 5.63493 8.1375 6.03493 8.7375 6.73493C9.7375 7.83493 10.0375 9.33495 10.2375 10.4349C10.3375 10.7349 10.1375 10.9349 9.8375 11.0349C9.9375 11.1349 9.8375 11.1349 9.8375 11.1349Z" fill="black"/>
<path d="M9.63672 7.63444H9.53672C9.23672 7.53444 9.13672 7.23443 9.23672 7.03443C9.43672 6.23443 10.0367 5.63443 10.6367 5.33443C11.4367 4.93443 12.4367 5.23444 12.9367 5.93444C13.1367 6.13444 13.0367 6.43444 12.8367 6.63444C12.6367 6.83444 12.3367 6.73443 12.1367 6.53443C11.9367 6.23443 11.4367 6.13443 11.0367 6.33443C10.6367 6.53443 10.3367 6.93444 10.1367 7.43444C10.0367 7.43444 9.83672 7.63444 9.63672 7.63444Z" fill="black"/>
<path d="M9.23672 6.23456C9.03672 6.23456 8.83672 6.03456 8.73672 5.83456V5.63457C8.63672 5.13457 8.53672 4.73456 8.33672 4.33456C8.13672 3.93456 7.73672 3.53457 7.43672 3.43457C7.33672 3.43457 7.23672 3.43457 7.23672 3.43457C7.03672 3.43457 6.73672 3.73456 6.63672 4.03456C6.53672 4.33456 6.23672 4.43456 6.03672 4.33456C5.73672 4.23456 5.63672 3.93456 5.73672 3.73456C6.03672 3.03456 6.53672 2.53457 7.13672 2.43457C7.33672 2.43457 7.53672 2.43456 7.73672 2.53456C8.33672 2.73456 8.93672 3.23457 9.23672 3.93457C9.53672 4.43457 9.63672 4.93456 9.73672 5.53456V5.73456C9.83672 6.03456 9.63672 6.23456 9.33672 6.33456C9.33672 6.23456 9.33672 6.23456 9.23672 6.23456Z" fill="black"/>
<path d="M9.0375 3.83438C8.9375 3.83438 8.9375 3.83438 8.8375 3.83438C8.5375 3.73438 8.4375 3.43437 8.5375 3.23437C8.7375 2.73437 9.0375 2.23438 9.3375 2.03438C9.8375 1.63438 10.5375 1.63438 11.0375 2.03438C11.2375 2.23438 11.2375 2.53437 11.1375 2.73437C11.0375 2.93437 10.6375 2.93438 10.4375 2.83438C10.3375 2.73438 10.1375 2.73438 9.9375 2.83438C9.7375 2.93438 9.6375 3.23438 9.4375 3.53437C9.4375 3.73438 9.2375 3.83438 9.0375 3.83438Z" fill="black"/>
<path d="M17.7384 11.7349L17.8384 11.6349C18.6384 10.9349 19.1384 10.1349 18.8384 9.1349C18.6384 8.5349 18.1384 8.23489 17.5384 8.23489C17.6384 7.93489 17.6384 7.5349 17.5384 7.1349C17.5384 6.9349 17.3384 6.63489 17.1384 6.53489C16.6384 6.33489 16.2384 6.3349 15.8384 6.6349C15.5384 6.9349 15.3384 7.23489 15.2384 7.53489C14.9384 7.33489 14.5384 7.3349 14.1384 7.4349C13.7384 7.5349 13.4384 7.8349 13.2384 8.1349C13.2384 8.1349 13.2384 8.13489 13.1384 8.23489C12.5384 8.83489 12.6384 9.73489 12.8384 10.5349C12.5384 10.5349 12.1384 10.6349 11.8384 10.8349C10.3384 12.1349 11.6384 14.7349 12.7384 16.1349L11.2384 22.5349C11.9384 23.0349 12.9384 23.1349 13.8384 23.0349L15.4384 16.2349C16.5384 15.7349 18.2384 14.6349 18.5384 13.4349C18.6384 13.1349 18.6384 12.7349 18.4384 12.5349C18.4384 12.0349 18.0384 11.8349 17.7384 11.7349Z" fill="#32B2A8"/>
<path d="M14.5374 16.3349C14.4374 16.3349 14.4374 16.3349 14.5374 16.3349C14.2374 16.3349 14.0374 16.0349 14.0374 15.7349C14.2374 14.6349 14.3374 13.3349 13.9374 12.2349C13.7374 11.6349 13.3374 11.2349 12.9374 11.1349C12.8374 11.1349 12.4374 11.2349 12.0374 11.5349C11.7374 11.9349 11.4374 12.5349 11.8374 13.7349C11.9374 14.0349 11.8374 14.2349 11.5374 14.3349C11.2374 14.4349 11.0374 14.3349 10.9374 14.0349C10.3374 12.2349 10.9374 11.2349 11.3374 10.8349C11.8374 10.2349 12.6374 10.0349 13.2374 10.1349C13.9374 10.3349 14.5374 10.9349 14.9374 11.8349C15.4374 13.1349 15.2374 14.6349 15.0374 15.8349C14.9374 16.1349 14.7374 16.3349 14.5374 16.3349Z" fill="black"/>
<path d="M18.5383 13.0352C18.3383 13.0352 18.1383 12.8352 18.0383 12.6352C17.9383 12.3352 17.5383 12.0352 17.1383 12.0352C16.7383 12.0352 16.2383 12.3352 15.9383 12.7352C15.7383 12.9352 15.4383 13.0352 15.2383 12.8352C15.0383 12.6352 14.9383 12.3352 15.1383 12.1352C15.6383 11.4352 16.3383 11.0352 17.0383 11.0352C17.9383 11.0352 18.7383 11.6352 18.9383 12.4352C19.0383 12.7352 18.8383 12.9352 18.5383 13.0352C18.6383 13.0352 18.6383 13.0352 18.5383 13.0352Z" fill="black"/>
<path d="M15.6367 11.5349C15.3367 11.5349 15.1367 11.2349 15.1367 10.9349V10.7349C15.2367 10.2349 15.2367 9.73491 15.2367 9.33491C15.1367 8.83491 14.9367 8.4349 14.6367 8.2349C14.5367 8.1349 14.5367 8.13491 14.4367 8.13491C14.1367 8.03491 13.8367 8.23492 13.7367 8.43492C13.5367 8.63492 13.2367 8.63492 13.0367 8.43492C12.8367 8.23492 12.8367 7.9349 13.0367 7.7349C13.5367 7.2349 14.1367 6.93491 14.7367 7.13491C14.9367 7.13491 15.1367 7.23492 15.3367 7.43492C15.8367 7.83492 16.2367 8.4349 16.3367 9.2349C16.4367 9.8349 16.3367 10.3349 16.2367 10.9349V11.1349C16.1367 11.3349 15.9367 11.5349 15.6367 11.5349Z" fill="black"/>
<path d="M18.5367 9.135C18.3367 9.135 18.2367 9.035 18.1367 8.935C18.0367 8.735 17.7367 8.535 17.3367 8.635C17.1367 8.635 16.9367 8.83499 16.7367 9.03499C16.5367 9.23499 16.2367 9.23499 16.0367 9.03499C15.8367 8.83499 15.8367 8.53499 16.0367 8.33499C16.2367 8.03499 16.6367 7.735 17.1367 7.635C17.9367 7.435 18.6367 7.935 19.0367 8.435C19.1367 8.635 19.1367 8.935 18.8367 9.135C18.7367 9.135 18.6367 9.135 18.5367 9.135Z" fill="black"/>
<path d="M11.5371 22.8348C11.1371 22.7348 11.0371 22.5348 11.0371 22.2348C11.4371 20.1348 11.8371 18.0348 12.4371 16.0348C12.5371 15.7348 12.7371 15.6348 13.0371 15.6348C13.3371 15.7348 13.4371 15.9348 13.4371 16.2348C12.9371 18.2348 12.4371 20.3348 12.0371 22.4348C12.0371 22.6348 11.8371 22.8348 11.5371 22.8348Z" fill="black"/>
</svg>
