<svg width="24" height="24" viewBox="0 0 24 24" fill="none" xmlns="http://www.w3.org/2000/svg">
<path d="M17.099 4.9815C16.6006 4.48312 16.0026 4.08441 15.4045 3.78539C13.0123 2.58927 10.022 2.78864 7.72948 4.1841C6.23434 4.98151 5.33726 6.2773 4.83888 7.67276C4.7392 7.67276 4.63952 7.67276 4.53985 7.67276C4.44017 7.67276 4.24082 7.67276 4.14114 7.67276C3.44341 7.87211 2.84536 8.17114 2.44665 8.66952C1.74892 9.36725 1.25054 10.2643 1.05119 11.3608C0.652482 14.2514 2.64601 16.4442 4.83888 17.9394C6.13467 18.8365 7.72948 19.5342 9.42397 19.8332C11.4175 20.2319 13.411 20.531 15.4045 19.9329C17.1987 19.4345 18.5942 18.2384 19.6906 16.7433C20.0893 16.1452 20.488 15.4475 20.8867 14.7497C21.9832 13.2546 22.6809 11.4604 22.9799 9.66628C23.2789 6.07794 20.189 4.28376 17.099 4.9815Z" fill="#32B2A8"/>
<path d="M12.2154 19.3353C12.016 19.3353 11.9164 19.2356 11.8167 19.0362C10.1222 16.1456 9.72349 12.7566 10.7202 9.86604C11.8167 6.67641 14.807 4.38386 17.8969 4.28418C18.1959 4.28418 18.3953 4.48353 18.3953 4.78256C18.3953 5.08159 18.1959 5.28094 17.8969 5.28094C15.2057 5.38062 12.6141 7.37415 11.6173 10.1651C10.7202 12.657 11.1189 15.8466 12.6141 18.4382C12.7138 18.6375 12.7138 18.9366 12.4147 19.1359C12.4147 19.3353 12.3151 19.3353 12.2154 19.3353Z" fill="black"/>
<path d="M9.52306 10.4639C9.32371 10.4639 9.22403 10.3643 9.12435 10.2646C8.12759 8.86912 6.33343 8.17138 4.73861 8.27106C4.43959 8.27106 4.24023 8.07171 4.24023 7.77268C4.24023 7.47365 4.43959 7.2743 4.73861 7.2743C6.73214 7.07495 8.82533 8.07172 10.0214 9.66653C10.2208 9.86589 10.1211 10.1649 9.92176 10.3643C9.72241 10.3643 9.62274 10.4639 9.52306 10.4639Z" fill="black"/>
<path d="M15.9027 18.6373C15.803 18.6373 15.803 18.6373 15.9027 18.6373C15.504 18.5376 15.4043 18.3383 15.4043 18.0392C16.2017 14.0522 17.3978 10.2645 19.0923 6.5765C19.192 6.27747 19.491 6.1778 19.79 6.37715C20.0891 6.47683 20.1887 6.77585 19.9894 7.07488C18.3946 10.6632 17.0988 14.4509 16.4011 18.3383C16.3014 18.438 16.102 18.6373 15.9027 18.6373Z" fill="black"/>
<path d="M16.0035 13.3541C15.8041 13.3541 15.6048 13.1548 15.5051 12.9554L14.5084 7.97163C14.4087 7.6726 14.608 7.47326 14.9071 7.37359C15.2061 7.27391 15.4054 7.47326 15.5051 7.77228L16.5019 12.7561C16.6015 13.0551 16.4022 13.2545 16.1032 13.3541C16.0035 13.3541 16.0035 13.3541 16.0035 13.3541Z" fill="black"/>
<path d="M17.9956 13.5531C17.896 13.5531 17.7963 13.5531 17.6966 13.4535C17.4973 13.2541 17.3976 12.9551 17.5969 12.7557C18.6934 11.2606 19.8895 10.0645 21.3846 8.96804C21.584 8.76868 21.883 8.86837 22.0824 9.06772C22.2817 9.26707 22.182 9.5661 21.9827 9.76545C20.5872 10.7622 19.3911 11.9583 18.3944 13.3538C18.2947 13.5531 18.195 13.5531 17.9956 13.5531Z" fill="black"/>
<path d="M17.2982 17.84C17.1985 17.84 17.0988 17.84 16.9991 17.7403C16.7998 17.5409 16.7998 17.2419 16.8995 17.0426C17.8962 15.7468 19.0923 14.6503 20.4878 13.6536C20.6871 13.4542 20.9862 13.5539 21.1855 13.7533C21.3849 13.9526 21.2852 14.2516 21.0858 14.451C19.7901 15.3481 18.6936 16.4445 17.6969 17.6406C17.5972 17.84 17.3978 17.84 17.2982 17.84Z" fill="black"/>
<path d="M15.7038 18.5372C15.5044 18.5372 15.4047 18.4376 15.3051 18.3379C14.109 16.3444 13.1122 14.2512 12.2151 12.158C12.1154 11.8589 12.2151 11.6596 12.5141 11.4602C12.8132 11.3606 13.0125 11.4602 13.2119 11.7593C14.109 13.8525 15.1057 15.846 16.3018 17.8395C16.4015 18.0389 16.4015 18.3379 16.1025 18.5372C15.8034 18.5372 15.7038 18.5372 15.7038 18.5372Z" fill="black"/>
<path d="M10.122 20.2319C10.0223 20.2319 9.82295 20.1322 9.72328 20.0326C9.2249 19.4345 8.62684 18.6371 8.02878 17.8397C6.03526 15.3478 3.54336 12.1582 1.64951 10.1646C1.45016 9.96529 1.45016 9.66625 1.64951 9.4669C1.84887 9.26754 2.1479 9.26754 2.34725 9.4669C4.2411 11.4604 6.733 14.6501 8.82619 17.142C9.42425 17.9394 10.0223 18.6371 10.5207 19.3348C10.72 19.5342 10.6204 19.8332 10.421 20.0326C10.3213 20.2319 10.2217 20.2319 10.122 20.2319Z" fill="black"/>
<path d="M6.63212 14.6499C6.43277 14.6499 6.23342 14.4506 6.13374 14.2512C5.83471 12.8557 5.73504 10.6629 6.03407 9.2674C6.03407 8.96837 6.33309 8.76903 6.63212 8.8687C6.93115 8.8687 7.1305 9.16772 7.03083 9.46675C6.83148 10.7625 6.93115 12.8557 7.1305 14.1515C7.23018 14.4506 7.03083 14.6499 6.7318 14.7496C6.63213 14.6499 6.63212 14.6499 6.63212 14.6499Z" fill="black"/>
<path d="M8.327 18.0386C8.22733 18.0386 8.12765 18.0386 8.02797 17.9389C6.73218 17.1415 4.83834 16.5435 3.14385 16.0451C2.74514 15.9454 2.34644 15.7461 1.94774 15.6464C1.64871 15.5467 1.54903 15.2477 1.64871 15.0483C1.74838 14.7493 2.04742 14.6496 2.24677 14.7493C2.64547 14.849 3.04417 14.9487 3.44288 15.148C5.13737 15.6464 7.13089 16.2444 8.52635 17.1415C8.72571 17.2412 8.82539 17.6399 8.72571 17.8393C8.62603 17.9389 8.52636 18.0386 8.327 18.0386Z" fill="black"/>
</svg>
