<svg width="24" height="24" viewBox="0 0 24 24" fill="none" xmlns="http://www.w3.org/2000/svg">
<path d="M19.331 18.1929C20.4305 16.1939 21.3301 13.9949 21.9298 11.696C22.4295 9.697 22.5295 7.29814 21.1301 5.69891C20.0307 4.29958 18.0316 4.09967 16.7323 5.19915C16.3324 4.49948 15.7327 3.99972 15.0331 3.89977C14.5333 3.79981 13.9336 3.89977 13.4338 4.19963C13.034 3.69987 12.5343 3.30005 11.9345 3.10015C10.7351 2.70034 9.43575 3.00021 8.53618 3.79982C7.83651 2.90025 6.33723 2.70035 5.33771 3.30006C3.73848 4.19963 2.93886 6.49853 2.33915 8.29767C1.63948 10.1968 1.23967 12.2958 1.03977 14.2948C0.939814 15.994 0.939805 17.993 2.13923 19.2924C3.0388 20.192 4.43814 20.5918 5.53761 19.9921C5.93742 21.0915 6.73704 22.0911 7.83652 22.3909C8.93599 22.7907 10.1354 22.4909 11.1349 21.6913C11.9345 22.8907 13.5338 23.2905 14.8332 22.7907C16.9322 22.0911 18.3315 19.9921 19.331 18.1929Z" fill="#F8CD3D"/>
<path d="M19.0318 6.99713C17.7324 6.29747 16.533 5.69774 14.9337 5.59779C15.0337 5.19798 15.8333 2.59923 16.0332 1.3998C15.5335 1.1999 15.1336 1.09995 14.6339 1C14.2341 2.29938 13.8343 3.59876 13.2346 4.79819C11.6353 3.89862 9.73622 3.79866 7.93708 4.49833C7.43732 4.69823 7.63723 5.3979 8.03704 5.49785C9.03657 5.69775 10.0361 6.09756 10.8357 6.69727C9.93614 7.99665 9.33642 9.39598 8.83666 10.8953C8.73671 11.395 9.23646 11.7948 9.63627 11.495C10.7357 10.4955 11.8352 9.69583 13.0347 9.09612C13.8343 10.0956 14.5339 11.0952 15.2336 12.0947C15.5335 12.4945 16.1332 12.1946 16.0332 11.6949C15.8333 10.5954 15.5334 9.59588 15.1336 8.59636C16.3331 8.39645 17.5325 8.19656 18.7319 7.99665C19.2317 7.8967 19.4316 7.19704 19.0318 6.99713Z" fill="#32B2A8"/>
<path d="M5.53687 20.6904C5.23701 20.6904 5.03711 20.4905 5.03711 20.1906C5.13706 17.5918 5.73677 14.9931 6.93619 12.6942C7.03615 12.4943 7.336 12.3943 7.63586 12.4943C7.83576 12.5942 7.93573 12.8941 7.83577 13.194C6.7363 15.3929 6.03663 17.7918 6.03663 20.1906C6.03663 20.3905 5.83673 20.6904 5.53687 20.6904Z" fill="black"/>
<path d="M11.3358 22.1894C11.2359 22.1894 11.1359 22.1894 11.036 22.0895C10.8361 21.9895 10.7361 21.6897 10.8361 21.3898C12.3354 18.891 13.3349 16.0923 14.3344 13.4936C14.4344 13.1937 14.7342 13.0938 14.9341 13.1937C15.234 13.2937 15.3339 13.5935 15.234 13.7935C14.2345 16.4922 13.135 19.2908 11.6357 21.8896C11.7356 22.0895 11.5358 22.1894 11.3358 22.1894Z" fill="black"/>
</svg>
