<svg width="24" height="24" viewBox="0 0 24 24" fill="none" xmlns="http://www.w3.org/2000/svg">
<path d="M22.1574 2.48946C21.0831 0.340732 18.8367 0.829079 17.1763 2.00111C14.5392 3.85683 13.5625 6.68923 13.5625 9.71698C13.5625 10.889 13.7578 12.1587 14.0508 13.3307C14.3439 14.6981 14.9299 15.7725 15.5159 16.9445C15.5159 16.9445 15.5159 16.9445 15.6136 16.9445C15.8089 17.1398 16.0042 17.2375 16.2973 17.3352C17.274 17.6282 18.3483 17.3352 19.1297 16.7492C21.083 15.4795 22.1574 13.3307 22.5481 11.0843C22.7434 9.91232 22.7434 8.74029 22.7434 7.56826C22.9388 5.81021 22.9388 4.05217 22.1574 2.48946Z" fill="#32B2A8"/>
<path d="M12.6819 17.4331C12.0959 13.7216 10.6309 10.0102 8.87281 6.59177C8.77514 6.4941 8.67748 6.29876 8.57981 6.29876C8.28681 5.81041 7.89612 5.41974 7.50545 5.02906C6.43108 3.9547 4.67303 3.36869 3.40332 4.63839C3.01265 5.02906 2.81732 5.51741 2.62198 6.00576C1.9383 7.56847 2.03595 9.42418 2.32896 10.9869C2.71963 13.2333 3.794 15.4797 5.35671 17.1401C6.23573 18.1167 7.79845 19.6795 9.36116 19.8748C9.94717 20.0701 10.5332 20.1678 11.1192 20.0701C12.4866 19.9725 12.8772 18.6051 12.6819 17.4331Z" fill="#32B2A8"/>
<path d="M16.2969 21.7307C16.0039 21.7307 15.8086 21.4377 15.8086 21.1447L17.176 11.2801C17.5666 8.1547 18.055 4.83395 19.227 1.8062C19.3247 1.51319 19.6177 1.41552 19.813 1.51319C20.106 1.61086 20.2037 1.90386 20.106 2.09919C18.934 5.02927 18.5433 8.25237 18.1527 11.3778L16.7853 21.2424C16.7853 21.5354 16.5899 21.7307 16.2969 21.7307Z" fill="black"/>
<path d="M13.8541 22.9998C13.6588 22.9998 13.5611 22.9021 13.4634 22.8044C10.1427 17.0419 6.91956 11.0841 3.98949 5.1263C3.89182 4.93096 3.9895 4.63795 4.18484 4.44261C4.38017 4.34494 4.67316 4.44261 4.8685 4.63795C7.79858 10.5958 11.0217 16.5536 14.3424 22.2184C14.4401 22.4138 14.4401 22.7068 14.1471 22.9021C13.9517 22.9998 13.8541 22.9998 13.8541 22.9998Z" fill="black"/>
<path d="M7.70143 11.9638C7.60376 11.9638 7.50611 11.9638 7.50611 11.8661C7.11544 11.6708 5.84574 11.1824 4.57604 10.7917C3.79468 10.4987 3.01331 10.2057 2.32962 10.0104C2.03662 9.91271 1.93896 9.6197 2.03663 9.42436C2.1343 9.13136 2.42731 9.03368 2.62265 9.13135C3.30633 9.42436 4.08768 9.6197 4.86903 9.91271C6.2364 10.4011 7.40844 10.7917 7.89678 11.0847C8.09212 11.1824 8.1898 11.4754 8.09213 11.7684C7.99447 11.8661 7.89677 11.9638 7.70143 11.9638Z" fill="black"/>
<path d="M7.70124 11.4754C7.40823 11.4754 7.21289 11.2801 7.21289 10.987C7.21289 10.3034 7.31057 9.42434 7.40824 8.54531C7.50591 7.66629 7.60359 6.78727 7.60359 6.10358C7.60359 5.81057 7.79893 5.61523 8.09194 5.61523C8.38495 5.61523 8.58028 5.81057 8.58028 6.10358C8.58028 6.78727 8.4826 7.66629 8.38493 8.54531C8.28726 9.42434 8.18958 10.3034 8.18958 10.987C8.18958 11.2801 7.89658 11.4754 7.70124 11.4754Z" fill="black"/>
<path d="M10.9256 17.8235C10.8279 17.8235 10.8279 17.8235 10.7302 17.8235C10.1442 17.6282 9.36287 17.3352 8.48385 17.1398C7.01881 16.6515 5.35841 16.1631 4.28405 15.6748C4.08871 15.5771 3.89339 15.2841 4.08873 14.9911C4.1864 14.7958 4.47939 14.6004 4.7724 14.7958C5.74909 15.2841 7.40947 15.7725 8.77684 16.1631C9.65587 16.4561 10.4372 16.6515 11.0233 16.8468C11.3163 16.9445 11.4139 17.2375 11.3162 17.4328C11.3162 17.7258 11.1209 17.8235 10.9256 17.8235Z" fill="black"/>
<path d="M10.9251 17.7254C10.6321 17.7254 10.4368 17.5301 10.4368 17.2371C10.3391 15.9674 10.4367 13.5256 10.6321 12.2559C10.6321 11.9629 10.9251 11.7676 11.2181 11.8653C11.5111 11.8653 11.7064 12.1583 11.6088 12.4513C11.4134 13.6233 11.3158 16.065 11.4134 17.2371C11.4134 17.4324 11.2181 17.7254 10.9251 17.7254Z" fill="black"/>
<path d="M17.8593 9.71714C17.664 9.71714 17.5663 9.61947 17.4686 9.5218C16.4919 7.95909 15.5152 5.81037 14.8315 4.14999C14.7339 3.85698 14.8315 3.66164 15.1245 3.56397C15.4176 3.4663 15.6129 3.56397 15.7106 3.85698C16.2966 5.51736 17.371 7.56842 18.25 9.03345C18.3476 9.22879 18.3476 9.5218 18.0546 9.71714C18.0546 9.61947 17.957 9.71714 17.8593 9.71714Z" fill="black"/>
<path d="M17.8585 9.71647C17.6632 9.71647 17.5655 9.61881 17.4678 9.52114C17.2725 9.3258 17.3701 9.03279 17.5655 8.83746L17.7608 8.73978C19.2259 7.66542 20.9839 6.49339 21.9606 5.12602C22.1559 4.93068 22.449 4.83301 22.6443 5.02835C22.8396 5.22369 22.9373 5.5167 22.742 5.71203C21.6676 7.27474 19.9096 8.44677 18.3468 9.52114L18.1515 9.6188C18.0538 9.6188 17.9562 9.71647 17.8585 9.71647Z" fill="black"/>
<path d="M17.1756 15.1866C17.0779 15.1866 16.8826 15.0889 16.7849 14.9912C15.5152 13.4285 13.7572 11.2798 13.0735 9.81478C12.9758 9.61944 13.0735 9.32643 13.2688 9.13109C13.4642 9.03342 13.7572 9.13109 13.9525 9.32643C14.5385 10.4008 15.7105 12.1588 17.5663 14.3076C17.7616 14.5029 17.7616 14.7959 17.4686 14.9912C17.3709 15.1866 17.2733 15.1866 17.1756 15.1866Z" fill="black"/>
<path d="M17.1749 15.1861C16.9795 15.1861 16.8819 15.0885 16.7842 14.9908C16.5889 14.7955 16.6865 14.5025 16.8819 14.3071C17.5656 13.8188 18.4446 13.2327 19.2259 12.6467C20.105 12.0607 20.984 11.4747 21.57 10.9864C21.7653 10.791 22.0584 10.8887 22.2537 11.084C22.449 11.2794 22.3514 11.5724 22.156 11.7677C21.4723 12.2561 20.5933 12.8421 19.812 13.4281C18.9329 14.0141 18.0539 14.6001 17.4679 15.0885C17.3702 15.1861 17.2725 15.1861 17.1749 15.1861Z" fill="black"/>
</svg>
