<svg width="24" height="24" viewBox="0 0 24 24" fill="none" xmlns="http://www.w3.org/2000/svg">
<path d="M17.1719 14.5442C16.4719 13.2442 15.4719 12.0442 14.0719 11.5442C12.6719 11.0442 11.0719 11.2442 9.8719 12.1442C9.7719 12.2442 9.67192 12.2442 9.57192 12.3442C8.57192 12.9442 7.7719 13.8442 7.3719 14.9442C6.6719 16.6442 6.97191 18.6442 8.17191 20.0442C10.0719 22.1442 13.1719 22.4442 15.2719 20.9442C17.5719 19.8442 18.3719 16.9442 17.1719 14.5442Z" fill="#F8CD3D"/>
<path d="M11.6725 11.4444C11.9725 11.7444 12.0725 11.8444 12.4725 11.7444C12.7725 11.6444 12.9726 11.4444 13.0726 11.1444C14.7726 8.14444 15.6725 4.84445 15.6725 1.44445C15.6725 1.04445 15.1725 0.844444 14.8725 1.14444C13.7725 2.34444 13.3725 3.84445 12.8725 5.44445C12.7725 5.94445 12.6726 6.34445 12.5726 6.84445C12.5726 5.04445 12.3725 3.14444 11.9725 1.34444C11.8725 1.04444 11.5725 0.944453 11.3725 1.04445C11.1725 1.04445 11.0726 1.24445 11.0726 1.44445C11.0726 3.64445 11.4725 5.74445 11.6725 7.84445C11.1725 5.74445 10.4726 3.64444 9.57255 1.64444C9.57255 1.54444 9.47255 1.44445 9.47255 1.44445C9.47255 1.34445 9.37254 1.24445 9.37254 1.24445C9.17254 0.84445 8.57255 1.04445 8.57255 1.44445C8.37255 4.44445 9.37255 7.24445 10.4725 9.94445C10.7725 10.4444 11.1725 11.0444 11.6725 11.4444Z" fill="#32B2A8"/>
<path d="M10.8723 23.0448C10.6723 23.0448 10.5723 22.9448 10.4723 22.8448C10.2723 22.6448 10.3723 22.3448 10.5723 22.1448L11.8723 21.2448C12.0723 21.0448 12.3723 21.1448 12.5723 21.3448C12.7723 21.5448 12.6723 21.8448 12.4723 22.0448L11.1723 22.9448C11.0723 23.0448 10.9723 23.0448 10.8723 23.0448Z" fill="black"/>
<path d="M14.4727 22.9448C14.3727 22.9448 14.3727 22.9448 14.2727 22.9448C13.7727 22.7448 13.2727 22.3448 12.8727 21.9448C12.6727 21.7448 12.7727 21.4448 12.9727 21.2448C13.1727 21.0448 13.4727 21.1448 13.6727 21.3448C13.9727 21.6448 14.2727 21.9448 14.6727 22.0448C14.9727 22.1448 15.0727 22.4448 14.9727 22.7448C14.8727 22.8448 14.6727 22.9448 14.4727 22.9448Z" fill="black"/>
<path d="M12.8715 23.4447C12.5715 23.4447 12.3715 23.2447 12.3715 22.9447L12.2715 22.3447C12.2715 22.0447 12.4715 21.8447 12.6715 21.8447C12.9715 21.8447 13.1715 22.0447 13.1715 22.2447L13.2715 22.8447C13.3715 23.1447 13.1715 23.4447 12.8715 23.4447Z" fill="black"/>
</svg>
